<?xml version="1.0" encoding="UTF-8"?>
<svg xmlns="http://www.w3.org/2000/svg" width="354" height="60" viewBox="0 0 354 60" fill="none">
  <rect y="0.000610352" width="354" height="60" fill="#F9C822"></rect>
  <mask id="mask0_980_431" style="mask-type:alpha" maskUnits="userSpaceOnUse" x="0" y="0" width="354" height="61">
    <rect y="0.000610352" width="354" height="60" fill="#FF9620"></rect>
  </mask>
  <g mask="url(#mask0_980_431)">
    <path d="M386.359 50.3047L377.79 42.1077H389.903V36.9198H377.79L386.359 28.7229L392 23.3274V5.16966L386.359 -0.225777L377.79 -8.42271H389.903V-13.6106H377.79L386.359 -21.8076L392 -27.203V-45.3608L386.359 -50.7562L377.79 -58.9532H389.903V-64.1411H377.79L386.359 -72.338L392 -77.7335V-95.8566L386.359 -101.252L378.26 -108.999H364.267L356.167 -101.252L347.598 -93.0552V-104.642H342.174V-93.0552L333.604 -101.252L325.505 -108.999H311.511L303.412 -101.252L294.842 -93.0552V-104.642H289.419V-93.0552L280.849 -101.252L272.75 -108.999H258.756L250.657 -101.252L242.087 -93.0552V-104.642H236.664V-93.0552L228.094 -101.252L219.995 -108.999H206.001L197.902 -101.252L189.332 -93.0552V-104.642H183.908V-93.0552L175.339 -101.252L167.239 -108.999H153.246L145.147 -101.252L136.577 -93.0552V-104.642H131.153V-93.0552L122.584 -101.252L114.484 -108.999H100.491L92.3916 -101.252L83.822 -93.0552V-104.642H78.3983V-93.0552L69.8287 -101.252L61.7292 -108.999H47.736L39.6365 -101.252L31.0669 -93.0552V-104.642H25.6432V-93.0552L17.0736 -101.252L8.57642 -108.999H-5.41688L-13.5525 -101.252L-18 -96.998V-89.6657L-9.71973 -97.5859L-1.15019 -105.783V-94.1965H4.27357V-105.783L12.8431 -97.5859L21.4126 -89.389H9.29959V-84.2011H21.4126L12.8431 -76.0042L4.27357 -67.8072V-79.3936H-1.15019V-67.8072L-9.71973 -76.0042L-18 -83.9244V-76.5921L-13.5525 -72.338L-4.98298 -64.1411H-17.096V-58.9532H-4.98298L-13.5525 -50.7562L-18 -46.5021V-39.1698L-9.71973 -47.0901L-1.15019 -55.287V-43.7006H4.27357V-55.287L12.8431 -47.0901L21.4126 -38.8932H9.29959V-33.7052H21.4126L12.8431 -25.5083L4.27357 -17.3114V-28.8977H-1.15019V-17.3114L-9.71973 -25.5083L-18 -33.4285V-26.0963L-13.5525 -21.8422L-4.98298 -13.6452H-17.096V-8.4573H-4.98298L-13.5525 -0.260368L-18 3.99373V11.326L-9.71973 3.40576L-1.15019 -4.79116V6.79522H4.27357V-4.79116L12.8431 3.40576L21.4126 11.6027H9.29959V16.7906H21.4126L12.8431 24.9876L4.27357 33.1845V21.5981H-1.15019V33.1845L-9.71973 24.9876L-18 17.0673V24.3996L-13.5525 28.6537L-4.98298 36.8506H-17.096V42.0386H-4.98298L-13.5525 50.2355L-18 54.4896V61.8219L-9.71973 53.9016L-1.15019 45.7047V57.2911H4.27357V45.7047L12.8431 53.9016L21.4126 62.0986H9.29959V67.2865H21.4126L12.8431 75.4834L4.27357 83.6803V72.094H-1.15019V83.6803L-9.71973 75.4834L-18 67.5632V74.8954L-13.5525 79.1496L-5.34456 87.0006H8.46794L16.6759 79.1496L25.2454 70.9526V82.539H30.6692V70.9526L39.2387 79.1496L47.4467 87.0006H61.2592L69.4671 79.1496L78.0367 70.9526V82.539H83.4604V70.9526L92.03 79.1496L100.238 87.0006H114.05L122.258 79.1496L130.828 70.9526V82.539H136.252V70.9526L144.821 79.1496L153.029 87.0006H166.842L175.05 79.1496L183.619 70.9526V82.539H189.043V70.9526L197.613 79.1496L205.82 87.0006H219.633L227.841 79.1496L236.41 70.9526V82.539H241.834V70.9526L250.404 79.1496L258.612 87.0006H272.424L280.632 79.1496L289.202 70.9526V82.539H294.625V70.9526L303.195 79.1496L311.403 87.0006H325.215L333.423 79.1496L341.993 70.9526V82.539H347.417V70.9526L355.986 79.1496L364.194 87.0006H378.007L386.215 79.1496L391.855 73.7541V55.5963L386.215 50.2009L386.359 50.3047ZM382.526 3.44035L391.096 11.6373H378.983V16.8252H391.096L382.526 25.0221L373.957 33.2191V21.6327H368.533V33.2191L359.964 25.0221L351.394 16.8252H363.507V11.6373H351.394L359.964 3.44035L368.533 -4.75658V6.82981H373.957V-4.75658L382.526 3.44035ZM342.138 -3.61523V7.97115L333.568 -0.225777L324.999 -8.42271H337.112V-13.6106H324.999L333.568 -21.8076L342.138 -30.0045V-18.4181H347.561V-30.0045L356.131 -21.8076L364.7 -13.6106H352.587V-8.42271H364.7L356.131 -0.225777L347.561 7.97115V-3.61523H342.138ZM338.305 16.8252L329.735 25.0221L321.166 33.2191V21.6327H315.742V33.2191L307.172 25.0221L298.603 16.8252H310.716V11.6373H298.603L307.172 3.44035L315.742 -4.75658V6.82981H321.166V-4.75658L329.735 3.44035L338.305 11.6373H326.192V16.8252H338.305ZM289.31 -3.61523V7.97115L280.741 -0.225777L272.171 -8.42271H284.284V-13.6106H272.171L280.741 -21.8076L289.31 -30.0045V-18.4181H294.734V-30.0045L303.303 -21.8076L311.873 -13.6106H299.76V-8.42271H311.873L303.303 -0.225777L294.734 7.97115V-3.61523H289.31ZM273.364 16.8252H285.477L276.908 25.0221L268.338 33.2191V21.6327H262.915V33.2191L254.345 25.0221L245.775 16.8252H257.889V11.6373H245.775L254.345 3.44035L262.915 -4.75658V6.82981H268.338V-4.75658L276.908 3.44035L285.477 11.6373H273.364V16.8252ZM236.519 -3.61523V7.97115L227.949 -0.225777L219.38 -8.42271H231.493V-13.6106H219.38L227.949 -21.8076L236.519 -30.0045V-18.4181H241.943V-30.0045L250.512 -21.8076L259.082 -13.6106H246.969V-8.42271H259.082L250.512 -0.225777L241.943 7.97115V-3.61523H236.519ZM210.087 21.6327V33.2191L201.518 25.0221L192.948 16.8252H205.061V11.6373H192.948L201.518 3.44035L210.087 -4.75658V6.82981H215.511V-4.75658L224.08 3.44035L232.65 11.6373H220.537V16.8252H232.65L224.08 25.0221L215.511 33.2191V21.6327H210.087ZM183.692 -3.61523V7.97115L175.122 -0.225777L166.552 -8.42271H178.665V-13.6106H166.552L175.122 -21.8076L183.692 -30.0045V-18.4181H189.115V-30.0045L197.685 -21.8076L206.254 -13.6106H194.141V-8.42271H206.254L197.685 -0.225777L189.115 7.97115V-3.61523H183.692ZM167.746 16.8252H179.859L171.289 25.0221L162.72 33.2191V21.6327H157.296V33.2191L148.726 25.0221L140.157 16.8252H152.27V11.6373H140.157L148.726 3.44035L157.296 -4.75658V6.82981H162.72V-4.75658L171.289 3.44035L179.859 11.6373H167.746V16.8252ZM78.0729 -3.61523V7.97115L69.5033 -0.225777L60.9338 -8.42271H73.0468V-13.6106H60.9338L69.5033 -21.8076L78.0729 -30.0045V-18.4181H83.4966V-30.0045L92.0661 -21.8076L100.636 -13.6106H88.5226V-8.42271H100.636L92.0661 -0.225777L83.4966 7.97115V-3.61523H78.0729ZM74.2401 16.8252L65.6705 25.0221L57.101 33.2191V21.6327H51.6772V33.2191L43.1077 25.0221L34.5381 16.8252H46.6512V11.6373H34.5381L43.1077 3.44035L51.6772 -4.75658V6.82981H57.101V-4.75658L65.6705 3.44035L74.2401 11.6373H62.127V16.8252H74.2401ZM46.6512 -38.8586H34.5381L43.1077 -47.0555L51.6772 -55.2524V-43.6661H57.101V-55.2524L65.6705 -47.0555L74.2401 -38.8586H62.127V-33.6706H74.2401L65.6705 -25.4737L57.101 -17.2768V-28.8632H51.6772V-17.2768L43.1077 -25.4737L34.5381 -33.6706H46.6512V-38.8586ZM99.4425 -38.8586H87.3294L95.8989 -47.0555L104.468 -55.2524V-43.6661H109.892V-55.2524L118.462 -47.0555L127.031 -38.8586H114.918V-33.6706H127.031L118.462 -25.4737L109.892 -17.2768V-28.8632H104.468V-17.2768L95.8989 -25.4737L87.3294 -33.6706H99.4425V-38.8586ZM99.4425 11.6719H87.3294L95.8989 3.47494L104.468 -4.72198V6.86439H109.892V-4.72198L118.462 3.47494L127.031 11.6719H114.918V16.8598H127.031L118.462 25.0567L109.892 33.2537V21.6673H104.468V33.2537L95.8989 25.0567L87.3294 16.8598H99.4425V11.6719ZM122.295 -0.225777L113.725 -8.42271H125.838V-13.6106H113.725L122.295 -21.8076L130.864 -30.0045V-18.4181H136.288V-30.0045L144.857 -21.8076L153.427 -13.6106H141.314V-8.42271H153.427L144.857 -0.225777L136.288 7.97115V-3.61523H130.864V7.97115L122.295 -0.225777ZM162.72 -43.6661V-55.2524L171.289 -47.0555L179.859 -38.8586H167.746V-33.6706H179.859L171.289 -25.4737L162.72 -17.2768V-28.8632H157.296V-17.2768L148.726 -25.4737L140.157 -33.6706H152.27V-38.8586H140.157L148.726 -47.0555L157.296 -55.2524V-43.6661H162.72ZM215.511 -43.6661V-55.2524L224.08 -47.0555L232.65 -38.8586H220.537V-33.6706H232.65L224.08 -25.4737L215.511 -17.2768V-28.8632H210.087V-17.2768L201.518 -25.4737L192.948 -33.6706H205.061V-38.8586H192.948L201.518 -47.0555L210.087 -55.2524V-43.6661H215.511ZM285.477 -33.6706L276.908 -25.4737L268.338 -17.2768V-28.8632H262.915V-17.2768L254.345 -25.4737L245.775 -33.6706H257.889V-38.8586H245.775L254.345 -47.0555L262.915 -55.2524V-43.6661H268.338V-55.2524L276.908 -47.0555L285.477 -38.8586H273.364V-33.6706H285.477ZM298.567 -38.8586L307.136 -47.0555L315.706 -55.2524V-43.6661H321.13V-55.2524L329.699 -47.0555L338.269 -38.8586H326.156V-33.6706H338.269L329.699 -25.4737L321.13 -17.2768V-28.8632H315.706V-17.2768L307.136 -25.4737L298.567 -33.6706H310.68V-38.8586H298.567ZM382.526 -47.0555L391.096 -38.8586H378.983V-33.6706H391.096L382.526 -25.4737L373.957 -17.2768V-28.8632H368.533V-17.2768L359.964 -25.4737L351.394 -33.6706H363.507V-38.8586H351.394L359.964 -47.0555L368.533 -55.2524V-43.6661H373.957V-55.2524L382.526 -47.0555ZM363.507 -89.3544H351.394L359.964 -97.5514L368.533 -105.748V-94.1619H373.957V-105.783L382.526 -97.5859L391.096 -89.389H378.983V-84.2011H391.096L382.526 -76.0042L373.957 -67.8072V-79.3936H368.533V-67.8072L359.964 -76.0042L351.394 -84.2011H363.507V-89.389V-89.3544ZM347.561 -68.914V-80.5004L356.131 -72.3034L364.7 -64.1065H352.587V-58.9186H364.7L356.131 -50.7216L347.561 -42.5247V-54.1111H342.138V-42.5247L333.568 -50.7216L324.999 -58.9186H337.112V-64.1065H324.999L333.568 -72.3034L342.138 -80.5004V-68.914H347.561ZM298.567 -89.3544L307.136 -97.5514L315.706 -105.748V-94.1619H321.13V-105.783L329.699 -97.5859L338.269 -89.389H326.156V-84.2011H338.269L329.699 -76.0042L321.13 -67.8072V-79.3936H315.706V-67.8072L307.136 -76.0042L298.567 -84.2011H310.68V-89.389H298.567V-89.3544ZM289.31 -68.914H294.734V-80.5004L303.303 -72.3034L311.873 -64.1065H299.76V-58.9186H311.873L303.303 -50.7216L294.734 -42.5247V-54.1111H289.31V-42.5247L280.741 -50.7216L272.171 -58.9186H284.284V-64.1065H272.171L280.741 -72.3034L289.31 -80.5004V-68.914ZM254.345 -97.5859L262.915 -105.783V-94.1965H268.338V-105.783L276.908 -97.5859L285.477 -89.389H273.364V-84.2011H285.477L276.908 -76.0042L268.338 -67.8072V-79.3936H262.915V-67.8072L254.345 -76.0042L245.775 -84.2011H257.889V-89.389H245.775L254.345 -97.5859ZM241.943 -68.914V-80.5004L250.512 -72.3034L259.082 -64.1065H246.969V-58.9186H259.082L250.512 -50.7216L241.943 -42.5247V-54.1111H236.519V-42.5247L227.949 -50.7216L219.38 -58.9186H231.493V-64.1065H219.38L227.949 -72.3034L236.519 -80.5004V-68.914H241.943ZM201.518 -97.5859L210.087 -105.783V-94.1965H215.511V-105.783L224.08 -97.5859L232.65 -89.389H220.537V-84.2011H232.65L224.08 -76.0042L215.511 -67.8072V-79.3936H210.087V-67.8072L201.518 -76.0042L192.948 -84.2011H205.061V-89.389H192.948L201.518 -97.5859ZM183.692 -68.914H189.115V-80.5004L197.685 -72.3034L206.254 -64.1065H194.141V-58.9186H206.254L197.685 -50.7216L189.115 -42.5247V-54.1111H183.692V-42.5247L175.122 -50.7216L166.552 -58.9186H178.665V-64.1065H166.552L175.122 -72.3034L183.692 -80.5004V-68.914ZM152.27 -89.3544H140.157L148.726 -97.5514L157.296 -105.748V-94.1619H162.72V-105.783L171.289 -97.5859L179.859 -89.389H167.746V-84.2011H179.859L171.289 -76.0042L162.72 -67.8072V-79.3936H157.296V-67.8072L148.726 -76.0042L140.157 -84.2011H152.27V-89.389V-89.3544ZM136.324 -68.914V-80.5004L144.894 -72.3034L153.463 -64.1065H141.35V-58.9186H153.463L144.894 -50.7216L136.324 -42.5247V-54.1111H130.9V-42.5247L122.331 -50.7216L113.761 -58.9186H125.874V-64.1065H113.761L122.331 -72.3034L130.9 -80.5004V-68.914H136.324ZM95.8989 -97.5859L104.468 -105.783V-94.1965H109.892V-105.783L118.462 -97.5859L127.031 -89.389H114.918V-84.2011H127.031L118.462 -76.0042L109.892 -67.8072V-79.3936H104.468V-67.8072L95.8989 -76.0042L87.3294 -84.2011H99.4425V-89.389H87.3294L95.8989 -97.5859ZM83.4966 -68.914V-80.5004L92.0661 -72.3034L100.636 -64.1065H88.5226V-58.9186H100.636L92.0661 -50.7216L83.4966 -42.5247V-54.1111H78.0729V-42.5247L69.5033 -50.7216L60.9338 -58.9186H73.0468V-64.1065H60.9338L69.5033 -72.3034L78.0729 -80.5004V-68.914H83.4966ZM46.6512 -89.3544H34.5381L43.1077 -97.5514L51.6772 -105.748V-94.1619H57.101V-105.783L65.6705 -97.5859L74.2401 -89.389H62.127V-84.2011H74.2401L65.6705 -76.0042L57.101 -67.8072V-79.3936H51.6772V-67.8072L43.1077 -76.0042L34.5381 -84.2011H46.6512V-89.389V-89.3544ZM16.7121 -50.7216L8.14252 -58.9186H20.2556V-64.1065H8.14252L16.7121 -72.3034L25.2816 -80.5004V-68.914H30.7054V-80.5004L39.2749 -72.3034L47.8444 -64.1065H35.7314V-58.9186H47.8444L39.2749 -50.7216L30.7054 -42.5247V-54.1111H25.2816V-42.5247L16.7121 -50.7216ZM16.7121 -0.225777L8.14252 -8.42271H20.2556V-13.6106H8.14252L16.7121 -21.8076L25.2816 -30.0045V-18.4181H30.7054V-30.0045L39.2749 -21.8076L47.8444 -13.6106H35.7314V-8.42271H47.8444L39.2749 -0.225777L30.7054 7.97115V-3.61523H25.2816V7.97115L16.7121 -0.225777ZM30.7054 58.5016V46.9152H25.2816V58.5016L16.7121 50.3047L8.14252 42.1077H20.2556V36.9198H8.14252L16.7121 28.7229L25.2816 20.526V32.1123H30.7054V20.526L39.2749 28.7229L47.8444 36.9198H35.7314V42.1077H47.8444L39.2749 50.3047L30.7054 58.5016ZM74.2401 67.3557L65.6705 75.5526L57.101 83.7495V72.1631H51.6772V83.7495L43.1077 75.5526L34.5381 67.3557H46.6512V62.1677H34.5381L43.1077 53.9708L51.6772 45.7739V57.3602H57.101V45.7739L65.6705 53.9708L74.2401 62.1677H62.127V67.3557H74.2401ZM83.4966 46.9152H78.0729V58.5016L69.5033 50.3047L60.9338 42.1077H73.0468V36.9198H60.9338L69.5033 28.7229L78.0729 20.526V32.1123H83.4966V20.526L92.0661 28.7229L100.636 36.9198H88.5226V42.1077H100.636L92.0661 50.3047L83.4966 58.5016V46.9152ZM127.067 67.3557L118.498 75.5526L109.928 83.7495V72.1631H104.505V83.7495L95.9351 75.5526L87.3656 67.3557H99.4786V62.1677H87.3656L95.9351 53.9708L104.505 45.7739V57.3602H109.928V45.7739L118.498 53.9708L127.067 62.1677H114.954V67.3557H127.067ZM136.324 46.9152H130.9V58.5016L122.331 50.3047L113.761 42.1077H125.874V36.9198H113.761L122.331 28.7229L130.9 20.526V32.1123H136.324V20.526L144.894 28.7229L153.463 36.9198H141.35V42.1077H153.463L144.894 50.3047L136.324 58.5016V46.9152ZM171.289 75.5526L162.72 83.7495V72.1631H157.296V83.7495L148.726 75.5526L140.157 67.3557H152.27V62.1677H140.157L148.726 53.9708L157.296 45.7739V57.3602H162.72V45.7739L171.289 53.9708L179.859 62.1677H167.746V67.3557H179.859L171.289 75.5526ZM189.115 46.9152H183.692V58.5016L175.122 50.3047L166.552 42.1077H178.665V36.9198H166.552L175.122 28.7229L183.692 20.526V32.1123H189.115V20.526L197.685 28.7229L206.254 36.9198H194.141V42.1077H206.254L197.685 50.3047L189.115 58.5016V46.9152ZM220.537 67.3557H232.65L224.08 75.5526L215.511 83.7495V72.1631H210.087V83.7495L201.518 75.5526L192.948 67.3557H205.061V62.1677H192.948L201.518 53.9708L210.087 45.7739V57.3602H215.511V45.7739L224.08 53.9708L232.65 62.1677H220.537V67.3557ZM236.519 46.9152V58.5016L227.949 50.3047L219.38 42.1077H231.493V36.9198H219.38L227.949 28.7229L236.519 20.526V32.1123H241.943V20.526L250.512 28.7229L259.082 36.9198H246.969V42.1077H259.082L250.512 50.3047L241.943 58.5016V46.9152H236.519ZM276.908 75.5526L268.338 83.7495V72.1631H262.915V83.7495L254.345 75.5526L245.775 67.3557H257.889V62.1677H245.775L254.345 53.9708L262.915 45.7739V57.3602H268.338V45.7739L276.908 53.9708L285.477 62.1677H273.364V67.3557H285.477L276.908 75.5526ZM289.31 46.9152V58.5016L280.741 50.3047L272.171 42.1077H284.284V36.9198H272.171L280.741 28.7229L289.31 20.526V32.1123H294.734V20.526L303.303 28.7229L311.873 36.9198H299.76V42.1077H311.873L303.303 50.3047L294.734 58.5016V46.9152H289.31ZM326.156 67.3557H338.269L329.699 75.5526L321.13 83.7495V72.1631H315.706V83.7495L307.136 75.5526L298.567 67.3557H310.68V62.1677H298.567L307.136 53.9708L315.706 45.7739V57.3602H321.13V45.7739L329.699 53.9708L338.269 62.1677H326.156V67.3557ZM347.561 58.5016V46.9152H342.138V58.5016L333.568 50.3047L324.999 42.1077H337.112V36.9198H324.999L333.568 28.7229L342.138 20.526V32.1123H347.561V20.526L356.131 28.7229L364.7 36.9198H352.587V42.1077H364.7L356.131 50.3047L347.561 58.5016ZM382.526 75.5526L373.957 83.7495V72.1631H368.533V83.7495L359.964 75.5526L351.394 67.3557H363.507V62.1677H351.394L359.964 53.9708L368.533 45.7739V57.3602H373.957V45.7739L382.526 53.9708L391.096 62.1677H378.983V67.3557H391.096L382.526 75.5526Z" fill="#ED9FA5"></path>
  </g>
</svg>
