<?xml version="1.0" encoding="UTF-8"?>
<svg xmlns="http://www.w3.org/2000/svg" width="49" height="21" viewBox="0 0 49 21" fill="none">
  <path d="M9.65282 11.0399H12.1853L10.3938 12.855L8.60228 14.6702V12.1043H7.47053L7.47053 14.6702L5.67903 12.855L3.88752 11.0399L6.41999 11.0399V9.89324L3.88752 9.89324L5.67903 8.07811L7.47053 6.26297L7.47053 8.82885H8.60228V6.26297L10.3938 8.07811L12.1853 9.89324H9.65282V11.0399ZM15.1644 5.45569H17.6968L15.9053 7.27082L14.1138 9.08595V6.52008L12.9821 6.52008V9.08595L11.1906 7.27082L9.39907 5.45569H11.9315V4.30901H9.39907L11.1906 2.49388L12.9821 0.67875V3.24461H14.1138V0.67875L15.9053 2.49388L17.6968 4.30901H15.1644V5.45569ZM15.1644 16.6242H17.6968L15.9053 18.4393L14.1138 20.2544V17.6885H12.9821V20.2544L11.1906 18.4393L9.39907 16.6242L11.9315 16.6242L11.9315 15.4775H9.39907L11.1906 13.6623L12.9821 11.8472V14.4131H14.1138V11.8472L15.9053 13.6623L17.6968 15.4775L15.1644 15.4775L15.1644 16.6242ZM20.6759 11.0399H23.2084L21.4169 12.855L19.6254 14.6702V12.1043H18.4936V14.6702L16.7021 12.855L14.9106 11.0399L17.4431 11.0399V9.89324L14.9106 9.89324L16.7021 8.07811L18.4936 6.26297V8.82885H19.6254V6.26297L21.4169 8.07811L23.2084 9.89324H20.6759V11.0399ZM26.1875 5.45569H28.7199L26.9284 7.27082L25.1369 9.08595V6.52008L24.0052 6.52008V9.08595L22.2137 7.27082L20.4222 5.45569H22.9546V4.30901H20.4222L22.2137 2.49388L24.0052 0.67875V3.24461H25.1369V0.67875L26.9284 2.49388L28.7199 4.30901H26.1875V5.45569ZM26.1875 16.6242H28.7199L26.9284 18.4393L25.1369 20.2544V17.6885H24.0052V20.2544L22.2137 18.4393L20.4222 16.6242H22.9546V15.4775H20.4222L22.2137 13.6623L24.0052 11.8472V14.4131H25.1369V11.8472L26.9284 13.6623L28.7199 15.4775L26.1875 15.4775V16.6242ZM31.699 11.0399H34.2315L32.44 12.855L30.6485 14.6702V12.1043H29.5167V14.6702L27.7252 12.855L25.9337 11.0399L28.4662 11.0399V9.89324L25.9337 9.89324L27.7252 8.07811L29.5167 6.26297V8.82885H30.6485V6.26297L32.44 8.07811L34.2315 9.89324H31.699V11.0399ZM37.2106 5.45569H39.743L37.9515 7.27082L36.16 9.08595V6.52008L35.0283 6.52008V9.08595L33.2368 7.27082L31.4453 5.45569H33.9777V4.30901H31.4453L33.2368 2.49388L35.0283 0.67875V3.24461H36.16V0.67875L37.9515 2.49388L39.743 4.30901H37.2106V5.45569ZM37.2106 16.6242H39.743L37.9515 18.4393L36.16 20.2544V17.6885H35.0283V20.2544L33.2368 18.4393L31.4453 16.6242L33.9777 16.6242V15.4775H31.4453L33.2368 13.6623L35.0283 11.8472V14.4131H36.16V11.8472L37.9515 13.6623L39.743 15.4775L37.2106 15.4775V16.6242ZM42.7221 11.0399H45.2546L43.4631 12.855L41.6716 14.6702V12.1043H40.5398V14.6702L38.7483 12.855L36.9568 11.0399L39.4893 11.0399V9.89324L36.9568 9.89324L38.7483 8.07811L40.5398 6.26297V8.82885H41.6716V6.26297L43.4631 8.07811L45.2546 9.89324H42.7221V11.0399ZM49 18.4136L48.9746 18.4393L47.1831 20.2544V17.6885H46.0514V20.2544L44.2599 18.4393L42.4684 16.6242H45.0008V15.4775H42.4684L44.2599 13.6623L46.0514 11.8472V14.4131H47.1831V11.8472L48.9746 13.6623L49 13.6829V12.0632L47.985 11.0348H49V9.88811H47.985L49 8.8597V7.23997L48.9746 7.26567L47.1831 9.08081V6.51494L46.0514 6.51494V9.08081L44.2599 7.26567L42.4684 5.45054H45.0008V4.30387H42.4684L44.2599 2.48873L46.0514 0.673603V3.23948H47.1831V0.673603L48.9746 2.48873L49 2.51445V0.894706L48.1169 0L45.1226 0L43.4631 1.68145L41.6716 3.49658V0.930704L40.5398 0.930704V3.49658L38.7483 1.68145L37.0888 0L34.0945 0L32.4349 1.68145L30.6434 3.49658V0.930704L29.5117 0.930704V3.49658L27.7201 1.68145L26.0606 0L23.0663 0L21.4067 1.68145L19.6152 3.49658V0.930704L18.4835 0.930704V3.49658L16.692 1.68145L15.0324 0L12.0381 0L10.3786 1.68145L8.58705 3.49658V0.930704L7.45531 0.930704L7.45531 3.49658L5.6638 1.68145L4.00425 0L1.00994 0L0 1.02326L0 2.64814L0.147177 2.49388L1.93868 0.67875L1.93868 3.24461H3.07043L3.07043 0.67875L4.86194 2.49388L6.65344 4.30901H4.12097V5.45569H6.65344L4.86194 7.27082L3.07043 9.08595L3.07043 6.52008L1.93868 6.52008L1.93868 9.08595L0.147177 7.27082L0 7.11655L0 8.73628L1.1419 9.89324H0L0 11.0399H1.1419L0 12.1969L0 13.8166L0.147177 13.6675L1.93868 11.8524L1.93868 14.4182H3.07043L3.07043 11.8524L4.86194 13.6675L6.65344 15.4826L4.12097 15.4826V16.6293H6.65344L4.86194 18.4444L3.07043 20.2595L3.07043 17.6937H1.93868L1.93868 20.2595L0.147177 18.4444L0 18.2902L0 19.9099L1.07592 21H3.9332L5.65872 19.2517L7.45023 17.4366L7.45023 20.0024H8.58198V17.4366L10.3735 19.2517L12.099 21H14.9563L16.6818 19.2517L18.4733 17.4366V20.0024H19.6051V17.4366L21.3966 19.2517L23.1272 21H25.9845L27.71 19.2517L29.5015 17.4366V20.0024H30.6332V17.4366L32.4248 19.2517L34.1503 21H37.0076L38.7331 19.2517L40.5246 17.4366V20.0024H41.6563V17.4366L43.4479 19.2517L45.1734 21H48.0307L48.9797 20.0333V18.4136H49Z" fill="#272525"></path>
</svg>
