<?xml version="1.0" encoding="UTF-8"?>
<svg xmlns="http://www.w3.org/2000/svg" width="354" height="60" viewBox="0 0 354 60" fill="none">
  <rect x="0.000152588" y="0.00158691" width="354" height="60" fill="#ED9FA5"></rect>
  <mask id="mask0_980_449" style="mask-type:alpha" maskUnits="userSpaceOnUse" x="0" y="0" width="355" height="61">
    <rect x="0.000152588" y="0.00158691" width="354" height="60" fill="#FF9620"></rect>
  </mask>
  <g mask="url(#mask0_980_449)">
    <path d="M386.36 50.3064L377.79 42.1094H389.903V36.9215H377.79L386.36 28.7246L392 23.3291V5.17136L386.36 -0.224074L377.79 -8.421H389.903V-13.6089H377.79L386.36 -21.8059L392 -27.2013V-45.3591L386.36 -50.7545L377.79 -58.9514H389.903V-64.1394H377.79L386.36 -72.3363L392 -77.7318V-95.8549L386.36 -101.25L378.26 -108.998H364.267L356.167 -101.25L347.598 -93.0534V-104.64H342.174V-93.0534L333.604 -101.25L325.505 -108.998H311.512L303.412 -101.25L294.843 -93.0534V-104.64H289.419V-93.0534L280.849 -101.25L272.75 -108.998H258.757L250.657 -101.25L242.088 -93.0534V-104.64H236.664V-93.0534L228.094 -101.25L219.995 -108.998H206.002L197.902 -101.25L189.332 -93.0534V-104.64H183.909V-93.0534L175.339 -101.25L167.24 -108.998H153.246L145.147 -101.25L136.577 -93.0534V-104.64H131.154V-93.0534L122.584 -101.25L114.485 -108.998H100.491L92.3918 -101.25L83.8223 -93.0534V-104.64H78.3985V-93.0534L69.829 -101.25L61.7295 -108.998H47.7362L39.6367 -101.25L31.0672 -93.0534V-104.64H25.6434V-93.0534L17.0739 -101.25L8.57669 -108.998H-5.41661L-13.5522 -101.25L-17.9997 -96.9963V-89.664L-9.71945 -97.5842L-1.14992 -105.781V-94.1948H4.27384V-105.781L12.8434 -97.5842L21.4129 -89.3873H9.29986V-84.1994H21.4129L12.8434 -76.0024L4.27384 -67.8055V-79.3919H-1.14992V-67.8055L-9.71945 -76.0024L-17.9997 -83.9227V-76.5904L-13.5522 -72.3363L-4.9827 -64.1394H-17.0958V-58.9514H-4.9827L-13.5522 -50.7545L-17.9997 -46.5004V-39.1681L-9.71945 -47.0884L-1.14992 -55.2853V-43.6989H4.27384V-55.2853L12.8434 -47.0884L21.4129 -38.8914H9.29986V-33.7035H21.4129L12.8434 -25.5066L4.27384 -17.3097V-28.896H-1.14992V-17.3097L-9.71945 -25.5066L-17.9997 -33.4268V-26.0946L-13.5522 -21.8405L-4.9827 -13.6435H-17.0958V-8.4556H-4.9827L-13.5522 -0.258666L-17.9997 3.99543V11.3277L-9.71945 3.40746L-1.14992 -4.78946V6.79692H4.27384V-4.78946L12.8434 3.40746L21.4129 11.6044H9.29986V16.7923H21.4129L12.8434 24.9893L4.27384 33.1862V21.5998H-1.14992V33.1862L-9.71945 24.9893L-17.9997 17.069V24.4013L-13.5522 28.6554L-4.9827 36.8523H-17.0958V42.0403H-4.9827L-13.5522 50.2372L-17.9997 54.4913V61.8236L-9.71945 53.9033L-1.14992 45.7064V57.2928H4.27384V45.7064L12.8434 53.9033L21.4129 62.1003H9.29986V67.2882H21.4129L12.8434 75.4851L4.27384 83.682V72.0957H-1.14992V83.682L-9.71945 75.4851L-17.9997 67.5649V74.8971L-13.5522 79.1513L-5.34429 87.0023H8.46822L16.6762 79.1513L25.2457 70.9543V82.5407H30.6695V70.9543L39.239 79.1513L47.447 87.0023H61.2595L69.4674 79.1513L78.037 70.9543V82.5407H83.4607V70.9543L92.0303 79.1513L100.238 87.0023H114.051L122.259 79.1513L130.828 70.9543V82.5407H136.252V70.9543L144.822 79.1513L153.029 87.0023H166.842L175.05 79.1513L183.619 70.9543V82.5407H189.043V70.9543L197.613 79.1513L205.821 87.0023H219.633L227.841 79.1513L236.411 70.9543V82.5407H241.834V70.9543L250.404 79.1513L258.612 87.0023H272.424L280.632 79.1513L289.202 70.9543V82.5407H294.626V70.9543L303.195 79.1513L311.403 87.0023H325.216L333.424 79.1513L341.993 70.9543V82.5407H347.417V70.9543L355.986 79.1513L364.194 87.0023H378.007L386.215 79.1513L391.856 73.7558V55.598L386.215 50.2026L386.36 50.3064ZM382.527 3.44205L391.096 11.639H378.983V16.8269H391.096L382.527 25.0238L373.957 33.2208V21.6344H368.533V33.2208L359.964 25.0238L351.394 16.8269H363.507V11.639H351.394L359.964 3.44205L368.533 -4.75487V6.83151H373.957V-4.75487L382.527 3.44205ZM342.138 -3.61353V7.97285L333.568 -0.224074L324.999 -8.421H337.112V-13.6089H324.999L333.568 -21.8059L342.138 -30.0028V-18.4164H347.562V-30.0028L356.131 -21.8059L364.701 -13.6089H352.588V-8.421H364.701L356.131 -0.224074L347.562 7.97285V-3.61353H342.138ZM338.305 16.8269L329.736 25.0238L321.166 33.2208V21.6344H315.742V33.2208L307.173 25.0238L298.603 16.8269H310.716V11.639H298.603L307.173 3.44205L315.742 -4.75487V6.83151H321.166V-4.75487L329.736 3.44205L338.305 11.639H326.192V16.8269H338.305ZM289.31 -3.61353V7.97285L280.741 -0.224074L272.171 -8.421H284.284V-13.6089H272.171L280.741 -21.8059L289.31 -30.0028V-18.4164H294.734V-30.0028L303.304 -21.8059L311.873 -13.6089H299.76V-8.421H311.873L303.304 -0.224074L294.734 7.97285V-3.61353H289.31ZM273.365 16.8269H285.478L276.908 25.0238L268.339 33.2208V21.6344H262.915V33.2208L254.345 25.0238L245.776 16.8269H257.889V11.639H245.776L254.345 3.44205L262.915 -4.75487V6.83151H268.339V-4.75487L276.908 3.44205L285.478 11.639H273.365V16.8269ZM236.519 -3.61353V7.97285L227.95 -0.224074L219.38 -8.421H231.493V-13.6089H219.38L227.95 -21.8059L236.519 -30.0028V-18.4164H241.943V-30.0028L250.512 -21.8059L259.082 -13.6089H246.969V-8.421H259.082L250.512 -0.224074L241.943 7.97285V-3.61353H236.519ZM210.087 21.6344V33.2208L201.518 25.0238L192.948 16.8269H205.061V11.639H192.948L201.518 3.44205L210.087 -4.75487V6.83151H215.511V-4.75487L224.081 3.44205L232.65 11.639H220.537V16.8269H232.65L224.081 25.0238L215.511 33.2208V21.6344H210.087ZM183.692 -3.61353V7.97285L175.122 -0.224074L166.553 -8.421H178.666V-13.6089H166.553L175.122 -21.8059L183.692 -30.0028V-18.4164H189.116V-30.0028L197.685 -21.8059L206.255 -13.6089H194.142V-8.421H206.255L197.685 -0.224074L189.116 7.97285V-3.61353H183.692ZM167.746 16.8269H179.859L171.289 25.0238L162.72 33.2208V21.6344H157.296V33.2208L148.727 25.0238L140.157 16.8269H152.27V11.639H140.157L148.727 3.44205L157.296 -4.75487V6.83151H162.72V-4.75487L171.289 3.44205L179.859 11.639H167.746V16.8269ZM78.0731 -3.61353V7.97285L69.5036 -0.224074L60.934 -8.421H73.0471V-13.6089H60.934L69.5036 -21.8059L78.0731 -30.0028V-18.4164H83.4969V-30.0028L92.0664 -21.8059L100.636 -13.6089H88.5229V-8.421H100.636L92.0664 -0.224074L83.4969 7.97285V-3.61353H78.0731ZM74.2403 16.8269L65.6708 25.0238L57.1013 33.2208V21.6344H51.6775V33.2208L43.108 25.0238L34.5384 16.8269H46.6515V11.639H34.5384L43.108 3.44205L51.6775 -4.75487V6.83151H57.1013V-4.75487L65.6708 3.44205L74.2403 11.639H62.1273V16.8269H74.2403ZM46.6515 -38.8569H34.5384L43.108 -47.0538L51.6775 -55.2507V-43.6643H57.1013V-55.2507L65.6708 -47.0538L74.2403 -38.8569H62.1273V-33.6689H74.2403L65.6708 -25.472L57.1013 -17.2751V-28.8615H51.6775V-17.2751L43.108 -25.472L34.5384 -33.6689H46.6515V-38.8569ZM99.4427 -38.8569H87.3297L95.8992 -47.0538L104.469 -55.2507V-43.6643H109.892V-55.2507L118.462 -47.0538L127.032 -38.8569H114.919V-33.6689H127.032L118.462 -25.472L109.892 -17.2751V-28.8615H104.469V-17.2751L95.8992 -25.472L87.3297 -33.6689H99.4427V-38.8569ZM99.4427 11.6736H87.3297L95.8992 3.47664L104.469 -4.72028V6.86609H109.892V-4.72028L118.462 3.47664L127.032 11.6736H114.919V16.8615H127.032L118.462 25.0584L109.892 33.2554V21.669H104.469V33.2554L95.8992 25.0584L87.3297 16.8615H99.4427V11.6736ZM122.295 -0.224074L113.725 -8.421H125.838V-13.6089H113.725L122.295 -21.8059L130.864 -30.0028V-18.4164H136.288V-30.0028L144.858 -21.8059L153.427 -13.6089H141.314V-8.421H153.427L144.858 -0.224074L136.288 7.97285V-3.61353H130.864V7.97285L122.295 -0.224074ZM162.72 -43.6643V-55.2507L171.289 -47.0538L179.859 -38.8569H167.746V-33.6689H179.859L171.289 -25.472L162.72 -17.2751V-28.8615H157.296V-17.2751L148.727 -25.472L140.157 -33.6689H152.27V-38.8569H140.157L148.727 -47.0538L157.296 -55.2507V-43.6643H162.72ZM215.511 -43.6643V-55.2507L224.081 -47.0538L232.65 -38.8569H220.537V-33.6689H232.65L224.081 -25.472L215.511 -17.2751V-28.8615H210.087V-17.2751L201.518 -25.472L192.948 -33.6689H205.061V-38.8569H192.948L201.518 -47.0538L210.087 -55.2507V-43.6643H215.511ZM285.478 -33.6689L276.908 -25.472L268.339 -17.2751V-28.8615H262.915V-17.2751L254.345 -25.472L245.776 -33.6689H257.889V-38.8569H245.776L254.345 -47.0538L262.915 -55.2507V-43.6643H268.339V-55.2507L276.908 -47.0538L285.478 -38.8569H273.365V-33.6689H285.478ZM298.567 -38.8569L307.137 -47.0538L315.706 -55.2507V-43.6643H321.13V-55.2507L329.699 -47.0538L338.269 -38.8569H326.156V-33.6689H338.269L329.699 -25.472L321.13 -17.2751V-28.8615H315.706V-17.2751L307.137 -25.472L298.567 -33.6689H310.68V-38.8569H298.567ZM382.527 -47.0538L391.096 -38.8569H378.983V-33.6689H391.096L382.527 -25.472L373.957 -17.2751V-28.8615H368.533V-17.2751L359.964 -25.472L351.394 -33.6689H363.507V-38.8569H351.394L359.964 -47.0538L368.533 -55.2507V-43.6643H373.957V-55.2507L382.527 -47.0538ZM363.507 -89.3527H351.394L359.964 -97.5496L368.533 -105.747V-94.1602H373.957V-105.781L382.527 -97.5842L391.096 -89.3873H378.983V-84.1994H391.096L382.527 -76.0024L373.957 -67.8055V-79.3919H368.533V-67.8055L359.964 -76.0024L351.394 -84.1994H363.507V-89.3873V-89.3527ZM347.562 -68.9123V-80.4987L356.131 -72.3017L364.701 -64.1048H352.588V-58.9169H364.701L356.131 -50.7199L347.562 -42.523V-54.1094H342.138V-42.523L333.568 -50.7199L324.999 -58.9169H337.112V-64.1048H324.999L333.568 -72.3017L342.138 -80.4987V-68.9123H347.562ZM298.567 -89.3527L307.137 -97.5496L315.706 -105.747V-94.1602H321.13V-105.781L329.699 -97.5842L338.269 -89.3873H326.156V-84.1994H338.269L329.699 -76.0024L321.13 -67.8055V-79.3919H315.706V-67.8055L307.137 -76.0024L298.567 -84.1994H310.68V-89.3873H298.567V-89.3527ZM289.31 -68.9123H294.734V-80.4987L303.304 -72.3017L311.873 -64.1048H299.76V-58.9169H311.873L303.304 -50.7199L294.734 -42.523V-54.1094H289.31V-42.523L280.741 -50.7199L272.171 -58.9169H284.284V-64.1048H272.171L280.741 -72.3017L289.31 -80.4987V-68.9123ZM254.345 -97.5842L262.915 -105.781V-94.1948H268.339V-105.781L276.908 -97.5842L285.478 -89.3873H273.365V-84.1994H285.478L276.908 -76.0024L268.339 -67.8055V-79.3919H262.915V-67.8055L254.345 -76.0024L245.776 -84.1994H257.889V-89.3873H245.776L254.345 -97.5842ZM241.943 -68.9123V-80.4987L250.512 -72.3017L259.082 -64.1048H246.969V-58.9169H259.082L250.512 -50.7199L241.943 -42.523V-54.1094L236.519 -54.1094V-42.523L227.95 -50.7199L219.38 -58.9169H231.493V-64.1048H219.38L227.95 -72.3017L236.519 -80.4987V-68.9123H241.943ZM201.518 -97.5842L210.087 -105.781V-94.1948H215.511V-105.781L224.081 -97.5842L232.65 -89.3873H220.537V-84.1994H232.65L224.081 -76.0024L215.511 -67.8055V-79.3919H210.087V-67.8055L201.518 -76.0024L192.948 -84.1994H205.061V-89.3873H192.948L201.518 -97.5842ZM183.692 -68.9123H189.116V-80.4987L197.685 -72.3017L206.255 -64.1048H194.142V-58.9169H206.255L197.685 -50.7199L189.116 -42.523V-54.1094H183.692V-42.523L175.122 -50.7199L166.553 -58.9169H178.666V-64.1048H166.553L175.122 -72.3017L183.692 -80.4987V-68.9123ZM152.27 -89.3527H140.157L148.727 -97.5496L157.296 -105.747V-94.1602H162.72V-105.781L171.289 -97.5842L179.859 -89.3873H167.746V-84.1994H179.859L171.289 -76.0024L162.72 -67.8055V-79.3919H157.296V-67.8055L148.727 -76.0024L140.157 -84.1994H152.27V-89.3873V-89.3527ZM136.324 -68.9123V-80.4987L144.894 -72.3017L153.463 -64.1048H141.35V-58.9169H153.463L144.894 -50.7199L136.324 -42.523V-54.1094H130.901V-42.523L122.331 -50.7199L113.761 -58.9169H125.875V-64.1048H113.761L122.331 -72.3017L130.901 -80.4987V-68.9123H136.324ZM95.8992 -97.5842L104.469 -105.781V-94.1948H109.892V-105.781L118.462 -97.5842L127.032 -89.3873H114.919V-84.1994H127.032L118.462 -76.0024L109.892 -67.8055V-79.3919H104.469V-67.8055L95.8992 -76.0024L87.3297 -84.1994H99.4427V-89.3873H87.3297L95.8992 -97.5842ZM83.4969 -68.9123V-80.4987L92.0664 -72.3017L100.636 -64.1048H88.5229V-58.9169H100.636L92.0664 -50.7199L83.4969 -42.523V-54.1094H78.0731V-42.523L69.5036 -50.7199L60.934 -58.9169H73.0471V-64.1048H60.934L69.5036 -72.3017L78.0731 -80.4987V-68.9123H83.4969ZM46.6515 -89.3527H34.5384L43.108 -97.5496L51.6775 -105.747V-94.1602H57.1013V-105.781L65.6708 -97.5842L74.2403 -89.3873H62.1273V-84.1994H74.2403L65.6708 -76.0024L57.1013 -67.8055V-79.3919H51.6775V-67.8055L43.108 -76.0024L34.5384 -84.1994H46.6515V-89.3873V-89.3527ZM16.7123 -50.7199L8.14279 -58.9169H20.2558V-64.1048H8.14279L16.7123 -72.3017L25.2819 -80.4987V-68.9123H30.7056V-80.4987L39.2752 -72.3017L47.8447 -64.1048H35.7316V-58.9169H47.8447L39.2752 -50.7199L30.7056 -42.523V-54.1094H25.2819V-42.523L16.7123 -50.7199ZM16.7123 -0.224074L8.14279 -8.421H20.2558V-13.6089H8.14279L16.7123 -21.8059L25.2819 -30.0028V-18.4164H30.7056V-30.0028L39.2752 -21.8059L47.8447 -13.6089H35.7316V-8.421H47.8447L39.2752 -0.224074L30.7056 7.97285V-3.61353H25.2819V7.97285L16.7123 -0.224074ZM30.7056 58.5033V46.9169H25.2819V58.5033L16.7123 50.3064L8.14279 42.1094H20.2558V36.9215H8.14279L16.7123 28.7246L25.2819 20.5277V32.114H30.7056V20.5277L39.2752 28.7246L47.8447 36.9215H35.7316V42.1094H47.8447L39.2752 50.3064L30.7056 58.5033ZM74.2403 67.3574L65.6708 75.5543L57.1013 83.7512V72.1648H51.6775V83.7512L43.108 75.5543L34.5384 67.3574H46.6515V62.1694H34.5384L43.108 53.9725L51.6775 45.7756V57.3619H57.1013V45.7756L65.6708 53.9725L74.2403 62.1694H62.1273V67.3574H74.2403ZM83.4969 46.9169H78.0731V58.5033L69.5036 50.3064L60.934 42.1094H73.0471V36.9215H60.934L69.5036 28.7246L78.0731 20.5277V32.114H83.4969V20.5277L92.0664 28.7246L100.636 36.9215H88.5229V42.1094H100.636L92.0664 50.3064L83.4969 58.5033V46.9169ZM127.068 67.3574L118.498 75.5543L109.929 83.7512V72.1648H104.505V83.7512L95.9354 75.5543L87.3658 67.3574H99.4789V62.1694H87.3658L95.9354 53.9725L104.505 45.7756V57.3619H109.929V45.7756L118.498 53.9725L127.068 62.1694H114.955V67.3574H127.068ZM136.324 46.9169H130.901V58.5033L122.331 50.3064L113.761 42.1094H125.875V36.9215H113.761L122.331 28.7246L130.901 20.5277V32.114H136.324V20.5277L144.894 28.7246L153.463 36.9215H141.35V42.1094H153.463L144.894 50.3064L136.324 58.5033V46.9169ZM171.289 75.5543L162.72 83.7512V72.1648H157.296V83.7512L148.727 75.5543L140.157 67.3574H152.27V62.1694H140.157L148.727 53.9725L157.296 45.7756V57.3619H162.72V45.7756L171.289 53.9725L179.859 62.1694H167.746V67.3574H179.859L171.289 75.5543ZM189.116 46.9169H183.692V58.5033L175.122 50.3064L166.553 42.1094H178.666V36.9215H166.553L175.122 28.7246L183.692 20.5277V32.114H189.116V20.5277L197.685 28.7246L206.255 36.9215H194.142V42.1094H206.255L197.685 50.3064L189.116 58.5033V46.9169ZM220.537 67.3574H232.65L224.081 75.5543L215.511 83.7512V72.1648H210.087V83.7512L201.518 75.5543L192.948 67.3574H205.061V62.1694H192.948L201.518 53.9725L210.087 45.7756V57.3619H215.511V45.7756L224.081 53.9725L232.65 62.1694H220.537V67.3574ZM236.519 46.9169V58.5033L227.95 50.3064L219.38 42.1094H231.493V36.9215H219.38L227.95 28.7246L236.519 20.5277V32.114H241.943V20.5277L250.512 28.7246L259.082 36.9215H246.969V42.1094H259.082L250.512 50.3064L241.943 58.5033V46.9169H236.519ZM276.908 75.5543L268.339 83.7512V72.1648H262.915V83.7512L254.345 75.5543L245.776 67.3574H257.889V62.1694H245.776L254.345 53.9725L262.915 45.7756V57.3619H268.339V45.7756L276.908 53.9725L285.478 62.1694H273.365V67.3574H285.478L276.908 75.5543ZM289.31 46.9169V58.5033L280.741 50.3064L272.171 42.1094H284.284V36.9215H272.171L280.741 28.7246L289.31 20.5277V32.114H294.734V20.5277L303.304 28.7246L311.873 36.9215H299.76V42.1094H311.873L303.304 50.3064L294.734 58.5033V46.9169H289.31ZM326.156 67.3574H338.269L329.699 75.5543L321.13 83.7512V72.1648H315.706V83.7512L307.137 75.5543L298.567 67.3574H310.68V62.1694H298.567L307.137 53.9725L315.706 45.7756V57.3619H321.13V45.7756L329.699 53.9725L338.269 62.1694H326.156V67.3574ZM347.562 58.5033V46.9169H342.138V58.5033L333.568 50.3064L324.999 42.1094H337.112V36.9215H324.999L333.568 28.7246L342.138 20.5277V32.114H347.562V20.5277L356.131 28.7246L364.701 36.9215H352.588V42.1094H364.701L356.131 50.3064L347.562 58.5033ZM382.527 75.5543L373.957 83.7512V72.1648H368.533V83.7512L359.964 75.5543L351.394 67.3574H363.507V62.1694H351.394L359.964 53.9725L368.533 45.7756V57.3619H373.957V45.7756L382.527 53.9725L391.096 62.1694H378.983V67.3574H391.096L382.527 75.5543Z" fill="#8085B4"></path>
  </g>
</svg>
