<?xml version="1.0" encoding="UTF-8"?>
<svg xmlns="http://www.w3.org/2000/svg" width="191" height="191" viewBox="0 0 191 191" fill="none">
  <g id="Group 363">
    <path id="Vector" d="M143.189 143.191C116.83 169.55 74.0892 169.55 47.7297 143.191C21.3701 116.831 21.3701 74.0908 47.7297 47.7312C74.0893 21.3717 116.83 21.3717 143.189 47.7312C169.549 74.0908 169.549 116.831 143.189 143.191Z" fill="white"></path>
    <path id="Vector_2" d="M103.964 101.806L99.1385 96.981L99.1378 93.9357L103.961 89.1128L101.808 86.9598L96.9848 91.7827L93.9395 91.782L89.1144 86.9569L86.9555 89.1158L91.7807 93.9409L91.7814 96.9862L86.9585 101.809L89.1115 103.962L93.9343 99.1391L96.9796 99.1399L101.805 103.965L103.964 101.806Z" fill="#282425"></path>
  </g>
</svg>
