<?xml version="1.0" encoding="UTF-8"?>
<svg xmlns="http://www.w3.org/2000/svg" width="355" height="60" viewBox="0 0 355 60" fill="none">
  <rect x="0.110657" y="0.000366211" width="354" height="60" fill="#F9C822"></rect>
  <mask id="mask0_980_404" style="mask-type:alpha" maskUnits="userSpaceOnUse" x="0" y="0" width="355" height="61">
    <rect x="0.110657" y="0.000366211" width="354" height="60" fill="#8085B4"></rect>
  </mask>
  <g mask="url(#mask0_980_404)">
    <path d="M386.47 50.3034L377.9 42.1065H390.013V36.9186H377.9L386.47 28.7216L392.111 23.3262V5.16844L386.47 -0.226997L377.9 -8.42393H390.013V-13.6119H377.9L386.47 -21.8088L392.111 -27.2042V-45.362L386.47 -50.7574L377.9 -58.9544H390.013V-64.1423H377.9L386.47 -72.3392L392.111 -77.7347V-95.8579L386.47 -101.253L378.37 -109.001H364.377L356.278 -101.253L347.708 -93.0564V-104.643H342.284V-93.0564L333.715 -101.253L325.615 -109.001H311.622L303.523 -101.253L294.953 -93.0564V-104.643H289.529V-93.0564L280.96 -101.253L272.86 -109.001H258.867L250.767 -101.253L242.198 -93.0564V-104.643H236.774V-93.0564L228.205 -101.253L220.105 -109.001H206.112L198.012 -101.253L189.443 -93.0564V-104.643H184.019V-93.0564L175.45 -101.253L167.35 -109.001H153.357L145.257 -101.253L136.688 -93.0564V-104.643H131.264V-93.0564L122.694 -101.253L114.595 -109.001H100.602L92.5022 -101.253L83.9326 -93.0564V-104.643H78.5089V-93.0564L69.9393 -101.253L61.8398 -109.001H47.8466L39.7471 -101.253L31.1775 -93.0564V-104.643H25.7538V-93.0564L17.1842 -101.253L8.68701 -109.001H-5.30628L-13.4419 -101.253L-17.8894 -96.9992V-89.6669L-9.60913 -97.5872L-1.03959 -105.784V-94.1977H4.38416V-105.784L12.9537 -97.5872L21.5232 -89.3902H9.41018V-84.2023H21.5232L12.9537 -76.0054L4.38416 -67.8084V-79.3948H-1.03959V-67.8084L-9.60913 -76.0054L-17.8894 -83.9256V-76.5933L-13.4419 -72.3392L-4.87238 -64.1423H-16.9854V-58.9544H-4.87238L-13.4419 -50.7574L-17.8894 -46.5033V-39.1711L-9.60913 -47.0913L-1.03959 -55.2882V-43.7019H4.38416V-55.2882L12.9537 -47.0913L21.5232 -38.8944H9.41018V-33.7064H21.5232L12.9537 -25.5095L4.38416 -17.3126V-28.899H-1.03959V-17.3126L-9.60913 -25.5095L-17.8894 -33.4298V-26.0975L-13.4419 -21.8434L-4.87238 -13.6465H-16.9854V-8.45852H-4.87238L-13.4419 -0.261589L-17.8894 3.99251V11.3248L-9.60913 3.40454L-1.03959 -4.79238V6.794H4.38416V-4.79238L12.9537 3.40454L21.5232 11.6015H9.41018V16.7894H21.5232L12.9537 24.9863L4.38416 33.1833V21.5969H-1.03959V33.1833L-9.60913 24.9863L-17.8894 17.0661V24.3984L-13.4419 28.6525L-4.87238 36.8494H-16.9854V42.0373H-4.87238L-13.4419 50.2343L-17.8894 54.4884V61.8206L-9.60913 53.9004L-1.03959 45.7035V57.2899H4.38416V45.7035L12.9537 53.9004L21.5232 62.0973H9.41018V67.2853H21.5232L12.9537 75.4822L4.38416 83.6791V72.0927H-1.03959V83.6791L-9.60913 75.4822L-17.8894 67.562V74.8942L-13.4419 79.1483L-5.23397 86.9994H8.57854L16.7865 79.1483L25.356 70.9514V82.5378H30.7798V70.9514L39.3493 79.1483L47.5573 86.9994H61.3698L69.5777 79.1483L78.1473 70.9514V82.5378H83.571V70.9514L92.1406 79.1483L100.349 86.9994H114.161L122.369 79.1483L130.939 70.9514V82.5378H136.362V70.9514L144.932 79.1483L153.14 86.9994H166.952L175.16 79.1483L183.73 70.9514V82.5378H189.154V70.9514L197.723 79.1483L205.931 86.9994H219.744L227.951 79.1483L236.521 70.9514V82.5378H241.945V70.9514L250.514 79.1483L258.722 86.9994H272.535L280.743 79.1483L289.312 70.9514V82.5378H294.736V70.9514L303.306 79.1483L311.514 86.9994H325.326L333.534 79.1483L342.104 70.9514V82.5378H347.527V70.9514L356.097 79.1483L364.305 86.9994H378.117L386.325 79.1483L391.966 73.7529V55.5951L386.325 50.1997L386.47 50.3034ZM382.637 3.43913L391.207 11.6361H379.094V16.824H391.207L382.637 25.0209L374.068 33.2178V21.6315H368.644V33.2178L360.074 25.0209L351.505 16.824H363.618V11.6361H351.505L360.074 3.43913L368.644 -4.7578V6.82859H374.068V-4.7578L382.637 3.43913ZM342.248 -3.61646V7.96992L333.679 -0.226997L325.109 -8.42393H337.222V-13.6119H325.109L333.679 -21.8088L342.248 -30.0057V-18.4193H347.672V-30.0057L356.241 -21.8088L364.811 -13.6119H352.698V-8.42393H364.811L356.241 -0.226997L347.672 7.96992V-3.61646H342.248ZM338.415 16.824L329.846 25.0209L321.276 33.2178V21.6315H315.853V33.2178L307.283 25.0209L298.713 16.824H310.827V11.6361H298.713L307.283 3.43913L315.853 -4.7578V6.82859H321.276V-4.7578L329.846 3.43913L338.415 11.6361H326.302V16.824H338.415ZM289.421 -3.61646V7.96992L280.851 -0.226997L272.282 -8.42393H284.395V-13.6119H272.282L280.851 -21.8088L289.421 -30.0057V-18.4193H294.845V-30.0057L303.414 -21.8088L311.984 -13.6119H299.871V-8.42393H311.984L303.414 -0.226997L294.845 7.96992V-3.61646H289.421ZM273.475 16.824H285.588L277.018 25.0209L268.449 33.2178V21.6315H263.025V33.2178L254.456 25.0209L245.886 16.824H257.999V11.6361H245.886L254.456 3.43913L263.025 -4.7578V6.82859H268.449V-4.7578L277.018 3.43913L285.588 11.6361H273.475V16.824ZM236.63 -3.61646V7.96992L228.06 -0.226997L219.49 -8.42393H231.603V-13.6119H219.49L228.06 -21.8088L236.63 -30.0057V-18.4193H242.053V-30.0057L250.623 -21.8088L259.192 -13.6119H247.079V-8.42393H259.192L250.623 -0.226997L242.053 7.96992V-3.61646H236.63ZM210.198 21.6315V33.2178L201.628 25.0209L193.059 16.824H205.172V11.6361H193.059L201.628 3.43913L210.198 -4.7578V6.82859H215.621V-4.7578L224.191 3.43913L232.761 11.6361H220.648V16.824H232.761L224.191 25.0209L215.621 33.2178V21.6315H210.198ZM183.802 -3.61646V7.96992L175.233 -0.226997L166.663 -8.42393H178.776V-13.6119H166.663L175.233 -21.8088L183.802 -30.0057V-18.4193H189.226V-30.0057L197.795 -21.8088L206.365 -13.6119H194.252V-8.42393H206.365L197.795 -0.226997L189.226 7.96992V-3.61646H183.802ZM167.856 16.824H179.969L171.4 25.0209L162.83 33.2178V21.6315H157.406V33.2178L148.837 25.0209L140.267 16.824H152.38V11.6361H140.267L148.837 3.43913L157.406 -4.7578V6.82859H162.83V-4.7578L171.4 3.43913L179.969 11.6361H167.856V16.824ZM78.1834 -3.61646V7.96992L69.6139 -0.226997L61.0444 -8.42393H73.1574V-13.6119H61.0444L69.6139 -21.8088L78.1834 -30.0057V-18.4193H83.6072V-30.0057L92.1767 -21.8088L100.746 -13.6119H88.6332V-8.42393H100.746L92.1767 -0.226997L83.6072 7.96992V-3.61646H78.1834ZM74.3507 16.824L65.7811 25.0209L57.2116 33.2178V21.6315H51.7878V33.2178L43.2183 25.0209L34.6487 16.824H46.7618V11.6361H34.6487L43.2183 3.43913L51.7878 -4.7578V6.82859H57.2116V-4.7578L65.7811 3.43913L74.3507 11.6361H62.2376V16.824H74.3507ZM46.7618 -38.8598H34.6487L43.2183 -47.0567L51.7878 -55.2537V-43.6673H57.2116V-55.2537L65.7811 -47.0567L74.3507 -38.8598H62.2376V-33.6719H74.3507L65.7811 -25.4749L57.2116 -17.278V-28.8644H51.7878V-17.278L43.2183 -25.4749L34.6487 -33.6719H46.7618V-38.8598ZM99.5531 -38.8598H87.44L96.0095 -47.0567L104.579 -55.2537V-43.6673H110.003V-55.2537L118.572 -47.0567L127.142 -38.8598H115.029V-33.6719H127.142L118.572 -25.4749L110.003 -17.278V-28.8644H104.579V-17.278L96.0095 -25.4749L87.44 -33.6719H99.5531V-38.8598ZM99.5531 11.6707H87.44L96.0095 3.47372L104.579 -4.72321V6.86317H110.003V-4.72321L118.572 3.47372L127.142 11.6707H115.029V16.8586H127.142L118.572 25.0555L110.003 33.2524V21.6661H104.579V33.2524L96.0095 25.0555L87.44 16.8586H99.5531V11.6707ZM122.405 -0.226997L113.836 -8.42393H125.949V-13.6119H113.836L122.405 -21.8088L130.975 -30.0057V-18.4193H136.398V-30.0057L144.968 -21.8088L153.538 -13.6119H141.424V-8.42393H153.538L144.968 -0.226997L136.398 7.96992V-3.61646H130.975V7.96992L122.405 -0.226997ZM162.83 -43.6673V-55.2537L171.4 -47.0567L179.969 -38.8598H167.856V-33.6719H179.969L171.4 -25.4749L162.83 -17.278V-28.8644H157.406V-17.278L148.837 -25.4749L140.267 -33.6719H152.38V-38.8598H140.267L148.837 -47.0567L157.406 -55.2537V-43.6673H162.83ZM215.621 -43.6673V-55.2537L224.191 -47.0567L232.761 -38.8598H220.648V-33.6719H232.761L224.191 -25.4749L215.621 -17.278V-28.8644H210.198V-17.278L201.628 -25.4749L193.059 -33.6719H205.172V-38.8598H193.059L201.628 -47.0567L210.198 -55.2537V-43.6673H215.621ZM285.588 -33.6719L277.018 -25.4749L268.449 -17.278V-28.8644H263.025V-17.278L254.456 -25.4749L245.886 -33.6719H257.999V-38.8598H245.886L254.456 -47.0567L263.025 -55.2537V-43.6673H268.449V-55.2537L277.018 -47.0567L285.588 -38.8598H273.475V-33.6719H285.588ZM298.677 -38.8598L307.247 -47.0567L315.816 -55.2537V-43.6673H321.24V-55.2537L329.81 -47.0567L338.379 -38.8598H326.266V-33.6719H338.379L329.81 -25.4749L321.24 -17.278V-28.8644H315.816V-17.278L307.247 -25.4749L298.677 -33.6719H310.79V-38.8598H298.677ZM382.637 -47.0567L391.207 -38.8598H379.094V-33.6719H391.207L382.637 -25.4749L374.068 -17.278V-28.8644H368.644V-17.278L360.074 -25.4749L351.505 -33.6719H363.618V-38.8598H351.505L360.074 -47.0567L368.644 -55.2537V-43.6673H374.068V-55.2537L382.637 -47.0567ZM363.618 -89.3556H351.505L360.074 -97.5526L368.644 -105.75V-94.1631H374.068V-105.784L382.637 -97.5872L391.207 -89.3902H379.094V-84.2023H391.207L382.637 -76.0054L374.068 -67.8084V-79.3948H368.644V-67.8084L360.074 -76.0054L351.505 -84.2023H363.618V-89.3902V-89.3556ZM347.672 -68.9152V-80.5016L356.241 -72.3046L364.811 -64.1077H352.698V-58.9198H364.811L356.241 -50.7229L347.672 -42.5259V-54.1123H342.248V-42.5259L333.679 -50.7229L325.109 -58.9198H337.222V-64.1077H325.109L333.679 -72.3046L342.248 -80.5016V-68.9152H347.672ZM298.677 -89.3556L307.247 -97.5526L315.816 -105.75V-94.1631H321.24V-105.784L329.81 -97.5872L338.379 -89.3902H326.266V-84.2023H338.379L329.81 -76.0054L321.24 -67.8084V-79.3948H315.816V-67.8084L307.247 -76.0054L298.677 -84.2023H310.79V-89.3902H298.677V-89.3556ZM289.421 -68.9152H294.845V-80.5016L303.414 -72.3046L311.984 -64.1077H299.871V-58.9198H311.984L303.414 -50.7229L294.845 -42.5259V-54.1123H289.421V-42.5259L280.851 -50.7229L272.282 -58.9198H284.395V-64.1077H272.282L280.851 -72.3046L289.421 -80.5016V-68.9152ZM254.456 -97.5872L263.025 -105.784V-94.1977H268.449V-105.784L277.018 -97.5872L285.588 -89.3902H273.475V-84.2023H285.588L277.018 -76.0054L268.449 -67.8084V-79.3948H263.025V-67.8084L254.456 -76.0054L245.886 -84.2023H257.999V-89.3902H245.886L254.456 -97.5872ZM242.053 -68.9152V-80.5016L250.623 -72.3046L259.192 -64.1077H247.079V-58.9198H259.192L250.623 -50.7229L242.053 -42.5259V-54.1123H236.63V-42.5259L228.06 -50.7229L219.49 -58.9198H231.603V-64.1077H219.49L228.06 -72.3046L236.63 -80.5016V-68.9152H242.053ZM201.628 -97.5872L210.198 -105.784V-94.1977H215.621V-105.784L224.191 -97.5872L232.761 -89.3902H220.648V-84.2023H232.761L224.191 -76.0054L215.621 -67.8084V-79.3948H210.198V-67.8084L201.628 -76.0054L193.059 -84.2023H205.172V-89.3902H193.059L201.628 -97.5872ZM183.802 -68.9152H189.226V-80.5016L197.795 -72.3046L206.365 -64.1077H194.252V-58.9198H206.365L197.795 -50.7229L189.226 -42.5259V-54.1123H183.802V-42.5259L175.233 -50.7229L166.663 -58.9198H178.776V-64.1077H166.663L175.233 -72.3046L183.802 -80.5016V-68.9152ZM152.38 -89.3556H140.267L148.837 -97.5526L157.406 -105.75V-94.1631H162.83V-105.784L171.4 -97.5872L179.969 -89.3902H167.856V-84.2023H179.969L171.4 -76.0054L162.83 -67.8084V-79.3948H157.406V-67.8084L148.837 -76.0054L140.267 -84.2023H152.38V-89.3902V-89.3556ZM136.435 -68.9152V-80.5016L145.004 -72.3046L153.574 -64.1077H141.461V-58.9198H153.574L145.004 -50.7229L136.435 -42.5259V-54.1123H131.011V-42.5259L122.441 -50.7229L113.872 -58.9198H125.985V-64.1077H113.872L122.441 -72.3046L131.011 -80.5016V-68.9152H136.435ZM96.0095 -97.5872L104.579 -105.784V-94.1977H110.003V-105.784L118.572 -97.5872L127.142 -89.3902H115.029V-84.2023H127.142L118.572 -76.0054L110.003 -67.8084V-79.3948H104.579V-67.8084L96.0095 -76.0054L87.44 -84.2023H99.5531V-89.3902H87.44L96.0095 -97.5872ZM83.6072 -68.9152V-80.5016L92.1767 -72.3046L100.746 -64.1077H88.6332V-58.9198H100.746L92.1767 -50.7229L83.6072 -42.5259V-54.1123H78.1834V-42.5259L69.6139 -50.7229L61.0444 -58.9198H73.1574V-64.1077H61.0444L69.6139 -72.3046L78.1834 -80.5016V-68.9152H83.6072ZM46.7618 -89.3556H34.6487L43.2183 -97.5526L51.7878 -105.75V-94.1631H57.2116V-105.784L65.7811 -97.5872L74.3507 -89.3902H62.2376V-84.2023H74.3507L65.7811 -76.0054L57.2116 -67.8084V-79.3948H51.7878V-67.8084L43.2183 -76.0054L34.6487 -84.2023H46.7618V-89.3902V-89.3556ZM16.8227 -50.7229L8.25311 -58.9198H20.3662V-64.1077H8.25311L16.8227 -72.3046L25.3922 -80.5016V-68.9152H30.8159V-80.5016L39.3855 -72.3046L47.955 -64.1077H35.842V-58.9198H47.955L39.3855 -50.7229L30.8159 -42.5259V-54.1123H25.3922V-42.5259L16.8227 -50.7229ZM16.8227 -0.226997L8.25311 -8.42393H20.3662V-13.6119H8.25311L16.8227 -21.8088L25.3922 -30.0057V-18.4193H30.8159V-30.0057L39.3855 -21.8088L47.955 -13.6119H35.842V-8.42393H47.955L39.3855 -0.226997L30.8159 7.96992V-3.61646H25.3922V7.96992L16.8227 -0.226997ZM30.8159 58.5004V46.914H25.3922V58.5004L16.8227 50.3034L8.25311 42.1065H20.3662V36.9186H8.25311L16.8227 28.7216L25.3922 20.5247V32.1111H30.8159V20.5247L39.3855 28.7216L47.955 36.9186H35.842V42.1065H47.955L39.3855 50.3034L30.8159 58.5004ZM74.3507 67.3544L65.7811 75.5514L57.2116 83.7483V72.1619H51.7878V83.7483L43.2183 75.5514L34.6487 67.3544H46.7618V62.1665H34.6487L43.2183 53.9696L51.7878 45.7726V57.359H57.2116V45.7726L65.7811 53.9696L74.3507 62.1665H62.2376V67.3544H74.3507ZM83.6072 46.914H78.1834V58.5004L69.6139 50.3034L61.0444 42.1065H73.1574V36.9186H61.0444L69.6139 28.7216L78.1834 20.5247V32.1111H83.6072V20.5247L92.1767 28.7216L100.746 36.9186H88.6332V42.1065H100.746L92.1767 50.3034L83.6072 58.5004V46.914ZM127.178 67.3544L118.609 75.5514L110.039 83.7483V72.1619H104.615V83.7483L96.0457 75.5514L87.4762 67.3544H99.5892V62.1665H87.4762L96.0457 53.9696L104.615 45.7726V57.359H110.039V45.7726L118.609 53.9696L127.178 62.1665H115.065V67.3544H127.178ZM136.435 46.914H131.011V58.5004L122.441 50.3034L113.872 42.1065H125.985V36.9186H113.872L122.441 28.7216L131.011 20.5247V32.1111H136.435V20.5247L145.004 28.7216L153.574 36.9186H141.461V42.1065H153.574L145.004 50.3034L136.435 58.5004V46.914ZM171.4 75.5514L162.83 83.7483V72.1619H157.406V83.7483L148.837 75.5514L140.267 67.3544H152.38V62.1665H140.267L148.837 53.9696L157.406 45.7726V57.359H162.83V45.7726L171.4 53.9696L179.969 62.1665H167.856V67.3544H179.969L171.4 75.5514ZM189.226 46.914H183.802V58.5004L175.233 50.3034L166.663 42.1065H178.776V36.9186H166.663L175.233 28.7216L183.802 20.5247V32.1111H189.226V20.5247L197.795 28.7216L206.365 36.9186H194.252V42.1065H206.365L197.795 50.3034L189.226 58.5004V46.914ZM220.648 67.3544H232.761L224.191 75.5514L215.621 83.7483V72.1619H210.198V83.7483L201.628 75.5514L193.059 67.3544H205.172V62.1665H193.059L201.628 53.9696L210.198 45.7726V57.359H215.621V45.7726L224.191 53.9696L232.761 62.1665H220.648V67.3544ZM236.63 46.914V58.5004L228.06 50.3034L219.49 42.1065H231.603V36.9186H219.49L228.06 28.7216L236.63 20.5247V32.1111H242.053V20.5247L250.623 28.7216L259.192 36.9186H247.079V42.1065H259.192L250.623 50.3034L242.053 58.5004V46.914H236.63ZM277.018 75.5514L268.449 83.7483V72.1619H263.025V83.7483L254.456 75.5514L245.886 67.3544H257.999V62.1665H245.886L254.456 53.9696L263.025 45.7726V57.359H268.449V45.7726L277.018 53.9696L285.588 62.1665H273.475V67.3544H285.588L277.018 75.5514ZM289.421 46.914V58.5004L280.851 50.3034L272.282 42.1065H284.395V36.9186H272.282L280.851 28.7216L289.421 20.5247V32.1111H294.845V20.5247L303.414 28.7216L311.984 36.9186H299.871V42.1065H311.984L303.414 50.3034L294.845 58.5004V46.914H289.421ZM326.266 67.3544H338.379L329.81 75.5514L321.24 83.7483V72.1619H315.816V83.7483L307.247 75.5514L298.677 67.3544H310.79V62.1665H298.677L307.247 53.9696L315.816 45.7726V57.359H321.24V45.7726L329.81 53.9696L338.379 62.1665H326.266V67.3544ZM347.672 58.5004V46.914H342.248V58.5004L333.679 50.3034L325.109 42.1065H337.222V36.9186H325.109L333.679 28.7216L342.248 20.5247V32.1111H347.672V20.5247L356.241 28.7216L364.811 36.9186H352.698V42.1065H364.811L356.241 50.3034L347.672 58.5004ZM382.637 75.5514L374.068 83.7483V72.1619H368.644V83.7483L360.074 75.5514L351.505 67.3544H363.618V62.1665H351.505L360.074 53.9696L368.644 45.7726V57.359H374.068V45.7726L382.637 53.9696L391.207 62.1665H379.094V67.3544H391.207L382.637 75.5514Z" fill="#8085B4"></path>
  </g>
</svg>
