<?xml version="1.0" encoding="UTF-8"?>
<svg xmlns="http://www.w3.org/2000/svg" width="1063" height="99" viewBox="0 0 1063 99" fill="none">
  <path d="M534.034 226.764L521.932 215.096H539.038V207.711H521.932L534.034 196.043L542 188.363V162.516L534.034 154.836L521.932 143.168H539.038V135.783H521.932L534.034 124.115L542 116.435V90.5876L534.034 82.9074L521.932 71.2393H539.038V63.8544H521.932L534.034 52.1863L542 44.5061V18.7083L534.034 11.0281L522.596 0H502.835L491.397 11.0281L479.295 22.6961V6.20328H471.636V22.6961L459.534 11.0281L448.096 0H428.334L416.896 11.0281L404.795 22.6961V6.20328H397.135V22.6961L385.033 11.0281L373.595 0H353.834L342.396 11.0281L330.294 22.6961V6.20328H322.635V22.6961L310.533 11.0281L299.095 0H279.333L267.895 11.0281L255.794 22.6961V6.20328H248.134V22.6961L236.032 11.0281L224.594 0H204.833L193.395 11.0281L181.293 22.6961V6.20328H173.634V22.6961L161.532 11.0281L150.094 0H130.332L118.894 11.0281L106.793 22.6961V6.20328H99.1332V22.6961L87.0313 11.0281L75.5933 0H55.832L44.3939 11.0281L32.2921 22.6961V6.20328H24.6327V22.6961L12.5308 11.0281L0.531086 0H-19.2302L-30.7193 11.0281L-37 17.0836V27.5209L-25.3066 16.2467L-13.2048 4.57861V21.0715H-5.54537V4.57861L6.55648 16.2467L18.6583 27.9148H1.55234V35.2996H18.6583L6.55648 46.9677L-5.54537 58.6358V42.1429H-13.2048V58.6358L-25.3066 46.9677L-37 35.6935V46.1308L-30.7193 52.1863L-18.6174 63.8544H-35.7234V71.2393H-18.6174L-30.7193 82.9074L-37 88.9629V99.4002L-25.3066 88.126L-13.2048 76.4579V92.9508H-5.54537V76.4579L6.55648 88.126L18.6583 99.7941H1.55234V107.179H18.6583L6.55648 118.847L-5.54537 130.515V114.022H-13.2048V130.515L-25.3066 118.847L-37 107.573V118.01L-30.7193 124.066L-18.6174 135.734H-35.7234V143.119H-18.6174L-30.7193 154.787L-37 160.842V171.28L-25.3066 160.005L-13.2048 148.337V164.83H-5.54537V148.337L6.55648 160.005L18.6583 171.673H1.55234V179.058H18.6583L6.55648 190.726L-5.54537 202.394V185.902H-13.2048V202.394L-25.3066 190.726L-37 179.452V189.889L-30.7193 195.945L-18.6174 207.613H-35.7234V214.998H-18.6174L-30.7193 226.666L-37 232.722V243.159L-25.3066 231.885L-13.2048 220.217V236.709H-5.54537V220.217L6.55648 231.885L18.6583 243.553H1.55234V250.938H18.6583L6.55648 262.606L-5.54537 274.274V257.781H-13.2048V274.274L-25.3066 262.606L-37 251.331V261.769L-30.7193 267.824L-19.1281 279H0.3779L11.9691 267.824L24.071 256.156V272.649H31.7304V256.156L43.8323 267.824L55.4235 279H74.9295L86.5207 267.824L98.6225 256.156V272.649H106.282V256.156L118.384 267.824L129.975 279H149.481L161.072 267.824L173.174 256.156V272.649H180.833V256.156L192.935 267.824L204.527 279H224.033L235.624 267.824L247.726 256.156V272.649H255.385V256.156L267.487 267.824L279.078 279H298.584L310.175 267.824L322.277 256.156V272.649H329.937V256.156L342.038 267.824L353.63 279H373.136L384.727 267.824L396.829 256.156V272.649H404.488V256.156L416.59 267.824L428.181 279H447.687L459.278 267.824L471.38 256.156V272.649H479.04V256.156L491.142 267.824L502.733 279H522.239L533.83 267.824L541.796 260.144V234.297L533.83 226.617L534.034 226.764ZM528.622 160.055L540.723 171.723H523.617V179.107H540.723L528.622 190.776L516.52 202.444V185.951H508.86V202.444L496.758 190.776L484.657 179.107H501.763V171.723H484.657L496.758 160.055L508.86 148.386V164.879H516.52V148.386L528.622 160.055ZM471.585 150.011V166.504L459.483 154.836L447.381 143.168H464.487V135.783H447.381L459.483 124.115L471.585 112.447V128.94H479.244V112.447L491.346 124.115L503.448 135.783H486.342V143.168H503.448L491.346 154.836L479.244 166.504V150.011H471.585ZM466.172 179.107L454.07 190.776L441.968 202.444V185.951H434.309V202.444L422.207 190.776L410.105 179.107H427.211V171.723H410.105L422.207 160.055L434.309 148.386V164.879H441.968V148.386L454.07 160.055L466.172 171.723H449.066V179.107H466.172ZM396.982 150.011V166.504L384.88 154.836L372.778 143.168H389.884V135.783H372.778L384.88 124.115L396.982 112.447V128.94H404.641V112.447L416.743 124.115L428.845 135.783H411.739V143.168H428.845L416.743 154.836L404.641 166.504V150.011H396.982ZM374.463 179.107H391.569L379.467 190.776L367.366 202.444V185.951H359.706V202.444L347.604 190.776L335.502 179.107H352.608V171.723H335.502L347.604 160.055L359.706 148.386V164.879H367.366V148.386L379.467 160.055L391.569 171.723H374.463V179.107ZM322.43 150.011V166.504L310.329 154.836L298.227 143.168H315.333V135.783H298.227L310.329 124.115L322.43 112.447V128.94H330.09V112.447L342.192 124.115L354.293 135.783H337.187V143.168H354.293L342.192 154.836L330.09 166.504V150.011H322.43ZM285.104 185.951V202.444L273.002 190.776L260.9 179.107H278.006V171.723H260.9L273.002 160.055L285.104 148.386V164.879H292.763V148.386L304.865 160.055L316.967 171.723H299.861V179.107H316.967L304.865 190.776L292.763 202.444V185.951H285.104ZM247.828 150.011V166.504L235.726 154.836L223.624 143.168H240.73V135.783H223.624L235.726 124.115L247.828 112.447V128.94H255.487V112.447L267.589 124.115L279.691 135.783H262.585V143.168H279.691L267.589 154.836L255.487 166.504V150.011H247.828ZM225.309 179.107H242.415L230.313 190.776L218.211 202.444V185.951H210.552V202.444L198.45 190.776L186.348 179.107H203.454V171.723H186.348L198.45 160.055L210.552 148.386V164.879H218.211V148.386L230.313 160.055L242.415 171.723H225.309V179.107ZM98.6736 150.011V166.504L86.5718 154.836L74.4699 143.168H91.5759V135.783H74.4699L86.5718 124.115L98.6736 112.447V128.94H106.333V112.447L118.435 124.115L130.537 135.783H113.431V143.168H130.537L118.435 154.836L106.333 166.504V150.011H98.6736ZM93.261 179.107L81.1591 190.776L69.0572 202.444V185.951H61.3978V202.444L49.296 190.776L37.1941 179.107H54.3001V171.723H37.1941L49.296 160.055L61.3978 148.386V164.879H69.0572V148.386L81.1591 160.055L93.261 171.723H76.155V179.107H93.261ZM54.3001 99.8433H37.1941L49.296 88.1752L61.3978 76.5071V93H69.0572V76.5071L81.1591 88.1752L93.261 99.8433H76.155V107.228H93.261L81.1591 118.896L69.0572 130.564V114.071H61.3978V130.564L49.296 118.896L37.1941 107.228H54.3001V99.8433ZM128.852 99.8433H111.746L123.848 88.1752L135.949 76.5071V93H143.609V76.5071L155.711 88.1752L167.813 99.8433H150.706V107.228H167.813L155.711 118.896L143.609 130.564V114.071H135.949V130.564L123.848 118.896L111.746 107.228H128.852V99.8433ZM128.852 171.772H111.746L123.848 160.104L135.949 148.436V164.929H143.609V148.436L155.711 160.104L167.813 171.772H150.706V179.157H167.813L155.711 190.825L143.609 202.493V186H135.949V202.493L123.848 190.825L111.746 179.157H128.852V171.772ZM161.123 154.836L149.021 143.168H166.127V135.783H149.021L161.123 124.115L173.225 112.447V128.94H180.885V112.447L192.986 124.115L205.088 135.783H187.982V143.168H205.088L192.986 154.836L180.885 166.504V150.011H173.225V166.504L161.123 154.836ZM218.211 93V76.5071L230.313 88.1752L242.415 99.8433H225.309V107.228H242.415L230.313 118.896L218.211 130.564V114.071H210.552V130.564L198.45 118.896L186.348 107.228H203.454V99.8433H186.348L198.45 88.1752L210.552 76.5071V93H218.211ZM292.763 93V76.5071L304.865 88.1752L316.967 99.8433H299.861V107.228H316.967L304.865 118.896L292.763 130.564V114.071H285.104V130.564L273.002 118.896L260.9 107.228H278.006V99.8433H260.9L273.002 88.1752L285.104 76.5071V93H292.763ZM391.569 107.228L379.467 118.896L367.366 130.564V114.071H359.706V130.564L347.604 118.896L335.502 107.228H352.608V99.8433H335.502L347.604 88.1752L359.706 76.5071V93H367.366V76.5071L379.467 88.1752L391.569 99.8433H374.463V107.228H391.569ZM410.054 99.8433L422.156 88.1752L434.258 76.5071V93H441.917V76.5071L454.019 88.1752L466.121 99.8433H449.015V107.228H466.121L454.019 118.896L441.917 130.564V114.071H434.258V130.564L422.156 118.896L410.054 107.228H427.16V99.8433H410.054ZM528.622 88.1752L540.723 99.8433H523.617V107.228H540.723L528.622 118.896L516.52 130.564V114.071H508.86V130.564L496.758 118.896L484.657 107.228H501.763V99.8433H484.657L496.758 88.1752L508.86 76.5071V93H516.52V76.5071L528.622 88.1752ZM501.763 27.964H484.657L496.758 16.2959L508.86 4.62785V21.1207H516.52V4.57861L528.622 16.2467L540.723 27.9148H523.617V35.2996H540.723L528.622 46.9677L516.52 58.6358V42.1429H508.86V58.6358L496.758 46.9677L484.657 35.2996H501.763V27.9148V27.964ZM479.244 57.0604V40.5675L491.346 52.2356L503.448 63.9037H486.342V71.2885H503.448L491.346 82.9566L479.244 94.6247V78.1318H471.585V94.6247L459.483 82.9566L447.381 71.2885H464.487V63.9037H447.381L459.483 52.2356L471.585 40.5675V57.0604H479.244ZM410.054 27.964L422.156 16.2959L434.258 4.62785V21.1207H441.917V4.57861L454.019 16.2467L466.121 27.9148H449.015V35.2996H466.121L454.019 46.9677L441.917 58.6358V42.1429H434.258V58.6358L422.156 46.9677L410.054 35.2996H427.16V27.9148H410.054V27.964ZM396.982 57.0604H404.641V40.5675L416.743 52.2356L428.845 63.9037H411.739V71.2885H428.845L416.743 82.9566L404.641 94.6247V78.1318H396.982V94.6247L384.88 82.9566L372.778 71.2885H389.884V63.9037H372.778L384.88 52.2356L396.982 40.5675V57.0604ZM347.604 16.2467L359.706 4.57861V21.0715H367.366V4.57861L379.467 16.2467L391.569 27.9148H374.463V35.2996H391.569L379.467 46.9677L367.366 58.6358V42.1429H359.706V58.6358L347.604 46.9677L335.502 35.2996H352.608V27.9148H335.502L347.604 16.2467ZM330.09 57.0604V40.5675L342.192 52.2356L354.293 63.9037H337.187V71.2885H354.293L342.192 82.9566L330.09 94.6247V78.1318H322.43V94.6247L310.329 82.9566L298.227 71.2885H315.333V63.9037H298.227L310.329 52.2356L322.43 40.5675V57.0604H330.09ZM273.002 16.2467L285.104 4.57861V21.0715H292.763V4.57861L304.865 16.2467L316.967 27.9148H299.861V35.2996H316.967L304.865 46.9677L292.763 58.6358V42.1429H285.104V58.6358L273.002 46.9677L260.9 35.2996H278.006V27.9148H260.9L273.002 16.2467ZM247.828 57.0604H255.487V40.5675L267.589 52.2356L279.691 63.9037H262.585V71.2885H279.691L267.589 82.9566L255.487 94.6247V78.1318H247.828V94.6247L235.726 82.9566L223.624 71.2885H240.73V63.9037H223.624L235.726 52.2356L247.828 40.5675V57.0604ZM203.454 27.964H186.348L198.45 16.2959L210.552 4.62785V21.1207H218.211V4.57861L230.313 16.2467L242.415 27.9148H225.309V35.2996H242.415L230.313 46.9677L218.211 58.6358V42.1429H210.552V58.6358L198.45 46.9677L186.348 35.2996H203.454V27.9148V27.964ZM180.936 57.0604V40.5675L193.037 52.2356L205.139 63.9037H188.033V71.2885H205.139L193.037 82.9566L180.936 94.6247V78.1318H173.276V94.6247L161.174 82.9566L149.072 71.2885H166.178V63.9037H149.072L161.174 52.2356L173.276 40.5675V57.0604H180.936ZM123.848 16.2467L135.949 4.57861V21.0715H143.609V4.57861L155.711 16.2467L167.813 27.9148H150.706V35.2996H167.813L155.711 46.9677L143.609 58.6358V42.1429H135.949V58.6358L123.848 46.9677L111.746 35.2996H128.852V27.9148H111.746L123.848 16.2467ZM106.333 57.0604V40.5675L118.435 52.2356L130.537 63.9037H113.431V71.2885H130.537L118.435 82.9566L106.333 94.6247V78.1318H98.6736V94.6247L86.5718 82.9566L74.4699 71.2885H91.5759V63.9037H74.4699L86.5718 52.2356L98.6736 40.5675V57.0604H106.333ZM54.3001 27.964H37.1941L49.296 16.2959L61.3978 4.62785V21.1207H69.0572V4.57861L81.1591 16.2467L93.261 27.9148H76.155V35.2996H93.261L81.1591 46.9677L69.0572 58.6358V42.1429H61.3978V58.6358L49.296 46.9677L37.1941 35.2996H54.3001V27.9148V27.964ZM12.0202 82.9566L-0.081663 71.2885H17.0243V63.9037H-0.081663L12.0202 52.2356L24.1221 40.5675V57.0604H31.7815V40.5675L43.8833 52.2356L55.9852 63.9037H38.8792V71.2885H55.9852L43.8833 82.9566L31.7815 94.6247V78.1318H24.1221V94.6247L12.0202 82.9566ZM12.0202 154.836L-0.081663 143.168H17.0243V135.783H-0.081663L12.0202 124.115L24.1221 112.447V128.94H31.7815V112.447L43.8833 124.115L55.9852 135.783H38.8792V143.168H55.9852L43.8833 154.836L31.7815 166.504V150.011H24.1221V166.504L12.0202 154.836ZM31.7815 238.433V221.94H24.1221V238.433L12.0202 226.764L-0.081663 215.096H17.0243V207.711H-0.081663L12.0202 196.043L24.1221 184.375V200.868H31.7815V184.375L43.8833 196.043L55.9852 207.711H38.8792V215.096H55.9852L43.8833 226.764L31.7815 238.433ZM93.261 251.036L81.1591 262.704L69.0572 274.372V257.879H61.3978V274.372L49.296 262.704L37.1941 251.036H54.3001V243.651H37.1941L49.296 231.983L61.3978 220.315V236.808H69.0572V220.315L81.1591 231.983L93.261 243.651H76.155V251.036H93.261ZM106.333 221.94H98.6736V238.433L86.5718 226.764L74.4699 215.096H91.5759V207.711H74.4699L86.5718 196.043L98.6736 184.375V200.868H106.333V184.375L118.435 196.043L130.537 207.711H113.431V215.096H130.537L118.435 226.764L106.333 238.433V221.94ZM167.864 251.036L155.762 262.704L143.66 274.372V257.879H136V274.372L123.899 262.704L111.797 251.036H128.903V243.651H111.797L123.899 231.983L136 220.315V236.808H143.66V220.315L155.762 231.983L167.864 243.651H150.758V251.036H167.864ZM180.936 221.94H173.276V238.433L161.174 226.764L149.072 215.096H166.178V207.711H149.072L161.174 196.043L173.276 184.375V200.868H180.936V184.375L193.037 196.043L205.139 207.711H188.033V215.096H205.139L193.037 226.764L180.936 238.433V221.94ZM230.313 262.704L218.211 274.372V257.879H210.552V274.372L198.45 262.704L186.348 251.036H203.454V243.651H186.348L198.45 231.983L210.552 220.315V236.808H218.211V220.315L230.313 231.983L242.415 243.651H225.309V251.036H242.415L230.313 262.704ZM255.487 221.94H247.828V238.433L235.726 226.764L223.624 215.096H240.73V207.711H223.624L235.726 196.043L247.828 184.375V200.868H255.487V184.375L267.589 196.043L279.691 207.711H262.585V215.096H279.691L267.589 226.764L255.487 238.433V221.94ZM299.861 251.036H316.967L304.865 262.704L292.763 274.372V257.879H285.104V274.372L273.002 262.704L260.9 251.036H278.006V243.651H260.9L273.002 231.983L285.104 220.315V236.808H292.763V220.315L304.865 231.983L316.967 243.651H299.861V251.036ZM322.43 221.94V238.433L310.329 226.764L298.227 215.096H315.333V207.711H298.227L310.329 196.043L322.43 184.375V200.868H330.09V184.375L342.192 196.043L354.293 207.711H337.187V215.096H354.293L342.192 226.764L330.09 238.433V221.94H322.43ZM379.467 262.704L367.366 274.372V257.879H359.706V274.372L347.604 262.704L335.502 251.036H352.608V243.651H335.502L347.604 231.983L359.706 220.315V236.808H367.366V220.315L379.467 231.983L391.569 243.651H374.463V251.036H391.569L379.467 262.704ZM396.982 221.94V238.433L384.88 226.764L372.778 215.096H389.884V207.711H372.778L384.88 196.043L396.982 184.375V200.868H404.641V184.375L416.743 196.043L428.845 207.711H411.739V215.096H428.845L416.743 226.764L404.641 238.433V221.94H396.982ZM449.015 251.036H466.121L454.019 262.704L441.917 274.372V257.879H434.258V274.372L422.156 262.704L410.054 251.036H427.16V243.651H410.054L422.156 231.983L434.258 220.315V236.808H441.917V220.315L454.019 231.983L466.121 243.651H449.015V251.036ZM479.244 238.433V221.94H471.585V238.433L459.483 226.764L447.381 215.096H464.487V207.711H447.381L459.483 196.043L471.585 184.375V200.868H479.244V184.375L491.346 196.043L503.448 207.711H486.342V215.096H503.448L491.346 226.764L479.244 238.433ZM528.622 262.704L516.52 274.372V257.879H508.86V274.372L496.758 262.704L484.657 251.036H501.763V243.651H484.657L496.758 231.983L508.86 220.315V236.808H516.52V220.315L528.622 231.983L540.723 243.651H523.617V251.036H540.723L528.622 262.704Z" fill="#334688"></path>
  <path d="M1055.03 226.764L1042.93 215.096H1060.04V207.711H1042.93L1055.03 196.043L1063 188.363V162.516L1055.03 154.836L1042.93 143.168H1060.04V135.783H1042.93L1055.03 124.115L1063 116.435V90.5876L1055.03 82.9074L1042.93 71.2393H1060.04V63.8544H1042.93L1055.03 52.1863L1063 44.5061V18.7083L1055.03 11.0281L1043.6 0H1023.83L1012.4 11.0281L1000.3 22.6961V6.20328H992.636V22.6961L980.534 11.0281L969.096 0H949.334L937.896 11.0281L925.795 22.6961V6.20328H918.135V22.6961L906.033 11.0281L894.595 0H874.834L863.396 11.0281L851.294 22.6961V6.20328H843.635V22.6961L831.533 11.0281L820.095 0H800.333L788.895 11.0281L776.794 22.6961V6.20328H769.134V22.6961L757.032 11.0281L745.594 0H725.833L714.395 11.0281L702.293 22.6961V6.20328H694.634V22.6961L682.532 11.0281L671.094 0H651.332L639.894 11.0281L627.793 22.6961V6.20328H620.133V22.6961L608.031 11.0281L596.593 0H576.832L565.394 11.0281L553.292 22.6961V6.20328H545.633V22.6961L533.531 11.0281L521.531 0H501.77L490.281 11.0281L484 17.0836V27.5209L495.693 16.2467L507.795 4.57861V21.0715H515.455V4.57861L527.556 16.2467L539.658 27.9148H522.552V35.2996H539.658L527.556 46.9677L515.455 58.6358V42.1429H507.795V58.6358L495.693 46.9677L484 35.6935V46.1308L490.281 52.1863L502.383 63.8544H485.277V71.2393H502.383L490.281 82.9074L484 88.9629V99.4002L495.693 88.126L507.795 76.4579V92.9508H515.455V76.4579L527.556 88.126L539.658 99.7941H522.552V107.179H539.658L527.556 118.847L515.455 130.515V114.022H507.795V130.515L495.693 118.847L484 107.573V118.01L490.281 124.066L502.383 135.734H485.277V143.119H502.383L490.281 154.787L484 160.842V171.28L495.693 160.005L507.795 148.337V164.83H515.455V148.337L527.556 160.005L539.658 171.673H522.552V179.058H539.658L527.556 190.726L515.455 202.394V185.902H507.795V202.394L495.693 190.726L484 179.452V189.889L490.281 195.945L502.383 207.613H485.277V214.998H502.383L490.281 226.666L484 232.722V243.159L495.693 231.885L507.795 220.217V236.709H515.455V220.217L527.556 231.885L539.658 243.553H522.552V250.938H539.658L527.556 262.606L515.455 274.274V257.781H507.795V274.274L495.693 262.606L484 251.331V261.769L490.281 267.824L501.872 279H521.378L532.969 267.824L545.071 256.156V272.649H552.73V256.156L564.832 267.824L576.424 279H595.929L607.521 267.824L619.623 256.156V272.649H627.282V256.156L639.384 267.824L650.975 279H670.481L682.072 267.824L694.174 256.156V272.649H701.833V256.156L713.935 267.824L725.527 279H745.033L756.624 267.824L768.726 256.156V272.649H776.385V256.156L788.487 267.824L800.078 279H819.584L831.175 267.824L843.277 256.156V272.649H850.937V256.156L863.038 267.824L874.63 279H894.136L905.727 267.824L917.829 256.156V272.649H925.488V256.156L937.59 267.824L949.181 279H968.687L980.278 267.824L992.38 256.156V272.649H1000.04V256.156L1012.14 267.824L1023.73 279H1043.24L1054.83 267.824L1062.8 260.144V234.297L1054.83 226.617L1055.03 226.764ZM1049.62 160.055L1061.72 171.723H1044.62V179.107H1061.72L1049.62 190.776L1037.52 202.444V185.951H1029.86V202.444L1017.76 190.776L1005.66 179.107H1022.76V171.723H1005.66L1017.76 160.055L1029.86 148.386V164.879H1037.52V148.386L1049.62 160.055ZM992.585 150.011V166.504L980.483 154.836L968.381 143.168H985.487V135.783H968.381L980.483 124.115L992.585 112.447V128.94H1000.24V112.447L1012.35 124.115L1024.45 135.783H1007.34V143.168H1024.45L1012.35 154.836L1000.24 166.504V150.011H992.585ZM987.172 179.107L975.07 190.776L962.968 202.444V185.951H955.309V202.444L943.207 190.776L931.105 179.107H948.211V171.723H931.105L943.207 160.055L955.309 148.386V164.879H962.968V148.386L975.07 160.055L987.172 171.723H970.066V179.107H987.172ZM917.982 150.011V166.504L905.88 154.836L893.778 143.168H910.884V135.783H893.778L905.88 124.115L917.982 112.447V128.94H925.641V112.447L937.743 124.115L949.845 135.783H932.739V143.168H949.845L937.743 154.836L925.641 166.504V150.011H917.982ZM895.463 179.107H912.569L900.467 190.776L888.366 202.444V185.951H880.706V202.444L868.604 190.776L856.502 179.107H873.608V171.723H856.502L868.604 160.055L880.706 148.386V164.879H888.366V148.386L900.467 160.055L912.569 171.723H895.463V179.107ZM843.43 150.011V166.504L831.329 154.836L819.227 143.168H836.333V135.783H819.227L831.329 124.115L843.43 112.447V128.94H851.09V112.447L863.192 124.115L875.293 135.783H858.187V143.168H875.293L863.192 154.836L851.09 166.504V150.011H843.43ZM806.104 185.951V202.444L794.002 190.776L781.9 179.107H799.006V171.723H781.9L794.002 160.055L806.104 148.386V164.879H813.763V148.386L825.865 160.055L837.967 171.723H820.861V179.107H837.967L825.865 190.776L813.763 202.444V185.951H806.104ZM768.828 150.011V166.504L756.726 154.836L744.624 143.168H761.73V135.783H744.624L756.726 124.115L768.828 112.447V128.94H776.487V112.447L788.589 124.115L800.691 135.783H783.585V143.168H800.691L788.589 154.836L776.487 166.504V150.011H768.828ZM746.309 179.107H763.415L751.313 190.776L739.211 202.444V185.951H731.552V202.444L719.45 190.776L707.348 179.107H724.454V171.723H707.348L719.45 160.055L731.552 148.386V164.879H739.211V148.386L751.313 160.055L763.415 171.723H746.309V179.107ZM619.674 150.011V166.504L607.572 154.836L595.47 143.168H612.576V135.783H595.47L607.572 124.115L619.674 112.447V128.94H627.333V112.447L639.435 124.115L651.537 135.783H634.431V143.168H651.537L639.435 154.836L627.333 166.504V150.011H619.674ZM614.261 179.107L602.159 190.776L590.057 202.444V185.951H582.398V202.444L570.296 190.776L558.194 179.107H575.3V171.723H558.194L570.296 160.055L582.398 148.386V164.879H590.057V148.386L602.159 160.055L614.261 171.723H597.155V179.107H614.261ZM575.3 99.8433H558.194L570.296 88.1752L582.398 76.5071V93H590.057V76.5071L602.159 88.1752L614.261 99.8433H597.155V107.228H614.261L602.159 118.896L590.057 130.564V114.071H582.398V130.564L570.296 118.896L558.194 107.228H575.3V99.8433ZM649.852 99.8433H632.746L644.848 88.1752L656.949 76.5071V93H664.609V76.5071L676.711 88.1752L688.813 99.8433H671.706V107.228H688.813L676.711 118.896L664.609 130.564V114.071H656.949V130.564L644.848 118.896L632.746 107.228H649.852V99.8433ZM649.852 171.772H632.746L644.848 160.104L656.949 148.436V164.929H664.609V148.436L676.711 160.104L688.813 171.772H671.706V179.157H688.813L676.711 190.825L664.609 202.493V186H656.949V202.493L644.848 190.825L632.746 179.157H649.852V171.772ZM682.123 154.836L670.021 143.168H687.127V135.783H670.021L682.123 124.115L694.225 112.447V128.94H701.885V112.447L713.986 124.115L726.088 135.783H708.982V143.168H726.088L713.986 154.836L701.885 166.504V150.011H694.225V166.504L682.123 154.836ZM739.211 93V76.5071L751.313 88.1752L763.415 99.8433H746.309V107.228H763.415L751.313 118.896L739.211 130.564V114.071H731.552V130.564L719.45 118.896L707.348 107.228H724.454V99.8433H707.348L719.45 88.1752L731.552 76.5071V93H739.211ZM813.763 93V76.5071L825.865 88.1752L837.967 99.8433H820.861V107.228H837.967L825.865 118.896L813.763 130.564V114.071H806.104V130.564L794.002 118.896L781.9 107.228H799.006V99.8433H781.9L794.002 88.1752L806.104 76.5071V93H813.763ZM912.569 107.228L900.467 118.896L888.366 130.564V114.071H880.706V130.564L868.604 118.896L856.502 107.228H873.608V99.8433H856.502L868.604 88.1752L880.706 76.5071V93H888.366V76.5071L900.467 88.1752L912.569 99.8433H895.463V107.228H912.569ZM931.054 99.8433L943.156 88.1752L955.258 76.5071V93H962.917V76.5071L975.019 88.1752L987.121 99.8433H970.015V107.228H987.121L975.019 118.896L962.917 130.564V114.071H955.258V130.564L943.156 118.896L931.054 107.228H948.16V99.8433H931.054ZM1049.62 88.1752L1061.72 99.8433H1044.62V107.228H1061.72L1049.62 118.896L1037.52 130.564V114.071H1029.86V130.564L1017.76 118.896L1005.66 107.228H1022.76V99.8433H1005.66L1017.76 88.1752L1029.86 76.5071V93H1037.52V76.5071L1049.62 88.1752ZM1022.76 27.964H1005.66L1017.76 16.2959L1029.86 4.62785V21.1207H1037.52V4.57861L1049.62 16.2467L1061.72 27.9148H1044.62V35.2996H1061.72L1049.62 46.9677L1037.52 58.6358V42.1429H1029.86V58.6358L1017.76 46.9677L1005.66 35.2996H1022.76V27.9148V27.964ZM1000.24 57.0604V40.5675L1012.35 52.2356L1024.45 63.9037H1007.34V71.2885H1024.45L1012.35 82.9566L1000.24 94.6247V78.1318H992.585V94.6247L980.483 82.9566L968.381 71.2885H985.487V63.9037H968.381L980.483 52.2356L992.585 40.5675V57.0604H1000.24ZM931.054 27.964L943.156 16.2959L955.258 4.62785V21.1207H962.917V4.57861L975.019 16.2467L987.121 27.9148H970.015V35.2996H987.121L975.019 46.9677L962.917 58.6358V42.1429H955.258V58.6358L943.156 46.9677L931.054 35.2996H948.16V27.9148H931.054V27.964ZM917.982 57.0604H925.641V40.5675L937.743 52.2356L949.845 63.9037H932.739V71.2885H949.845L937.743 82.9566L925.641 94.6247V78.1318H917.982V94.6247L905.88 82.9566L893.778 71.2885H910.884V63.9037H893.778L905.88 52.2356L917.982 40.5675V57.0604ZM868.604 16.2467L880.706 4.57861V21.0715H888.366V4.57861L900.467 16.2467L912.569 27.9148H895.463V35.2996H912.569L900.467 46.9677L888.366 58.6358V42.1429H880.706V58.6358L868.604 46.9677L856.502 35.2996H873.608V27.9148H856.502L868.604 16.2467ZM851.09 57.0604V40.5675L863.192 52.2356L875.293 63.9037H858.187V71.2885H875.293L863.192 82.9566L851.09 94.6247V78.1318H843.43V94.6247L831.329 82.9566L819.227 71.2885H836.333V63.9037H819.227L831.329 52.2356L843.43 40.5675V57.0604H851.09ZM794.002 16.2467L806.104 4.57861V21.0715H813.763V4.57861L825.865 16.2467L837.967 27.9148H820.861V35.2996H837.967L825.865 46.9677L813.763 58.6358V42.1429H806.104V58.6358L794.002 46.9677L781.9 35.2996H799.006V27.9148H781.9L794.002 16.2467ZM768.828 57.0604H776.487V40.5675L788.589 52.2356L800.691 63.9037H783.585V71.2885H800.691L788.589 82.9566L776.487 94.6247V78.1318H768.828V94.6247L756.726 82.9566L744.624 71.2885H761.73V63.9037H744.624L756.726 52.2356L768.828 40.5675V57.0604ZM724.454 27.964H707.348L719.45 16.2959L731.552 4.62785V21.1207H739.211V4.57861L751.313 16.2467L763.415 27.9148H746.309V35.2996H763.415L751.313 46.9677L739.211 58.6358V42.1429H731.552V58.6358L719.45 46.9677L707.348 35.2996H724.454V27.9148V27.964ZM701.936 57.0604V40.5675L714.037 52.2356L726.139 63.9037H709.033V71.2885H726.139L714.037 82.9566L701.936 94.6247V78.1318H694.276V94.6247L682.174 82.9566L670.072 71.2885H687.178V63.9037H670.072L682.174 52.2356L694.276 40.5675V57.0604H701.936ZM644.848 16.2467L656.949 4.57861V21.0715H664.609V4.57861L676.711 16.2467L688.813 27.9148H671.706V35.2996H688.813L676.711 46.9677L664.609 58.6358V42.1429H656.949V58.6358L644.848 46.9677L632.746 35.2996H649.852V27.9148H632.746L644.848 16.2467ZM627.333 57.0604V40.5675L639.435 52.2356L651.537 63.9037H634.431V71.2885H651.537L639.435 82.9566L627.333 94.6247V78.1318H619.674V94.6247L607.572 82.9566L595.47 71.2885H612.576V63.9037H595.47L607.572 52.2356L619.674 40.5675V57.0604H627.333ZM575.3 27.964H558.194L570.296 16.2959L582.398 4.62785V21.1207H590.057V4.57861L602.159 16.2467L614.261 27.9148H597.155V35.2996H614.261L602.159 46.9677L590.057 58.6358V42.1429H582.398V58.6358L570.296 46.9677L558.194 35.2996H575.3V27.9148V27.964ZM533.02 82.9566L520.918 71.2885H538.024V63.9037H520.918L533.02 52.2356L545.122 40.5675V57.0604H552.781V40.5675L564.883 52.2356L576.985 63.9037H559.879V71.2885H576.985L564.883 82.9566L552.781 94.6247V78.1318H545.122V94.6247L533.02 82.9566ZM533.02 154.836L520.918 143.168H538.024V135.783H520.918L533.02 124.115L545.122 112.447V128.94H552.781V112.447L564.883 124.115L576.985 135.783H559.879V143.168H576.985L564.883 154.836L552.781 166.504V150.011H545.122V166.504L533.02 154.836ZM552.781 238.433V221.94H545.122V238.433L533.02 226.764L520.918 215.096H538.024V207.711H520.918L533.02 196.043L545.122 184.375V200.868H552.781V184.375L564.883 196.043L576.985 207.711H559.879V215.096H576.985L564.883 226.764L552.781 238.433ZM614.261 251.036L602.159 262.704L590.057 274.372V257.879H582.398V274.372L570.296 262.704L558.194 251.036H575.3V243.651H558.194L570.296 231.983L582.398 220.315V236.808H590.057V220.315L602.159 231.983L614.261 243.651H597.155V251.036H614.261ZM627.333 221.94H619.674V238.433L607.572 226.764L595.47 215.096H612.576V207.711H595.47L607.572 196.043L619.674 184.375V200.868H627.333V184.375L639.435 196.043L651.537 207.711H634.431V215.096H651.537L639.435 226.764L627.333 238.433V221.94ZM688.864 251.036L676.762 262.704L664.66 274.372V257.879H657V274.372L644.899 262.704L632.797 251.036H649.903V243.651H632.797L644.899 231.983L657 220.315V236.808H664.66V220.315L676.762 231.983L688.864 243.651H671.758V251.036H688.864ZM701.936 221.94H694.276V238.433L682.174 226.764L670.072 215.096H687.178V207.711H670.072L682.174 196.043L694.276 184.375V200.868H701.936V184.375L714.037 196.043L726.139 207.711H709.033V215.096H726.139L714.037 226.764L701.936 238.433V221.94ZM751.313 262.704L739.211 274.372V257.879H731.552V274.372L719.45 262.704L707.348 251.036H724.454V243.651H707.348L719.45 231.983L731.552 220.315V236.808H739.211V220.315L751.313 231.983L763.415 243.651H746.309V251.036H763.415L751.313 262.704ZM776.487 221.94H768.828V238.433L756.726 226.764L744.624 215.096H761.73V207.711H744.624L756.726 196.043L768.828 184.375V200.868H776.487V184.375L788.589 196.043L800.691 207.711H783.585V215.096H800.691L788.589 226.764L776.487 238.433V221.94ZM820.861 251.036H837.967L825.865 262.704L813.763 274.372V257.879H806.104V274.372L794.002 262.704L781.9 251.036H799.006V243.651H781.9L794.002 231.983L806.104 220.315V236.808H813.763V220.315L825.865 231.983L837.967 243.651H820.861V251.036ZM843.43 221.94V238.433L831.329 226.764L819.227 215.096H836.333V207.711H819.227L831.329 196.043L843.43 184.375V200.868H851.09V184.375L863.192 196.043L875.293 207.711H858.187V215.096H875.293L863.192 226.764L851.09 238.433V221.94H843.43ZM900.467 262.704L888.366 274.372V257.879H880.706V274.372L868.604 262.704L856.502 251.036H873.608V243.651H856.502L868.604 231.983L880.706 220.315V236.808H888.366V220.315L900.467 231.983L912.569 243.651H895.463V251.036H912.569L900.467 262.704ZM917.982 221.94V238.433L905.88 226.764L893.778 215.096H910.884V207.711H893.778L905.88 196.043L917.982 184.375V200.868H925.641V184.375L937.743 196.043L949.845 207.711H932.739V215.096H949.845L937.743 226.764L925.641 238.433V221.94H917.982ZM970.015 251.036H987.121L975.019 262.704L962.917 274.372V257.879H955.258V274.372L943.156 262.704L931.054 251.036H948.16V243.651H931.054L943.156 231.983L955.258 220.315V236.808H962.917V220.315L975.019 231.983L987.121 243.651H970.015V251.036ZM1000.24 238.433V221.94H992.585V238.433L980.483 226.764L968.381 215.096H985.487V207.711H968.381L980.483 196.043L992.585 184.375V200.868H1000.24V184.375L1012.35 196.043L1024.45 207.711H1007.34V215.096H1024.45L1012.35 226.764L1000.24 238.433ZM1049.62 262.704L1037.52 274.372V257.879H1029.86V274.372L1017.76 262.704L1005.66 251.036H1022.76V243.651H1005.66L1017.76 231.983L1029.86 220.315V236.808H1037.52V220.315L1049.62 231.983L1061.72 243.651H1044.62V251.036H1061.72L1049.62 262.704Z" fill="#334688"></path>
</svg>
