<?xml version="1.0" encoding="UTF-8"?>
<svg xmlns="http://www.w3.org/2000/svg" width="354" height="60" viewBox="0 0 354 60" fill="none">
  <rect x="-6.86646e-05" y="0.00158691" width="354" height="60" fill="#009949"></rect>
  <mask id="mask0_980_440" style="mask-type:alpha" maskUnits="userSpaceOnUse" x="0" y="0" width="354" height="61">
    <rect x="-6.86646e-05" y="0.00158691" width="354" height="60" fill="#FF9620"></rect>
  </mask>
  <g mask="url(#mask0_980_440)">
    <path d="M386.359 50.3056L377.79 42.1087H389.903V36.9208H377.79L386.359 28.7238L392 23.3284V5.17063L386.359 -0.224807L377.79 -8.42174H389.903V-13.6097H377.79L386.359 -21.8066L392 -27.202V-45.3598L386.359 -50.7553L377.79 -58.9522H389.903V-64.1401H377.79L386.359 -72.337L392 -77.7325V-95.8557L386.359 -101.251L378.26 -108.998H364.266L356.167 -101.251L347.597 -93.0542V-104.641H342.174V-93.0542L333.604 -101.251L325.505 -108.998H311.511L303.412 -101.251L294.842 -93.0542V-104.641H289.419V-93.0542L280.849 -101.251L272.75 -108.998H258.756L250.657 -101.251L242.087 -93.0542V-104.641H236.663V-93.0542L228.094 -101.251L219.994 -108.998H206.001L197.902 -101.251L189.332 -93.0542V-104.641H183.908V-93.0542L175.339 -101.251L167.239 -108.998H153.246L145.147 -101.251L136.577 -93.0542V-104.641H131.153V-93.0542L122.584 -101.251L114.484 -108.998H100.491L92.3915 -101.251L83.822 -93.0542V-104.641H78.3982V-93.0542L69.8287 -101.251L61.7292 -108.998H47.7359L39.6364 -101.251L31.0669 -93.0542V-104.641H25.6431V-93.0542L17.0736 -101.251L8.57635 -108.998H-5.41695L-13.5526 -101.251L-18.0001 -96.997V-89.6647L-9.7198 -97.585L-1.15026 -105.782V-94.1955H4.2735V-105.782L12.843 -97.585L21.4126 -89.388H9.29952V-84.2001H21.4126L12.843 -76.0032L4.2735 -67.8062V-79.3926H-1.15026V-67.8062L-9.7198 -76.0032L-18.0001 -83.9234V-76.5911L-13.5526 -72.337L-4.98305 -64.1401H-17.0961V-58.9522H-4.98305L-13.5526 -50.7553L-18.0001 -46.5011V-39.1689L-9.7198 -47.0891L-1.15026 -55.286V-43.6997H4.2735V-55.286L12.843 -47.0891L21.4126 -38.8922H9.29952V-33.7043H21.4126L12.843 -25.5073L4.2735 -17.3104V-28.8968H-1.15026V-17.3104L-9.7198 -25.5073L-18.0001 -33.4276V-26.0953L-13.5526 -21.8412L-4.98305 -13.6443H-17.0961V-8.45633H-4.98305L-13.5526 -0.259398L-18.0001 3.9947V11.327L-9.7198 3.40673L-1.15026 -4.79019V6.79619H4.2735V-4.79019L12.843 3.40673L21.4126 11.6037H9.29952V16.7916H21.4126L12.843 24.9885L4.2735 33.1855V21.5991H-1.15026V33.1855L-9.7198 24.9885L-18.0001 17.0683V24.4006L-13.5526 28.6547L-4.98305 36.8516H-17.0961V42.0395H-4.98305L-13.5526 50.2365L-18.0001 54.4906V61.8228L-9.7198 53.9026L-1.15026 45.7057V57.292H4.2735V45.7057L12.843 53.9026L21.4126 62.0995H9.29952V67.2874H21.4126L12.843 75.4844L4.2735 83.6813V72.0949H-1.15026V83.6813L-9.7198 75.4844L-18.0001 67.5641V74.8964L-13.5526 79.1505L-5.34463 87.0016H8.46787L16.6758 79.1505L25.2454 70.9536V82.54H30.6691V70.9536L39.2387 79.1505L47.4466 87.0016H61.2591L69.4671 79.1505L78.0366 70.9536V82.54H83.4604V70.9536L92.0299 79.1505L100.238 87.0016H114.05L122.258 79.1505L130.828 70.9536V82.54H136.252V70.9536L144.821 79.1505L153.029 87.0016H166.842L175.05 79.1505L183.619 70.9536V82.54H189.043V70.9536L197.612 79.1505L205.82 87.0016H219.633L227.841 79.1505L236.41 70.9536V82.54H241.834V70.9536L250.404 79.1505L258.612 87.0016H272.424L280.632 79.1505L289.202 70.9536V82.54H294.625V70.9536L303.195 79.1505L311.403 87.0016H325.215L333.423 79.1505L341.993 70.9536V82.54H347.417V70.9536L355.986 79.1505L364.194 87.0016H378.007L386.215 79.1505L391.855 73.7551V55.5973L386.215 50.2019L386.359 50.3056ZM382.526 3.44132L391.096 11.6383H378.983V16.8262H391.096L382.526 25.0231L373.957 33.22V21.6337H368.533V33.22L359.964 25.0231L351.394 16.8262H363.507V11.6383H351.394L359.964 3.44132L368.533 -4.75561V6.83078H373.957V-4.75561L382.526 3.44132ZM342.137 -3.61426V7.97212L333.568 -0.224807L324.998 -8.42174H337.111V-13.6097H324.998L333.568 -21.8066L342.137 -30.0035V-18.4172H347.561V-30.0035L356.131 -21.8066L364.7 -13.6097H352.587V-8.42174H364.7L356.131 -0.224807L347.561 7.97212V-3.61426H342.137ZM338.305 16.8262L329.735 25.0231L321.166 33.22V21.6337H315.742V33.22L307.172 25.0231L298.603 16.8262H310.716V11.6383H298.603L307.172 3.44132L315.742 -4.75561V6.83078H321.166V-4.75561L329.735 3.44132L338.305 11.6383H326.192V16.8262H338.305ZM289.31 -3.61426V7.97212L280.741 -0.224807L272.171 -8.42174H284.284V-13.6097H272.171L280.741 -21.8066L289.31 -30.0035V-18.4172H294.734V-30.0035L303.303 -21.8066L311.873 -13.6097H299.76V-8.42174H311.873L303.303 -0.224807L294.734 7.97212V-3.61426H289.31ZM273.364 16.8262H285.477L276.908 25.0231L268.338 33.22V21.6337H262.914V33.22L254.345 25.0231L245.775 16.8262H257.888V11.6383H245.775L254.345 3.44132L262.914 -4.75561V6.83078H268.338V-4.75561L276.908 3.44132L285.477 11.6383H273.364V16.8262ZM236.519 -3.61426V7.97212L227.949 -0.224807L219.38 -8.42174H231.493V-13.6097H219.38L227.949 -21.8066L236.519 -30.0035V-18.4172H241.943V-30.0035L250.512 -21.8066L259.082 -13.6097H246.969V-8.42174H259.082L250.512 -0.224807L241.943 7.97212V-3.61426H236.519ZM210.087 21.6337V33.22L201.518 25.0231L192.948 16.8262H205.061V11.6383H192.948L201.518 3.44132L210.087 -4.75561V6.83078H215.511V-4.75561L224.08 3.44132L232.65 11.6383H220.537V16.8262H232.65L224.08 25.0231L215.511 33.22V21.6337H210.087ZM183.691 -3.61426V7.97212L175.122 -0.224807L166.552 -8.42174H178.665V-13.6097H166.552L175.122 -21.8066L183.691 -30.0035V-18.4172H189.115V-30.0035L197.685 -21.8066L206.254 -13.6097H194.141V-8.42174H206.254L197.685 -0.224807L189.115 7.97212V-3.61426H183.691ZM167.746 16.8262H179.859L171.289 25.0231L162.72 33.22V21.6337H157.296V33.22L148.726 25.0231L140.157 16.8262H152.27V11.6383H140.157L148.726 3.44132L157.296 -4.75561V6.83078H162.72V-4.75561L171.289 3.44132L179.859 11.6383H167.746V16.8262ZM78.0728 -3.61426V7.97212L69.5032 -0.224807L60.9337 -8.42174H73.0468V-13.6097H60.9337L69.5032 -21.8066L78.0728 -30.0035V-18.4172H83.4965V-30.0035L92.0661 -21.8066L100.636 -13.6097H88.5226V-8.42174H100.636L92.0661 -0.224807L83.4965 7.97212V-3.61426H78.0728ZM74.24 16.8262L65.6704 25.0231L57.1009 33.22V21.6337H51.6772V33.22L43.1076 25.0231L34.5381 16.8262H46.6511V11.6383H34.5381L43.1076 3.44132L51.6772 -4.75561V6.83078H57.1009V-4.75561L65.6704 3.44132L74.24 11.6383H62.1269V16.8262H74.24ZM46.6511 -38.8576H34.5381L43.1076 -47.0545L51.6772 -55.2515V-43.6651H57.1009V-55.2515L65.6704 -47.0545L74.24 -38.8576H62.1269V-33.6697H74.24L65.6704 -25.4727L57.1009 -17.2758V-28.8622H51.6772V-17.2758L43.1076 -25.4727L34.5381 -33.6697H46.6511V-38.8576ZM99.4424 -38.8576H87.3293L95.8989 -47.0545L104.468 -55.2515V-43.6651H109.892V-55.2515L118.462 -47.0545L127.031 -38.8576H114.918V-33.6697H127.031L118.462 -25.4727L109.892 -17.2758V-28.8622H104.468V-17.2758L95.8989 -25.4727L87.3293 -33.6697H99.4424V-38.8576ZM99.4424 11.6728H87.3293L95.8989 3.47591L104.468 -4.72101V6.86536H109.892V-4.72101L118.462 3.47591L127.031 11.6728H114.918V16.8608H127.031L118.462 25.0577L109.892 33.2546V21.6683H104.468V33.2546L95.8989 25.0577L87.3293 16.8608H99.4424V11.6728ZM122.294 -0.224807L113.725 -8.42174H125.838V-13.6097H113.725L122.294 -21.8066L130.864 -30.0035V-18.4172H136.288V-30.0035L144.857 -21.8066L153.427 -13.6097H141.314V-8.42174H153.427L144.857 -0.224807L136.288 7.97212V-3.61426H130.864V7.97212L122.294 -0.224807ZM162.72 -43.6651V-55.2515L171.289 -47.0545L179.859 -38.8576H167.746V-33.6697H179.859L171.289 -25.4727L162.72 -17.2758V-28.8622H157.296V-17.2758L148.726 -25.4727L140.157 -33.6697H152.27V-38.8576H140.157L148.726 -47.0545L157.296 -55.2515V-43.6651H162.72ZM215.511 -43.6651V-55.2515L224.08 -47.0545L232.65 -38.8576H220.537V-33.6697H232.65L224.08 -25.4727L215.511 -17.2758V-28.8622H210.087V-17.2758L201.518 -25.4727L192.948 -33.6697H205.061V-38.8576H192.948L201.518 -47.0545L210.087 -55.2515V-43.6651H215.511ZM285.477 -33.6697L276.908 -25.4727L268.338 -17.2758V-28.8622H262.914V-17.2758L254.345 -25.4727L245.775 -33.6697H257.888V-38.8576H245.775L254.345 -47.0545L262.914 -55.2515V-43.6651H268.338V-55.2515L276.908 -47.0545L285.477 -38.8576H273.364V-33.6697H285.477ZM298.567 -38.8576L307.136 -47.0545L315.706 -55.2515V-43.6651H321.129V-55.2515L329.699 -47.0545L338.269 -38.8576H326.155V-33.6697H338.269L329.699 -25.4727L321.129 -17.2758V-28.8622H315.706V-17.2758L307.136 -25.4727L298.567 -33.6697H310.68V-38.8576H298.567ZM382.526 -47.0545L391.096 -38.8576H378.983V-33.6697H391.096L382.526 -25.4727L373.957 -17.2758V-28.8622H368.533V-17.2758L359.964 -25.4727L351.394 -33.6697H363.507V-38.8576H351.394L359.964 -47.0545L368.533 -55.2515V-43.6651H373.957V-55.2515L382.526 -47.0545ZM363.507 -89.3535H351.394L359.964 -97.5504L368.533 -105.747V-94.1609H373.957V-105.782L382.526 -97.585L391.096 -89.388H378.983V-84.2001H391.096L382.526 -76.0032L373.957 -67.8062V-79.3926H368.533V-67.8062L359.964 -76.0032L351.394 -84.2001H363.507V-89.388V-89.3535ZM347.561 -68.913V-80.4994L356.131 -72.3025L364.7 -64.1055H352.587V-58.9176H364.7L356.131 -50.7207L347.561 -42.5237V-54.1101H342.137V-42.5237L333.568 -50.7207L324.998 -58.9176H337.111V-64.1055H324.998L333.568 -72.3025L342.137 -80.4994V-68.913H347.561ZM298.567 -89.3535L307.136 -97.5504L315.706 -105.747V-94.1609H321.129V-105.782L329.699 -97.585L338.269 -89.388H326.155V-84.2001H338.269L329.699 -76.0032L321.129 -67.8062V-79.3926H315.706V-67.8062L307.136 -76.0032L298.567 -84.2001H310.68V-89.388H298.567V-89.3535ZM289.31 -68.913H294.734V-80.4994L303.303 -72.3025L311.873 -64.1055H299.76V-58.9176H311.873L303.303 -50.7207L294.734 -42.5237V-54.1101H289.31V-42.5237L280.741 -50.7207L272.171 -58.9176H284.284V-64.1055H272.171L280.741 -72.3025L289.31 -80.4994V-68.913ZM254.345 -97.585L262.914 -105.782V-94.1955H268.338V-105.782L276.908 -97.585L285.477 -89.388H273.364V-84.2001H285.477L276.908 -76.0032L268.338 -67.8062V-79.3926H262.914V-67.8062L254.345 -76.0032L245.775 -84.2001H257.888V-89.388H245.775L254.345 -97.585ZM241.943 -68.913V-80.4994L250.512 -72.3025L259.082 -64.1055H246.969V-58.9176H259.082L250.512 -50.7207L241.943 -42.5237V-54.1101H236.519V-42.5237L227.949 -50.7207L219.38 -58.9176H231.493V-64.1055H219.38L227.949 -72.3025L236.519 -80.4994V-68.913H241.943ZM201.518 -97.585L210.087 -105.782V-94.1955H215.511V-105.782L224.08 -97.585L232.65 -89.388H220.537V-84.2001H232.65L224.08 -76.0032L215.511 -67.8062V-79.3926H210.087V-67.8062L201.518 -76.0032L192.948 -84.2001H205.061V-89.388H192.948L201.518 -97.585ZM183.691 -68.913H189.115V-80.4994L197.685 -72.3025L206.254 -64.1055H194.141V-58.9176H206.254L197.685 -50.7207L189.115 -42.5237V-54.1101H183.691V-42.5237L175.122 -50.7207L166.552 -58.9176H178.665V-64.1055H166.552L175.122 -72.3025L183.691 -80.4994V-68.913ZM152.27 -89.3535H140.157L148.726 -97.5504L157.296 -105.747V-94.1609H162.72V-105.782L171.289 -97.585L179.859 -89.388H167.746V-84.2001H179.859L171.289 -76.0032L162.72 -67.8062V-79.3926H157.296V-67.8062L148.726 -76.0032L140.157 -84.2001H152.27V-89.388V-89.3535ZM136.324 -68.913V-80.4994L144.893 -72.3025L153.463 -64.1055H141.35V-58.9176H153.463L144.893 -50.7207L136.324 -42.5237V-54.1101H130.9V-42.5237L122.331 -50.7207L113.761 -58.9176H125.874V-64.1055H113.761L122.331 -72.3025L130.9 -80.4994V-68.913H136.324ZM95.8989 -97.585L104.468 -105.782V-94.1955H109.892V-105.782L118.462 -97.585L127.031 -89.388H114.918V-84.2001H127.031L118.462 -76.0032L109.892 -67.8062V-79.3926H104.468V-67.8062L95.8989 -76.0032L87.3293 -84.2001H99.4424V-89.388H87.3293L95.8989 -97.585ZM83.4965 -68.913V-80.4994L92.0661 -72.3025L100.636 -64.1055H88.5226V-58.9176H100.636L92.0661 -50.7207L83.4965 -42.5237V-54.1101H78.0728V-42.5237L69.5032 -50.7207L60.9337 -58.9176H73.0468V-64.1055H60.9337L69.5032 -72.3025L78.0728 -80.4994V-68.913H83.4965ZM46.6511 -89.3535H34.5381L43.1076 -97.5504L51.6772 -105.747V-94.1609H57.1009V-105.782L65.6704 -97.585L74.24 -89.388H62.1269V-84.2001H74.24L65.6704 -76.0032L57.1009 -67.8062V-79.3926H51.6772V-67.8062L43.1076 -76.0032L34.5381 -84.2001H46.6511V-89.388V-89.3535ZM16.712 -50.7207L8.14245 -58.9176H20.2555V-64.1055H8.14245L16.712 -72.3025L25.2815 -80.4994V-68.913H30.7053V-80.4994L39.2748 -72.3025L47.8444 -64.1055H35.7313V-58.9176H47.8444L39.2748 -50.7207L30.7053 -42.5237V-54.1101H25.2815V-42.5237L16.712 -50.7207ZM16.712 -0.224807L8.14245 -8.42174H20.2555V-13.6097H8.14245L16.712 -21.8066L25.2815 -30.0035V-18.4172H30.7053V-30.0035L39.2748 -21.8066L47.8444 -13.6097H35.7313V-8.42174H47.8444L39.2748 -0.224807L30.7053 7.97212V-3.61426H25.2815V7.97212L16.712 -0.224807ZM30.7053 58.5026V46.9162H25.2815V58.5026L16.712 50.3056L8.14245 42.1087H20.2555V36.9208H8.14245L16.712 28.7238L25.2815 20.5269V32.1133H30.7053V20.5269L39.2748 28.7238L47.8444 36.9208H35.7313V42.1087H47.8444L39.2748 50.3056L30.7053 58.5026ZM74.24 67.3566L65.6704 75.5536L57.1009 83.7505V72.1641H51.6772V83.7505L43.1076 75.5536L34.5381 67.3566H46.6511V62.1687H34.5381L43.1076 53.9718L51.6772 45.7748V57.3612H57.1009V45.7748L65.6704 53.9718L74.24 62.1687H62.1269V67.3566H74.24ZM83.4965 46.9162H78.0728V58.5026L69.5032 50.3056L60.9337 42.1087H73.0468V36.9208H60.9337L69.5032 28.7238L78.0728 20.5269V32.1133H83.4965V20.5269L92.0661 28.7238L100.636 36.9208H88.5226V42.1087H100.636L92.0661 50.3056L83.4965 58.5026V46.9162ZM127.067 67.3566L118.498 75.5536L109.928 83.7505V72.1641H104.505V83.7505L95.935 75.5536L87.3655 67.3566H99.4786V62.1687H87.3655L95.935 53.9718L104.505 45.7748V57.3612H109.928V45.7748L118.498 53.9718L127.067 62.1687H114.954V67.3566H127.067ZM136.324 46.9162H130.9V58.5026L122.331 50.3056L113.761 42.1087H125.874V36.9208H113.761L122.331 28.7238L130.9 20.5269V32.1133H136.324V20.5269L144.893 28.7238L153.463 36.9208H141.35V42.1087H153.463L144.893 50.3056L136.324 58.5026V46.9162ZM171.289 75.5536L162.72 83.7505V72.1641H157.296V83.7505L148.726 75.5536L140.157 67.3566H152.27V62.1687H140.157L148.726 53.9718L157.296 45.7748V57.3612H162.72V45.7748L171.289 53.9718L179.859 62.1687H167.746V67.3566H179.859L171.289 75.5536ZM189.115 46.9162H183.691V58.5026L175.122 50.3056L166.552 42.1087H178.665V36.9208H166.552L175.122 28.7238L183.691 20.5269V32.1133H189.115V20.5269L197.685 28.7238L206.254 36.9208H194.141V42.1087H206.254L197.685 50.3056L189.115 58.5026V46.9162ZM220.537 67.3566H232.65L224.08 75.5536L215.511 83.7505V72.1641H210.087V83.7505L201.518 75.5536L192.948 67.3566H205.061V62.1687H192.948L201.518 53.9718L210.087 45.7748V57.3612H215.511V45.7748L224.08 53.9718L232.65 62.1687H220.537V67.3566ZM236.519 46.9162V58.5026L227.949 50.3056L219.38 42.1087H231.493V36.9208H219.38L227.949 28.7238L236.519 20.5269V32.1133H241.943V20.5269L250.512 28.7238L259.082 36.9208H246.969V42.1087H259.082L250.512 50.3056L241.943 58.5026V46.9162H236.519ZM276.908 75.5536L268.338 83.7505V72.1641H262.914V83.7505L254.345 75.5536L245.775 67.3566H257.888V62.1687H245.775L254.345 53.9718L262.914 45.7748V57.3612H268.338V45.7748L276.908 53.9718L285.477 62.1687H273.364V67.3566H285.477L276.908 75.5536ZM289.31 46.9162V58.5026L280.741 50.3056L272.171 42.1087H284.284V36.9208H272.171L280.741 28.7238L289.31 20.5269V32.1133H294.734V20.5269L303.303 28.7238L311.873 36.9208H299.76V42.1087H311.873L303.303 50.3056L294.734 58.5026V46.9162H289.31ZM326.155 67.3566H338.269L329.699 75.5536L321.129 83.7505V72.1641H315.706V83.7505L307.136 75.5536L298.567 67.3566H310.68V62.1687H298.567L307.136 53.9718L315.706 45.7748V57.3612H321.129V45.7748L329.699 53.9718L338.269 62.1687H326.155V67.3566ZM347.561 58.5026V46.9162H342.137V58.5026L333.568 50.3056L324.998 42.1087H337.111V36.9208H324.998L333.568 28.7238L342.137 20.5269V32.1133H347.561V20.5269L356.131 28.7238L364.7 36.9208H352.587V42.1087H364.7L356.131 50.3056L347.561 58.5026ZM382.526 75.5536L373.957 83.7505V72.1641H368.533V83.7505L359.964 75.5536L351.394 67.3566H363.507V62.1687H351.394L359.964 53.9718L368.533 45.7748V57.3612H373.957V45.7748L382.526 53.9718L391.096 62.1687H378.983V67.3566H391.096L382.526 75.5536Z" fill="#90CEC7"></path>
  </g>
</svg>
