<?xml version="1.0" encoding="UTF-8"?>
<svg xmlns="http://www.w3.org/2000/svg" width="355" height="60" viewBox="0 0 355 60" fill="none">
  <rect x="0.110687" y="-0.000488281" width="354" height="60" fill="#8085B4"></rect>
  <mask id="mask0_980_377" style="mask-type:alpha" maskUnits="userSpaceOnUse" x="0" y="-1" width="355" height="61">
    <rect x="0.110687" y="-0.000488281" width="354" height="60" fill="#ED9FA5"></rect>
  </mask>
  <g mask="url(#mask0_980_377)">
    <path d="M386.47 50.3032L377.9 42.1063H390.014V36.9183H377.9L386.47 28.7214L392.111 23.326V5.1682L386.47 -0.227242L377.9 -8.42417H390.014V-13.6121H377.9L386.47 -21.809L392.111 -27.2045V-45.3622L386.47 -50.7577L377.9 -58.9546H390.014V-64.1425H377.9L386.47 -72.3395L392.111 -77.7349V-95.8581L386.47 -101.254L378.371 -109.001H364.377L356.278 -101.254L347.708 -93.0566V-104.643H342.284V-93.0566L333.715 -101.254L325.615 -109.001H311.622L303.523 -101.254L294.953 -93.0566V-104.643H289.529V-93.0566L280.96 -101.254L272.86 -109.001H258.867L250.768 -101.254L242.198 -93.0566V-104.643H236.774V-93.0566L228.205 -101.254L220.105 -109.001H206.112L198.012 -101.254L189.443 -93.0566V-104.643H184.019V-93.0566L175.45 -101.254L167.35 -109.001H153.357L145.257 -101.254L136.688 -93.0566V-104.643H131.264V-93.0566L122.695 -101.254L114.595 -109.001H100.602L92.5023 -101.254L83.9327 -93.0566V-104.643H78.509V-93.0566L69.9395 -101.254L61.84 -109.001H47.8467L39.7472 -101.254L31.1777 -93.0566V-104.643H25.7539V-93.0566L17.1844 -101.254L8.68713 -109.001H-5.30616L-13.4418 -101.254L-17.8893 -96.9994V-89.6672L-9.60901 -97.5874L-1.03947 -105.784V-94.198H4.38429V-105.784L12.9538 -97.5874L21.5234 -89.3905H9.4103V-84.2025H21.5234L12.9538 -76.0056L4.38429 -67.8087V-79.3951H-1.03947V-67.8087L-9.60901 -76.0056L-17.8893 -83.9259V-76.5936L-13.4418 -72.3395L-4.87226 -64.1425H-16.9853V-58.9546H-4.87226L-13.4418 -50.7577L-17.8893 -46.5036V-39.1713L-9.60901 -47.0916L-1.03947 -55.2885V-43.7021H4.38429V-55.2885L12.9538 -47.0916L21.5234 -38.8946H9.4103V-33.7067H21.5234L12.9538 -25.5098L4.38429 -17.3128V-28.8992H-1.03947V-17.3128L-9.60901 -25.5098L-17.8893 -33.43V-26.0977L-13.4418 -21.8436L-4.87226 -13.6467H-16.9853V-8.45876H-4.87226L-13.4418 -0.261833L-17.8893 3.99226V11.3245L-9.60901 3.4043L-1.03947 -4.79263V6.79375H4.38429V-4.79263L12.9538 3.4043L21.5234 11.6012H9.4103V16.7892H21.5234L12.9538 24.9861L4.38429 33.183V21.5966H-1.03947V33.183L-9.60901 24.9861L-17.8893 17.0659V24.3981L-13.4418 28.6522L-4.87226 36.8492H-16.9853V42.0371H-4.87226L-13.4418 50.234L-17.8893 54.4881V61.8204L-9.60901 53.9001L-1.03947 45.7032V57.2896H4.38429V45.7032L12.9538 53.9001L21.5234 62.0971H9.4103V67.285H21.5234L12.9538 75.4819L4.38429 83.6789V72.0925H-1.03947V83.6789L-9.60901 75.4819L-17.8893 67.5617V74.894L-13.4418 79.1481L-5.23384 86.9991H8.57866L16.7866 79.1481L25.3562 70.9512V82.5375H30.7799V70.9512L39.3495 79.1481L47.5574 86.9991H61.3699L69.5779 79.1481L78.1474 70.9512V82.5375H83.5712V70.9512L92.1407 79.1481L100.349 86.9991H114.161L122.369 79.1481L130.939 70.9512V82.5375H136.362V70.9512L144.932 79.1481L153.14 86.9991H166.952L175.16 79.1481L183.73 70.9512V82.5375H189.154V70.9512L197.723 79.1481L205.931 86.9991H219.744L227.952 79.1481L236.521 70.9512V82.5375H241.945V70.9512L250.514 79.1481L258.722 86.9991H272.535L280.743 79.1481L289.312 70.9512V82.5375H294.736V70.9512L303.306 79.1481L311.514 86.9991H325.326L333.534 79.1481L342.104 70.9512V82.5375H347.527V70.9512L356.097 79.1481L364.305 86.9991H378.117L386.325 79.1481L391.966 73.7526V55.5949L386.325 50.1994L386.47 50.3032ZM382.637 3.43888L391.207 11.6358H379.094V16.8238H391.207L382.637 25.0207L374.068 33.2176V21.6312H368.644V33.2176L360.074 25.0207L351.505 16.8238H363.618V11.6358H351.505L360.074 3.43888L368.644 -4.75804V6.82835H374.068V-4.75804L382.637 3.43888ZM342.248 -3.6167V7.96968L333.679 -0.227242L325.109 -8.42417H337.222V-13.6121H325.109L333.679 -21.809L342.248 -30.006V-18.4196H347.672V-30.006L356.242 -21.809L364.811 -13.6121H352.698V-8.42417H364.811L356.242 -0.227242L347.672 7.96968V-3.6167H342.248ZM338.415 16.8238L329.846 25.0207L321.276 33.2176V21.6312H315.853V33.2176L307.283 25.0207L298.714 16.8238H310.827V11.6358H298.714L307.283 3.43888L315.853 -4.75804V6.82835H321.276V-4.75804L329.846 3.43888L338.415 11.6358H326.302V16.8238H338.415ZM289.421 -3.6167V7.96968L280.851 -0.227242L272.282 -8.42417H284.395V-13.6121H272.282L280.851 -21.809L289.421 -30.006V-18.4196H294.845V-30.006L303.414 -21.809L311.984 -13.6121H299.871V-8.42417H311.984L303.414 -0.227242L294.845 7.96968V-3.6167H289.421ZM273.475 16.8238H285.588L277.019 25.0207L268.449 33.2176V21.6312H263.025V33.2176L254.456 25.0207L245.886 16.8238H257.999V11.6358H245.886L254.456 3.43888L263.025 -4.75804V6.82835H268.449V-4.75804L277.019 3.43888L285.588 11.6358H273.475V16.8238ZM236.63 -3.6167V7.96968L228.06 -0.227242L219.491 -8.42417H231.604V-13.6121H219.491L228.06 -21.809L236.63 -30.006V-18.4196H242.053V-30.006L250.623 -21.809L259.192 -13.6121H247.079V-8.42417H259.192L250.623 -0.227242L242.053 7.96968V-3.6167H236.63ZM210.198 21.6312V33.2176L201.628 25.0207L193.059 16.8238H205.172V11.6358H193.059L201.628 3.43888L210.198 -4.75804V6.82835H215.622V-4.75804L224.191 3.43888L232.761 11.6358H220.648V16.8238H232.761L224.191 25.0207L215.622 33.2176V21.6312H210.198ZM183.802 -3.6167V7.96968L175.233 -0.227242L166.663 -8.42417H178.776V-13.6121H166.663L175.233 -21.809L183.802 -30.006V-18.4196H189.226V-30.006L197.796 -21.809L206.365 -13.6121H194.252V-8.42417H206.365L197.796 -0.227242L189.226 7.96968V-3.6167H183.802ZM167.856 16.8238H179.969L171.4 25.0207L162.83 33.2176V21.6312H157.407V33.2176L148.837 25.0207L140.268 16.8238H152.381V11.6358H140.268L148.837 3.43888L157.407 -4.75804V6.82835H162.83V-4.75804L171.4 3.43888L179.969 11.6358H167.856V16.8238ZM78.1836 -3.6167V7.96968L69.614 -0.227242L61.0445 -8.42417H73.1576V-13.6121H61.0445L69.614 -21.809L78.1836 -30.006V-18.4196H83.6073V-30.006L92.1769 -21.809L100.746 -13.6121H88.6333V-8.42417H100.746L92.1769 -0.227242L83.6073 7.96968V-3.6167H78.1836ZM74.3508 16.8238L65.7812 25.0207L57.2117 33.2176V21.6312H51.7879V33.2176L43.2184 25.0207L34.6489 16.8238H46.7619V11.6358H34.6489L43.2184 3.43888L51.7879 -4.75804V6.82835H57.2117V-4.75804L65.7812 3.43888L74.3508 11.6358H62.2377V16.8238H74.3508ZM46.7619 -38.86H34.6489L43.2184 -47.057L51.7879 -55.2539V-43.6675H57.2117V-55.2539L65.7812 -47.057L74.3508 -38.86H62.2377V-33.6721H74.3508L65.7812 -25.4752L57.2117 -17.2782V-28.8646H51.7879V-17.2782L43.2184 -25.4752L34.6489 -33.6721H46.7619V-38.86ZM99.5532 -38.86H87.4401L96.0097 -47.057L104.579 -55.2539V-43.6675H110.003V-55.2539L118.572 -47.057L127.142 -38.86H115.029V-33.6721H127.142L118.572 -25.4752L110.003 -17.2782V-28.8646H104.579V-17.2782L96.0097 -25.4752L87.4401 -33.6721H99.5532V-38.86ZM99.5532 11.6704H87.4401L96.0097 3.47347L104.579 -4.72345V6.86292H110.003V-4.72345L118.572 3.47347L127.142 11.6704H115.029V16.8583H127.142L118.572 25.0553L110.003 33.2522V21.6658H104.579V33.2522L96.0097 25.0553L87.4401 16.8583H99.5532V11.6704ZM122.405 -0.227242L113.836 -8.42417H125.949V-13.6121H113.836L122.405 -21.809L130.975 -30.006V-18.4196H136.399V-30.006L144.968 -21.809L153.538 -13.6121H141.425V-8.42417H153.538L144.968 -0.227242L136.399 7.96968V-3.6167H130.975V7.96968L122.405 -0.227242ZM162.83 -43.6675V-55.2539L171.4 -47.057L179.969 -38.86H167.856V-33.6721H179.969L171.4 -25.4752L162.83 -17.2782V-28.8646H157.407V-17.2782L148.837 -25.4752L140.268 -33.6721H152.381V-38.86H140.268L148.837 -47.057L157.407 -55.2539V-43.6675H162.83ZM215.622 -43.6675V-55.2539L224.191 -47.057L232.761 -38.86H220.648V-33.6721H232.761L224.191 -25.4752L215.622 -17.2782V-28.8646H210.198V-17.2782L201.628 -25.4752L193.059 -33.6721H205.172V-38.86H193.059L201.628 -47.057L210.198 -55.2539V-43.6675H215.622ZM285.588 -33.6721L277.019 -25.4752L268.449 -17.2782V-28.8646H263.025V-17.2782L254.456 -25.4752L245.886 -33.6721H257.999V-38.86H245.886L254.456 -47.057L263.025 -55.2539V-43.6675H268.449V-55.2539L277.019 -47.057L285.588 -38.86H273.475V-33.6721H285.588ZM298.677 -38.86L307.247 -47.057L315.816 -55.2539V-43.6675H321.24V-55.2539L329.81 -47.057L338.379 -38.86H326.266V-33.6721H338.379L329.81 -25.4752L321.24 -17.2782V-28.8646H315.816V-17.2782L307.247 -25.4752L298.677 -33.6721H310.79V-38.86H298.677ZM382.637 -47.057L391.207 -38.86H379.094V-33.6721H391.207L382.637 -25.4752L374.068 -17.2782V-28.8646H368.644V-17.2782L360.074 -25.4752L351.505 -33.6721H363.618V-38.86H351.505L360.074 -47.057L368.644 -55.2539V-43.6675H374.068V-55.2539L382.637 -47.057ZM363.618 -89.3559H351.505L360.074 -97.5528L368.644 -105.75V-94.1634H374.068V-105.784L382.637 -97.5874L391.207 -89.3905H379.094V-84.2025H391.207L382.637 -76.0056L374.068 -67.8087V-79.3951H368.644V-67.8087L360.074 -76.0056L351.505 -84.2025H363.618V-89.3905V-89.3559ZM347.672 -68.9154V-80.5018L356.242 -72.3049L364.811 -64.108H352.698V-58.92H364.811L356.242 -50.7231L347.672 -42.5262V-54.1125H342.248V-42.5262L333.679 -50.7231L325.109 -58.92H337.222V-64.108H325.109L333.679 -72.3049L342.248 -80.5018V-68.9154H347.672ZM298.677 -89.3559L307.247 -97.5528L315.816 -105.75V-94.1634H321.24V-105.784L329.81 -97.5874L338.379 -89.3905H326.266V-84.2025H338.379L329.81 -76.0056L321.24 -67.8087V-79.3951H315.816V-67.8087L307.247 -76.0056L298.677 -84.2025H310.79V-89.3905H298.677V-89.3559ZM289.421 -68.9154H294.845V-80.5018L303.414 -72.3049L311.984 -64.108H299.871V-58.92H311.984L303.414 -50.7231L294.845 -42.5262V-54.1125H289.421V-42.5262L280.851 -50.7231L272.282 -58.92H284.395V-64.108H272.282L280.851 -72.3049L289.421 -80.5018V-68.9154ZM254.456 -97.5874L263.025 -105.784V-94.198H268.449V-105.784L277.019 -97.5874L285.588 -89.3905H273.475V-84.2025H285.588L277.019 -76.0056L268.449 -67.8087V-79.3951H263.025V-67.8087L254.456 -76.0056L245.886 -84.2025H257.999V-89.3905H245.886L254.456 -97.5874ZM242.053 -68.9154V-80.5018L250.623 -72.3049L259.192 -64.108H247.079V-58.92H259.192L250.623 -50.7231L242.053 -42.5262V-54.1125L236.63 -54.1125V-42.5262L228.06 -50.7231L219.491 -58.92H231.604V-64.108H219.491L228.06 -72.3049L236.63 -80.5018V-68.9154H242.053ZM201.628 -97.5874L210.198 -105.784V-94.198H215.622V-105.784L224.191 -97.5874L232.761 -89.3905H220.648V-84.2025H232.761L224.191 -76.0056L215.622 -67.8087V-79.3951H210.198V-67.8087L201.628 -76.0056L193.059 -84.2025H205.172V-89.3905H193.059L201.628 -97.5874ZM183.802 -68.9154H189.226V-80.5018L197.796 -72.3049L206.365 -64.108H194.252V-58.92H206.365L197.796 -50.7231L189.226 -42.5262V-54.1125H183.802V-42.5262L175.233 -50.7231L166.663 -58.92H178.776V-64.108H166.663L175.233 -72.3049L183.802 -80.5018V-68.9154ZM152.381 -89.3559H140.268L148.837 -97.5528L157.407 -105.75V-94.1634H162.83V-105.784L171.4 -97.5874L179.969 -89.3905H167.856V-84.2025H179.969L171.4 -76.0056L162.83 -67.8087V-79.3951H157.407V-67.8087L148.837 -76.0056L140.268 -84.2025H152.381V-89.3905V-89.3559ZM136.435 -68.9154V-80.5018L145.004 -72.3049L153.574 -64.108H141.461V-58.92H153.574L145.004 -50.7231L136.435 -42.5262V-54.1125H131.011V-42.5262L122.441 -50.7231L113.872 -58.92H125.985V-64.108H113.872L122.441 -72.3049L131.011 -80.5018V-68.9154H136.435ZM96.0097 -97.5874L104.579 -105.784V-94.198H110.003V-105.784L118.572 -97.5874L127.142 -89.3905H115.029V-84.2025H127.142L118.572 -76.0056L110.003 -67.8087V-79.3951H104.579V-67.8087L96.0097 -76.0056L87.4401 -84.2025H99.5532V-89.3905H87.4401L96.0097 -97.5874ZM83.6073 -68.9154V-80.5018L92.1769 -72.3049L100.746 -64.108H88.6333V-58.92H100.746L92.1769 -50.7231L83.6073 -42.5262V-54.1125H78.1836V-42.5262L69.614 -50.7231L61.0445 -58.92H73.1576V-64.108H61.0445L69.614 -72.3049L78.1836 -80.5018V-68.9154H83.6073ZM46.7619 -89.3559H34.6489L43.2184 -97.5528L51.7879 -105.75V-94.1634H57.2117V-105.784L65.7812 -97.5874L74.3508 -89.3905H62.2377V-84.2025H74.3508L65.7812 -76.0056L57.2117 -67.8087V-79.3951H51.7879V-67.8087L43.2184 -76.0056L34.6489 -84.2025H46.7619V-89.3905V-89.3559ZM16.8228 -50.7231L8.25324 -58.92H20.3663V-64.108H8.25324L16.8228 -72.3049L25.3923 -80.5018V-68.9154H30.8161V-80.5018L39.3856 -72.3049L47.9551 -64.108H35.8421V-58.92H47.9551L39.3856 -50.7231L30.8161 -42.5262V-54.1125H25.3923V-42.5262L16.8228 -50.7231ZM16.8228 -0.227242L8.25324 -8.42417H20.3663V-13.6121H8.25324L16.8228 -21.809L25.3923 -30.006V-18.4196H30.8161V-30.006L39.3856 -21.809L47.9551 -13.6121H35.8421V-8.42417H47.9551L39.3856 -0.227242L30.8161 7.96968V-3.6167H25.3923V7.96968L16.8228 -0.227242ZM30.8161 58.5001V46.9138H25.3923V58.5001L16.8228 50.3032L8.25324 42.1063H20.3663V36.9183H8.25324L16.8228 28.7214L25.3923 20.5245V32.1108H30.8161V20.5245L39.3856 28.7214L47.9551 36.9183H35.8421V42.1063H47.9551L39.3856 50.3032L30.8161 58.5001ZM74.3508 67.3542L65.7812 75.5511L57.2117 83.748V72.1617H51.7879V83.748L43.2184 75.5511L34.6489 67.3542H46.7619V62.1663H34.6489L43.2184 53.9693L51.7879 45.7724V57.3588H57.2117V45.7724L65.7812 53.9693L74.3508 62.1663H62.2377V67.3542H74.3508ZM83.6073 46.9138H78.1836V58.5001L69.614 50.3032L61.0445 42.1063H73.1576V36.9183H61.0445L69.614 28.7214L78.1836 20.5245V32.1108H83.6073V20.5245L92.1769 28.7214L100.746 36.9183H88.6333V42.1063H100.746L92.1769 50.3032L83.6073 58.5001V46.9138ZM127.178 67.3542L118.609 75.5511L110.039 83.748V72.1617H104.615V83.748L96.0458 75.5511L87.4763 67.3542H99.5893V62.1663H87.4763L96.0458 53.9693L104.615 45.7724V57.3588H110.039V45.7724L118.609 53.9693L127.178 62.1663H115.065V67.3542H127.178ZM136.435 46.9138H131.011V58.5001L122.441 50.3032L113.872 42.1063H125.985V36.9183H113.872L122.441 28.7214L131.011 20.5245V32.1108H136.435V20.5245L145.004 28.7214L153.574 36.9183H141.461V42.1063H153.574L145.004 50.3032L136.435 58.5001V46.9138ZM171.4 75.5511L162.83 83.748V72.1617H157.407V83.748L148.837 75.5511L140.268 67.3542H152.381V62.1663H140.268L148.837 53.9693L157.407 45.7724V57.3588H162.83V45.7724L171.4 53.9693L179.969 62.1663H167.856V67.3542H179.969L171.4 75.5511ZM189.226 46.9138H183.802V58.5001L175.233 50.3032L166.663 42.1063H178.776V36.9183H166.663L175.233 28.7214L183.802 20.5245V32.1108H189.226V20.5245L197.796 28.7214L206.365 36.9183H194.252V42.1063H206.365L197.796 50.3032L189.226 58.5001V46.9138ZM220.648 67.3542H232.761L224.191 75.5511L215.622 83.748V72.1617H210.198V83.748L201.628 75.5511L193.059 67.3542H205.172V62.1663H193.059L201.628 53.9693L210.198 45.7724V57.3588H215.622V45.7724L224.191 53.9693L232.761 62.1663H220.648V67.3542ZM236.63 46.9138V58.5001L228.06 50.3032L219.491 42.1063H231.604V36.9183H219.491L228.06 28.7214L236.63 20.5245V32.1108H242.053V20.5245L250.623 28.7214L259.192 36.9183H247.079V42.1063H259.192L250.623 50.3032L242.053 58.5001V46.9138H236.63ZM277.019 75.5511L268.449 83.748V72.1617H263.025V83.748L254.456 75.5511L245.886 67.3542H257.999V62.1663H245.886L254.456 53.9693L263.025 45.7724V57.3588H268.449V45.7724L277.019 53.9693L285.588 62.1663H273.475V67.3542H285.588L277.019 75.5511ZM289.421 46.9138V58.5001L280.851 50.3032L272.282 42.1063H284.395V36.9183H272.282L280.851 28.7214L289.421 20.5245V32.1108H294.845V20.5245L303.414 28.7214L311.984 36.9183H299.871V42.1063H311.984L303.414 50.3032L294.845 58.5001V46.9138H289.421ZM326.266 67.3542H338.379L329.81 75.5511L321.24 83.748V72.1617H315.816V83.748L307.247 75.5511L298.677 67.3542H310.79V62.1663H298.677L307.247 53.9693L315.816 45.7724V57.3588H321.24V45.7724L329.81 53.9693L338.379 62.1663H326.266V67.3542ZM347.672 58.5001V46.9138H342.248V58.5001L333.679 50.3032L325.109 42.1063H337.222V36.9183H325.109L333.679 28.7214L342.248 20.5245V32.1108H347.672V20.5245L356.242 28.7214L364.811 36.9183H352.698V42.1063H364.811L356.242 50.3032L347.672 58.5001ZM382.637 75.5511L374.068 83.748V72.1617H368.644V83.748L360.074 75.5511L351.505 67.3542H363.618V62.1663H351.505L360.074 53.9693L368.644 45.7724V57.3588H374.068V45.7724L382.637 53.9693L391.207 62.1663H379.094V67.3542H391.207L382.637 75.5511Z" fill="#F2C015"></path>
  </g>
</svg>
