<?xml version="1.0" encoding="UTF-8"?>
<svg xmlns="http://www.w3.org/2000/svg" width="355" height="60" viewBox="0 0 355 60" fill="none">
  <rect x="0.110535" y="0.000366211" width="354" height="60" fill="#F9C822"></rect>
  <mask id="mask0_980_395" style="mask-type:alpha" maskUnits="userSpaceOnUse" x="0" y="0" width="355" height="61">
    <rect x="0.110535" y="0.000366211" width="354" height="60" fill="#ED9FA5"></rect>
  </mask>
  <g mask="url(#mask0_980_395)">
    <path d="M386.47 50.3037L377.9 42.1068H390.013V36.9188H377.9L386.47 28.7219L392.111 23.3264V5.16869L386.47 -0.226753L377.9 -8.42368H390.013V-13.6116H377.9L386.47 -21.8085L392.111 -27.204V-45.3618L386.47 -50.7572L377.9 -58.9541H390.013V-64.1421H377.9L386.47 -72.339L392.111 -77.7344V-95.8576L386.47 -101.253L378.37 -109H364.377L356.278 -101.253L347.708 -93.0561V-104.643H342.284V-93.0561L333.715 -101.253L325.615 -109H311.622L303.522 -101.253L294.953 -93.0561V-104.643H289.529V-93.0561L280.96 -101.253L272.86 -109H258.867L250.767 -101.253L242.198 -93.0561V-104.643H236.774V-93.0561L228.205 -101.253L220.105 -109H206.112L198.012 -101.253L189.443 -93.0561V-104.643H184.019V-93.0561L175.449 -101.253L167.35 -109H153.357L145.257 -101.253L136.688 -93.0561V-104.643H131.264V-93.0561L122.694 -101.253L114.595 -109H100.602L92.5021 -101.253L83.9326 -93.0561V-104.643H78.5088V-93.0561L69.9393 -101.253L61.8398 -109H47.8465L39.747 -101.253L31.1775 -93.0561V-104.643H25.7537V-93.0561L17.1842 -101.253L8.68695 -109H-5.30634L-13.442 -101.253L-17.8895 -96.999V-89.6667L-9.60919 -97.5869L-1.03966 -105.784V-94.1975H4.3841V-105.784L12.9536 -97.5869L21.5232 -89.39H9.41012V-84.2021H21.5232L12.9536 -76.0051L4.3841 -67.8082V-79.3946H-1.03966V-67.8082L-9.60919 -76.0051L-17.8895 -83.9254V-76.5931L-13.442 -72.339L-4.87244 -64.1421H-16.9855V-58.9541H-4.87244L-13.442 -50.7572L-17.8895 -46.5031V-39.1708L-9.60919 -47.0911L-1.03966 -55.288V-43.7016H4.3841V-55.288L12.9536 -47.0911L21.5232 -38.8941H9.41012V-33.7062H21.5232L12.9536 -25.5093L4.3841 -17.3123V-28.8987H-1.03966V-17.3123L-9.60919 -25.5093L-17.8895 -33.4295V-26.0972L-13.442 -21.8431L-4.87244 -13.6462H-16.9855V-8.45827H-4.87244L-13.442 -0.261345L-17.8895 3.99275V11.325L-9.60919 3.40479L-1.03966 -4.79214V6.79424H4.3841V-4.79214L12.9536 3.40479L21.5232 11.6017H9.41012V16.7897H21.5232L12.9536 24.9866L4.3841 33.1835V21.5971H-1.03966V33.1835L-9.60919 24.9866L-17.8895 17.0663V24.3986L-13.442 28.6527L-4.87244 36.8496H-16.9855V42.0376H-4.87244L-13.442 50.2345L-17.8895 54.4886V61.8209L-9.60919 53.9006L-1.03966 45.7037V57.2901H4.3841V45.7037L12.9536 53.9006L21.5232 62.0976H9.41012V67.2855H21.5232L12.9536 75.4824L4.3841 83.6794V72.093H-1.03966V83.6794L-9.60919 75.4824L-17.8895 67.5622V74.8945L-13.442 79.1486L-5.23403 86.9996H8.57848L16.7864 79.1486L25.356 70.9516V82.538H30.7797V70.9516L39.3493 79.1486L47.5572 86.9996H61.3697L69.5777 79.1486L78.1472 70.9516V82.538H83.571V70.9516L92.1405 79.1486L100.348 86.9996H114.161L122.369 79.1486L130.938 70.9516V82.538H136.362V70.9516L144.932 79.1486L153.14 86.9996H166.952L175.16 79.1486L183.73 70.9516V82.538H189.153V70.9516L197.723 79.1486L205.931 86.9996H219.743L227.951 79.1486L236.521 70.9516V82.538H241.945V70.9516L250.514 79.1486L258.722 86.9996H272.535L280.743 79.1486L289.312 70.9516V82.538H294.736V70.9516L303.306 79.1486L311.513 86.9996H325.326L333.534 79.1486L342.103 70.9516V82.538H347.527V70.9516L356.097 79.1486L364.305 86.9996H378.117L386.325 79.1486L391.966 73.7531V55.5954L386.325 50.1999L386.47 50.3037ZM382.637 3.43937L391.207 11.6363H379.094V16.8242H391.207L382.637 25.0212L374.068 33.2181V21.6317H368.644V33.2181L360.074 25.0212L351.505 16.8242H363.618V11.6363H351.505L360.074 3.43937L368.644 -4.75755V6.82883H374.068V-4.75755L382.637 3.43937ZM342.248 -3.61621V7.97017L333.679 -0.226753L325.109 -8.42368H337.222V-13.6116H325.109L333.679 -21.8085L342.248 -30.0055V-18.4191H347.672V-30.0055L356.241 -21.8085L364.811 -13.6116H352.698V-8.42368H364.811L356.241 -0.226753L347.672 7.97017V-3.61621H342.248ZM338.415 16.8242L329.846 25.0212L321.276 33.2181V21.6317H315.853V33.2181L307.283 25.0212L298.713 16.8242H310.827V11.6363H298.713L307.283 3.43937L315.853 -4.75755V6.82883H321.276V-4.75755L329.846 3.43937L338.415 11.6363H326.302V16.8242H338.415ZM289.421 -3.61621V7.97017L280.851 -0.226753L272.282 -8.42368H284.395V-13.6116H272.282L280.851 -21.8085L289.421 -30.0055V-18.4191H294.844V-30.0055L303.414 -21.8085L311.984 -13.6116H299.87V-8.42368H311.984L303.414 -0.226753L294.844 7.97017V-3.61621H289.421ZM273.475 16.8242H285.588L277.018 25.0212L268.449 33.2181V21.6317H263.025V33.2181L254.456 25.0212L245.886 16.8242H257.999V11.6363H245.886L254.456 3.43937L263.025 -4.75755V6.82883H268.449V-4.75755L277.018 3.43937L285.588 11.6363H273.475V16.8242ZM236.629 -3.61621V7.97017L228.06 -0.226753L219.49 -8.42368H231.603V-13.6116H219.49L228.06 -21.8085L236.629 -30.0055V-18.4191H242.053V-30.0055L250.623 -21.8085L259.192 -13.6116H247.079V-8.42368H259.192L250.623 -0.226753L242.053 7.97017V-3.61621H236.629ZM210.198 21.6317V33.2181L201.628 25.0212L193.059 16.8242H205.172V11.6363H193.059L201.628 3.43937L210.198 -4.75755V6.82883H215.621V-4.75755L224.191 3.43937L232.761 11.6363H220.647V16.8242H232.761L224.191 25.0212L215.621 33.2181V21.6317H210.198ZM183.802 -3.61621V7.97017L175.232 -0.226753L166.663 -8.42368H178.776V-13.6116H166.663L175.232 -21.8085L183.802 -30.0055V-18.4191H189.226V-30.0055L197.795 -21.8085L206.365 -13.6116H194.252V-8.42368H206.365L197.795 -0.226753L189.226 7.97017V-3.61621H183.802ZM167.856 16.8242H179.969L171.4 25.0212L162.83 33.2181V21.6317H157.406V33.2181L148.837 25.0212L140.267 16.8242H152.38V11.6363H140.267L148.837 3.43937L157.406 -4.75755V6.82883H162.83V-4.75755L171.4 3.43937L179.969 11.6363H167.856V16.8242ZM78.1834 -3.61621V7.97017L69.6138 -0.226753L61.0443 -8.42368H73.1574V-13.6116H61.0443L69.6138 -21.8085L78.1834 -30.0055V-18.4191H83.6071V-30.0055L92.1767 -21.8085L100.746 -13.6116H88.6332V-8.42368H100.746L92.1767 -0.226753L83.6071 7.97017V-3.61621H78.1834ZM74.3506 16.8242L65.7811 25.0212L57.2115 33.2181V21.6317H51.7878V33.2181L43.2182 25.0212L34.6487 16.8242H46.7617V11.6363H34.6487L43.2182 3.43937L51.7878 -4.75755V6.82883H57.2115V-4.75755L65.7811 3.43937L74.3506 11.6363H62.2375V16.8242H74.3506ZM46.7617 -38.8595H34.6487L43.2182 -47.0565L51.7878 -55.2534V-43.667H57.2115V-55.2534L65.7811 -47.0565L74.3506 -38.8595H62.2375V-33.6716H74.3506L65.7811 -25.4747L57.2115 -17.2778V-28.8641H51.7878V-17.2778L43.2182 -25.4747L34.6487 -33.6716H46.7617V-38.8595ZM99.553 -38.8595H87.4399L96.0095 -47.0565L104.579 -55.2534V-43.667H110.003V-55.2534L118.572 -47.0565L127.142 -38.8595H115.029V-33.6716H127.142L118.572 -25.4747L110.003 -17.2778V-28.8641H104.579V-17.2778L96.0095 -25.4747L87.4399 -33.6716H99.553V-38.8595ZM99.553 11.6709H87.4399L96.0095 3.47396L104.579 -4.72296V6.86341H110.003V-4.72296L118.572 3.47396L127.142 11.6709H115.029V16.8588H127.142L118.572 25.0558L110.003 33.2527V21.6663H104.579V33.2527L96.0095 25.0558L87.4399 16.8588H99.553V11.6709ZM122.405 -0.226753L113.836 -8.42368H125.949V-13.6116H113.836L122.405 -21.8085L130.975 -30.0055V-18.4191H136.398V-30.0055L144.968 -21.8085L153.537 -13.6116H141.424V-8.42368H153.537L144.968 -0.226753L136.398 7.97017V-3.61621H130.975V7.97017L122.405 -0.226753ZM162.83 -43.667V-55.2534L171.4 -47.0565L179.969 -38.8595H167.856V-33.6716H179.969L171.4 -25.4747L162.83 -17.2778V-28.8641H157.406V-17.2778L148.837 -25.4747L140.267 -33.6716H152.38V-38.8595H140.267L148.837 -47.0565L157.406 -55.2534V-43.667H162.83ZM215.621 -43.667V-55.2534L224.191 -47.0565L232.761 -38.8595H220.647V-33.6716H232.761L224.191 -25.4747L215.621 -17.2778V-28.8641H210.198V-17.2778L201.628 -25.4747L193.059 -33.6716H205.172V-38.8595H193.059L201.628 -47.0565L210.198 -55.2534V-43.667H215.621ZM285.588 -33.6716L277.018 -25.4747L268.449 -17.2778V-28.8641H263.025V-17.2778L254.456 -25.4747L245.886 -33.6716H257.999V-38.8595H245.886L254.456 -47.0565L263.025 -55.2534V-43.667H268.449V-55.2534L277.018 -47.0565L285.588 -38.8595H273.475V-33.6716H285.588ZM298.677 -38.8595L307.247 -47.0565L315.816 -55.2534V-43.667H321.24V-55.2534L329.81 -47.0565L338.379 -38.8595H326.266V-33.6716H338.379L329.81 -25.4747L321.24 -17.2778V-28.8641H315.816V-17.2778L307.247 -25.4747L298.677 -33.6716H310.79V-38.8595H298.677ZM382.637 -47.0565L391.207 -38.8595H379.094V-33.6716H391.207L382.637 -25.4747L374.068 -17.2778V-28.8641H368.644V-17.2778L360.074 -25.4747L351.505 -33.6716H363.618V-38.8595H351.505L360.074 -47.0565L368.644 -55.2534V-43.667H374.068V-55.2534L382.637 -47.0565ZM363.618 -89.3554H351.505L360.074 -97.5523L368.644 -105.749V-94.1629H374.068V-105.784L382.637 -97.5869L391.207 -89.39H379.094V-84.2021H391.207L382.637 -76.0051L374.068 -67.8082V-79.3946H368.644V-67.8082L360.074 -76.0051L351.505 -84.2021H363.618V-89.39V-89.3554ZM347.672 -68.915V-80.5013L356.241 -72.3044L364.811 -64.1075H352.698V-58.9195H364.811L356.241 -50.7226L347.672 -42.5257V-54.1121H342.248V-42.5257L333.679 -50.7226L325.109 -58.9195H337.222V-64.1075H325.109L333.679 -72.3044L342.248 -80.5013V-68.915H347.672ZM298.677 -89.3554L307.247 -97.5523L315.816 -105.749V-94.1629H321.24V-105.784L329.81 -97.5869L338.379 -89.39H326.266V-84.2021H338.379L329.81 -76.0051L321.24 -67.8082V-79.3946H315.816V-67.8082L307.247 -76.0051L298.677 -84.2021H310.79V-89.39H298.677V-89.3554ZM289.421 -68.915H294.844V-80.5013L303.414 -72.3044L311.984 -64.1075H299.87V-58.9195H311.984L303.414 -50.7226L294.844 -42.5257V-54.1121H289.421V-42.5257L280.851 -50.7226L272.282 -58.9195H284.395V-64.1075H272.282L280.851 -72.3044L289.421 -80.5013V-68.915ZM254.456 -97.5869L263.025 -105.784V-94.1975H268.449V-105.784L277.018 -97.5869L285.588 -89.39H273.475V-84.2021H285.588L277.018 -76.0051L268.449 -67.8082V-79.3946H263.025V-67.8082L254.456 -76.0051L245.886 -84.2021H257.999V-89.39H245.886L254.456 -97.5869ZM242.053 -68.915V-80.5013L250.623 -72.3044L259.192 -64.1075H247.079V-58.9195H259.192L250.623 -50.7226L242.053 -42.5257V-54.1121L236.629 -54.1121V-42.5257L228.06 -50.7226L219.49 -58.9195H231.603V-64.1075H219.49L228.06 -72.3044L236.629 -80.5013V-68.915H242.053ZM201.628 -97.5869L210.198 -105.784V-94.1975H215.621V-105.784L224.191 -97.5869L232.761 -89.39H220.647V-84.2021H232.761L224.191 -76.0051L215.621 -67.8082V-79.3946H210.198V-67.8082L201.628 -76.0051L193.059 -84.2021H205.172V-89.39H193.059L201.628 -97.5869ZM183.802 -68.915H189.226V-80.5013L197.795 -72.3044L206.365 -64.1075H194.252V-58.9195H206.365L197.795 -50.7226L189.226 -42.5257V-54.1121H183.802V-42.5257L175.232 -50.7226L166.663 -58.9195H178.776V-64.1075H166.663L175.232 -72.3044L183.802 -80.5013V-68.915ZM152.38 -89.3554H140.267L148.837 -97.5523L157.406 -105.749V-94.1629H162.83V-105.784L171.4 -97.5869L179.969 -89.39H167.856V-84.2021H179.969L171.4 -76.0051L162.83 -67.8082V-79.3946H157.406V-67.8082L148.837 -76.0051L140.267 -84.2021H152.38V-89.39V-89.3554ZM136.435 -68.915V-80.5013L145.004 -72.3044L153.574 -64.1075H141.461V-58.9195H153.574L145.004 -50.7226L136.435 -42.5257V-54.1121H131.011V-42.5257L122.441 -50.7226L113.872 -58.9195H125.985V-64.1075H113.872L122.441 -72.3044L131.011 -80.5013V-68.915H136.435ZM96.0095 -97.5869L104.579 -105.784V-94.1975H110.003V-105.784L118.572 -97.5869L127.142 -89.39H115.029V-84.2021H127.142L118.572 -76.0051L110.003 -67.8082V-79.3946H104.579V-67.8082L96.0095 -76.0051L87.4399 -84.2021H99.553V-89.39H87.4399L96.0095 -97.5869ZM83.6071 -68.915V-80.5013L92.1767 -72.3044L100.746 -64.1075H88.6332V-58.9195H100.746L92.1767 -50.7226L83.6071 -42.5257V-54.1121H78.1834V-42.5257L69.6138 -50.7226L61.0443 -58.9195H73.1574V-64.1075H61.0443L69.6138 -72.3044L78.1834 -80.5013V-68.915H83.6071ZM46.7617 -89.3554H34.6487L43.2182 -97.5523L51.7878 -105.749V-94.1629H57.2115V-105.784L65.7811 -97.5869L74.3506 -89.39H62.2375V-84.2021H74.3506L65.7811 -76.0051L57.2115 -67.8082V-79.3946H51.7878V-67.8082L43.2182 -76.0051L34.6487 -84.2021H46.7617V-89.39V-89.3554ZM16.8226 -50.7226L8.25305 -58.9195H20.3661V-64.1075H8.25305L16.8226 -72.3044L25.3921 -80.5013V-68.915H30.8159V-80.5013L39.3854 -72.3044L47.955 -64.1075H35.8419V-58.9195H47.955L39.3854 -50.7226L30.8159 -42.5257V-54.1121H25.3921V-42.5257L16.8226 -50.7226ZM16.8226 -0.226753L8.25305 -8.42368H20.3661V-13.6116H8.25305L16.8226 -21.8085L25.3921 -30.0055V-18.4191H30.8159V-30.0055L39.3854 -21.8085L47.955 -13.6116H35.8419V-8.42368H47.955L39.3854 -0.226753L30.8159 7.97017V-3.61621H25.3921V7.97017L16.8226 -0.226753ZM30.8159 58.5006V46.9142H25.3921V58.5006L16.8226 50.3037L8.25305 42.1068H20.3661V36.9188H8.25305L16.8226 28.7219L25.3921 20.525V32.1113H30.8159V20.525L39.3854 28.7219L47.955 36.9188H35.8419V42.1068H47.955L39.3854 50.3037L30.8159 58.5006ZM74.3506 67.3547L65.7811 75.5516L57.2115 83.7485V72.1622H51.7878V83.7485L43.2182 75.5516L34.6487 67.3547H46.7617V62.1668H34.6487L43.2182 53.9698L51.7878 45.7729V57.3593H57.2115V45.7729L65.7811 53.9698L74.3506 62.1668H62.2375V67.3547H74.3506ZM83.6071 46.9142H78.1834V58.5006L69.6138 50.3037L61.0443 42.1068H73.1574V36.9188H61.0443L69.6138 28.7219L78.1834 20.525V32.1113H83.6071V20.525L92.1767 28.7219L100.746 36.9188H88.6332V42.1068H100.746L92.1767 50.3037L83.6071 58.5006V46.9142ZM127.178 67.3547L118.608 75.5516L110.039 83.7485V72.1622H104.615V83.7485L96.0456 75.5516L87.4761 67.3547H99.5892V62.1668H87.4761L96.0456 53.9698L104.615 45.7729V57.3593H110.039V45.7729L118.608 53.9698L127.178 62.1668H115.065V67.3547H127.178ZM136.435 46.9142H131.011V58.5006L122.441 50.3037L113.872 42.1068H125.985V36.9188H113.872L122.441 28.7219L131.011 20.525V32.1113H136.435V20.525L145.004 28.7219L153.574 36.9188H141.461V42.1068H153.574L145.004 50.3037L136.435 58.5006V46.9142ZM171.4 75.5516L162.83 83.7485V72.1622H157.406V83.7485L148.837 75.5516L140.267 67.3547H152.38V62.1668H140.267L148.837 53.9698L157.406 45.7729V57.3593H162.83V45.7729L171.4 53.9698L179.969 62.1668H167.856V67.3547H179.969L171.4 75.5516ZM189.226 46.9142H183.802V58.5006L175.232 50.3037L166.663 42.1068H178.776V36.9188H166.663L175.232 28.7219L183.802 20.525V32.1113H189.226V20.525L197.795 28.7219L206.365 36.9188H194.252V42.1068H206.365L197.795 50.3037L189.226 58.5006V46.9142ZM220.647 67.3547H232.761L224.191 75.5516L215.621 83.7485V72.1622H210.198V83.7485L201.628 75.5516L193.059 67.3547H205.172V62.1668H193.059L201.628 53.9698L210.198 45.7729V57.3593H215.621V45.7729L224.191 53.9698L232.761 62.1668H220.647V67.3547ZM236.629 46.9142V58.5006L228.06 50.3037L219.49 42.1068H231.603V36.9188H219.49L228.06 28.7219L236.629 20.525V32.1113H242.053V20.525L250.623 28.7219L259.192 36.9188H247.079V42.1068H259.192L250.623 50.3037L242.053 58.5006V46.9142H236.629ZM277.018 75.5516L268.449 83.7485V72.1622H263.025V83.7485L254.456 75.5516L245.886 67.3547H257.999V62.1668H245.886L254.456 53.9698L263.025 45.7729V57.3593H268.449V45.7729L277.018 53.9698L285.588 62.1668H273.475V67.3547H285.588L277.018 75.5516ZM289.421 46.9142V58.5006L280.851 50.3037L272.282 42.1068H284.395V36.9188H272.282L280.851 28.7219L289.421 20.525V32.1113H294.844V20.525L303.414 28.7219L311.984 36.9188H299.87V42.1068H311.984L303.414 50.3037L294.844 58.5006V46.9142H289.421ZM326.266 67.3547H338.379L329.81 75.5516L321.24 83.7485V72.1622H315.816V83.7485L307.247 75.5516L298.677 67.3547H310.79V62.1668H298.677L307.247 53.9698L315.816 45.7729V57.3593H321.24V45.7729L329.81 53.9698L338.379 62.1668H326.266V67.3547ZM347.672 58.5006V46.9142H342.248V58.5006L333.679 50.3037L325.109 42.1068H337.222V36.9188H325.109L333.679 28.7219L342.248 20.525V32.1113H347.672V20.525L356.241 28.7219L364.811 36.9188H352.698V42.1068H364.811L356.241 50.3037L347.672 58.5006ZM382.637 75.5516L374.068 83.7485V72.1622H368.644V83.7485L360.074 75.5516L351.505 67.3547H363.618V62.1668H351.505L360.074 53.9698L368.644 45.7729V57.3593H374.068V45.7729L382.637 53.9698L391.207 62.1668H379.094V67.3547H391.207L382.637 75.5516Z" fill="#009949"></path>
  </g>
</svg>
