<?xml version="1.0" encoding="UTF-8"?>
<svg xmlns="http://www.w3.org/2000/svg" width="463" height="463" viewBox="0 0 463 463" fill="none">
  <path d="M231.313 462.953C359.064 462.953 462.626 359.317 462.626 231.476C462.626 103.636 359.064 0 231.313 0C103.562 0 0 103.636 0 231.476C0 359.317 103.562 462.953 231.313 462.953Z" fill="#384EA0"></path>
  <path d="M41.0761 363.426L135.239 442.302C137.15 443.185 139.013 443.97 140.925 444.804L37.5469 358.227C38.6743 359.993 39.8507 361.709 41.0271 363.426H41.0761Z" fill="#EB2227"></path>
  <path d="M18.2329 321.732L180.235 457.41C182.049 457.803 183.912 458.195 185.725 458.587L16.0762 316.533C16.7624 318.299 17.4977 320.015 18.2329 321.732Z" fill="#EB2227"></path>
  <path d="M7.54748 290.241L213.028 462.364H218.469L6.12598 284.501C6.56713 286.414 7.05731 288.328 7.54748 290.241Z" fill="#EB2227"></path>
  <path d="M2.20518 263.261L239.939 462.363H246.753L1.4209 256.885C1.66599 258.994 1.91107 261.152 2.20518 263.261Z" fill="#EB2227"></path>
  <path d="M0.586914 239.325L264.693 460.5C266.996 460.157 269.3 459.863 271.604 459.421L0.586914 232.506V239.374V239.325Z" fill="#EB2227"></path>
  <path d="M323.27 19.6206C321.407 18.7867 319.544 18.0019 317.682 17.217L426.451 108.307C425.373 106.59 424.294 104.922 423.167 103.254L323.27 19.5715V19.6206Z" fill="#EB2227"></path>
  <path d="M274.202 4.46362L446.792 149.02C446.155 147.303 445.469 145.586 444.783 143.919L279.545 5.54277C277.78 5.15036 275.967 4.85605 274.202 4.51269V4.46362Z" fill="#EB2227"></path>
  <path d="M241.312 0.588745L456.352 180.659C455.911 178.746 455.469 176.833 454.979 174.969L247.244 0.981152C245.283 0.833995 243.322 0.686849 241.362 0.588745H241.312Z" fill="#EB2227"></path>
  <path d="M213.567 1.02975L460.762 208.078C460.566 205.969 460.321 203.86 460.027 201.8L219.891 0.637329C217.783 0.735433 215.675 0.882598 213.567 1.02975Z" fill="#EB2227"></path>
  <path d="M189.108 4.21804L462.037 232.849C462.037 230.544 461.988 228.239 461.939 225.884L195.922 3.08984C193.667 3.43321 191.363 3.82562 189.108 4.21804Z" fill="#EB2227"></path>
  <path d="M154.453 345.67L286.457 456.233C288.908 455.644 291.359 455.056 293.761 454.369L180.383 359.404C171.413 355.823 162.688 351.261 154.453 345.67Z" fill="#EB2227"></path>
  <path d="M114.503 304.22L1.12611 209.256C0.930036 211.169 0.733966 213.082 0.586914 214.995V216.81L132.395 327.226C125.532 320.113 119.552 312.412 114.503 304.22Z" fill="#EB2227"></path>
  <path d="M206.754 366.958L306.406 450.445C308.955 449.562 311.504 448.679 314.004 447.698L219.646 368.675C215.332 368.332 211.019 367.743 206.705 366.958H206.754Z" fill="#EB2227"></path>
  <path d="M98.5241 267.138L4.11663 188.066C3.62645 190.714 3.13628 193.363 2.74414 196.061L102.446 279.597C100.926 275.525 99.6025 271.356 98.5241 267.138Z" fill="#EB2227"></path>
  <path d="M236.066 368.97L324.739 443.235C327.386 442.058 329.984 440.782 332.582 439.507L247.291 368.087C243.566 368.529 239.841 368.823 236.066 368.97Z" fill="#EB2227"></path>
  <path d="M94.1132 239.815L8.82297 168.396C8.03869 171.191 7.30343 173.987 6.61719 176.832L95.2406 251.048C94.7014 247.32 94.3583 243.592 94.1622 239.864L94.1132 239.815Z" fill="#EB2227"></path>
  <path d="M94.7009 216.614L14.9496 149.854C13.8712 152.748 12.7928 155.691 11.8125 158.634L93.9166 227.405C94.0147 223.824 94.2598 220.195 94.6519 216.614H94.7009Z" fill="#EB2227"></path>
  <path d="M259.547 366.075L341.602 434.797C344.347 433.325 347.043 431.756 349.69 430.186L269.939 363.377C266.508 364.407 263.027 365.29 259.498 366.075H259.547Z" fill="#EB2227"></path>
  <path d="M279.447 360.238L357.336 425.478C360.13 423.663 362.875 421.799 365.62 419.837L289.447 356.02C286.163 357.541 282.829 358.963 279.496 360.238H279.447Z" fill="#EB2227"></path>
  <path d="M98.5227 196.109L22.3987 132.342C20.9772 135.383 19.6047 138.424 18.2812 141.465L96.1209 206.705C96.7581 203.173 97.5424 199.641 98.4737 196.158L98.5227 196.109Z" fill="#EB2227"></path>
  <path d="M296.996 352.145L371.993 414.981C374.689 412.871 377.385 410.713 380.032 408.457L306.211 346.602C303.221 348.564 300.133 350.428 296.996 352.145Z" fill="#EB2227"></path>
  <path d="M104.797 177.911L30.9771 116.057C29.2615 119.049 27.5949 122.09 26.0264 125.131L101.023 187.967C102.15 184.582 103.425 181.247 104.797 177.911Z" fill="#EB2227"></path>
  <path d="M113.082 161.528L40.5848 100.801C38.5751 103.695 36.6634 106.687 34.8008 109.631L107.984 170.946C109.552 167.757 111.268 164.618 113.082 161.528Z" fill="#EB2227"></path>
  <path d="M312.484 342.237L385.667 403.552C388.265 401.197 390.814 398.794 393.363 396.292L320.866 335.566C318.17 337.92 315.376 340.128 312.533 342.286L312.484 342.237Z" fill="#EB2227"></path>
  <path d="M123.376 146.665L51.3697 86.3805C49.0659 89.2746 46.8111 92.1686 44.6543 95.1117L116.857 155.593C118.867 152.552 121.072 149.559 123.376 146.665Z" fill="#EB2227"></path>
  <path d="M326.014 330.806L398.216 391.288C400.716 388.639 403.216 385.892 405.618 383.096L333.611 322.811C331.161 325.607 328.612 328.256 326.014 330.806Z" fill="#EB2227"></path>
  <path d="M135.288 133.323L63.085 72.842C60.4871 75.589 57.9872 78.434 55.4873 81.328L127.494 141.613C129.994 138.719 132.592 135.923 135.288 133.274V133.323Z" fill="#EB2227"></path>
  <path d="M337.877 317.857L409.834 378.142C412.236 375.199 414.589 372.207 416.844 369.166L344.69 308.734C342.583 311.873 340.279 314.865 337.877 317.857Z" fill="#EB2227"></path>
  <path d="M348.218 303.191L420.617 363.869C422.724 360.827 424.783 357.737 426.744 354.598L353.61 293.381C351.943 296.716 350.13 300.003 348.169 303.24L348.218 303.191Z" fill="#EB2227"></path>
  <path d="M148.816 121.796L75.6824 60.5298C72.9864 63.0314 70.2905 65.5821 67.6436 68.1819L140.091 128.859C142.885 126.358 145.826 124.003 148.816 121.796Z" fill="#EB2227"></path>
  <path d="M164.109 111.789L89.2107 49.0519C86.4167 51.2592 83.6717 53.4666 80.9268 55.8211L154.698 117.578C157.786 115.517 160.923 113.555 164.109 111.789Z" fill="#EB2227"></path>
  <path d="M356.698 286.807L430.42 348.563C432.234 345.473 433.95 342.383 435.616 339.243L360.767 276.555C359.59 280.038 358.218 283.471 356.747 286.856L356.698 286.807Z" fill="#EB2227"></path>
  <path d="M181.314 103.697L103.67 38.6536C100.925 40.4685 98.1803 42.3815 95.4844 44.3436L171.461 108.013C174.696 106.443 177.981 105.021 181.314 103.697Z" fill="#EB2227"></path>
  <path d="M363.169 268.56L439.146 332.18C440.616 329.188 441.94 326.147 443.263 323.105L365.669 258.112C364.983 261.643 364.149 265.126 363.169 268.56Z" fill="#EB2227"></path>
  <path d="M367.188 248.253L446.646 314.767C447.773 311.873 448.802 308.93 449.832 305.987L368.12 237.51C367.973 241.091 367.679 244.623 367.238 248.203L367.188 248.253Z" fill="#EB2227"></path>
  <path d="M201.067 97.7122L119.306 29.2356C116.61 30.7562 113.915 32.2768 111.268 33.8955L190.774 100.459C194.205 99.429 197.636 98.497 201.116 97.7122H201.067Z" fill="#EB2227"></path>
  <path d="M368.021 225.296L452.821 296.323C453.606 293.527 454.439 290.78 455.125 287.984L367.041 214.21C367.531 217.889 367.825 221.568 368.021 225.296Z" fill="#EB2227"></path>
  <path d="M224.205 94.5223L136.121 20.748C133.474 21.9253 130.876 23.1516 128.278 24.4269L213.127 95.5033C216.804 95.0128 220.48 94.6694 224.205 94.5223Z" fill="#EB2227"></path>
  <path d="M364.051 198.269L457.674 276.654C458.213 274.005 458.655 271.356 459.096 268.707L360.424 186.104C361.845 190.126 363.022 194.197 364.051 198.269Z" fill="#EB2227"></path>
  <path d="M252.977 96.1424L154.305 13.4897C151.756 14.3727 149.256 15.3047 146.756 16.2857L240.379 94.7199C244.595 95.0142 248.81 95.4557 252.977 96.1424Z" fill="#EB2227"></path>
  <path d="M349.493 162.363L460.86 255.61C461.105 253.109 461.252 250.607 461.448 248.105L335.425 142.546C340.768 148.775 345.424 155.397 349.493 162.313V162.363Z" fill="#EB2227"></path>
  <path d="M300.132 113.065L174.059 7.50476C171.657 8.09338 169.255 8.7801 166.854 9.46683L278.221 102.715C285.721 105.462 293.073 108.944 300.132 113.065Z" fill="#EB2227"></path>
  <path d="M319.446 125.279C261.262 76.5698 174.648 84.3201 125.974 142.545C77.2999 200.77 85.0446 287.444 143.228 336.153C201.412 384.862 288.026 377.112 336.7 318.887C385.374 260.662 377.629 173.987 319.446 125.279Z" fill="#00A651"></path>
</svg>
