<?xml version="1.0" encoding="UTF-8"?>
<svg xmlns="http://www.w3.org/2000/svg" width="16" height="16" viewBox="0 0 16 16" fill="none">
  <path d="M8.01482 5.05469C6.39866 5.05469 5.08594 6.36741 5.08594 7.98357C5.08594 9.59973 6.39866 10.9156 8.01482 10.9156C9.63098 10.9156 10.9469 9.59973 10.9469 7.98357C10.9469 6.36741 9.63098 5.05469 8.01482 5.05469Z" fill="#282425"></path>
  <path d="M12.4355 0H3.59451C1.63021 0 0.0300293 1.60019 0.0300293 3.56448V12.4054C0.0300293 14.3729 1.63021 15.9699 3.59451 15.9699H12.4355C14.403 15.9699 15.9999 14.3729 15.9999 12.4054V3.56448C15.9999 1.60019 14.403 0 12.4355 0ZM8.01499 13.1592C5.16276 13.1592 2.84073 10.8372 2.84073 7.98496C2.84073 5.13273 5.16276 2.8139 8.01499 2.8139C10.8672 2.8139 13.1892 5.13273 13.1892 7.98496C13.1892 10.8372 10.8672 13.1592 8.01499 13.1592ZM13.2978 3.75293C12.6942 3.75293 12.2023 3.26425 12.2023 2.66059C12.2023 2.05692 12.6942 1.56505 13.2978 1.56505C13.9015 1.56505 14.3934 2.05692 14.3934 2.66059C14.3934 3.26425 13.9015 3.75293 13.2978 3.75293Z" fill="#282425"></path>
</svg>
