<?xml version="1.0" encoding="UTF-8"?>
<svg xmlns="http://www.w3.org/2000/svg" width="355" height="60" viewBox="0 0 355 60" fill="none">
  <rect x="0.110626" width="354" height="60" fill="#90CEC7"></rect>
  <mask id="mask0_980_386" style="mask-type:alpha" maskUnits="userSpaceOnUse" x="0" y="0" width="355" height="60">
    <rect x="0.110626" width="354" height="60" fill="#ED9FA5"></rect>
  </mask>
  <g mask="url(#mask0_980_386)">
    <path d="M386.47 50.304L377.9 42.1071H390.013V36.9192H377.9L386.47 28.7223L392.111 23.3268V5.16905L386.47 -0.226387L377.9 -8.42332H390.013V-13.6113H377.9L386.47 -21.8082L392.111 -27.2036V-45.3614L386.47 -50.7568L377.9 -58.9538H390.013V-64.1417H377.9L386.47 -72.3386L392.111 -77.7341V-95.8572L386.47 -101.253L378.37 -109H364.377L356.278 -101.253L347.708 -93.0558V-104.642H342.284V-93.0558L333.715 -101.253L325.615 -109H311.622L303.523 -101.253L294.953 -93.0558V-104.642H289.529V-93.0558L280.96 -101.253L272.86 -109H258.867L250.767 -101.253L242.198 -93.0558V-104.642H236.774V-93.0558L228.205 -101.253L220.105 -109H206.112L198.012 -101.253L189.443 -93.0558V-104.642H184.019V-93.0558L175.45 -101.253L167.35 -109H153.357L145.257 -101.253L136.688 -93.0558V-104.642H131.264V-93.0558L122.694 -101.253L114.595 -109H100.602L92.5022 -101.253L83.9327 -93.0558V-104.642H78.5089V-93.0558L69.9394 -101.253L61.8399 -109H47.8466L39.7471 -101.253L31.1776 -93.0558V-104.642H25.7538V-93.0558L17.1843 -101.253L8.68704 -109H-5.30625L-13.4419 -101.253L-17.8894 -96.9986V-89.6663L-9.6091 -97.5866L-1.03956 -105.783V-94.1971H4.3842V-105.783L12.9537 -97.5866L21.5233 -89.3896H9.41021V-84.2017H21.5233L12.9537 -76.0048L4.3842 -67.8078V-79.3942H-1.03956V-67.8078L-9.6091 -76.0048L-17.8894 -83.925V-76.5927L-13.4419 -72.3386L-4.87235 -64.1417H-16.9854V-58.9538H-4.87235L-13.4419 -50.7568L-17.8894 -46.5027V-39.1705L-9.6091 -47.0907L-1.03956 -55.2876V-43.7013H4.3842V-55.2876L12.9537 -47.0907L21.5233 -38.8938H9.41021V-33.7058H21.5233L12.9537 -25.5089L4.3842 -17.312V-28.8984H-1.03956V-17.312L-9.6091 -25.5089L-17.8894 -33.4291V-26.0969L-13.4419 -21.8428L-4.87235 -13.6458H-16.9854V-8.45791H-4.87235L-13.4419 -0.260979L-17.8894 3.99312V11.3254L-9.6091 3.40515L-1.03956 -4.79177V6.79461H4.3842V-4.79177L12.9537 3.40515L21.5233 11.6021H9.41021V16.79H21.5233L12.9537 24.987L4.3842 33.1839V21.5975H-1.03956V33.1839L-9.6091 24.987L-17.8894 17.0667V24.399L-13.4419 28.6531L-4.87235 36.85H-16.9854V42.0379H-4.87235L-13.4419 50.2349L-17.8894 54.489V61.8212L-9.6091 53.901L-1.03956 45.7041V57.2905H4.3842V45.7041L12.9537 53.901L21.5233 62.0979H9.41021V67.2859H21.5233L12.9537 75.4828L4.3842 83.6797V72.0934H-1.03956V83.6797L-9.6091 75.4828L-17.8894 67.5626V74.8948L-13.4419 79.149L-5.23394 87H8.57857L16.7865 79.149L25.3561 70.952V82.5384H30.7798V70.952L39.3494 79.149L47.5573 87H61.3698L69.5778 79.149L78.1473 70.952V82.5384H83.5711V70.952L92.1406 79.149L100.349 87H114.161L122.369 79.149L130.939 70.952V82.5384H136.362V70.952L144.932 79.149L153.14 87H166.952L175.16 79.149L183.73 70.952V82.5384H189.154V70.952L197.723 79.149L205.931 87H219.744L227.952 79.149L236.521 70.952V82.5384H241.945V70.952L250.514 79.149L258.722 87H272.535L280.743 79.149L289.312 70.952V82.5384H294.736V70.952L303.306 79.149L311.514 87H325.326L333.534 79.149L342.104 70.952V82.5384H347.527V70.952L356.097 79.149L364.305 87H378.117L386.325 79.149L391.966 73.7535V55.5957L386.325 50.2003L386.47 50.304ZM382.637 3.43974L391.207 11.6367H379.094V16.8246H391.207L382.637 25.0215L374.068 33.2185V21.6321H368.644V33.2185L360.074 25.0215L351.505 16.8246H363.618V11.6367H351.505L360.074 3.43974L368.644 -4.75719V6.8292H374.068V-4.75719L382.637 3.43974ZM342.248 -3.61584V7.97054L333.679 -0.226387L325.109 -8.42332H337.222V-13.6113H325.109L333.679 -21.8082L342.248 -30.0051V-18.4187H347.672V-30.0051L356.242 -21.8082L364.811 -13.6113H352.698V-8.42332H364.811L356.242 -0.226387L347.672 7.97054V-3.61584H342.248ZM338.415 16.8246L329.846 25.0215L321.276 33.2185V21.6321H315.853V33.2185L307.283 25.0215L298.714 16.8246H310.827V11.6367H298.714L307.283 3.43974L315.853 -4.75719V6.8292H321.276V-4.75719L329.846 3.43974L338.415 11.6367H326.302V16.8246H338.415ZM289.421 -3.61584V7.97054L280.851 -0.226387L272.282 -8.42332H284.395V-13.6113H272.282L280.851 -21.8082L289.421 -30.0051V-18.4187H294.845V-30.0051L303.414 -21.8082L311.984 -13.6113H299.871V-8.42332H311.984L303.414 -0.226387L294.845 7.97054V-3.61584H289.421ZM273.475 16.8246H285.588L277.018 25.0215L268.449 33.2185V21.6321H263.025V33.2185L254.456 25.0215L245.886 16.8246H257.999V11.6367H245.886L254.456 3.43974L263.025 -4.75719V6.8292H268.449V-4.75719L277.018 3.43974L285.588 11.6367H273.475V16.8246ZM236.63 -3.61584V7.97054L228.06 -0.226387L219.49 -8.42332H231.604V-13.6113H219.49L228.06 -21.8082L236.63 -30.0051V-18.4187H242.053V-30.0051L250.623 -21.8082L259.192 -13.6113H247.079V-8.42332H259.192L250.623 -0.226387L242.053 7.97054V-3.61584H236.63ZM210.198 21.6321V33.2185L201.628 25.0215L193.059 16.8246H205.172V11.6367H193.059L201.628 3.43974L210.198 -4.75719V6.8292H215.622V-4.75719L224.191 3.43974L232.761 11.6367H220.648V16.8246H232.761L224.191 25.0215L215.622 33.2185V21.6321H210.198ZM183.802 -3.61584V7.97054L175.233 -0.226387L166.663 -8.42332H178.776V-13.6113H166.663L175.233 -21.8082L183.802 -30.0051V-18.4187H189.226V-30.0051L197.795 -21.8082L206.365 -13.6113H194.252V-8.42332H206.365L197.795 -0.226387L189.226 7.97054V-3.61584H183.802ZM167.856 16.8246H179.969L171.4 25.0215L162.83 33.2185V21.6321H157.407V33.2185L148.837 25.0215L140.267 16.8246H152.38V11.6367H140.267L148.837 3.43974L157.407 -4.75719V6.8292H162.83V-4.75719L171.4 3.43974L179.969 11.6367H167.856V16.8246ZM78.1835 -3.61584V7.97054L69.6139 -0.226387L61.0444 -8.42332H73.1575V-13.6113H61.0444L69.6139 -21.8082L78.1835 -30.0051V-18.4187H83.6072V-30.0051L92.1768 -21.8082L100.746 -13.6113H88.6333V-8.42332H100.746L92.1768 -0.226387L83.6072 7.97054V-3.61584H78.1835ZM74.3507 16.8246L65.7811 25.0215L57.2116 33.2185V21.6321H51.7878V33.2185L43.2183 25.0215L34.6488 16.8246H46.7618V11.6367H34.6488L43.2183 3.43974L51.7878 -4.75719V6.8292H57.2116V-4.75719L65.7811 3.43974L74.3507 11.6367H62.2376V16.8246H74.3507ZM46.7618 -38.8592H34.6488L43.2183 -47.0561L51.7878 -55.253V-43.6667H57.2116V-55.253L65.7811 -47.0561L74.3507 -38.8592H62.2376V-33.6712H74.3507L65.7811 -25.4743L57.2116 -17.2774V-28.8638H51.7878V-17.2774L43.2183 -25.4743L34.6488 -33.6712H46.7618V-38.8592ZM99.5531 -38.8592H87.44L96.0096 -47.0561L104.579 -55.253V-43.6667H110.003V-55.253L118.572 -47.0561L127.142 -38.8592H115.029V-33.6712H127.142L118.572 -25.4743L110.003 -17.2774V-28.8638H104.579V-17.2774L96.0096 -25.4743L87.44 -33.6712H99.5531V-38.8592ZM99.5531 11.6713H87.44L96.0096 3.47433L104.579 -4.7226V6.86378H110.003V-4.7226L118.572 3.47433L127.142 11.6713H115.029V16.8592H127.142L118.572 25.0561L110.003 33.2531V21.6667H104.579V33.2531L96.0096 25.0561L87.44 16.8592H99.5531V11.6713ZM122.405 -0.226387L113.836 -8.42332H125.949V-13.6113H113.836L122.405 -21.8082L130.975 -30.0051V-18.4187H136.398V-30.0051L144.968 -21.8082L153.538 -13.6113H141.424V-8.42332H153.538L144.968 -0.226387L136.398 7.97054V-3.61584H130.975V7.97054L122.405 -0.226387ZM162.83 -43.6667V-55.253L171.4 -47.0561L179.969 -38.8592H167.856V-33.6712H179.969L171.4 -25.4743L162.83 -17.2774V-28.8638H157.407V-17.2774L148.837 -25.4743L140.267 -33.6712H152.38V-38.8592H140.267L148.837 -47.0561L157.407 -55.253V-43.6667H162.83ZM215.622 -43.6667V-55.253L224.191 -47.0561L232.761 -38.8592H220.648V-33.6712H232.761L224.191 -25.4743L215.622 -17.2774V-28.8638H210.198V-17.2774L201.628 -25.4743L193.059 -33.6712H205.172V-38.8592H193.059L201.628 -47.0561L210.198 -55.253V-43.6667H215.622ZM285.588 -33.6712L277.018 -25.4743L268.449 -17.2774V-28.8638H263.025V-17.2774L254.456 -25.4743L245.886 -33.6712H257.999V-38.8592H245.886L254.456 -47.0561L263.025 -55.253V-43.6667H268.449V-55.253L277.018 -47.0561L285.588 -38.8592H273.475V-33.6712H285.588ZM298.677 -38.8592L307.247 -47.0561L315.816 -55.253V-43.6667H321.24V-55.253L329.81 -47.0561L338.379 -38.8592H326.266V-33.6712H338.379L329.81 -25.4743L321.24 -17.2774V-28.8638H315.816V-17.2774L307.247 -25.4743L298.677 -33.6712H310.79V-38.8592H298.677ZM382.637 -47.0561L391.207 -38.8592H379.094V-33.6712H391.207L382.637 -25.4743L374.068 -17.2774V-28.8638H368.644V-17.2774L360.074 -25.4743L351.505 -33.6712H363.618V-38.8592H351.505L360.074 -47.0561L368.644 -55.253V-43.6667H374.068V-55.253L382.637 -47.0561ZM363.618 -89.355H351.505L360.074 -97.552L368.644 -105.749V-94.1625H374.068V-105.783L382.637 -97.5866L391.207 -89.3896H379.094V-84.2017H391.207L382.637 -76.0048L374.068 -67.8078V-79.3942H368.644V-67.8078L360.074 -76.0048L351.505 -84.2017H363.618V-89.3896V-89.355ZM347.672 -68.9146V-80.501L356.242 -72.304L364.811 -64.1071H352.698V-58.9192H364.811L356.242 -50.7222L347.672 -42.5253V-54.1117H342.248V-42.5253L333.679 -50.7222L325.109 -58.9192H337.222V-64.1071H325.109L333.679 -72.304L342.248 -80.501V-68.9146H347.672ZM298.677 -89.355L307.247 -97.552L315.816 -105.749V-94.1625H321.24V-105.783L329.81 -97.5866L338.379 -89.3896H326.266V-84.2017H338.379L329.81 -76.0048L321.24 -67.8078V-79.3942H315.816V-67.8078L307.247 -76.0048L298.677 -84.2017H310.79V-89.3896H298.677V-89.355ZM289.421 -68.9146H294.845V-80.501L303.414 -72.304L311.984 -64.1071H299.871V-58.9192H311.984L303.414 -50.7222L294.845 -42.5253V-54.1117H289.421V-42.5253L280.851 -50.7222L272.282 -58.9192H284.395V-64.1071H272.282L280.851 -72.304L289.421 -80.501V-68.9146ZM254.456 -97.5866L263.025 -105.783V-94.1971H268.449V-105.783L277.018 -97.5866L285.588 -89.3896H273.475V-84.2017H285.588L277.018 -76.0048L268.449 -67.8078V-79.3942H263.025V-67.8078L254.456 -76.0048L245.886 -84.2017H257.999V-89.3896H245.886L254.456 -97.5866ZM242.053 -68.9146V-80.501L250.623 -72.304L259.192 -64.1071H247.079V-58.9192H259.192L250.623 -50.7222L242.053 -42.5253V-54.1117H236.63V-42.5253L228.06 -50.7222L219.49 -58.9192H231.604V-64.1071H219.49L228.06 -72.304L236.63 -80.501V-68.9146H242.053ZM201.628 -97.5866L210.198 -105.783V-94.1971H215.622V-105.783L224.191 -97.5866L232.761 -89.3896H220.648V-84.2017H232.761L224.191 -76.0048L215.622 -67.8078V-79.3942H210.198V-67.8078L201.628 -76.0048L193.059 -84.2017H205.172V-89.3896H193.059L201.628 -97.5866ZM183.802 -68.9146H189.226V-80.501L197.795 -72.304L206.365 -64.1071H194.252V-58.9192H206.365L197.795 -50.7222L189.226 -42.5253V-54.1117H183.802V-42.5253L175.233 -50.7222L166.663 -58.9192H178.776V-64.1071H166.663L175.233 -72.304L183.802 -80.501V-68.9146ZM152.38 -89.355H140.267L148.837 -97.552L157.407 -105.749V-94.1625H162.83V-105.783L171.4 -97.5866L179.969 -89.3896H167.856V-84.2017H179.969L171.4 -76.0048L162.83 -67.8078V-79.3942H157.407V-67.8078L148.837 -76.0048L140.267 -84.2017H152.38V-89.3896V-89.355ZM136.435 -68.9146V-80.501L145.004 -72.304L153.574 -64.1071H141.461V-58.9192H153.574L145.004 -50.7222L136.435 -42.5253V-54.1117H131.011V-42.5253L122.441 -50.7222L113.872 -58.9192H125.985V-64.1071H113.872L122.441 -72.304L131.011 -80.501V-68.9146H136.435ZM96.0096 -97.5866L104.579 -105.783V-94.1971H110.003V-105.783L118.572 -97.5866L127.142 -89.3896H115.029V-84.2017H127.142L118.572 -76.0048L110.003 -67.8078V-79.3942H104.579V-67.8078L96.0096 -76.0048L87.44 -84.2017H99.5531V-89.3896H87.44L96.0096 -97.5866ZM83.6072 -68.9146V-80.501L92.1768 -72.304L100.746 -64.1071H88.6333V-58.9192H100.746L92.1768 -50.7222L83.6072 -42.5253V-54.1117H78.1835V-42.5253L69.6139 -50.7222L61.0444 -58.9192H73.1575V-64.1071H61.0444L69.6139 -72.304L78.1835 -80.501V-68.9146H83.6072ZM46.7618 -89.355H34.6488L43.2183 -97.552L51.7878 -105.749V-94.1625H57.2116V-105.783L65.7811 -97.5866L74.3507 -89.3896H62.2376V-84.2017H74.3507L65.7811 -76.0048L57.2116 -67.8078V-79.3942H51.7878V-67.8078L43.2183 -76.0048L34.6488 -84.2017H46.7618V-89.3896V-89.355ZM16.8227 -50.7222L8.25315 -58.9192H20.3662V-64.1071H8.25315L16.8227 -72.304L25.3922 -80.501V-68.9146H30.816V-80.501L39.3855 -72.304L47.9551 -64.1071H35.842V-58.9192H47.9551L39.3855 -50.7222L30.816 -42.5253V-54.1117H25.3922V-42.5253L16.8227 -50.7222ZM16.8227 -0.226387L8.25315 -8.42332H20.3662V-13.6113H8.25315L16.8227 -21.8082L25.3922 -30.0051V-18.4187H30.816V-30.0051L39.3855 -21.8082L47.9551 -13.6113H35.842V-8.42332H47.9551L39.3855 -0.226387L30.816 7.97054V-3.61584H25.3922V7.97054L16.8227 -0.226387ZM30.816 58.501V46.9146H25.3922V58.501L16.8227 50.304L8.25315 42.1071H20.3662V36.9192H8.25315L16.8227 28.7223L25.3922 20.5253V32.1117H30.816V20.5253L39.3855 28.7223L47.9551 36.9192H35.842V42.1071H47.9551L39.3855 50.304L30.816 58.501ZM74.3507 67.355L65.7811 75.552L57.2116 83.7489V72.1625H51.7878V83.7489L43.2183 75.552L34.6488 67.355H46.7618V62.1671H34.6488L43.2183 53.9702L51.7878 45.7733V57.3596H57.2116V45.7733L65.7811 53.9702L74.3507 62.1671H62.2376V67.355H74.3507ZM83.6072 46.9146H78.1835V58.501L69.6139 50.304L61.0444 42.1071H73.1575V36.9192H61.0444L69.6139 28.7223L78.1835 20.5253V32.1117H83.6072V20.5253L92.1768 28.7223L100.746 36.9192H88.6333V42.1071H100.746L92.1768 50.304L83.6072 58.501V46.9146ZM127.178 67.355L118.609 75.552L110.039 83.7489V72.1625H104.615V83.7489L96.0457 75.552L87.4762 67.355H99.5893V62.1671H87.4762L96.0457 53.9702L104.615 45.7733V57.3596H110.039V45.7733L118.609 53.9702L127.178 62.1671H115.065V67.355H127.178ZM136.435 46.9146H131.011V58.501L122.441 50.304L113.872 42.1071H125.985V36.9192H113.872L122.441 28.7223L131.011 20.5253V32.1117H136.435V20.5253L145.004 28.7223L153.574 36.9192H141.461V42.1071H153.574L145.004 50.304L136.435 58.501V46.9146ZM171.4 75.552L162.83 83.7489V72.1625H157.407V83.7489L148.837 75.552L140.267 67.355H152.38V62.1671H140.267L148.837 53.9702L157.407 45.7733V57.3596H162.83V45.7733L171.4 53.9702L179.969 62.1671H167.856V67.355H179.969L171.4 75.552ZM189.226 46.9146H183.802V58.501L175.233 50.304L166.663 42.1071H178.776V36.9192H166.663L175.233 28.7223L183.802 20.5253V32.1117H189.226V20.5253L197.795 28.7223L206.365 36.9192H194.252V42.1071H206.365L197.795 50.304L189.226 58.501V46.9146ZM220.648 67.355H232.761L224.191 75.552L215.622 83.7489V72.1625H210.198V83.7489L201.628 75.552L193.059 67.355H205.172V62.1671H193.059L201.628 53.9702L210.198 45.7733V57.3596H215.622V45.7733L224.191 53.9702L232.761 62.1671H220.648V67.355ZM236.63 46.9146V58.501L228.06 50.304L219.49 42.1071H231.604V36.9192H219.49L228.06 28.7223L236.63 20.5253V32.1117H242.053V20.5253L250.623 28.7223L259.192 36.9192H247.079V42.1071H259.192L250.623 50.304L242.053 58.501V46.9146H236.63ZM277.018 75.552L268.449 83.7489V72.1625H263.025V83.7489L254.456 75.552L245.886 67.355H257.999V62.1671H245.886L254.456 53.9702L263.025 45.7733V57.3596H268.449V45.7733L277.018 53.9702L285.588 62.1671H273.475V67.355H285.588L277.018 75.552ZM289.421 46.9146V58.501L280.851 50.304L272.282 42.1071H284.395V36.9192H272.282L280.851 28.7223L289.421 20.5253V32.1117H294.845V20.5253L303.414 28.7223L311.984 36.9192H299.871V42.1071H311.984L303.414 50.304L294.845 58.501V46.9146H289.421ZM326.266 67.355H338.379L329.81 75.552L321.24 83.7489V72.1625H315.816V83.7489L307.247 75.552L298.677 67.355H310.79V62.1671H298.677L307.247 53.9702L315.816 45.7733V57.3596H321.24V45.7733L329.81 53.9702L338.379 62.1671H326.266V67.355ZM347.672 58.501V46.9146H342.248V58.501L333.679 50.304L325.109 42.1071H337.222V36.9192H325.109L333.679 28.7223L342.248 20.5253V32.1117H347.672V20.5253L356.242 28.7223L364.811 36.9192H352.698V42.1071H364.811L356.242 50.304L347.672 58.501ZM382.637 75.552L374.068 83.7489V72.1625H368.644V83.7489L360.074 75.552L351.505 67.355H363.618V62.1671H351.505L360.074 53.9702L368.644 45.7733V57.3596H374.068V45.7733L382.637 53.9702L391.207 62.1671H379.094V67.355H391.207L382.637 75.552Z" fill="#F6D3B3"></path>
  </g>
</svg>
