<?xml version="1.0" encoding="UTF-8"?>
<svg xmlns="http://www.w3.org/2000/svg" width="355" height="60" viewBox="0 0 355 60" fill="none">
  <rect x="0.11084" width="354" height="60" fill="#FF9620"></rect>
  <mask id="mask0_980_422" style="mask-type:alpha" maskUnits="userSpaceOnUse" x="0" y="0" width="355" height="60">
    <rect x="0.11084" width="354" height="60" fill="#FF9620"></rect>
  </mask>
  <g mask="url(#mask0_980_422)">
    <path d="M386.47 50.304L377.901 42.1071H390.014V36.9192H377.901L386.47 28.7223L392.111 23.3268V5.16905L386.47 -0.226387L377.901 -8.42332H390.014V-13.6113H377.901L386.47 -21.8082L392.111 -27.2036V-45.3614L386.47 -50.7568L377.901 -58.9538H390.014V-64.1417H377.901L386.47 -72.3386L392.111 -77.7341V-95.8572L386.47 -101.253L378.371 -109H364.377L356.278 -101.253L347.708 -93.0558V-104.642H342.285V-93.0558L333.715 -101.253L325.616 -109H311.622L303.523 -101.253L294.953 -93.0558V-104.642H289.529V-93.0558L280.96 -101.253L272.861 -109H258.867L250.768 -101.253L242.198 -93.0558V-104.642H236.774V-93.0558L228.205 -101.253L220.105 -109H206.112L198.013 -101.253L189.443 -93.0558V-104.642H184.019V-93.0558L175.45 -101.253L167.35 -109H153.357L145.257 -101.253L136.688 -93.0558V-104.642H131.264V-93.0558L122.695 -101.253L114.595 -109H100.602L92.5024 -101.253L83.9329 -93.0558V-104.642H78.5091V-93.0558L69.9396 -101.253L61.8401 -109H47.8468L39.7473 -101.253L31.1778 -93.0558V-104.642H25.754V-93.0558L17.1845 -101.253L8.68726 -109H-5.30604L-13.4417 -101.253L-17.8892 -96.9986V-89.6663L-9.60889 -97.5866L-1.03935 -105.783V-94.1971H4.38441V-105.783L12.9539 -97.5866L21.5235 -89.3896H9.41043V-84.2017H21.5235L12.9539 -76.0048L4.38441 -67.8078V-79.3942H-1.03935V-67.8078L-9.60889 -76.0048L-17.8892 -83.925V-76.5927L-13.4417 -72.3386L-4.87214 -64.1417H-16.9852V-58.9538H-4.87214L-13.4417 -50.7568L-17.8892 -46.5027V-39.1705L-9.60889 -47.0907L-1.03935 -55.2876V-43.7013H4.38441V-55.2876L12.9539 -47.0907L21.5235 -38.8938H9.41043V-33.7058H21.5235L12.9539 -25.5089L4.38441 -17.312V-28.8984H-1.03935V-17.312L-9.60889 -25.5089L-17.8892 -33.4291V-26.0969L-13.4417 -21.8428L-4.87214 -13.6458H-16.9852V-8.45791H-4.87214L-13.4417 -0.260979L-17.8892 3.99312V11.3254L-9.60889 3.40515L-1.03935 -4.79177V6.79461H4.38441V-4.79177L12.9539 3.40515L21.5235 11.6021H9.41043V16.79H21.5235L12.9539 24.987L4.38441 33.1839V21.5975H-1.03935V33.1839L-9.60889 24.987L-17.8892 17.0667V24.399L-13.4417 28.6531L-4.87214 36.85H-16.9852V42.0379H-4.87214L-13.4417 50.2349L-17.8892 54.489V61.8212L-9.60889 53.901L-1.03935 45.7041V57.2905H4.38441V45.7041L12.9539 53.901L21.5235 62.0979H9.41043V67.2859H21.5235L12.9539 75.4828L4.38441 83.6797V72.0934H-1.03935V83.6797L-9.60889 75.4828L-17.8892 67.5626V74.8948L-13.4417 79.149L-5.23372 87H8.57878L16.7867 79.149L25.3563 70.952V82.5384H30.78V70.952L39.3496 79.149L47.5575 87H61.37L69.578 79.149L78.1475 70.952V82.5384H83.5713V70.952L92.1408 79.149L100.349 87H114.161L122.369 79.149L130.939 70.952V82.5384H136.363V70.952L144.932 79.149L153.14 87H166.953L175.16 79.149L183.73 70.952V82.5384H189.154V70.952L197.723 79.149L205.931 87H219.744L227.952 79.149L236.521 70.952V82.5384H241.945V70.952L250.515 79.149L258.723 87H272.535L280.743 79.149L289.313 70.952V82.5384H294.736V70.952L303.306 79.149L311.514 87H325.326L333.534 79.149L342.104 70.952V82.5384H347.528V70.952L356.097 79.149L364.305 87H378.118L386.326 79.149L391.966 73.7535V55.5957L386.326 50.2003L386.47 50.304ZM382.637 3.43974L391.207 11.6367H379.094V16.8246H391.207L382.637 25.0215L374.068 33.2185V21.6321H368.644V33.2185L360.074 25.0215L351.505 16.8246H363.618V11.6367H351.505L360.074 3.43974L368.644 -4.75719V6.8292H374.068V-4.75719L382.637 3.43974ZM342.248 -3.61584V7.97054L333.679 -0.226387L325.109 -8.42332H337.222V-13.6113H325.109L333.679 -21.8082L342.248 -30.0051V-18.4187H347.672V-30.0051L356.242 -21.8082L364.811 -13.6113H352.698V-8.42332H364.811L356.242 -0.226387L347.672 7.97054V-3.61584H342.248ZM338.416 16.8246L329.846 25.0215L321.277 33.2185V21.6321H315.853V33.2185L307.283 25.0215L298.714 16.8246H310.827V11.6367H298.714L307.283 3.43974L315.853 -4.75719V6.8292H321.277V-4.75719L329.846 3.43974L338.416 11.6367H326.303V16.8246H338.416ZM289.421 -3.61584V7.97054L280.852 -0.226387L272.282 -8.42332H284.395V-13.6113H272.282L280.852 -21.8082L289.421 -30.0051V-18.4187H294.845V-30.0051L303.414 -21.8082L311.984 -13.6113H299.871V-8.42332H311.984L303.414 -0.226387L294.845 7.97054V-3.61584H289.421ZM273.475 16.8246H285.588L277.019 25.0215L268.449 33.2185V21.6321H263.025V33.2185L254.456 25.0215L245.886 16.8246H257.999V11.6367H245.886L254.456 3.43974L263.025 -4.75719V6.8292H268.449V-4.75719L277.019 3.43974L285.588 11.6367H273.475V16.8246ZM236.63 -3.61584V7.97054L228.06 -0.226387L219.491 -8.42332H231.604V-13.6113H219.491L228.06 -21.8082L236.63 -30.0051V-18.4187H242.054V-30.0051L250.623 -21.8082L259.193 -13.6113H247.08V-8.42332H259.193L250.623 -0.226387L242.054 7.97054V-3.61584H236.63ZM210.198 21.6321V33.2185L201.628 25.0215L193.059 16.8246H205.172V11.6367H193.059L201.628 3.43974L210.198 -4.75719V6.8292H215.622V-4.75719L224.191 3.43974L232.761 11.6367H220.648V16.8246H232.761L224.191 25.0215L215.622 33.2185V21.6321H210.198ZM183.802 -3.61584V7.97054L175.233 -0.226387L166.663 -8.42332H178.776V-13.6113H166.663L175.233 -21.8082L183.802 -30.0051V-18.4187H189.226V-30.0051L197.796 -21.8082L206.365 -13.6113H194.252V-8.42332H206.365L197.796 -0.226387L189.226 7.97054V-3.61584H183.802ZM167.856 16.8246H179.97L171.4 25.0215L162.83 33.2185V21.6321H157.407V33.2185L148.837 25.0215L140.268 16.8246H152.381V11.6367H140.268L148.837 3.43974L157.407 -4.75719V6.8292H162.83V-4.75719L171.4 3.43974L179.97 11.6367H167.856V16.8246ZM78.1837 -3.61584V7.97054L69.6142 -0.226387L61.0446 -8.42332H73.1577V-13.6113H61.0446L69.6142 -21.8082L78.1837 -30.0051V-18.4187H83.6074V-30.0051L92.177 -21.8082L100.747 -13.6113H88.6335V-8.42332H100.747L92.177 -0.226387L83.6074 7.97054V-3.61584H78.1837ZM74.3509 16.8246L65.7814 25.0215L57.2118 33.2185V21.6321H51.7881V33.2185L43.2185 25.0215L34.649 16.8246H46.762V11.6367H34.649L43.2185 3.43974L51.7881 -4.75719V6.8292H57.2118V-4.75719L65.7814 3.43974L74.3509 11.6367H62.2378V16.8246H74.3509ZM46.762 -38.8592H34.649L43.2185 -47.0561L51.7881 -55.253V-43.6667H57.2118V-55.253L65.7814 -47.0561L74.3509 -38.8592H62.2378V-33.6712H74.3509L65.7814 -25.4743L57.2118 -17.2774V-28.8638H51.7881V-17.2774L43.2185 -25.4743L34.649 -33.6712H46.762V-38.8592ZM99.5533 -38.8592H87.4402L96.0098 -47.0561L104.579 -55.253V-43.6667H110.003V-55.253L118.573 -47.0561L127.142 -38.8592H115.029V-33.6712H127.142L118.573 -25.4743L110.003 -17.2774V-28.8638H104.579V-17.2774L96.0098 -25.4743L87.4402 -33.6712H99.5533V-38.8592ZM99.5533 11.6713H87.4402L96.0098 3.47433L104.579 -4.7226V6.86378H110.003V-4.7226L118.573 3.47433L127.142 11.6713H115.029V16.8592H127.142L118.573 25.0561L110.003 33.2531V21.6667H104.579V33.2531L96.0098 25.0561L87.4402 16.8592H99.5533V11.6713ZM122.405 -0.226387L113.836 -8.42332H125.949V-13.6113H113.836L122.405 -21.8082L130.975 -30.0051V-18.4187H136.399V-30.0051L144.968 -21.8082L153.538 -13.6113H141.425V-8.42332H153.538L144.968 -0.226387L136.399 7.97054V-3.61584H130.975V7.97054L122.405 -0.226387ZM162.83 -43.6667V-55.253L171.4 -47.0561L179.97 -38.8592H167.856V-33.6712H179.97L171.4 -25.4743L162.83 -17.2774V-28.8638H157.407V-17.2774L148.837 -25.4743L140.268 -33.6712H152.381V-38.8592H140.268L148.837 -47.0561L157.407 -55.253V-43.6667H162.83ZM215.622 -43.6667V-55.253L224.191 -47.0561L232.761 -38.8592H220.648V-33.6712H232.761L224.191 -25.4743L215.622 -17.2774V-28.8638H210.198V-17.2774L201.628 -25.4743L193.059 -33.6712H205.172V-38.8592H193.059L201.628 -47.0561L210.198 -55.253V-43.6667H215.622ZM285.588 -33.6712L277.019 -25.4743L268.449 -17.2774V-28.8638H263.025V-17.2774L254.456 -25.4743L245.886 -33.6712H257.999V-38.8592H245.886L254.456 -47.0561L263.025 -55.253V-43.6667H268.449V-55.253L277.019 -47.0561L285.588 -38.8592H273.475V-33.6712H285.588ZM298.678 -38.8592L307.247 -47.0561L315.817 -55.253V-43.6667H321.24V-55.253L329.81 -47.0561L338.379 -38.8592H326.266V-33.6712H338.379L329.81 -25.4743L321.24 -17.2774V-28.8638H315.817V-17.2774L307.247 -25.4743L298.678 -33.6712H310.791V-38.8592H298.678ZM382.637 -47.0561L391.207 -38.8592H379.094V-33.6712H391.207L382.637 -25.4743L374.068 -17.2774V-28.8638H368.644V-17.2774L360.074 -25.4743L351.505 -33.6712H363.618V-38.8592H351.505L360.074 -47.0561L368.644 -55.253V-43.6667H374.068V-55.253L382.637 -47.0561ZM363.618 -89.355H351.505L360.074 -97.552L368.644 -105.749V-94.1625H374.068V-105.783L382.637 -97.5866L391.207 -89.3896H379.094V-84.2017H391.207L382.637 -76.0048L374.068 -67.8078V-79.3942H368.644V-67.8078L360.074 -76.0048L351.505 -84.2017H363.618V-89.3896V-89.355ZM347.672 -68.9146V-80.501L356.242 -72.304L364.811 -64.1071H352.698V-58.9192H364.811L356.242 -50.7222L347.672 -42.5253V-54.1117H342.248V-42.5253L333.679 -50.7222L325.109 -58.9192H337.222V-64.1071H325.109L333.679 -72.304L342.248 -80.501V-68.9146H347.672ZM298.678 -89.355L307.247 -97.552L315.817 -105.749V-94.1625H321.24V-105.783L329.81 -97.5866L338.379 -89.3896H326.266V-84.2017H338.379L329.81 -76.0048L321.24 -67.8078V-79.3942H315.817V-67.8078L307.247 -76.0048L298.678 -84.2017H310.791V-89.3896H298.678V-89.355ZM289.421 -68.9146H294.845V-80.501L303.414 -72.304L311.984 -64.1071H299.871V-58.9192H311.984L303.414 -50.7222L294.845 -42.5253V-54.1117H289.421V-42.5253L280.852 -50.7222L272.282 -58.9192H284.395V-64.1071H272.282L280.852 -72.304L289.421 -80.501V-68.9146ZM254.456 -97.5866L263.025 -105.783V-94.1971H268.449V-105.783L277.019 -97.5866L285.588 -89.3896H273.475V-84.2017H285.588L277.019 -76.0048L268.449 -67.8078V-79.3942H263.025V-67.8078L254.456 -76.0048L245.886 -84.2017H257.999V-89.3896H245.886L254.456 -97.5866ZM242.054 -68.9146V-80.501L250.623 -72.304L259.193 -64.1071H247.08V-58.9192H259.193L250.623 -50.7222L242.054 -42.5253V-54.1117H236.63V-42.5253L228.06 -50.7222L219.491 -58.9192H231.604V-64.1071H219.491L228.06 -72.304L236.63 -80.501V-68.9146H242.054ZM201.628 -97.5866L210.198 -105.783V-94.1971H215.622V-105.783L224.191 -97.5866L232.761 -89.3896H220.648V-84.2017H232.761L224.191 -76.0048L215.622 -67.8078V-79.3942H210.198V-67.8078L201.628 -76.0048L193.059 -84.2017H205.172V-89.3896H193.059L201.628 -97.5866ZM183.802 -68.9146H189.226V-80.501L197.796 -72.304L206.365 -64.1071H194.252V-58.9192H206.365L197.796 -50.7222L189.226 -42.5253V-54.1117H183.802V-42.5253L175.233 -50.7222L166.663 -58.9192H178.776V-64.1071H166.663L175.233 -72.304L183.802 -80.501V-68.9146ZM152.381 -89.355H140.268L148.837 -97.552L157.407 -105.749V-94.1625H162.83V-105.783L171.4 -97.5866L179.97 -89.3896H167.856V-84.2017H179.97L171.4 -76.0048L162.83 -67.8078V-79.3942H157.407V-67.8078L148.837 -76.0048L140.268 -84.2017H152.381V-89.3896V-89.355ZM136.435 -68.9146V-80.501L145.004 -72.304L153.574 -64.1071H141.461V-58.9192H153.574L145.004 -50.7222L136.435 -42.5253V-54.1117H131.011V-42.5253L122.442 -50.7222L113.872 -58.9192H125.985V-64.1071H113.872L122.442 -72.304L131.011 -80.501V-68.9146H136.435ZM96.0098 -97.5866L104.579 -105.783V-94.1971H110.003V-105.783L118.573 -97.5866L127.142 -89.3896H115.029V-84.2017H127.142L118.573 -76.0048L110.003 -67.8078V-79.3942H104.579V-67.8078L96.0098 -76.0048L87.4402 -84.2017H99.5533V-89.3896H87.4402L96.0098 -97.5866ZM83.6074 -68.9146V-80.501L92.177 -72.304L100.747 -64.1071H88.6335V-58.9192H100.747L92.177 -50.7222L83.6074 -42.5253V-54.1117H78.1837V-42.5253L69.6142 -50.7222L61.0446 -58.9192H73.1577V-64.1071H61.0446L69.6142 -72.304L78.1837 -80.501V-68.9146H83.6074ZM46.762 -89.355H34.649L43.2185 -97.552L51.7881 -105.749V-94.1625H57.2118V-105.783L65.7814 -97.5866L74.3509 -89.3896H62.2378V-84.2017H74.3509L65.7814 -76.0048L57.2118 -67.8078V-79.3942H51.7881V-67.8078L43.2185 -76.0048L34.649 -84.2017H46.762V-89.3896V-89.355ZM16.8229 -50.7222L8.25336 -58.9192H20.3664V-64.1071H8.25336L16.8229 -72.304L25.3924 -80.501V-68.9146H30.8162V-80.501L39.3857 -72.304L47.9553 -64.1071H35.8422V-58.9192H47.9553L39.3857 -50.7222L30.8162 -42.5253V-54.1117H25.3924V-42.5253L16.8229 -50.7222ZM16.8229 -0.226387L8.25336 -8.42332H20.3664V-13.6113H8.25336L16.8229 -21.8082L25.3924 -30.0051V-18.4187H30.8162V-30.0051L39.3857 -21.8082L47.9553 -13.6113H35.8422V-8.42332H47.9553L39.3857 -0.226387L30.8162 7.97054V-3.61584H25.3924V7.97054L16.8229 -0.226387ZM30.8162 58.501V46.9146H25.3924V58.501L16.8229 50.304L8.25336 42.1071H20.3664V36.9192H8.25336L16.8229 28.7223L25.3924 20.5253V32.1117H30.8162V20.5253L39.3857 28.7223L47.9553 36.9192H35.8422V42.1071H47.9553L39.3857 50.304L30.8162 58.501ZM74.3509 67.355L65.7814 75.552L57.2118 83.7489V72.1625H51.7881V83.7489L43.2185 75.552L34.649 67.355H46.762V62.1671H34.649L43.2185 53.9702L51.7881 45.7733V57.3596H57.2118V45.7733L65.7814 53.9702L74.3509 62.1671H62.2378V67.355H74.3509ZM83.6074 46.9146H78.1837V58.501L69.6142 50.304L61.0446 42.1071H73.1577V36.9192H61.0446L69.6142 28.7223L78.1837 20.5253V32.1117H83.6074V20.5253L92.177 28.7223L100.747 36.9192H88.6335V42.1071H100.747L92.177 50.304L83.6074 58.501V46.9146ZM127.178 67.355L118.609 75.552L110.039 83.7489V72.1625H104.615V83.7489L96.0459 75.552L87.4764 67.355H99.5895V62.1671H87.4764L96.0459 53.9702L104.615 45.7733V57.3596H110.039V45.7733L118.609 53.9702L127.178 62.1671H115.065V67.355H127.178ZM136.435 46.9146H131.011V58.501L122.442 50.304L113.872 42.1071H125.985V36.9192H113.872L122.442 28.7223L131.011 20.5253V32.1117H136.435V20.5253L145.004 28.7223L153.574 36.9192H141.461V42.1071H153.574L145.004 50.304L136.435 58.501V46.9146ZM171.4 75.552L162.83 83.7489V72.1625H157.407V83.7489L148.837 75.552L140.268 67.355H152.381V62.1671H140.268L148.837 53.9702L157.407 45.7733V57.3596H162.83V45.7733L171.4 53.9702L179.97 62.1671H167.856V67.355H179.97L171.4 75.552ZM189.226 46.9146H183.802V58.501L175.233 50.304L166.663 42.1071H178.776V36.9192H166.663L175.233 28.7223L183.802 20.5253V32.1117H189.226V20.5253L197.796 28.7223L206.365 36.9192H194.252V42.1071H206.365L197.796 50.304L189.226 58.501V46.9146ZM220.648 67.355H232.761L224.191 75.552L215.622 83.7489V72.1625H210.198V83.7489L201.628 75.552L193.059 67.355H205.172V62.1671H193.059L201.628 53.9702L210.198 45.7733V57.3596H215.622V45.7733L224.191 53.9702L232.761 62.1671H220.648V67.355ZM236.63 46.9146V58.501L228.06 50.304L219.491 42.1071H231.604V36.9192H219.491L228.06 28.7223L236.63 20.5253V32.1117H242.054V20.5253L250.623 28.7223L259.193 36.9192H247.08V42.1071H259.193L250.623 50.304L242.054 58.501V46.9146H236.63ZM277.019 75.552L268.449 83.7489V72.1625H263.025V83.7489L254.456 75.552L245.886 67.355H257.999V62.1671H245.886L254.456 53.9702L263.025 45.7733V57.3596H268.449V45.7733L277.019 53.9702L285.588 62.1671H273.475V67.355H285.588L277.019 75.552ZM289.421 46.9146V58.501L280.852 50.304L272.282 42.1071H284.395V36.9192H272.282L280.852 28.7223L289.421 20.5253V32.1117H294.845V20.5253L303.414 28.7223L311.984 36.9192H299.871V42.1071H311.984L303.414 50.304L294.845 58.501V46.9146H289.421ZM326.266 67.355H338.379L329.81 75.552L321.24 83.7489V72.1625H315.817V83.7489L307.247 75.552L298.678 67.355H310.791V62.1671H298.678L307.247 53.9702L315.817 45.7733V57.3596H321.24V45.7733L329.81 53.9702L338.379 62.1671H326.266V67.355ZM347.672 58.501V46.9146H342.248V58.501L333.679 50.304L325.109 42.1071H337.222V36.9192H325.109L333.679 28.7223L342.248 20.5253V32.1117H347.672V20.5253L356.242 28.7223L364.811 36.9192H352.698V42.1071H364.811L356.242 50.304L347.672 58.501ZM382.637 75.552L374.068 83.7489V72.1625H368.644V83.7489L360.074 75.552L351.505 67.355H363.618V62.1671H351.505L360.074 53.9702L368.644 45.7733V57.3596H374.068V45.7733L382.637 53.9702L391.207 62.1671H379.094V67.355H391.207L382.637 75.552Z" fill="#F9C822"></path>
  </g>
</svg>
