<?xml version="1.0" encoding="UTF-8"?>
<svg xmlns="http://www.w3.org/2000/svg" width="1344" height="63" viewBox="0 0 1344 63" fill="none">
  <rect width="1344" height="63" fill="#90CEC7"></rect>
  <mask id="mask0_1106_874" style="mask-type:alpha" maskUnits="userSpaceOnUse" x="0" y="0" width="1344" height="63">
    <rect width="1344" height="63" fill="#D9D9D9"></rect>
  </mask>
  <g mask="url(#mask0_1106_874)">
    <path d="M241.263 80.5571L232.547 72.1929H244.867V66.8991H232.547L241.263 58.5349L247 53.0293V34.501L241.263 28.9954L232.547 20.6312H244.867V15.3374H232.547L241.263 6.9732L247 1.46764V-17.0607L241.263 -22.5662L232.547 -30.9305H244.867V-36.2243H232.547L241.263 -44.5885L247 -50.094V-68.5871L241.263 -74.0926L233.025 -81.998H218.793L210.555 -74.0926L201.839 -65.7284V-77.5512H196.323V-65.7284L187.607 -74.0926L179.369 -81.998H165.137L156.899 -74.0926L148.184 -65.7284V-77.5512H142.667V-65.7284L133.951 -74.0926L125.714 -81.998H111.481L103.244 -74.0926L94.5278 -65.7284V-77.5512H89.0115V-65.7284L80.2956 -74.0926L72.0579 -81.998H57.8257L49.5879 -74.0926L40.872 -65.7284V-77.5512H35.3557V-65.7284L26.6398 -74.0926L18.4021 -81.998H4.16985L-4.06792 -74.0926L-12.7838 -65.7284V-77.5512H-18.3001V-65.7284L-27.016 -74.0926L-35.2537 -81.998H-49.4859L-57.7237 -74.0926L-66.4395 -65.7284V-77.5512H-71.9559V-65.7284L-80.6718 -74.0926L-88.9095 -81.998H-103.142L-111.379 -74.0926L-120.095 -65.7284V-77.5512H-125.612V-65.7284L-134.328 -74.0926L-142.97 -81.998H-157.202L-165.477 -74.0926L-170 -69.7517V-62.2698L-161.578 -70.3517L-152.863 -78.7159V-66.8931H-147.346V-78.7159L-138.63 -70.3517L-129.914 -61.9875H-142.234V-56.6937H-129.914L-138.63 -48.3294L-147.346 -39.9652V-51.7881H-152.863V-39.9652L-161.578 -48.3294L-170 -56.4113V-48.9294L-165.477 -44.5885L-156.761 -36.2243H-169.081V-30.9305H-156.761L-165.477 -22.5662L-170 -18.2253V-10.7434L-161.578 -18.8253L-152.863 -27.1895V-15.3667H-147.346V-27.1895L-138.63 -18.8253L-129.914 -10.4611H-142.234V-5.16727H-129.914L-138.63 3.19694L-147.346 11.5612V-0.261674H-152.863V11.5612L-161.578 3.19694L-170 -4.88493V2.59697L-165.477 6.93791L-156.761 15.3021H-169.081V20.5959H-156.761L-165.477 28.9601L-170 33.3011V40.783L-161.578 32.7011L-152.863 24.3369V36.1597H-147.346V24.3369L-138.63 32.7011L-129.914 41.0653H-142.234V46.3591H-129.914L-138.63 54.7233L-147.346 63.0875V51.2647H-152.863V63.0875L-161.578 54.7233L-170 46.6415V54.1234L-165.477 58.4643L-156.761 66.8285H-169.081V72.1223H-156.761L-165.477 80.4865L-170 84.8274V92.3093L-161.578 84.2275L-152.863 75.8633V87.6861H-147.346V75.8633L-138.63 84.2275L-129.914 92.5917H-142.234V97.8855H-129.914L-138.63 106.25L-147.346 114.614V102.791H-152.863V114.614L-161.578 106.25L-170 98.1678V105.65L-165.477 109.991L-157.128 118.002H-143.08L-134.732 109.991L-126.016 101.626V113.449H-120.5V101.626L-111.784 109.991L-103.436 118.002H-89.3876L-81.0395 109.991L-72.3237 101.626V113.449H-66.8073V101.626L-58.0914 109.991L-49.7434 118.002H-35.695L-27.3469 109.991L-18.6311 101.626V113.449H-13.1147V101.626L-4.39888 109.991L3.9492 118.002H17.9975L26.3456 109.991L35.0615 101.626V113.449H40.5778V101.626L49.2937 109.991L57.6418 118.002H71.6901L80.0382 109.991L88.754 101.626V113.449H94.2704V101.626L102.986 109.991L111.334 118.002H125.383L133.731 109.991L142.447 101.626V113.449H147.963V101.626L156.679 109.991L165.027 118.002H179.075L187.423 109.991L196.139 101.626V113.449H201.656V101.626L210.371 109.991L218.719 118.002H232.768L241.116 109.991L246.853 104.485V85.9568L241.116 80.4512L241.263 80.5571ZM237.365 32.7364L246.081 41.1006H233.761V46.3944H246.081L237.365 54.7586L228.649 63.1228V51.3H223.133V63.1228L214.417 54.7586L205.701 46.3944H218.021V41.1006H205.701L214.417 32.7364L223.133 24.3722V36.195H228.649V24.3722L237.365 32.7364ZM196.286 25.5368V37.3596L187.57 28.9954L178.855 20.6312H191.174V15.3374H178.855L187.57 6.9732L196.286 -1.39102V10.4318H201.803V-1.39102L210.518 6.9732L219.234 15.3374H206.914V20.6312H219.234L210.518 28.9954L201.803 37.3596V25.5368H196.286ZM192.388 46.3944L183.672 54.7586L174.956 63.1228V51.3H169.44V63.1228L160.724 54.7586L152.008 46.3944H164.328V41.1006H152.008L160.724 32.7364L169.44 24.3722V36.195H174.956V24.3722L183.672 32.7364L192.388 41.1006H180.068V46.3944H192.388ZM142.557 25.5368V37.3596L133.841 28.9954L125.125 20.6312H137.445V15.3374H125.125L133.841 6.9732L142.557 -1.39102V10.4318H148.073V-1.39102L156.789 6.9732L165.505 15.3374H153.185V20.6312H165.505L156.789 28.9954L148.073 37.3596V25.5368H142.557ZM126.339 46.3944H138.659L129.943 54.7586L121.227 63.1228V51.3H115.711V63.1228L106.995 54.7586L98.2789 46.3944H110.599V41.1006H98.2789L106.995 32.7364L115.711 24.3722V36.195H121.227V24.3722L129.943 32.7364L138.659 41.1006H126.339V46.3944ZM88.8644 25.5368V37.3596L80.1485 28.9954L71.4327 20.6312H83.7525V15.3374H71.4327L80.1485 6.9732L88.8644 -1.39102V10.4318H94.3807V-1.39102L103.097 6.9732L111.812 15.3374H99.4925V20.6312H111.812L103.097 28.9954L94.3807 37.3596V25.5368H88.8644ZM61.9813 51.3V63.1228L53.2655 54.7586L44.5496 46.3944H56.8695V41.1006H44.5496L53.2655 32.7364L61.9813 24.3722V36.195H67.4977V24.3722L76.2135 32.7364L84.9294 41.1006H72.6095V46.3944H84.9294L76.2135 54.7586L67.4977 63.1228V51.3H61.9813ZM35.135 25.5368V37.3596L26.4192 28.9954L17.7033 20.6312H30.0232V15.3374H17.7033L26.4192 6.9732L35.135 -1.39102V10.4318H40.6514V-1.39102L49.3672 6.9732L58.0831 15.3374H45.7632V20.6312H58.0831L49.3672 28.9954L40.6514 37.3596V25.5368H35.135ZM18.9169 46.3944H31.2368L22.5209 54.7586L13.8051 63.1228V51.3H8.28874V63.1228L-0.427106 54.7586L-9.14295 46.3944H3.17691V41.1006H-9.14295L-0.427106 32.7364L8.28874 24.3722V36.195H13.8051V24.3722L22.5209 32.7364L31.2368 41.1006H18.9169V46.3944ZM-72.2869 25.5368V37.3596L-81.0027 28.9954L-89.7186 20.6312H-77.3987V15.3374H-89.7186L-81.0027 6.9732L-72.2869 -1.39102V10.4318H-66.7705V-1.39102L-58.0547 6.9732L-49.3388 15.3374H-61.6587V20.6312H-49.3388L-58.0547 28.9954L-66.7705 37.3596V25.5368H-72.2869ZM-76.1851 46.3944L-84.901 54.7586L-93.6168 63.1228V51.3H-99.1332V63.1228L-107.849 54.7586L-116.565 46.3944H-104.245V41.1006H-116.565L-107.849 32.7364L-99.1332 24.3722V36.195H-93.6168V24.3722L-84.901 32.7364L-76.1851 41.1006H-88.505V46.3944H-76.1851ZM-104.245 -10.4258H-116.565L-107.849 -18.79L-99.1332 -27.1542V-15.3314H-93.6168V-27.1542L-84.901 -18.79L-76.1851 -10.4258H-88.505V-5.13198H-76.1851L-84.901 3.23223L-93.6168 11.5965V-0.226384H-99.1332V11.5965L-107.849 3.23223L-116.565 -5.13198H-104.245V-10.4258ZM-50.5524 -10.4258H-62.8723L-54.1564 -18.79L-45.4406 -27.1542V-15.3314H-39.9242V-27.1542L-31.2084 -18.79L-22.4925 -10.4258H-34.8124V-5.13198H-22.4925L-31.2084 3.23223L-39.9242 11.5965V-0.226384H-45.4406V11.5965L-54.1564 3.23223L-62.8723 -5.13198H-50.5524V-10.4258ZM-50.5524 41.1359H-62.8723L-54.1564 32.7717L-45.4406 24.4075V36.2303H-39.9242V24.4075L-31.2084 32.7717L-22.4925 41.1359H-34.8124V46.4297H-22.4925L-31.2084 54.7939L-39.9242 63.1581V51.3353H-45.4406V63.1581L-54.1564 54.7939L-62.8723 46.4297H-50.5524V41.1359ZM-27.3102 28.9954L-36.026 20.6312H-23.7061V15.3374H-36.026L-27.3102 6.9732L-18.5943 -1.39102V10.4318H-13.078V-1.39102L-4.36212 6.9732L4.35374 15.3374H-7.96614V20.6312H4.35374L-4.36212 28.9954L-13.078 37.3596V25.5368H-18.5943V37.3596L-27.3102 28.9954ZM13.8051 -15.3314V-27.1542L22.5209 -18.79L31.2368 -10.4258H18.9169V-5.13198H31.2368L22.5209 3.23223L13.8051 11.5965V-0.226384H8.28874V11.5965L-0.427106 3.23223L-9.14295 -5.13198H3.17691V-10.4258H-9.14295L-0.427106 -18.79L8.28874 -27.1542V-15.3314H13.8051ZM67.4977 -15.3314V-27.1542L76.2135 -18.79L84.9294 -10.4258H72.6095V-5.13198H84.9294L76.2135 3.23223L67.4977 11.5965V-0.226384H61.9813V11.5965L53.2655 3.23223L44.5496 -5.13198H56.8695V-10.4258H44.5496L53.2655 -18.79L61.9813 -27.1542V-15.3314H67.4977ZM138.659 -5.13198L129.943 3.23223L121.227 11.5965V-0.226384H115.711V11.5965L106.995 3.23223L98.2789 -5.13198H110.599V-10.4258H98.2789L106.995 -18.79L115.711 -27.1542V-15.3314H121.227V-27.1542L129.943 -18.79L138.659 -10.4258H126.339V-5.13198H138.659ZM151.972 -10.4258L160.687 -18.79L169.403 -27.1542V-15.3314H174.92V-27.1542L183.635 -18.79L192.351 -10.4258H180.031V-5.13198H192.351L183.635 3.23223L174.92 11.5965V-0.226384H169.403V11.5965L160.687 3.23223L151.972 -5.13198H164.291V-10.4258H151.972ZM237.365 -18.79L246.081 -10.4258H233.761V-5.13198H246.081L237.365 3.23223L228.649 11.5965V-0.226384H223.133V11.5965L214.417 3.23223L205.701 -5.13198H218.021V-10.4258H205.701L214.417 -18.79L223.133 -27.1542V-15.3314H228.649V-27.1542L237.365 -18.79ZM218.021 -61.9522H205.701L214.417 -70.3164L223.133 -78.6806V-66.8578H228.649V-78.7159L237.365 -70.3517L246.081 -61.9875H233.761V-56.6937H246.081L237.365 -48.3294L228.649 -39.9652V-51.7881H223.133V-39.9652L214.417 -48.3294L205.701 -56.6937H218.021V-61.9875V-61.9522ZM201.803 -41.0946V-52.9174L210.518 -44.5532L219.234 -36.189H206.914V-30.8952H219.234L210.518 -22.5309L201.803 -14.1667V-25.9896H196.286V-14.1667L187.57 -22.5309L178.855 -30.8952H191.174V-36.189H178.855L187.57 -44.5532L196.286 -52.9174V-41.0946H201.803ZM151.972 -61.9522L160.687 -70.3164L169.403 -78.6806V-66.8578H174.92V-78.7159L183.635 -70.3517L192.351 -61.9875H180.031V-56.6937H192.351L183.635 -48.3294L174.92 -39.9652V-51.7881H169.403V-39.9652L160.687 -48.3294L151.972 -56.6937H164.291V-61.9875H151.972V-61.9522ZM142.557 -41.0946H148.073V-52.9174L156.789 -44.5532L165.505 -36.189H153.185V-30.8952H165.505L156.789 -22.5309L148.073 -14.1667V-25.9896H142.557V-14.1667L133.841 -22.5309L125.125 -30.8952H137.445V-36.189H125.125L133.841 -44.5532L142.557 -52.9174V-41.0946ZM106.995 -70.3517L115.711 -78.7159V-66.8931H121.227V-78.7159L129.943 -70.3517L138.659 -61.9875H126.339V-56.6937H138.659L129.943 -48.3294L121.227 -39.9652V-51.7881H115.711V-39.9652L106.995 -48.3294L98.2789 -56.6937H110.599V-61.9875H98.2789L106.995 -70.3517ZM94.3807 -41.0946V-52.9174L103.097 -44.5532L111.812 -36.189H99.4925V-30.8952H111.812L103.097 -22.5309L94.3807 -14.1667V-25.9896H88.8644V-14.1667L80.1485 -22.5309L71.4327 -30.8952H83.7525V-36.189H71.4327L80.1485 -44.5532L88.8644 -52.9174V-41.0946H94.3807ZM53.2655 -70.3517L61.9813 -78.7159V-66.8931H67.4977V-78.7159L76.2135 -70.3517L84.9294 -61.9875H72.6095V-56.6937H84.9294L76.2135 -48.3294L67.4977 -39.9652V-51.7881H61.9813V-39.9652L53.2655 -48.3294L44.5496 -56.6937H56.8695V-61.9875H44.5496L53.2655 -70.3517ZM35.135 -41.0946H40.6514V-52.9174L49.3672 -44.5532L58.0831 -36.189H45.7632V-30.8952H58.0831L49.3672 -22.5309L40.6514 -14.1667V-25.9896H35.135V-14.1667L26.4192 -22.5309L17.7033 -30.8952H30.0232V-36.189H17.7033L26.4192 -44.5532L35.135 -52.9174V-41.0946ZM3.17691 -61.9522H-9.14295L-0.427106 -70.3164L8.28874 -78.6806V-66.8578H13.8051V-78.7159L22.5209 -70.3517L31.2368 -61.9875H18.9169V-56.6937H31.2368L22.5209 -48.3294L13.8051 -39.9652V-51.7881H8.28874V-39.9652L-0.427106 -48.3294L-9.14295 -56.6937H3.17691V-61.9875V-61.9522ZM-13.0412 -41.0946V-52.9174L-4.32534 -44.5532L4.3905 -36.189H-7.92936V-30.8952H4.3905L-4.32534 -22.5309L-13.0412 -14.1667V-25.9896H-18.5575V-14.1667L-27.2734 -22.5309L-35.9893 -30.8952H-23.6694V-36.189H-35.9893L-27.2734 -44.5532L-18.5575 -52.9174V-41.0946H-13.0412ZM-54.1564 -70.3517L-45.4406 -78.7159V-66.8931H-39.9242V-78.7159L-31.2084 -70.3517L-22.4925 -61.9875H-34.8124V-56.6937H-22.4925L-31.2084 -48.3294L-39.9242 -39.9652V-51.7881H-45.4406V-39.9652L-54.1564 -48.3294L-62.8723 -56.6937H-50.5524V-61.9875H-62.8723L-54.1564 -70.3517ZM-66.7705 -41.0946V-52.9174L-58.0547 -44.5532L-49.3388 -36.189H-61.6587V-30.8952H-49.3388L-58.0547 -22.5309L-66.7705 -14.1667V-25.9896H-72.2869V-14.1667L-81.0027 -22.5309L-89.7186 -30.8952H-77.3987V-36.189H-89.7186L-81.0027 -44.5532L-72.2869 -52.9174V-41.0946H-66.7705ZM-104.245 -61.9522H-116.565L-107.849 -70.3164L-99.1332 -78.6806V-66.8578H-93.6168V-78.7159L-84.901 -70.3517L-76.1851 -61.9875H-88.505V-56.6937H-76.1851L-84.901 -48.3294L-93.6168 -39.9652V-51.7881H-99.1332V-39.9652L-107.849 -48.3294L-116.565 -56.6937H-104.245V-61.9875V-61.9522ZM-134.695 -22.5309L-143.411 -30.8952H-131.091V-36.189H-143.411L-134.695 -44.5532L-125.979 -52.9174V-41.0946H-120.463V-52.9174L-111.747 -44.5532L-103.031 -36.189H-115.351V-30.8952H-103.031L-111.747 -22.5309L-120.463 -14.1667V-25.9896H-125.979V-14.1667L-134.695 -22.5309ZM-134.695 28.9954L-143.411 20.6312H-131.091V15.3374H-143.411L-134.695 6.9732L-125.979 -1.39102V10.4318H-120.463V-1.39102L-111.747 6.9732L-103.031 15.3374H-115.351V20.6312H-103.031L-111.747 28.9954L-120.463 37.3596V25.5368H-125.979V37.3596L-134.695 28.9954ZM-120.463 88.9213V77.0985H-125.979V88.9213L-134.695 80.5571L-143.411 72.1929H-131.091V66.8991H-143.411L-134.695 58.5349L-125.979 50.1707V61.9935H-120.463V50.1707L-111.747 58.5349L-103.031 66.8991H-115.351V72.1929H-103.031L-111.747 80.5571L-120.463 88.9213ZM-76.1851 97.9561L-84.901 106.32L-93.6168 114.685V102.862H-99.1332V114.685L-107.849 106.32L-116.565 97.9561H-104.245V92.6623H-116.565L-107.849 84.2981L-99.1332 75.9338V87.7567H-93.6168V75.9338L-84.901 84.2981L-76.1851 92.6623H-88.505V97.9561H-76.1851ZM-66.7705 77.0985H-72.2869V88.9213L-81.0027 80.5571L-89.7186 72.1929H-77.3987V66.8991H-89.7186L-81.0027 58.5349L-72.2869 50.1707V61.9935H-66.7705V50.1707L-58.0547 58.5349L-49.3388 66.8991H-61.6587V72.1929H-49.3388L-58.0547 80.5571L-66.7705 88.9213V77.0985ZM-22.4558 97.9561L-31.1716 106.32L-39.8875 114.685V102.862H-45.4038V114.685L-54.1197 106.32L-62.8355 97.9561H-50.5156V92.6623H-62.8355L-54.1197 84.2981L-45.4038 75.9338V87.7567H-39.8875V75.9338L-31.1716 84.2981L-22.4558 92.6623H-34.7756V97.9561H-22.4558ZM-13.0412 77.0985H-18.5575V88.9213L-27.2734 80.5571L-35.9893 72.1929H-23.6694V66.8991H-35.9893L-27.2734 58.5349L-18.5575 50.1707V61.9935H-13.0412V50.1707L-4.32534 58.5349L4.3905 66.8991H-7.92936V72.1929H4.3905L-4.32534 80.5571L-13.0412 88.9213V77.0985ZM22.5209 106.32L13.8051 114.685V102.862H8.28874V114.685L-0.427106 106.32L-9.14295 97.9561H3.17691V92.6623H-9.14295L-0.427106 84.2981L8.28874 75.9338V87.7567H13.8051V75.9338L22.5209 84.2981L31.2368 92.6623H18.9169V97.9561H31.2368L22.5209 106.32ZM40.6514 77.0985H35.135V88.9213L26.4192 80.5571L17.7033 72.1929H30.0232V66.8991H17.7033L26.4192 58.5349L35.135 50.1707V61.9935H40.6514V50.1707L49.3672 58.5349L58.0831 66.8991H45.7632V72.1929H58.0831L49.3672 80.5571L40.6514 88.9213V77.0985ZM72.6095 97.9561H84.9294L76.2135 106.32L67.4977 114.685V102.862H61.9813V114.685L53.2655 106.32L44.5496 97.9561H56.8695V92.6623H44.5496L53.2655 84.2981L61.9813 75.9338V87.7567H67.4977V75.9338L76.2135 84.2981L84.9294 92.6623H72.6095V97.9561ZM88.8644 77.0985V88.9213L80.1485 80.5571L71.4327 72.1929H83.7525V66.8991H71.4327L80.1485 58.5349L88.8644 50.1707V61.9935H94.3807V50.1707L103.097 58.5349L111.812 66.8991H99.4925V72.1929H111.812L103.097 80.5571L94.3807 88.9213V77.0985H88.8644ZM129.943 106.32L121.227 114.685V102.862H115.711V114.685L106.995 106.32L98.2789 97.9561H110.599V92.6623H98.2789L106.995 84.2981L115.711 75.9338V87.7567H121.227V75.9338L129.943 84.2981L138.659 92.6623H126.339V97.9561H138.659L129.943 106.32ZM142.557 77.0985V88.9213L133.841 80.5571L125.125 72.1929H137.445V66.8991H125.125L133.841 58.5349L142.557 50.1707V61.9935H148.073V50.1707L156.789 58.5349L165.505 66.8991H153.185V72.1929H165.505L156.789 80.5571L148.073 88.9213V77.0985H142.557ZM180.031 97.9561H192.351L183.635 106.32L174.92 114.685V102.862H169.403V114.685L160.687 106.32L151.972 97.9561H164.291V92.6623H151.972L160.687 84.2981L169.403 75.9338V87.7567H174.92V75.9338L183.635 84.2981L192.351 92.6623H180.031V97.9561ZM201.803 88.9213V77.0985H196.286V88.9213L187.57 80.5571L178.855 72.1929H191.174V66.8991H178.855L187.57 58.5349L196.286 50.1707V61.9935H201.803V50.1707L210.518 58.5349L219.234 66.8991H206.914V72.1929H219.234L210.518 80.5571L201.803 88.9213ZM237.365 106.32L228.649 114.685V102.862H223.133V114.685L214.417 106.32L205.701 97.9561H218.021V92.6623H205.701L214.417 84.2981L223.133 75.9338V87.7567H228.649V75.9338L237.365 84.2981L246.081 92.6623H233.761V97.9561H246.081L237.365 106.32Z" fill="#334688"></path>
    <path d="M992.263 80.5551L983.547 72.1909H995.867V66.8971H983.547L992.263 58.5329L998 53.0274V34.499L992.263 28.9935L983.547 20.6293H995.867V15.3355H983.547L992.263 6.97124L998 1.46568V-17.0626L992.263 -22.5682L983.547 -30.9324H995.867V-36.2262H983.547L992.263 -44.5904L998 -50.096V-68.589L992.263 -74.0946L984.025 -82H969.793L961.555 -74.0946L952.839 -65.7304V-77.5532H947.323V-65.7304L938.607 -74.0946L930.369 -82H916.137L907.899 -74.0946L899.184 -65.7304V-77.5532H893.667V-65.7304L884.951 -74.0946L876.714 -82H862.481L854.244 -74.0946L845.528 -65.7304V-77.5532H840.011V-65.7304L831.296 -74.0946L823.058 -82H808.826L800.588 -74.0946L791.872 -65.7304V-77.5532H786.356V-65.7304L777.64 -74.0946L769.402 -82H755.17L746.932 -74.0946L738.216 -65.7304V-77.5532H732.7V-65.7304L723.984 -74.0946L715.746 -82H701.514L693.276 -74.0946L684.56 -65.7304V-77.5532H679.044V-65.7304L670.328 -74.0946L662.09 -82H647.858L639.621 -74.0946L630.905 -65.7304V-77.5532H625.388V-65.7304L616.672 -74.0946L608.03 -82H593.798L585.523 -74.0946L581 -69.7537V-62.2717L589.422 -70.3536L598.137 -78.7178V-66.895H603.654V-78.7178L612.37 -70.3536L621.086 -61.9894H608.766V-56.6956H621.086L612.37 -48.3314L603.654 -39.9672V-51.79H598.137V-39.9672L589.422 -48.3314L581 -56.4133V-48.9314L585.523 -44.5904L594.239 -36.2262H581.919V-30.9324H594.239L585.523 -22.5682L581 -18.2273V-10.7454L589.422 -18.8272L598.137 -27.1915V-15.3686H603.654V-27.1915L612.37 -18.8272L621.086 -10.463H608.766V-5.16922H621.086L612.37 3.19499L603.654 11.5592V-0.263627H598.137V11.5592L589.422 3.19499L581 -4.88688V2.59502L585.523 6.93595L594.239 15.3002H581.919V20.594H594.239L585.523 28.9582L581 33.2991V40.781L589.422 32.6991L598.137 24.3349V36.1578H603.654V24.3349L612.37 32.6991L621.086 41.0634H608.766V46.3572H621.086L612.37 54.7214L603.654 63.0856V51.2627H598.137V63.0856L589.422 54.7214L581 46.6395V54.1214L585.523 58.4623L594.239 66.8265H581.919V72.1204H594.239L585.523 80.4846L581 84.8255V92.3074L589.422 84.2255L598.137 75.8613V87.6841H603.654V75.8613L612.37 84.2255L621.086 92.5897H608.766V97.8835H621.086L612.37 106.248L603.654 114.612V102.789H598.137V114.612L589.422 106.248L581 98.1659V105.648L585.523 109.989L593.872 118H607.92L616.268 109.989L624.984 101.624V113.447H630.5V101.624L639.216 109.989L647.564 118H661.612L669.96 109.989L678.676 101.624V113.447H684.193V101.624L692.909 109.989L701.257 118H715.305L723.653 109.989L732.369 101.624V113.447H737.885V101.624L746.601 109.989L754.949 118H768.998L777.346 109.989L786.061 101.624V113.447H791.578V101.624L800.294 109.989L808.642 118H822.69L831.038 109.989L839.754 101.624V113.447H845.27V101.624L853.986 109.989L862.334 118H876.383L884.731 109.989L893.447 101.624V113.447H898.963V101.624L907.679 109.989L916.027 118H930.075L938.423 109.989L947.139 101.624V113.447H952.656V101.624L961.371 109.989L969.719 118H983.768L992.116 109.989L997.853 104.483V85.9548L992.116 80.4493L992.263 80.5551ZM988.365 32.7344L997.081 41.0987H984.761V46.3925H997.081L988.365 54.7567L979.649 63.1209V51.298H974.133V63.1209L965.417 54.7567L956.701 46.3925H969.021V41.0987H956.701L965.417 32.7344L974.133 24.3702V36.1931H979.649V24.3702L988.365 32.7344ZM947.286 25.5349V37.3577L938.57 28.9935L929.855 20.6293H942.174V15.3355H929.855L938.57 6.97124L947.286 -1.39297V10.4299H952.803V-1.39297L961.518 6.97124L970.234 15.3355H957.914V20.6293H970.234L961.518 28.9935L952.803 37.3577V25.5349H947.286ZM943.388 46.3925L934.672 54.7567L925.956 63.1209V51.298H920.44V63.1209L911.724 54.7567L903.008 46.3925H915.328V41.0987H903.008L911.724 32.7344L920.44 24.3702V36.1931H925.956V24.3702L934.672 32.7344L943.388 41.0987H931.068V46.3925H943.388ZM893.557 25.5349V37.3577L884.841 28.9935L876.125 20.6293H888.445V15.3355H876.125L884.841 6.97124L893.557 -1.39297V10.4299H899.073V-1.39297L907.789 6.97124L916.505 15.3355H904.185V20.6293H916.505L907.789 28.9935L899.073 37.3577V25.5349H893.557ZM877.339 46.3925H889.659L880.943 54.7567L872.227 63.1209V51.298H866.711V63.1209L857.995 54.7567L849.279 46.3925H861.599V41.0987H849.279L857.995 32.7344L866.711 24.3702V36.1931H872.227V24.3702L880.943 32.7344L889.659 41.0987H877.339V46.3925ZM839.864 25.5349V37.3577L831.149 28.9935L822.433 20.6293H834.753V15.3355H822.433L831.149 6.97124L839.864 -1.39297V10.4299H845.381V-1.39297L854.097 6.97124L862.812 15.3355H850.493V20.6293H862.812L854.097 28.9935L845.381 37.3577V25.5349H839.864ZM812.981 51.298V63.1209L804.265 54.7567L795.55 46.3925H807.869V41.0987H795.55L804.265 32.7344L812.981 24.3702V36.1931H818.498V24.3702L827.213 32.7344L835.929 41.0987H823.609V46.3925H835.929L827.213 54.7567L818.498 63.1209V51.298H812.981ZM786.135 25.5349V37.3577L777.419 28.9935L768.703 20.6293H781.023V15.3355H768.703L777.419 6.97124L786.135 -1.39297V10.4299H791.651V-1.39297L800.367 6.97124L809.083 15.3355H796.763V20.6293H809.083L800.367 28.9935L791.651 37.3577V25.5349H786.135ZM769.917 46.3925H782.237L773.521 54.7567L764.805 63.1209V51.298H759.289V63.1209L750.573 54.7567L741.857 46.3925H754.177V41.0987H741.857L750.573 32.7344L759.289 24.3702V36.1931H764.805V24.3702L773.521 32.7344L782.237 41.0987H769.917V46.3925ZM678.713 25.5349V37.3577L669.997 28.9935L661.281 20.6293H673.601V15.3355H661.281L669.997 6.97124L678.713 -1.39297V10.4299H684.229V-1.39297L692.945 6.97124L701.661 15.3355H689.341V20.6293H701.661L692.945 28.9935L684.229 37.3577V25.5349H678.713ZM674.815 46.3925L666.099 54.7567L657.383 63.1209V51.298H651.867V63.1209L643.151 54.7567L634.435 46.3925H646.755V41.0987H634.435L643.151 32.7344L651.867 24.3702V36.1931H657.383V24.3702L666.099 32.7344L674.815 41.0987H662.495V46.3925H674.815ZM646.755 -10.4277H634.435L643.151 -18.792L651.867 -27.1562V-15.3333H657.383V-27.1562L666.099 -18.792L674.815 -10.4277H662.495V-5.13393H674.815L666.099 3.23028L657.383 11.5945V-0.228337H651.867V11.5945L643.151 3.23028L634.435 -5.13393H646.755V-10.4277ZM700.448 -10.4277H688.128L696.844 -18.792L705.559 -27.1562V-15.3333H711.076V-27.1562L719.792 -18.792L728.507 -10.4277H716.188V-5.13393H728.507L719.792 3.23028L711.076 11.5945V-0.228337H705.559V11.5945L696.844 3.23028L688.128 -5.13393H700.448V-10.4277ZM700.448 41.1339H688.128L696.844 32.7697L705.559 24.4055V36.2283H711.076V24.4055L719.792 32.7697L728.507 41.1339H716.188V46.4277H728.507L719.792 54.792L711.076 63.1562V51.3333H705.559V63.1562L696.844 54.792L688.128 46.4277H700.448V41.1339ZM723.69 28.9935L714.974 20.6293H727.294V15.3355H714.974L723.69 6.97124L732.406 -1.39297V10.4299H737.922V-1.39297L746.638 6.97124L755.354 15.3355H743.034V20.6293H755.354L746.638 28.9935L737.922 37.3577V25.5349H732.406V37.3577L723.69 28.9935ZM764.805 -15.3333V-27.1562L773.521 -18.792L782.237 -10.4277H769.917V-5.13393H782.237L773.521 3.23028L764.805 11.5945V-0.228337H759.289V11.5945L750.573 3.23028L741.857 -5.13393H754.177V-10.4277H741.857L750.573 -18.792L759.289 -27.1562V-15.3333H764.805ZM818.498 -15.3333V-27.1562L827.213 -18.792L835.929 -10.4277H823.609V-5.13393H835.929L827.213 3.23028L818.498 11.5945V-0.228337H812.981V11.5945L804.265 3.23028L795.55 -5.13393H807.869V-10.4277H795.55L804.265 -18.792L812.981 -27.1562V-15.3333H818.498ZM889.659 -5.13393L880.943 3.23028L872.227 11.5945V-0.228337H866.711V11.5945L857.995 3.23028L849.279 -5.13393H861.599V-10.4277H849.279L857.995 -18.792L866.711 -27.1562V-15.3333H872.227V-27.1562L880.943 -18.792L889.659 -10.4277H877.339V-5.13393H889.659ZM902.972 -10.4277L911.687 -18.792L920.403 -27.1562V-15.3333H925.92V-27.1562L934.635 -18.792L943.351 -10.4277H931.031V-5.13393H943.351L934.635 3.23028L925.92 11.5945V-0.228337H920.403V11.5945L911.687 3.23028L902.972 -5.13393H915.291V-10.4277H902.972ZM988.365 -18.792L997.081 -10.4277H984.761V-5.13393H997.081L988.365 3.23028L979.649 11.5945V-0.228337H974.133V11.5945L965.417 3.23028L956.701 -5.13393H969.021V-10.4277H956.701L965.417 -18.792L974.133 -27.1562V-15.3333H979.649V-27.1562L988.365 -18.792ZM969.021 -61.9541H956.701L965.417 -70.3183L974.133 -78.6825V-66.8597H979.649V-78.7178L988.365 -70.3536L997.081 -61.9894H984.761V-56.6956H997.081L988.365 -48.3314L979.649 -39.9672V-51.79H974.133V-39.9672L965.417 -48.3314L956.701 -56.6956H969.021V-61.9894V-61.9541ZM952.803 -41.0965V-52.9194L961.518 -44.5551L970.234 -36.1909H957.914V-30.8971H970.234L961.518 -22.5329L952.803 -14.1687V-25.9915H947.286V-14.1687L938.57 -22.5329L929.855 -30.8971H942.174V-36.1909H929.855L938.57 -44.5551L947.286 -52.9194V-41.0965H952.803ZM902.972 -61.9541L911.687 -70.3183L920.403 -78.6825V-66.8597H925.92V-78.7178L934.635 -70.3536L943.351 -61.9894H931.031V-56.6956H943.351L934.635 -48.3314L925.92 -39.9672V-51.79H920.403V-39.9672L911.687 -48.3314L902.972 -56.6956H915.291V-61.9894H902.972V-61.9541ZM893.557 -41.0965H899.073V-52.9194L907.789 -44.5551L916.505 -36.1909H904.185V-30.8971H916.505L907.789 -22.5329L899.073 -14.1687V-25.9915H893.557V-14.1687L884.841 -22.5329L876.125 -30.8971H888.445V-36.1909H876.125L884.841 -44.5551L893.557 -52.9194V-41.0965ZM857.995 -70.3536L866.711 -78.7178V-66.895H872.227V-78.7178L880.943 -70.3536L889.659 -61.9894H877.339V-56.6956H889.659L880.943 -48.3314L872.227 -39.9672V-51.79H866.711V-39.9672L857.995 -48.3314L849.279 -56.6956H861.599V-61.9894H849.279L857.995 -70.3536ZM845.381 -41.0965V-52.9194L854.097 -44.5551L862.812 -36.1909H850.493V-30.8971H862.812L854.097 -22.5329L845.381 -14.1687V-25.9915H839.864V-14.1687L831.149 -22.5329L822.433 -30.8971H834.753V-36.1909H822.433L831.149 -44.5551L839.864 -52.9194V-41.0965H845.381ZM804.265 -70.3536L812.981 -78.7178V-66.895H818.498V-78.7178L827.213 -70.3536L835.929 -61.9894H823.609V-56.6956H835.929L827.213 -48.3314L818.498 -39.9672V-51.79H812.981V-39.9672L804.265 -48.3314L795.55 -56.6956H807.869V-61.9894H795.55L804.265 -70.3536ZM786.135 -41.0965H791.651V-52.9194L800.367 -44.5551L809.083 -36.1909H796.763V-30.8971H809.083L800.367 -22.5329L791.651 -14.1687V-25.9915H786.135V-14.1687L777.419 -22.5329L768.703 -30.8971H781.023V-36.1909H768.703L777.419 -44.5551L786.135 -52.9194V-41.0965ZM754.177 -61.9541H741.857L750.573 -70.3183L759.289 -78.6825V-66.8597H764.805V-78.7178L773.521 -70.3536L782.237 -61.9894H769.917V-56.6956H782.237L773.521 -48.3314L764.805 -39.9672V-51.79H759.289V-39.9672L750.573 -48.3314L741.857 -56.6956H754.177V-61.9894V-61.9541ZM737.959 -41.0965V-52.9194L746.675 -44.5551L755.391 -36.1909H743.071V-30.8971H755.391L746.675 -22.5329L737.959 -14.1687V-25.9915H732.442V-14.1687L723.727 -22.5329L715.011 -30.8971H727.331V-36.1909H715.011L723.727 -44.5551L732.442 -52.9194V-41.0965H737.959ZM696.844 -70.3536L705.559 -78.7178V-66.895H711.076V-78.7178L719.792 -70.3536L728.507 -61.9894H716.188V-56.6956H728.507L719.792 -48.3314L711.076 -39.9672V-51.79H705.559V-39.9672L696.844 -48.3314L688.128 -56.6956H700.448V-61.9894H688.128L696.844 -70.3536ZM684.229 -41.0965V-52.9194L692.945 -44.5551L701.661 -36.1909H689.341V-30.8971H701.661L692.945 -22.5329L684.229 -14.1687V-25.9915H678.713V-14.1687L669.997 -22.5329L661.281 -30.8971H673.601V-36.1909H661.281L669.997 -44.5551L678.713 -52.9194V-41.0965H684.229ZM646.755 -61.9541H634.435L643.151 -70.3183L651.867 -78.6825V-66.8597H657.383V-78.7178L666.099 -70.3536L674.815 -61.9894H662.495V-56.6956H674.815L666.099 -48.3314L657.383 -39.9672V-51.79H651.867V-39.9672L643.151 -48.3314L634.435 -56.6956H646.755V-61.9894V-61.9541ZM616.305 -22.5329L607.589 -30.8971H619.909V-36.1909H607.589L616.305 -44.5551L625.021 -52.9194V-41.0965H630.537V-52.9194L639.253 -44.5551L647.969 -36.1909H635.649V-30.8971H647.969L639.253 -22.5329L630.537 -14.1687V-25.9915H625.021V-14.1687L616.305 -22.5329ZM616.305 28.9935L607.589 20.6293H619.909V15.3355H607.589L616.305 6.97124L625.021 -1.39297V10.4299H630.537V-1.39297L639.253 6.97124L647.969 15.3355H635.649V20.6293H647.969L639.253 28.9935L630.537 37.3577V25.5349H625.021V37.3577L616.305 28.9935ZM630.537 88.9194V77.0965H625.021V88.9194L616.305 80.5551L607.589 72.1909H619.909V66.8971H607.589L616.305 58.5329L625.021 50.1687V61.9915H630.537V50.1687L639.253 58.5329L647.969 66.8971H635.649V72.1909H647.969L639.253 80.5551L630.537 88.9194ZM674.815 97.9541L666.099 106.318L657.383 114.683V102.86H651.867V114.683L643.151 106.318L634.435 97.9541H646.755V92.6603H634.435L643.151 84.2961L651.867 75.9319V87.7547H657.383V75.9319L666.099 84.2961L674.815 92.6603H662.495V97.9541H674.815ZM684.229 77.0965H678.713V88.9194L669.997 80.5551L661.281 72.1909H673.601V66.8971H661.281L669.997 58.5329L678.713 50.1687V61.9915H684.229V50.1687L692.945 58.5329L701.661 66.8971H689.341V72.1909H701.661L692.945 80.5551L684.229 88.9194V77.0965ZM728.544 97.9541L719.828 106.318L711.113 114.683V102.86H705.596V114.683L696.88 106.318L688.164 97.9541H700.484V92.6603H688.164L696.88 84.2961L705.596 75.9319V87.7547H711.113V75.9319L719.828 84.2961L728.544 92.6603H716.224V97.9541H728.544ZM737.959 77.0965H732.442V88.9194L723.727 80.5551L715.011 72.1909H727.331V66.8971H715.011L723.727 58.5329L732.442 50.1687V61.9915H737.959V50.1687L746.675 58.5329L755.391 66.8971H743.071V72.1909H755.391L746.675 80.5551L737.959 88.9194V77.0965ZM773.521 106.318L764.805 114.683V102.86H759.289V114.683L750.573 106.318L741.857 97.9541H754.177V92.6603H741.857L750.573 84.2961L759.289 75.9319V87.7547H764.805V75.9319L773.521 84.2961L782.237 92.6603H769.917V97.9541H782.237L773.521 106.318ZM791.651 77.0965H786.135V88.9194L777.419 80.5551L768.703 72.1909H781.023V66.8971H768.703L777.419 58.5329L786.135 50.1687V61.9915H791.651V50.1687L800.367 58.5329L809.083 66.8971H796.763V72.1909H809.083L800.367 80.5551L791.651 88.9194V77.0965ZM823.609 97.9541H835.929L827.213 106.318L818.498 114.683V102.86H812.981V114.683L804.265 106.318L795.55 97.9541H807.869V92.6603H795.55L804.265 84.2961L812.981 75.9319V87.7547H818.498V75.9319L827.213 84.2961L835.929 92.6603H823.609V97.9541ZM839.864 77.0965V88.9194L831.149 80.5551L822.433 72.1909H834.753V66.8971H822.433L831.149 58.5329L839.864 50.1687V61.9915H845.381V50.1687L854.097 58.5329L862.812 66.8971H850.493V72.1909H862.812L854.097 80.5551L845.381 88.9194V77.0965H839.864ZM880.943 106.318L872.227 114.683V102.86H866.711V114.683L857.995 106.318L849.279 97.9541H861.599V92.6603H849.279L857.995 84.2961L866.711 75.9319V87.7547H872.227V75.9319L880.943 84.2961L889.659 92.6603H877.339V97.9541H889.659L880.943 106.318ZM893.557 77.0965V88.9194L884.841 80.5551L876.125 72.1909H888.445V66.8971H876.125L884.841 58.5329L893.557 50.1687V61.9915H899.073V50.1687L907.789 58.5329L916.505 66.8971H904.185V72.1909H916.505L907.789 80.5551L899.073 88.9194V77.0965H893.557ZM931.031 97.9541H943.351L934.635 106.318L925.92 114.683V102.86H920.403V114.683L911.687 106.318L902.972 97.9541H915.291V92.6603H902.972L911.687 84.2961L920.403 75.9319V87.7547H925.92V75.9319L934.635 84.2961L943.351 92.6603H931.031V97.9541ZM952.803 88.9194V77.0965H947.286V88.9194L938.57 80.5551L929.855 72.1909H942.174V66.8971H929.855L938.57 58.5329L947.286 50.1687V61.9915H952.803V50.1687L961.518 58.5329L970.234 66.8971H957.914V72.1909H970.234L961.518 80.5551L952.803 88.9194ZM988.365 106.318L979.649 114.683V102.86H974.133V114.683L965.417 106.318L956.701 97.9541H969.021V92.6603H956.701L965.417 84.2961L974.133 75.9319V87.7547H979.649V75.9319L988.365 84.2961L997.081 92.6603H984.761V97.9541H997.081L988.365 106.318Z" fill="#334688"></path>
    <path d="M616.263 80.5551L607.547 72.1909H619.867V66.8971H607.547L616.263 58.5329L622 53.0274V34.499L616.263 28.9935L607.547 20.6293H619.867V15.3355H607.547L616.263 6.97124L622 1.46568V-17.0626L616.263 -22.5682L607.547 -30.9324H619.867V-36.2262H607.547L616.263 -44.5904L622 -50.096V-68.589L616.263 -74.0946L608.025 -82H593.793L585.555 -74.0946L576.839 -65.7304V-77.5532H571.323V-65.7304L562.607 -74.0946L554.369 -82H540.137L531.899 -74.0946L523.184 -65.7304V-77.5532H517.667V-65.7304L508.951 -74.0946L500.714 -82H486.481L478.244 -74.0946L469.528 -65.7304V-77.5532H464.011V-65.7304L455.296 -74.0946L447.058 -82H432.826L424.588 -74.0946L415.872 -65.7304V-77.5532H410.356V-65.7304L401.64 -74.0946L393.402 -82H379.17L370.932 -74.0946L362.216 -65.7304V-77.5532H356.7V-65.7304L347.984 -74.0946L339.746 -82H325.514L317.276 -74.0946L308.56 -65.7304V-77.5532H303.044V-65.7304L294.328 -74.0946L286.09 -82H271.858L263.621 -74.0946L254.905 -65.7304V-77.5532H249.388V-65.7304L240.672 -74.0946L232.03 -82H217.798L209.523 -74.0946L205 -69.7537V-62.2717L213.422 -70.3536L222.137 -78.7178V-66.895H227.654V-78.7178L236.37 -70.3536L245.086 -61.9894H232.766V-56.6956H245.086L236.37 -48.3314L227.654 -39.9672V-51.79H222.137V-39.9672L213.422 -48.3314L205 -56.4133V-48.9314L209.523 -44.5904L218.239 -36.2262H205.919V-30.9324H218.239L209.523 -22.5682L205 -18.2273V-10.7454L213.422 -18.8272L222.137 -27.1915V-15.3686H227.654V-27.1915L236.37 -18.8272L245.086 -10.463H232.766V-5.16922H245.086L236.37 3.19498L227.654 11.5592V-0.263626H222.137V11.5592L213.422 3.19498L205 -4.88689V2.59502L209.523 6.93595L218.239 15.3002H205.919V20.594H218.239L209.523 28.9582L205 33.2991V40.781L213.422 32.6991L222.137 24.3349V36.1578H227.654V24.3349L236.37 32.6991L245.086 41.0634H232.766V46.3572H245.086L236.37 54.7214L227.654 63.0856V51.2627H222.137V63.0856L213.422 54.7214L205 46.6395V54.1214L209.523 58.4623L218.239 66.8265H205.919V72.1204H218.239L209.523 80.4846L205 84.8255V92.3074L213.422 84.2255L222.137 75.8613V87.6841H227.654V75.8613L236.37 84.2255L245.086 92.5897H232.766V97.8835H245.086L236.37 106.248L227.654 114.612V102.789H222.137V114.612L213.422 106.248L205 98.1659V105.648L209.523 109.989L217.872 118H231.92L240.268 109.989L248.984 101.624V113.447H254.5V101.624L263.216 109.989L271.564 118H285.612L293.96 109.989L302.676 101.624V113.447H308.193V101.624L316.909 109.989L325.257 118H339.305L347.653 109.989L356.369 101.624V113.447H361.885V101.624L370.601 109.989L378.949 118H392.998L401.346 109.989L410.061 101.624V113.447H415.578V101.624L424.294 109.989L432.642 118H446.69L455.038 109.989L463.754 101.624V113.447H469.27V101.624L477.986 109.989L486.334 118H500.383L508.731 109.989L517.447 101.624V113.447H522.963V101.624L531.679 109.989L540.027 118H554.075L562.423 109.989L571.139 101.624V113.447H576.656V101.624L585.371 109.989L593.719 118H607.768L616.116 109.989L621.853 104.483V85.9548L616.116 80.4493L616.263 80.5551ZM612.365 32.7344L621.081 41.0987H608.761V46.3925H621.081L612.365 54.7567L603.649 63.1209V51.298H598.133V63.1209L589.417 54.7567L580.701 46.3925H593.021V41.0987H580.701L589.417 32.7344L598.133 24.3702V36.1931H603.649V24.3702L612.365 32.7344ZM571.286 25.5349V37.3577L562.57 28.9935L553.855 20.6293H566.174V15.3355H553.855L562.57 6.97124L571.286 -1.39297V10.4299H576.803V-1.39297L585.518 6.97124L594.234 15.3355H581.914V20.6293H594.234L585.518 28.9935L576.803 37.3577V25.5349H571.286ZM567.388 46.3925L558.672 54.7567L549.956 63.1209V51.298H544.44V63.1209L535.724 54.7567L527.008 46.3925H539.328V41.0987H527.008L535.724 32.7344L544.44 24.3702V36.1931H549.956V24.3702L558.672 32.7344L567.388 41.0987H555.068V46.3925H567.388ZM517.557 25.5349V37.3577L508.841 28.9935L500.125 20.6293H512.445V15.3355H500.125L508.841 6.97124L517.557 -1.39297V10.4299H523.073V-1.39297L531.789 6.97124L540.505 15.3355H528.185V20.6293H540.505L531.789 28.9935L523.073 37.3577V25.5349H517.557ZM501.339 46.3925H513.659L504.943 54.7567L496.227 63.1209V51.298H490.711V63.1209L481.995 54.7567L473.279 46.3925H485.599V41.0987H473.279L481.995 32.7344L490.711 24.3702V36.1931H496.227V24.3702L504.943 32.7344L513.659 41.0987H501.339V46.3925ZM463.864 25.5349V37.3577L455.148 28.9935L446.433 20.6293H458.753V15.3355H446.433L455.148 6.97124L463.864 -1.39297V10.4299H469.381V-1.39297L478.097 6.97124L486.812 15.3355H474.493V20.6293H486.812L478.097 28.9935L469.381 37.3577V25.5349H463.864ZM436.981 51.298V63.1209L428.265 54.7567L419.55 46.3925H431.869V41.0987H419.55L428.265 32.7344L436.981 24.3702V36.1931H442.498V24.3702L451.213 32.7344L459.929 41.0987H447.609V46.3925H459.929L451.213 54.7567L442.498 63.1209V51.298H436.981ZM410.135 25.5349V37.3577L401.419 28.9935L392.703 20.6293H405.023V15.3355H392.703L401.419 6.97124L410.135 -1.39297V10.4299H415.651V-1.39297L424.367 6.97124L433.083 15.3355H420.763V20.6293H433.083L424.367 28.9935L415.651 37.3577V25.5349H410.135ZM393.917 46.3925H406.237L397.521 54.7567L388.805 63.1209V51.298H383.289V63.1209L374.573 54.7567L365.857 46.3925H378.177V41.0987H365.857L374.573 32.7344L383.289 24.3702V36.1931H388.805V24.3702L397.521 32.7344L406.237 41.0987H393.917V46.3925ZM302.713 25.5349V37.3577L293.997 28.9935L285.281 20.6293H297.601V15.3355H285.281L293.997 6.97124L302.713 -1.39297V10.4299H308.229V-1.39297L316.945 6.97124L325.661 15.3355H313.341V20.6293H325.661L316.945 28.9935L308.229 37.3577V25.5349H302.713ZM298.815 46.3925L290.099 54.7567L281.383 63.1209V51.298H275.867V63.1209L267.151 54.7567L258.435 46.3925H270.755V41.0987H258.435L267.151 32.7344L275.867 24.3702V36.1931H281.383V24.3702L290.099 32.7344L298.815 41.0987H286.495V46.3925H298.815ZM270.755 -10.4277H258.435L267.151 -18.792L275.867 -27.1562V-15.3333H281.383V-27.1562L290.099 -18.792L298.815 -10.4277H286.495V-5.13393H298.815L290.099 3.23028L281.383 11.5945V-0.22834H275.867V11.5945L267.151 3.23028L258.435 -5.13393H270.755V-10.4277ZM324.448 -10.4277H312.128L320.844 -18.792L329.559 -27.1562V-15.3333H335.076V-27.1562L343.792 -18.792L352.507 -10.4277H340.188V-5.13393H352.507L343.792 3.23028L335.076 11.5945V-0.22834H329.559V11.5945L320.844 3.23028L312.128 -5.13393H324.448V-10.4277ZM324.448 41.1339H312.128L320.844 32.7697L329.559 24.4055V36.2283H335.076V24.4055L343.792 32.7697L352.507 41.1339H340.188V46.4277H352.507L343.792 54.792L335.076 63.1562V51.3333H329.559V63.1562L320.844 54.792L312.128 46.4277H324.448V41.1339ZM347.69 28.9935L338.974 20.6293H351.294V15.3355H338.974L347.69 6.97124L356.406 -1.39297V10.4299H361.922V-1.39297L370.638 6.97124L379.354 15.3355H367.034V20.6293H379.354L370.638 28.9935L361.922 37.3577V25.5349H356.406V37.3577L347.69 28.9935ZM388.805 -15.3333V-27.1562L397.521 -18.792L406.237 -10.4277H393.917V-5.13393H406.237L397.521 3.23028L388.805 11.5945V-0.22834H383.289V11.5945L374.573 3.23028L365.857 -5.13393H378.177V-10.4277H365.857L374.573 -18.792L383.289 -27.1562V-15.3333H388.805ZM442.498 -15.3333V-27.1562L451.213 -18.792L459.929 -10.4277H447.609V-5.13393H459.929L451.213 3.23028L442.498 11.5945V-0.22834H436.981V11.5945L428.265 3.23028L419.55 -5.13393H431.869V-10.4277H419.55L428.265 -18.792L436.981 -27.1562V-15.3333H442.498ZM513.659 -5.13393L504.943 3.23028L496.227 11.5945V-0.22834H490.711V11.5945L481.995 3.23028L473.279 -5.13393H485.599V-10.4277H473.279L481.995 -18.792L490.711 -27.1562V-15.3333H496.227V-27.1562L504.943 -18.792L513.659 -10.4277H501.339V-5.13393H513.659ZM526.972 -10.4277L535.687 -18.792L544.403 -27.1562V-15.3333H549.92V-27.1562L558.635 -18.792L567.351 -10.4277H555.031V-5.13393H567.351L558.635 3.23028L549.92 11.5945V-0.22834H544.403V11.5945L535.687 3.23028L526.972 -5.13393H539.291V-10.4277H526.972ZM612.365 -18.792L621.081 -10.4277H608.761V-5.13393H621.081L612.365 3.23028L603.649 11.5945V-0.22834H598.133V11.5945L589.417 3.23028L580.701 -5.13393H593.021V-10.4277H580.701L589.417 -18.792L598.133 -27.1562V-15.3333H603.649V-27.1562L612.365 -18.792ZM593.021 -61.9541H580.701L589.417 -70.3183L598.133 -78.6825V-66.8597H603.649V-78.7178L612.365 -70.3536L621.081 -61.9894H608.761V-56.6956H621.081L612.365 -48.3314L603.649 -39.9672V-51.79H598.133V-39.9672L589.417 -48.3314L580.701 -56.6956H593.021V-61.9894V-61.9541ZM576.803 -41.0965V-52.9194L585.518 -44.5551L594.234 -36.1909H581.914V-30.8971H594.234L585.518 -22.5329L576.803 -14.1687V-25.9915H571.286V-14.1687L562.57 -22.5329L553.855 -30.8971H566.174V-36.1909H553.855L562.57 -44.5551L571.286 -52.9194V-41.0965H576.803ZM526.972 -61.9541L535.687 -70.3183L544.403 -78.6825V-66.8597H549.92V-78.7178L558.635 -70.3536L567.351 -61.9894H555.031V-56.6956H567.351L558.635 -48.3314L549.92 -39.9672V-51.79H544.403V-39.9672L535.687 -48.3314L526.972 -56.6956H539.291V-61.9894H526.972V-61.9541ZM517.557 -41.0965H523.073V-52.9194L531.789 -44.5551L540.505 -36.1909H528.185V-30.8971H540.505L531.789 -22.5329L523.073 -14.1687V-25.9915H517.557V-14.1687L508.841 -22.5329L500.125 -30.8971H512.445V-36.1909H500.125L508.841 -44.5551L517.557 -52.9194V-41.0965ZM481.995 -70.3536L490.711 -78.7178V-66.895H496.227V-78.7178L504.943 -70.3536L513.659 -61.9894H501.339V-56.6956H513.659L504.943 -48.3314L496.227 -39.9672V-51.79H490.711V-39.9672L481.995 -48.3314L473.279 -56.6956H485.599V-61.9894H473.279L481.995 -70.3536ZM469.381 -41.0965V-52.9194L478.097 -44.5551L486.812 -36.1909H474.493V-30.8971H486.812L478.097 -22.5329L469.381 -14.1687V-25.9915H463.864V-14.1687L455.148 -22.5329L446.433 -30.8971H458.753V-36.1909H446.433L455.148 -44.5551L463.864 -52.9194V-41.0965H469.381ZM428.265 -70.3536L436.981 -78.7178V-66.895H442.498V-78.7178L451.213 -70.3536L459.929 -61.9894H447.609V-56.6956H459.929L451.213 -48.3314L442.498 -39.9672V-51.79H436.981V-39.9672L428.265 -48.3314L419.55 -56.6956H431.869V-61.9894H419.55L428.265 -70.3536ZM410.135 -41.0965H415.651V-52.9194L424.367 -44.5551L433.083 -36.1909H420.763V-30.8971H433.083L424.367 -22.5329L415.651 -14.1687V-25.9915H410.135V-14.1687L401.419 -22.5329L392.703 -30.8971H405.023V-36.1909H392.703L401.419 -44.5551L410.135 -52.9194V-41.0965ZM378.177 -61.9541H365.857L374.573 -70.3183L383.289 -78.6825V-66.8597H388.805V-78.7178L397.521 -70.3536L406.237 -61.9894H393.917V-56.6956H406.237L397.521 -48.3314L388.805 -39.9672V-51.79H383.289V-39.9672L374.573 -48.3314L365.857 -56.6956H378.177V-61.9894V-61.9541ZM361.959 -41.0965V-52.9194L370.675 -44.5551L379.391 -36.1909H367.071V-30.8971H379.391L370.675 -22.5329L361.959 -14.1687V-25.9915H356.442V-14.1687L347.727 -22.5329L339.011 -30.8971H351.331V-36.1909H339.011L347.727 -44.5551L356.442 -52.9194V-41.0965H361.959ZM320.844 -70.3536L329.559 -78.7178V-66.895H335.076V-78.7178L343.792 -70.3536L352.507 -61.9894H340.188V-56.6956H352.507L343.792 -48.3314L335.076 -39.9672V-51.79H329.559V-39.9672L320.844 -48.3314L312.128 -56.6956H324.448V-61.9894H312.128L320.844 -70.3536ZM308.229 -41.0965V-52.9194L316.945 -44.5551L325.661 -36.1909H313.341V-30.8971H325.661L316.945 -22.5329L308.229 -14.1687V-25.9915H302.713V-14.1687L293.997 -22.5329L285.281 -30.8971H297.601V-36.1909H285.281L293.997 -44.5551L302.713 -52.9194V-41.0965H308.229ZM270.755 -61.9541H258.435L267.151 -70.3183L275.867 -78.6825V-66.8597H281.383V-78.7178L290.099 -70.3536L298.815 -61.9894H286.495V-56.6956H298.815L290.099 -48.3314L281.383 -39.9672V-51.79H275.867V-39.9672L267.151 -48.3314L258.435 -56.6956H270.755V-61.9894V-61.9541ZM240.305 -22.5329L231.589 -30.8971H243.909V-36.1909H231.589L240.305 -44.5551L249.021 -52.9194V-41.0965H254.537V-52.9194L263.253 -44.5551L271.969 -36.1909H259.649V-30.8971H271.969L263.253 -22.5329L254.537 -14.1687V-25.9915H249.021V-14.1687L240.305 -22.5329ZM240.305 28.9935L231.589 20.6293H243.909V15.3355H231.589L240.305 6.97124L249.021 -1.39297V10.4299H254.537V-1.39297L263.253 6.97124L271.969 15.3355H259.649V20.6293H271.969L263.253 28.9935L254.537 37.3577V25.5349H249.021V37.3577L240.305 28.9935ZM254.537 88.9194V77.0965H249.021V88.9194L240.305 80.5551L231.589 72.1909H243.909V66.8971H231.589L240.305 58.5329L249.021 50.1687V61.9915H254.537V50.1687L263.253 58.5329L271.969 66.8971H259.649V72.1909H271.969L263.253 80.5551L254.537 88.9194ZM298.815 97.9541L290.099 106.318L281.383 114.683V102.86H275.867V114.683L267.151 106.318L258.435 97.9541H270.755V92.6603H258.435L267.151 84.2961L275.867 75.9319V87.7547H281.383V75.9319L290.099 84.2961L298.815 92.6603H286.495V97.9541H298.815ZM308.229 77.0965H302.713V88.9194L293.997 80.5551L285.281 72.1909H297.601V66.8971H285.281L293.997 58.5329L302.713 50.1687V61.9915H308.229V50.1687L316.945 58.5329L325.661 66.8971H313.341V72.1909H325.661L316.945 80.5551L308.229 88.9194V77.0965ZM352.544 97.9541L343.828 106.318L335.113 114.683V102.86H329.596V114.683L320.88 106.318L312.164 97.9541H324.484V92.6603H312.164L320.88 84.2961L329.596 75.9319V87.7547H335.113V75.9319L343.828 84.2961L352.544 92.6603H340.224V97.9541H352.544ZM361.959 77.0965H356.442V88.9194L347.727 80.5551L339.011 72.1909H351.331V66.8971H339.011L347.727 58.5329L356.442 50.1687V61.9915H361.959V50.1687L370.675 58.5329L379.391 66.8971H367.071V72.1909H379.391L370.675 80.5551L361.959 88.9194V77.0965ZM397.521 106.318L388.805 114.683V102.86H383.289V114.683L374.573 106.318L365.857 97.9541H378.177V92.6603H365.857L374.573 84.2961L383.289 75.9319V87.7547H388.805V75.9319L397.521 84.2961L406.237 92.6603H393.917V97.9541H406.237L397.521 106.318ZM415.651 77.0965H410.135V88.9194L401.419 80.5551L392.703 72.1909H405.023V66.8971H392.703L401.419 58.5329L410.135 50.1687V61.9915H415.651V50.1687L424.367 58.5329L433.083 66.8971H420.763V72.1909H433.083L424.367 80.5551L415.651 88.9194V77.0965ZM447.609 97.9541H459.929L451.213 106.318L442.498 114.683V102.86H436.981V114.683L428.265 106.318L419.55 97.9541H431.869V92.6603H419.55L428.265 84.2961L436.981 75.9319V87.7547H442.498V75.9319L451.213 84.2961L459.929 92.6603H447.609V97.9541ZM463.864 77.0965V88.9194L455.148 80.5551L446.433 72.1909H458.753V66.8971H446.433L455.148 58.5329L463.864 50.1687V61.9915H469.381V50.1687L478.097 58.5329L486.812 66.8971H474.493V72.1909H486.812L478.097 80.5551L469.381 88.9194V77.0965H463.864ZM504.943 106.318L496.227 114.683V102.86H490.711V114.683L481.995 106.318L473.279 97.9541H485.599V92.6603H473.279L481.995 84.2961L490.711 75.9319V87.7547H496.227V75.9319L504.943 84.2961L513.659 92.6603H501.339V97.9541H513.659L504.943 106.318ZM517.557 77.0965V88.9194L508.841 80.5551L500.125 72.1909H512.445V66.8971H500.125L508.841 58.5329L517.557 50.1687V61.9915H523.073V50.1687L531.789 58.5329L540.505 66.8971H528.185V72.1909H540.505L531.789 80.5551L523.073 88.9194V77.0965H517.557ZM555.031 97.9541H567.351L558.635 106.318L549.92 114.683V102.86H544.403V114.683L535.687 106.318L526.972 97.9541H539.291V92.6603H526.972L535.687 84.2961L544.403 75.9319V87.7547H549.92V75.9319L558.635 84.2961L567.351 92.6603H555.031V97.9541ZM576.803 88.9194V77.0965H571.286V88.9194L562.57 80.5551L553.855 72.1909H566.174V66.8971H553.855L562.57 58.5329L571.286 50.1687V61.9915H576.803V50.1687L585.518 58.5329L594.234 66.8971H581.914V72.1909H594.234L585.518 80.5551L576.803 88.9194ZM612.365 106.318L603.649 114.683V102.86H598.133V114.683L589.417 106.318L580.701 97.9541H593.021V92.6603H580.701L589.417 84.2961L598.133 75.9319V87.7547H603.649V75.9319L612.365 84.2961L621.081 92.6603H608.761V97.9541H621.081L612.365 106.318Z" fill="#334688"></path>
    <path d="M1367.26 80.5551L1358.55 72.1909H1370.87V66.8971H1358.55L1367.26 58.5329L1373 53.0274V34.499L1367.26 28.9935L1358.55 20.6293H1370.87V15.3355H1358.55L1367.26 6.97124L1373 1.46568V-17.0626L1367.26 -22.5682L1358.55 -30.9324H1370.87V-36.2262H1358.55L1367.26 -44.5904L1373 -50.096V-68.589L1367.26 -74.0946L1359.03 -82H1344.79L1336.56 -74.0946L1327.84 -65.7304V-77.5532H1322.32V-65.7304L1313.61 -74.0946L1305.37 -82H1291.14L1282.9 -74.0946L1274.18 -65.7304V-77.5532H1268.67V-65.7304L1259.95 -74.0946L1251.71 -82H1237.48L1229.24 -74.0946L1220.53 -65.7304V-77.5532H1215.01V-65.7304L1206.3 -74.0946L1198.06 -82H1183.83L1175.59 -74.0946L1166.87 -65.7304V-77.5532H1161.36V-65.7304L1152.64 -74.0946L1144.4 -82H1130.17L1121.93 -74.0946L1113.22 -65.7304V-77.5532H1107.7V-65.7304L1098.98 -74.0946L1090.75 -82H1076.51L1068.28 -74.0946L1059.56 -65.7304V-77.5532H1054.04V-65.7304L1045.33 -74.0946L1037.09 -82H1022.86L1014.62 -74.0946L1005.9 -65.7304V-77.5532H1000.39V-65.7304L991.672 -74.0946L983.03 -82H968.798L960.523 -74.0946L956 -69.7537V-62.2717L964.422 -70.3536L973.137 -78.7178V-66.895H978.654V-78.7178L987.37 -70.3536L996.086 -61.9894H983.766V-56.6956H996.086L987.37 -48.3314L978.654 -39.9672V-51.79H973.137V-39.9672L964.422 -48.3314L956 -56.4133V-48.9314L960.523 -44.5904L969.239 -36.2262H956.919V-30.9324H969.239L960.523 -22.5682L956 -18.2273V-10.7454L964.422 -18.8272L973.137 -27.1915V-15.3686H978.654V-27.1915L987.37 -18.8272L996.086 -10.463H983.766V-5.16922H996.086L987.37 3.19499L978.654 11.5592V-0.263627H973.137V11.5592L964.422 3.19499L956 -4.88688V2.59502L960.523 6.93595L969.239 15.3002H956.919V20.594H969.239L960.523 28.9582L956 33.2991V40.781L964.422 32.6991L973.137 24.3349V36.1578H978.654V24.3349L987.37 32.6991L996.086 41.0634H983.766V46.3572H996.086L987.37 54.7214L978.654 63.0856V51.2627H973.137V63.0856L964.422 54.7214L956 46.6395V54.1214L960.523 58.4623L969.239 66.8265H956.919V72.1204H969.239L960.523 80.4846L956 84.8255V92.3074L964.422 84.2255L973.137 75.8613V87.6841H978.654V75.8613L987.37 84.2255L996.086 92.5897H983.766V97.8835H996.086L987.37 106.248L978.654 114.612V102.789H973.137V114.612L964.422 106.248L956 98.1659V105.648L960.523 109.989L968.872 118H982.92L991.268 109.989L999.984 101.624V113.447H1005.5V101.624L1014.22 109.989L1022.56 118H1036.61L1044.96 109.989L1053.68 101.624V113.447H1059.19V101.624L1067.91 109.989L1076.26 118H1090.3L1098.65 109.989L1107.37 101.624V113.447H1112.89V101.624L1121.6 109.989L1129.95 118H1144L1152.35 109.989L1161.06 101.624V113.447H1166.58V101.624L1175.29 109.989L1183.64 118H1197.69L1206.04 109.989L1214.75 101.624V113.447H1220.27V101.624L1228.99 109.989L1237.33 118H1251.38L1259.73 109.989L1268.45 101.624V113.447H1273.96V101.624L1282.68 109.989L1291.03 118H1305.08L1313.42 109.989L1322.14 101.624V113.447H1327.66V101.624L1336.37 109.989L1344.72 118H1358.77L1367.12 109.989L1372.85 104.483V85.9548L1367.12 80.4493L1367.26 80.5551ZM1363.36 32.7344L1372.08 41.0987H1359.76V46.3925H1372.08L1363.36 54.7567L1354.65 63.1209V51.298H1349.13V63.1209L1340.42 54.7567L1331.7 46.3925H1344.02V41.0987H1331.7L1340.42 32.7344L1349.13 24.3702V36.1931H1354.65V24.3702L1363.36 32.7344ZM1322.29 25.5349V37.3577L1313.57 28.9935L1304.85 20.6293H1317.17V15.3355H1304.85L1313.57 6.97124L1322.29 -1.39297V10.4299H1327.8V-1.39297L1336.52 6.97124L1345.23 15.3355H1332.91V20.6293H1345.23L1336.52 28.9935L1327.8 37.3577V25.5349H1322.29ZM1318.39 46.3925L1309.67 54.7567L1300.96 63.1209V51.298H1295.44V63.1209L1286.72 54.7567L1278.01 46.3925H1290.33V41.0987H1278.01L1286.72 32.7344L1295.44 24.3702V36.1931H1300.96V24.3702L1309.67 32.7344L1318.39 41.0987H1306.07V46.3925H1318.39ZM1268.56 25.5349V37.3577L1259.84 28.9935L1251.13 20.6293H1263.45V15.3355H1251.13L1259.84 6.97124L1268.56 -1.39297V10.4299H1274.07V-1.39297L1282.79 6.97124L1291.5 15.3355H1279.19V20.6293H1291.5L1282.79 28.9935L1274.07 37.3577V25.5349H1268.56ZM1252.34 46.3925H1264.66L1255.94 54.7567L1247.23 63.1209V51.298H1241.71V63.1209L1232.99 54.7567L1224.28 46.3925H1236.6V41.0987H1224.28L1232.99 32.7344L1241.71 24.3702V36.1931H1247.23V24.3702L1255.94 32.7344L1264.66 41.0987H1252.34V46.3925ZM1214.86 25.5349V37.3577L1206.15 28.9935L1197.43 20.6293H1209.75V15.3355H1197.43L1206.15 6.97124L1214.86 -1.39297V10.4299H1220.38V-1.39297L1229.1 6.97124L1237.81 15.3355H1225.49V20.6293H1237.81L1229.1 28.9935L1220.38 37.3577V25.5349H1214.86ZM1187.98 51.298V63.1209L1179.27 54.7567L1170.55 46.3925H1182.87V41.0987H1170.55L1179.27 32.7344L1187.98 24.3702V36.1931H1193.5V24.3702L1202.21 32.7344L1210.93 41.0987H1198.61V46.3925H1210.93L1202.21 54.7567L1193.5 63.1209V51.298H1187.98ZM1161.14 25.5349V37.3577L1152.42 28.9935L1143.7 20.6293H1156.02V15.3355H1143.7L1152.42 6.97124L1161.14 -1.39297V10.4299H1166.65V-1.39297L1175.37 6.97124L1184.08 15.3355H1171.76V20.6293H1184.08L1175.37 28.9935L1166.65 37.3577V25.5349H1161.14ZM1144.92 46.3925H1157.24L1148.52 54.7567L1139.81 63.1209V51.298H1134.29V63.1209L1125.57 54.7567L1116.86 46.3925H1129.18V41.0987H1116.86L1125.57 32.7344L1134.29 24.3702V36.1931H1139.81V24.3702L1148.52 32.7344L1157.24 41.0987H1144.92V46.3925ZM1053.71 25.5349V37.3577L1045 28.9935L1036.28 20.6293H1048.6V15.3355H1036.28L1045 6.97124L1053.71 -1.39297V10.4299H1059.23V-1.39297L1067.95 6.97124L1076.66 15.3355H1064.34V20.6293H1076.66L1067.95 28.9935L1059.23 37.3577V25.5349H1053.71ZM1049.81 46.3925L1041.1 54.7567L1032.38 63.1209V51.298H1026.87V63.1209L1018.15 54.7567L1009.44 46.3925H1021.75V41.0987H1009.44L1018.15 32.7344L1026.87 24.3702V36.1931H1032.38V24.3702L1041.1 32.7344L1049.81 41.0987H1037.5V46.3925H1049.81ZM1021.75 -10.4277H1009.44L1018.15 -18.792L1026.87 -27.1562V-15.3333H1032.38V-27.1562L1041.1 -18.792L1049.81 -10.4277H1037.5V-5.13393H1049.81L1041.1 3.23028L1032.38 11.5945V-0.228337H1026.87V11.5945L1018.15 3.23028L1009.44 -5.13393H1021.75V-10.4277ZM1075.45 -10.4277H1063.13L1071.84 -18.792L1080.56 -27.1562V-15.3333H1086.08V-27.1562L1094.79 -18.792L1103.51 -10.4277H1091.19V-5.13393H1103.51L1094.79 3.23028L1086.08 11.5945V-0.228337H1080.56V11.5945L1071.84 3.23028L1063.13 -5.13393H1075.45V-10.4277ZM1075.45 41.1339H1063.13L1071.84 32.7697L1080.56 24.4055V36.2283H1086.08V24.4055L1094.79 32.7697L1103.51 41.1339H1091.19V46.4277H1103.51L1094.79 54.792L1086.08 63.1562V51.3333H1080.56V63.1562L1071.84 54.792L1063.13 46.4277H1075.45V41.1339ZM1098.69 28.9935L1089.97 20.6293H1102.29V15.3355H1089.97L1098.69 6.97124L1107.41 -1.39297V10.4299H1112.92V-1.39297L1121.64 6.97124L1130.35 15.3355H1118.03V20.6293H1130.35L1121.64 28.9935L1112.92 37.3577V25.5349H1107.41V37.3577L1098.69 28.9935ZM1139.81 -15.3333V-27.1562L1148.52 -18.792L1157.24 -10.4277H1144.92V-5.13393H1157.24L1148.52 3.23028L1139.81 11.5945V-0.228337H1134.29V11.5945L1125.57 3.23028L1116.86 -5.13393H1129.18V-10.4277H1116.86L1125.57 -18.792L1134.29 -27.1562V-15.3333H1139.81ZM1193.5 -15.3333V-27.1562L1202.21 -18.792L1210.93 -10.4277H1198.61V-5.13393H1210.93L1202.21 3.23028L1193.5 11.5945V-0.228337H1187.98V11.5945L1179.27 3.23028L1170.55 -5.13393H1182.87V-10.4277H1170.55L1179.27 -18.792L1187.98 -27.1562V-15.3333H1193.5ZM1264.66 -5.13393L1255.94 3.23028L1247.23 11.5945V-0.228337H1241.71V11.5945L1232.99 3.23028L1224.28 -5.13393H1236.6V-10.4277H1224.28L1232.99 -18.792L1241.71 -27.1562V-15.3333H1247.23V-27.1562L1255.94 -18.792L1264.66 -10.4277H1252.34V-5.13393H1264.66ZM1277.97 -10.4277L1286.69 -18.792L1295.4 -27.1562V-15.3333H1300.92V-27.1562L1309.64 -18.792L1318.35 -10.4277H1306.03V-5.13393H1318.35L1309.64 3.23028L1300.92 11.5945V-0.228337H1295.4V11.5945L1286.69 3.23028L1277.97 -5.13393H1290.29V-10.4277H1277.97ZM1363.36 -18.792L1372.08 -10.4277H1359.76V-5.13393H1372.08L1363.36 3.23028L1354.65 11.5945V-0.228337H1349.13V11.5945L1340.42 3.23028L1331.7 -5.13393H1344.02V-10.4277H1331.7L1340.42 -18.792L1349.13 -27.1562V-15.3333H1354.65V-27.1562L1363.36 -18.792ZM1344.02 -61.9541H1331.7L1340.42 -70.3183L1349.13 -78.6825V-66.8597H1354.65V-78.7178L1363.36 -70.3536L1372.08 -61.9894H1359.76V-56.6956H1372.08L1363.36 -48.3314L1354.65 -39.9672V-51.79H1349.13V-39.9672L1340.42 -48.3314L1331.7 -56.6956H1344.02V-61.9894V-61.9541ZM1327.8 -41.0965V-52.9194L1336.52 -44.5551L1345.23 -36.1909H1332.91V-30.8971H1345.23L1336.52 -22.5329L1327.8 -14.1687V-25.9915H1322.29V-14.1687L1313.57 -22.5329L1304.85 -30.8971H1317.17V-36.1909H1304.85L1313.57 -44.5551L1322.29 -52.9194V-41.0965H1327.8ZM1277.97 -61.9541L1286.69 -70.3183L1295.4 -78.6825V-66.8597H1300.92V-78.7178L1309.64 -70.3536L1318.35 -61.9894H1306.03V-56.6956H1318.35L1309.64 -48.3314L1300.92 -39.9672V-51.79H1295.4V-39.9672L1286.69 -48.3314L1277.97 -56.6956H1290.29V-61.9894H1277.97V-61.9541ZM1268.56 -41.0965H1274.07V-52.9194L1282.79 -44.5551L1291.5 -36.1909H1279.19V-30.8971H1291.5L1282.79 -22.5329L1274.07 -14.1687V-25.9915H1268.56V-14.1687L1259.84 -22.5329L1251.13 -30.8971H1263.45V-36.1909H1251.13L1259.84 -44.5551L1268.56 -52.9194V-41.0965ZM1232.99 -70.3536L1241.71 -78.7178V-66.895H1247.23V-78.7178L1255.94 -70.3536L1264.66 -61.9894H1252.34V-56.6956H1264.66L1255.94 -48.3314L1247.23 -39.9672V-51.79H1241.71V-39.9672L1232.99 -48.3314L1224.28 -56.6956H1236.6V-61.9894H1224.28L1232.99 -70.3536ZM1220.38 -41.0965V-52.9194L1229.1 -44.5551L1237.81 -36.1909H1225.49V-30.8971H1237.81L1229.1 -22.5329L1220.38 -14.1687V-25.9915H1214.86V-14.1687L1206.15 -22.5329L1197.43 -30.8971H1209.75V-36.1909H1197.43L1206.15 -44.5551L1214.86 -52.9194V-41.0965H1220.38ZM1179.27 -70.3536L1187.98 -78.7178V-66.895H1193.5V-78.7178L1202.21 -70.3536L1210.93 -61.9894H1198.61V-56.6956H1210.93L1202.21 -48.3314L1193.5 -39.9672V-51.79H1187.98V-39.9672L1179.27 -48.3314L1170.55 -56.6956H1182.87V-61.9894H1170.55L1179.27 -70.3536ZM1161.14 -41.0965H1166.65V-52.9194L1175.37 -44.5551L1184.08 -36.1909H1171.76V-30.8971H1184.08L1175.37 -22.5329L1166.65 -14.1687V-25.9915H1161.14V-14.1687L1152.42 -22.5329L1143.7 -30.8971H1156.02V-36.1909H1143.7L1152.42 -44.5551L1161.14 -52.9194V-41.0965ZM1129.18 -61.9541H1116.86L1125.57 -70.3183L1134.29 -78.6825V-66.8597H1139.81V-78.7178L1148.52 -70.3536L1157.24 -61.9894H1144.92V-56.6956H1157.24L1148.52 -48.3314L1139.81 -39.9672V-51.79H1134.29V-39.9672L1125.57 -48.3314L1116.86 -56.6956H1129.18V-61.9894V-61.9541ZM1112.96 -41.0965V-52.9194L1121.67 -44.5551L1130.39 -36.1909H1118.07V-30.8971H1130.39L1121.67 -22.5329L1112.96 -14.1687V-25.9915H1107.44V-14.1687L1098.73 -22.5329L1090.01 -30.8971H1102.33V-36.1909H1090.01L1098.73 -44.5551L1107.44 -52.9194V-41.0965H1112.96ZM1071.84 -70.3536L1080.56 -78.7178V-66.895H1086.08V-78.7178L1094.79 -70.3536L1103.51 -61.9894H1091.19V-56.6956H1103.51L1094.79 -48.3314L1086.08 -39.9672V-51.79H1080.56V-39.9672L1071.84 -48.3314L1063.13 -56.6956H1075.45V-61.9894H1063.13L1071.84 -70.3536ZM1059.23 -41.0965V-52.9194L1067.95 -44.5551L1076.66 -36.1909H1064.34V-30.8971H1076.66L1067.95 -22.5329L1059.23 -14.1687V-25.9915H1053.71V-14.1687L1045 -22.5329L1036.28 -30.8971H1048.6V-36.1909H1036.28L1045 -44.5551L1053.71 -52.9194V-41.0965H1059.23ZM1021.75 -61.9541H1009.44L1018.15 -70.3183L1026.87 -78.6825V-66.8597H1032.38V-78.7178L1041.1 -70.3536L1049.81 -61.9894H1037.5V-56.6956H1049.81L1041.1 -48.3314L1032.38 -39.9672V-51.79H1026.87V-39.9672L1018.15 -48.3314L1009.44 -56.6956H1021.75V-61.9894V-61.9541ZM991.305 -22.5329L982.589 -30.8971H994.909V-36.1909H982.589L991.305 -44.5551L1000.02 -52.9194V-41.0965H1005.54V-52.9194L1014.25 -44.5551L1022.97 -36.1909H1010.65V-30.8971H1022.97L1014.25 -22.5329L1005.54 -14.1687V-25.9915H1000.02V-14.1687L991.305 -22.5329ZM991.305 28.9935L982.589 20.6293H994.909V15.3355H982.589L991.305 6.97124L1000.02 -1.39297V10.4299H1005.54V-1.39297L1014.25 6.97124L1022.97 15.3355H1010.65V20.6293H1022.97L1014.25 28.9935L1005.54 37.3577V25.5349H1000.02V37.3577L991.305 28.9935ZM1005.54 88.9194V77.0965H1000.02V88.9194L991.305 80.5551L982.589 72.1909H994.909V66.8971H982.589L991.305 58.5329L1000.02 50.1687V61.9915H1005.54V50.1687L1014.25 58.5329L1022.97 66.8971H1010.65V72.1909H1022.97L1014.25 80.5551L1005.54 88.9194ZM1049.81 97.9541L1041.1 106.318L1032.38 114.683V102.86H1026.87V114.683L1018.15 106.318L1009.44 97.9541H1021.75V92.6603H1009.44L1018.15 84.2961L1026.87 75.9319V87.7547H1032.38V75.9319L1041.1 84.2961L1049.81 92.6603H1037.5V97.9541H1049.81ZM1059.23 77.0965H1053.71V88.9194L1045 80.5551L1036.28 72.1909H1048.6V66.8971H1036.28L1045 58.5329L1053.71 50.1687V61.9915H1059.23V50.1687L1067.95 58.5329L1076.66 66.8971H1064.34V72.1909H1076.66L1067.95 80.5551L1059.23 88.9194V77.0965ZM1103.54 97.9541L1094.83 106.318L1086.11 114.683V102.86H1080.6V114.683L1071.88 106.318L1063.16 97.9541H1075.48V92.6603H1063.16L1071.88 84.2961L1080.6 75.9319V87.7547H1086.11V75.9319L1094.83 84.2961L1103.54 92.6603H1091.22V97.9541H1103.54ZM1112.96 77.0965H1107.44V88.9194L1098.73 80.5551L1090.01 72.1909H1102.33V66.8971H1090.01L1098.73 58.5329L1107.44 50.1687V61.9915H1112.96V50.1687L1121.67 58.5329L1130.39 66.8971H1118.07V72.1909H1130.39L1121.67 80.5551L1112.96 88.9194V77.0965ZM1148.52 106.318L1139.81 114.683V102.86H1134.29V114.683L1125.57 106.318L1116.86 97.9541H1129.18V92.6603H1116.86L1125.57 84.2961L1134.29 75.9319V87.7547H1139.81V75.9319L1148.52 84.2961L1157.24 92.6603H1144.92V97.9541H1157.24L1148.52 106.318ZM1166.65 77.0965H1161.14V88.9194L1152.42 80.5551L1143.7 72.1909H1156.02V66.8971H1143.7L1152.42 58.5329L1161.14 50.1687V61.9915H1166.65V50.1687L1175.37 58.5329L1184.08 66.8971H1171.76V72.1909H1184.08L1175.37 80.5551L1166.65 88.9194V77.0965ZM1198.61 97.9541H1210.93L1202.21 106.318L1193.5 114.683V102.86H1187.98V114.683L1179.27 106.318L1170.55 97.9541H1182.87V92.6603H1170.55L1179.27 84.2961L1187.98 75.9319V87.7547H1193.5V75.9319L1202.21 84.2961L1210.93 92.6603H1198.61V97.9541ZM1214.86 77.0965V88.9194L1206.15 80.5551L1197.43 72.1909H1209.75V66.8971H1197.43L1206.15 58.5329L1214.86 50.1687V61.9915H1220.38V50.1687L1229.1 58.5329L1237.81 66.8971H1225.49V72.1909H1237.81L1229.1 80.5551L1220.38 88.9194V77.0965H1214.86ZM1255.94 106.318L1247.23 114.683V102.86H1241.71V114.683L1232.99 106.318L1224.28 97.9541H1236.6V92.6603H1224.28L1232.99 84.2961L1241.71 75.9319V87.7547H1247.23V75.9319L1255.94 84.2961L1264.66 92.6603H1252.34V97.9541H1264.66L1255.94 106.318ZM1268.56 77.0965V88.9194L1259.84 80.5551L1251.13 72.1909H1263.45V66.8971H1251.13L1259.84 58.5329L1268.56 50.1687V61.9915H1274.07V50.1687L1282.79 58.5329L1291.5 66.8971H1279.19V72.1909H1291.5L1282.79 80.5551L1274.07 88.9194V77.0965H1268.56ZM1306.03 97.9541H1318.35L1309.64 106.318L1300.92 114.683V102.86H1295.4V114.683L1286.69 106.318L1277.97 97.9541H1290.29V92.6603H1277.97L1286.69 84.2961L1295.4 75.9319V87.7547H1300.92V75.9319L1309.64 84.2961L1318.35 92.6603H1306.03V97.9541ZM1327.8 88.9194V77.0965H1322.29V88.9194L1313.57 80.5551L1304.85 72.1909H1317.17V66.8971H1304.85L1313.57 58.5329L1322.29 50.1687V61.9915H1327.8V50.1687L1336.52 58.5329L1345.23 66.8971H1332.91V72.1909H1345.23L1336.52 80.5551L1327.8 88.9194ZM1363.36 106.318L1354.65 114.683V102.86H1349.13V114.683L1340.42 106.318L1331.7 97.9541H1344.02V92.6603H1331.7L1340.42 84.2961L1349.13 75.9319V87.7547H1354.65V75.9319L1363.36 84.2961L1372.08 92.6603H1359.76V97.9541H1372.08L1363.36 106.318Z" fill="#334688"></path>
  </g>
</svg>
