<?xml version="1.0" encoding="UTF-8"?>
<svg xmlns="http://www.w3.org/2000/svg" width="354" height="60" viewBox="0 0 354 60" fill="none">
  <rect x="0.000366211" y="0.00158691" width="354" height="60" fill="#D6322F"></rect>
  <mask id="mask0_980_467" style="mask-type:alpha" maskUnits="userSpaceOnUse" x="0" y="0" width="355" height="61">
    <rect x="0.000366211" y="0.00158691" width="354" height="60" fill="#FF9620"></rect>
  </mask>
  <g mask="url(#mask0_980_467)">
    <path d="M386.36 50.3056L377.79 42.1087H389.903V36.9208H377.79L386.36 28.7238L392 23.3284V5.17063L386.36 -0.224807L377.79 -8.42174H389.903V-13.6097H377.79L386.36 -21.8066L392 -27.202V-45.3598L386.36 -50.7553L377.79 -58.9522H389.903V-64.1401H377.79L386.36 -72.337L392 -77.7325V-95.8557L386.36 -101.251L378.26 -108.998H364.267L356.167 -101.251L347.598 -93.0542V-104.641H342.174V-93.0542L333.605 -101.251L325.505 -108.998H311.512L303.412 -101.251L294.843 -93.0542V-104.641H289.419V-93.0542L280.849 -101.251L272.75 -108.998H258.757L250.657 -101.251L242.088 -93.0542V-104.641H236.664V-93.0542L228.094 -101.251L219.995 -108.998H206.002L197.902 -101.251L189.333 -93.0542V-104.641H183.909V-93.0542L175.339 -101.251L167.24 -108.998H153.246L145.147 -101.251L136.577 -93.0542V-104.641H131.154V-93.0542L122.584 -101.251L114.485 -108.998H100.491L92.3919 -101.251L83.8224 -93.0542V-104.641H78.3986V-93.0542L69.8291 -101.251L61.7296 -108.998H47.7363L39.6368 -101.251L31.0673 -93.0542V-104.641H25.6435V-93.0542L17.074 -101.251L8.57678 -108.998H-5.41651L-13.5522 -101.251L-17.9996 -96.997V-89.6647L-9.71936 -97.585L-1.14983 -105.782V-94.1955H4.27393V-105.782L12.8435 -97.585L21.413 -89.388H9.29995V-84.2001H21.413L12.8435 -76.0032L4.27393 -67.8062V-79.3926H-1.14983V-67.8062L-9.71936 -76.0032L-17.9996 -83.9234V-76.5911L-13.5522 -72.337L-4.98261 -64.1401H-17.0957V-58.9522H-4.98261L-13.5522 -50.7553L-17.9996 -46.5011V-39.1689L-9.71936 -47.0891L-1.14983 -55.286V-43.6997H4.27393V-55.286L12.8435 -47.0891L21.413 -38.8922H9.29995V-33.7043H21.413L12.8435 -25.5073L4.27393 -17.3104V-28.8968H-1.14983V-17.3104L-9.71936 -25.5073L-17.9996 -33.4276V-26.0953L-13.5522 -21.8412L-4.98261 -13.6443H-17.0957V-8.45633H-4.98261L-13.5522 -0.259398L-17.9996 3.9947V11.327L-9.71936 3.40673L-1.14983 -4.79019V6.79619H4.27393V-4.79019L12.8435 3.40673L21.413 11.6037H9.29995V16.7916H21.413L12.8435 24.9885L4.27393 33.1855V21.5991H-1.14983V33.1855L-9.71936 24.9885L-17.9996 17.0683V24.4006L-13.5522 28.6547L-4.98261 36.8516H-17.0957V42.0395H-4.98261L-13.5522 50.2365L-17.9996 54.4906V61.8228L-9.71936 53.9026L-1.14983 45.7057V57.292H4.27393V45.7057L12.8435 53.9026L21.413 62.0995H9.29995V67.2874H21.413L12.8435 75.4844L4.27393 83.6813V72.0949H-1.14983V83.6813L-9.71936 75.4844L-17.9996 67.5641V74.8964L-13.5522 79.1505L-5.3442 87.0016H8.46831L16.6763 79.1505L25.2458 70.9536V82.54H30.6696V70.9536L39.2391 79.1505L47.4471 87.0016H61.2596L69.4675 79.1505L78.0371 70.9536V82.54H83.4608V70.9536L92.0304 79.1505L100.238 87.0016H114.051L122.259 79.1505L130.828 70.9536V82.54H136.252V70.9536L144.822 79.1505L153.03 87.0016H166.842L175.05 79.1505L183.62 70.9536V82.54H189.043V70.9536L197.613 79.1505L205.821 87.0016H219.633L227.841 79.1505L236.411 70.9536V82.54H241.835V70.9536L250.404 79.1505L258.612 87.0016H272.425L280.632 79.1505L289.202 70.9536V82.54H294.626V70.9536L303.195 79.1505L311.403 87.0016H325.216L333.424 79.1505L341.993 70.9536V82.54H347.417V70.9536L355.987 79.1505L364.195 87.0016H378.007L386.215 79.1505L391.856 73.7551V55.5973L386.215 50.2019L386.36 50.3056ZM382.527 3.44132L391.096 11.6383H378.983V16.8262H391.096L382.527 25.0231L373.957 33.22V21.6337H368.534V33.22L359.964 25.0231L351.394 16.8262H363.508V11.6383H351.394L359.964 3.44132L368.534 -4.75561V6.83078H373.957V-4.75561L382.527 3.44132ZM342.138 -3.61426V7.97212L333.568 -0.224807L324.999 -8.42174H337.112V-13.6097H324.999L333.568 -21.8066L342.138 -30.0035V-18.4172H347.562V-30.0035L356.131 -21.8066L364.701 -13.6097H352.588V-8.42174H364.701L356.131 -0.224807L347.562 7.97212V-3.61426H342.138ZM338.305 16.8262L329.736 25.0231L321.166 33.22V21.6337H315.742V33.22L307.173 25.0231L298.603 16.8262H310.716V11.6383H298.603L307.173 3.44132L315.742 -4.75561V6.83078H321.166V-4.75561L329.736 3.44132L338.305 11.6383H326.192V16.8262H338.305ZM289.311 -3.61426V7.97212L280.741 -0.224807L272.171 -8.42174H284.284V-13.6097H272.171L280.741 -21.8066L289.311 -30.0035V-18.4172H294.734V-30.0035L303.304 -21.8066L311.873 -13.6097H299.76V-8.42174H311.873L303.304 -0.224807L294.734 7.97212V-3.61426H289.311ZM273.365 16.8262H285.478L276.908 25.0231L268.339 33.22V21.6337H262.915V33.22L254.345 25.0231L245.776 16.8262H257.889V11.6383H245.776L254.345 3.44132L262.915 -4.75561V6.83078H268.339V-4.75561L276.908 3.44132L285.478 11.6383H273.365V16.8262ZM236.519 -3.61426V7.97212L227.95 -0.224807L219.38 -8.42174H231.493V-13.6097H219.38L227.95 -21.8066L236.519 -30.0035V-18.4172H241.943V-30.0035L250.513 -21.8066L259.082 -13.6097H246.969V-8.42174H259.082L250.513 -0.224807L241.943 7.97212V-3.61426H236.519ZM210.087 21.6337V33.22L201.518 25.0231L192.948 16.8262H205.061V11.6383H192.948L201.518 3.44132L210.087 -4.75561V6.83078H215.511V-4.75561L224.081 3.44132L232.65 11.6383H220.537V16.8262H232.65L224.081 25.0231L215.511 33.22V21.6337H210.087ZM183.692 -3.61426V7.97212L175.122 -0.224807L166.553 -8.42174H178.666V-13.6097H166.553L175.122 -21.8066L183.692 -30.0035V-18.4172H189.116V-30.0035L197.685 -21.8066L206.255 -13.6097H194.142V-8.42174H206.255L197.685 -0.224807L189.116 7.97212V-3.61426H183.692ZM167.746 16.8262H179.859L171.29 25.0231L162.72 33.22V21.6337H157.296V33.22L148.727 25.0231L140.157 16.8262H152.27V11.6383H140.157L148.727 3.44132L157.296 -4.75561V6.83078H162.72V-4.75561L171.29 3.44132L179.859 11.6383H167.746V16.8262ZM78.0732 -3.61426V7.97212L69.5037 -0.224807L60.9341 -8.42174H73.0472V-13.6097H60.9341L69.5037 -21.8066L78.0732 -30.0035V-18.4172H83.497V-30.0035L92.0665 -21.8066L100.636 -13.6097H88.523V-8.42174H100.636L92.0665 -0.224807L83.497 7.97212V-3.61426H78.0732ZM74.2404 16.8262L65.6709 25.0231L57.1013 33.22V21.6337H51.6776V33.22L43.108 25.0231L34.5385 16.8262H46.6516V11.6383H34.5385L43.108 3.44132L51.6776 -4.75561V6.83078H57.1013V-4.75561L65.6709 3.44132L74.2404 11.6383H62.1274V16.8262H74.2404ZM46.6516 -38.8576H34.5385L43.108 -47.0545L51.6776 -55.2515V-43.6651H57.1013V-55.2515L65.6709 -47.0545L74.2404 -38.8576H62.1274V-33.6697H74.2404L65.6709 -25.4727L57.1013 -17.2758V-28.8622H51.6776V-17.2758L43.108 -25.4727L34.5385 -33.6697H46.6516V-38.8576ZM99.4428 -38.8576H87.3298L95.8993 -47.0545L104.469 -55.2515V-43.6651H109.893V-55.2515L118.462 -47.0545L127.032 -38.8576H114.919V-33.6697H127.032L118.462 -25.4727L109.893 -17.2758V-28.8622H104.469V-17.2758L95.8993 -25.4727L87.3298 -33.6697H99.4428V-38.8576ZM99.4428 11.6728H87.3298L95.8993 3.47591L104.469 -4.72101V6.86536H109.893V-4.72101L118.462 3.47591L127.032 11.6728H114.919V16.8608H127.032L118.462 25.0577L109.893 33.2546V21.6683H104.469V33.2546L95.8993 25.0577L87.3298 16.8608H99.4428V11.6728ZM122.295 -0.224807L113.725 -8.42174H125.838V-13.6097H113.725L122.295 -21.8066L130.864 -30.0035V-18.4172H136.288V-30.0035L144.858 -21.8066L153.427 -13.6097H141.314V-8.42174H153.427L144.858 -0.224807L136.288 7.97212V-3.61426H130.864V7.97212L122.295 -0.224807ZM162.72 -43.6651V-55.2515L171.29 -47.0545L179.859 -38.8576H167.746V-33.6697H179.859L171.29 -25.4727L162.72 -17.2758V-28.8622H157.296V-17.2758L148.727 -25.4727L140.157 -33.6697H152.27V-38.8576H140.157L148.727 -47.0545L157.296 -55.2515V-43.6651H162.72ZM215.511 -43.6651V-55.2515L224.081 -47.0545L232.65 -38.8576H220.537V-33.6697H232.65L224.081 -25.4727L215.511 -17.2758V-28.8622H210.087V-17.2758L201.518 -25.4727L192.948 -33.6697H205.061V-38.8576H192.948L201.518 -47.0545L210.087 -55.2515V-43.6651H215.511ZM285.478 -33.6697L276.908 -25.4727L268.339 -17.2758V-28.8622H262.915V-17.2758L254.345 -25.4727L245.776 -33.6697H257.889V-38.8576H245.776L254.345 -47.0545L262.915 -55.2515V-43.6651H268.339V-55.2515L276.908 -47.0545L285.478 -38.8576H273.365V-33.6697H285.478ZM298.567 -38.8576L307.137 -47.0545L315.706 -55.2515V-43.6651H321.13V-55.2515L329.699 -47.0545L338.269 -38.8576H326.156V-33.6697H338.269L329.699 -25.4727L321.13 -17.2758V-28.8622H315.706V-17.2758L307.137 -25.4727L298.567 -33.6697H310.68V-38.8576H298.567ZM382.527 -47.0545L391.096 -38.8576H378.983V-33.6697H391.096L382.527 -25.4727L373.957 -17.2758V-28.8622H368.534V-17.2758L359.964 -25.4727L351.394 -33.6697H363.508V-38.8576H351.394L359.964 -47.0545L368.534 -55.2515V-43.6651H373.957V-55.2515L382.527 -47.0545ZM363.508 -89.3535H351.394L359.964 -97.5504L368.534 -105.747V-94.1609H373.957V-105.782L382.527 -97.585L391.096 -89.388H378.983V-84.2001H391.096L382.527 -76.0032L373.957 -67.8062V-79.3926H368.534V-67.8062L359.964 -76.0032L351.394 -84.2001H363.508V-89.388V-89.3535ZM347.562 -68.913V-80.4994L356.131 -72.3025L364.701 -64.1055H352.588V-58.9176H364.701L356.131 -50.7207L347.562 -42.5237V-54.1101H342.138V-42.5237L333.568 -50.7207L324.999 -58.9176H337.112V-64.1055H324.999L333.568 -72.3025L342.138 -80.4994V-68.913H347.562ZM298.567 -89.3535L307.137 -97.5504L315.706 -105.747V-94.1609H321.13V-105.782L329.699 -97.585L338.269 -89.388H326.156V-84.2001H338.269L329.699 -76.0032L321.13 -67.8062V-79.3926H315.706V-67.8062L307.137 -76.0032L298.567 -84.2001H310.68V-89.388H298.567V-89.3535ZM289.311 -68.913H294.734V-80.4994L303.304 -72.3025L311.873 -64.1055H299.76V-58.9176H311.873L303.304 -50.7207L294.734 -42.5237V-54.1101H289.311V-42.5237L280.741 -50.7207L272.171 -58.9176H284.284V-64.1055H272.171L280.741 -72.3025L289.311 -80.4994V-68.913ZM254.345 -97.585L262.915 -105.782V-94.1955H268.339V-105.782L276.908 -97.585L285.478 -89.388H273.365V-84.2001H285.478L276.908 -76.0032L268.339 -67.8062V-79.3926H262.915V-67.8062L254.345 -76.0032L245.776 -84.2001H257.889V-89.388H245.776L254.345 -97.585ZM241.943 -68.913V-80.4994L250.513 -72.3025L259.082 -64.1055H246.969V-58.9176H259.082L250.513 -50.7207L241.943 -42.5237V-54.1101H236.519V-42.5237L227.95 -50.7207L219.38 -58.9176H231.493V-64.1055H219.38L227.95 -72.3025L236.519 -80.4994V-68.913H241.943ZM201.518 -97.585L210.087 -105.782V-94.1955H215.511V-105.782L224.081 -97.585L232.65 -89.388H220.537V-84.2001H232.65L224.081 -76.0032L215.511 -67.8062V-79.3926H210.087V-67.8062L201.518 -76.0032L192.948 -84.2001H205.061V-89.388H192.948L201.518 -97.585ZM183.692 -68.913H189.116V-80.4994L197.685 -72.3025L206.255 -64.1055H194.142V-58.9176H206.255L197.685 -50.7207L189.116 -42.5237V-54.1101H183.692V-42.5237L175.122 -50.7207L166.553 -58.9176H178.666V-64.1055H166.553L175.122 -72.3025L183.692 -80.4994V-68.913ZM152.27 -89.3535H140.157L148.727 -97.5504L157.296 -105.747V-94.1609H162.72V-105.782L171.29 -97.585L179.859 -89.388H167.746V-84.2001H179.859L171.29 -76.0032L162.72 -67.8062V-79.3926H157.296V-67.8062L148.727 -76.0032L140.157 -84.2001H152.27V-89.388V-89.3535ZM136.324 -68.913V-80.4994L144.894 -72.3025L153.463 -64.1055H141.35V-58.9176H153.463L144.894 -50.7207L136.324 -42.5237V-54.1101H130.901V-42.5237L122.331 -50.7207L113.762 -58.9176H125.875V-64.1055H113.762L122.331 -72.3025L130.901 -80.4994V-68.913H136.324ZM95.8993 -97.585L104.469 -105.782V-94.1955H109.893V-105.782L118.462 -97.585L127.032 -89.388H114.919V-84.2001H127.032L118.462 -76.0032L109.893 -67.8062V-79.3926H104.469V-67.8062L95.8993 -76.0032L87.3298 -84.2001H99.4428V-89.388H87.3298L95.8993 -97.585ZM83.497 -68.913V-80.4994L92.0665 -72.3025L100.636 -64.1055H88.523V-58.9176H100.636L92.0665 -50.7207L83.497 -42.5237V-54.1101H78.0732V-42.5237L69.5037 -50.7207L60.9341 -58.9176H73.0472V-64.1055H60.9341L69.5037 -72.3025L78.0732 -80.4994V-68.913H83.497ZM46.6516 -89.3535H34.5385L43.108 -97.5504L51.6776 -105.747V-94.1609H57.1013V-105.782L65.6709 -97.585L74.2404 -89.388H62.1274V-84.2001H74.2404L65.6709 -76.0032L57.1013 -67.8062V-79.3926H51.6776V-67.8062L43.108 -76.0032L34.5385 -84.2001H46.6516V-89.388V-89.3535ZM16.7124 -50.7207L8.14288 -58.9176H20.2559V-64.1055H8.14288L16.7124 -72.3025L25.282 -80.4994V-68.913H30.7057V-80.4994L39.2753 -72.3025L47.8448 -64.1055H35.7317V-58.9176H47.8448L39.2753 -50.7207L30.7057 -42.5237V-54.1101H25.282V-42.5237L16.7124 -50.7207ZM16.7124 -0.224807L8.14288 -8.42174H20.2559V-13.6097H8.14288L16.7124 -21.8066L25.282 -30.0035V-18.4172H30.7057V-30.0035L39.2753 -21.8066L47.8448 -13.6097H35.7317V-8.42174H47.8448L39.2753 -0.224807L30.7057 7.97212V-3.61426H25.282V7.97212L16.7124 -0.224807ZM30.7057 58.5026V46.9162H25.282V58.5026L16.7124 50.3056L8.14288 42.1087H20.2559V36.9208H8.14288L16.7124 28.7238L25.282 20.5269V32.1133H30.7057V20.5269L39.2753 28.7238L47.8448 36.9208H35.7317V42.1087H47.8448L39.2753 50.3056L30.7057 58.5026ZM74.2404 67.3566L65.6709 75.5536L57.1013 83.7505V72.1641H51.6776V83.7505L43.108 75.5536L34.5385 67.3566H46.6516V62.1687H34.5385L43.108 53.9718L51.6776 45.7748V57.3612H57.1013V45.7748L65.6709 53.9718L74.2404 62.1687H62.1274V67.3566H74.2404ZM83.497 46.9162H78.0732V58.5026L69.5037 50.3056L60.9341 42.1087H73.0472V36.9208H60.9341L69.5037 28.7238L78.0732 20.5269V32.1133H83.497V20.5269L92.0665 28.7238L100.636 36.9208H88.523V42.1087H100.636L92.0665 50.3056L83.497 58.5026V46.9162ZM127.068 67.3566L118.498 75.5536L109.929 83.7505V72.1641H104.505V83.7505L95.9355 75.5536L87.3659 67.3566H99.479V62.1687H87.3659L95.9355 53.9718L104.505 45.7748V57.3612H109.929V45.7748L118.498 53.9718L127.068 62.1687H114.955V67.3566H127.068ZM136.324 46.9162H130.901V58.5026L122.331 50.3056L113.762 42.1087H125.875V36.9208H113.762L122.331 28.7238L130.901 20.5269V32.1133H136.324V20.5269L144.894 28.7238L153.463 36.9208H141.35V42.1087H153.463L144.894 50.3056L136.324 58.5026V46.9162ZM171.29 75.5536L162.72 83.7505V72.1641H157.296V83.7505L148.727 75.5536L140.157 67.3566H152.27V62.1687H140.157L148.727 53.9718L157.296 45.7748V57.3612H162.72V45.7748L171.29 53.9718L179.859 62.1687H167.746V67.3566H179.859L171.29 75.5536ZM189.116 46.9162H183.692V58.5026L175.122 50.3056L166.553 42.1087H178.666V36.9208H166.553L175.122 28.7238L183.692 20.5269V32.1133H189.116V20.5269L197.685 28.7238L206.255 36.9208H194.142V42.1087H206.255L197.685 50.3056L189.116 58.5026V46.9162ZM220.537 67.3566H232.65L224.081 75.5536L215.511 83.7505V72.1641H210.087V83.7505L201.518 75.5536L192.948 67.3566H205.061V62.1687H192.948L201.518 53.9718L210.087 45.7748V57.3612H215.511V45.7748L224.081 53.9718L232.65 62.1687H220.537V67.3566ZM236.519 46.9162V58.5026L227.95 50.3056L219.38 42.1087H231.493V36.9208H219.38L227.95 28.7238L236.519 20.5269V32.1133H241.943V20.5269L250.513 28.7238L259.082 36.9208H246.969V42.1087H259.082L250.513 50.3056L241.943 58.5026V46.9162H236.519ZM276.908 75.5536L268.339 83.7505V72.1641H262.915V83.7505L254.345 75.5536L245.776 67.3566H257.889V62.1687H245.776L254.345 53.9718L262.915 45.7748V57.3612H268.339V45.7748L276.908 53.9718L285.478 62.1687H273.365V67.3566H285.478L276.908 75.5536ZM289.311 46.9162V58.5026L280.741 50.3056L272.171 42.1087H284.284V36.9208H272.171L280.741 28.7238L289.311 20.5269V32.1133H294.734V20.5269L303.304 28.7238L311.873 36.9208H299.76V42.1087H311.873L303.304 50.3056L294.734 58.5026V46.9162H289.311ZM326.156 67.3566H338.269L329.699 75.5536L321.13 83.7505V72.1641H315.706V83.7505L307.137 75.5536L298.567 67.3566H310.68V62.1687H298.567L307.137 53.9718L315.706 45.7748V57.3612H321.13V45.7748L329.699 53.9718L338.269 62.1687H326.156V67.3566ZM347.562 58.5026V46.9162H342.138V58.5026L333.568 50.3056L324.999 42.1087H337.112V36.9208H324.999L333.568 28.7238L342.138 20.5269V32.1133H347.562V20.5269L356.131 28.7238L364.701 36.9208H352.588V42.1087H364.701L356.131 50.3056L347.562 58.5026ZM382.527 75.5536L373.957 83.7505V72.1641H368.534V83.7505L359.964 75.5536L351.394 67.3566H363.508V62.1687H351.394L359.964 53.9718L368.534 45.7748V57.3612H373.957V45.7748L382.527 53.9718L391.096 62.1687H378.983V67.3566H391.096L382.527 75.5536Z" fill="#FF9620"></path>
  </g>
</svg>
