<?xml version="1.0" encoding="UTF-8"?>
<svg xmlns="http://www.w3.org/2000/svg" width="314" height="60" viewBox="0 0 314 60" fill="none">
  <g clip-path="url(#clip0_1017_169)">
    <path d="M361.62 0H-43V60H361.62V0Z" fill="#F9C822"></path>
    <mask id="mask0_1017_169" style="mask-type:alpha" maskUnits="userSpaceOnUse" x="-43" y="0" width="405" height="60">
      <path d="M361.62 0H-43V60H361.62V0Z" fill="#ED9FA5"></path>
    </mask>
    <g mask="url(#mask0_1017_169)">
      <path d="M358.009 50.304L349.511 42.1071H361.523V36.9192H349.511L358.009 28.7223L363.603 23.3268V5.16905L358.009 -0.226387L349.511 -8.42332H361.523V-13.6113H349.511L358.009 -21.8082L363.603 -27.2036V-45.3614L358.009 -50.7568L349.511 -58.9538H361.523V-64.1417H349.511L358.009 -72.3386L363.603 -77.7341V-95.8572L358.009 -101.253L349.977 -109H336.099L328.067 -101.253L319.568 -93.0558V-104.642H314.19V-93.0558L305.691 -101.253L297.659 -109H283.781L275.749 -101.253L267.25 -93.0558V-104.642H261.872V-93.0558L253.373 -101.253L245.341 -109H231.463L223.431 -101.253L214.932 -93.0558V-104.642H209.554V-93.0558L201.055 -101.253L193.023 -109H179.145L171.113 -101.253L162.614 -93.0558V-104.642H157.236V-93.0558L148.737 -101.253L140.705 -109H126.827L118.795 -101.253L110.296 -93.0558V-104.642H104.918V-93.0558L96.419 -101.253L88.387 -109H74.509L66.477 -101.253L57.978 -93.0558V-104.642H52.5996V-93.0558L44.1011 -101.253L36.0687 -109H22.1913L14.159 -101.253L5.6604 -93.0558V-104.642H0.281601V-93.0558L-8.2169 -101.253L-16.6438 -109H-30.5211L-38.5894 -101.253L-43 -96.9986V-89.6663L-34.7883 -97.5866L-26.2898 -105.783V-94.1971H-20.911V-105.783L-12.4124 -97.5866L-3.9139 -89.3896H-15.9266V-84.2017H-3.9139L-12.4124 -76.0048L-20.911 -67.8078V-79.3942H-26.2898V-67.8078L-34.7883 -76.0048L-43 -83.925V-76.5927L-38.5894 -72.3386L-30.0908 -64.1417H-42.1035V-58.9538H-30.0908L-38.5894 -50.7568L-43 -46.5027V-39.1705L-34.7883 -47.0907L-26.2898 -55.2876V-43.7013H-20.911V-55.2876L-12.4124 -47.0907L-3.9139 -38.8938H-15.9266V-33.7058H-3.9139L-12.4124 -25.5089L-20.911 -17.312V-28.8984H-26.2898V-17.312L-34.7883 -25.5089L-43 -33.4291V-26.0969L-38.5894 -21.8428L-30.0908 -13.6458H-42.1035V-8.45791H-30.0908L-38.5894 -0.260979L-43 3.99312V11.3254L-34.7883 3.40515L-26.2898 -4.79177V6.79461H-20.911V-4.79177L-12.4124 3.40515L-3.9139 11.6021H-15.9266V16.79H-3.9139L-12.4124 24.987L-20.911 33.1839V21.5975H-26.2898V33.1839L-34.7883 24.987L-43 17.0667V24.399L-38.5894 28.6531L-30.0908 36.85H-42.1035V42.0379H-30.0908L-38.5894 50.2349L-43 54.489V61.8212L-34.7883 53.901L-26.2898 45.7041V57.2905H-20.911V45.7041L-12.4124 53.901L-3.9139 62.0979H-15.9266V67.2859H-3.9139L-12.4124 75.4828L-20.911 83.6797V72.0934H-26.2898V83.6797L-34.7883 75.4828L-43 67.5626V74.8948L-38.5894 79.149L-30.4494 87H-16.7513L-8.6114 79.149L-0.1129 70.952V82.5384H5.266V70.952L13.7645 79.149L21.9045 87H35.6025L43.7425 79.149L52.241 70.952V82.5384H57.62V70.952L66.118 79.149L74.258 87H87.956L96.096 79.149L104.595 70.952V82.5384H109.974V70.952L118.472 79.149L126.612 87H140.31L148.45 79.149L156.949 70.952V82.5384H162.328V70.952L170.826 79.149L178.966 87H192.664L200.804 79.149L209.303 70.952V82.5384H214.681V70.952L223.18 79.149L231.32 87H245.018L253.158 79.149L261.656 70.952V82.5384H267.035V70.952L275.534 79.149L283.674 87H297.372L305.512 79.149L314.01 70.952V82.5384H319.389V70.952L327.888 79.149L336.028 87H349.726L357.866 79.149L363.46 73.7535V55.5957L357.866 50.2003L358.009 50.304ZM354.208 3.43974L362.707 11.6367H350.694V16.8246H362.707L354.208 25.0215L345.71 33.2185V21.6321H340.331V33.2185L331.832 25.0215L323.334 16.8246H335.346V11.6367H323.334L331.832 3.43974L340.331 -4.75719V6.8292H345.71V-4.75719L354.208 3.43974ZM314.154 -3.61584V7.97054L305.655 -0.226387L297.157 -8.42332H309.169V-13.6113H297.157L305.655 -21.8082L314.154 -30.0051V-18.4187H319.533V-30.0051L328.031 -21.8082L336.53 -13.6113H324.517V-8.42332H336.53L328.031 -0.226387L319.533 7.97054V-3.61584H314.154ZM310.353 16.8246L301.854 25.0215L293.356 33.2185V21.6321H287.977V33.2185L279.478 25.0215L270.98 16.8246H282.993V11.6367H270.98L279.478 3.43974L287.977 -4.75719V6.8292H293.356V-4.75719L301.854 3.43974L310.353 11.6367H298.34V16.8246H310.353ZM261.764 -3.61584V7.97054L253.266 -0.226387L244.767 -8.42332H256.78V-13.6113H244.767L253.266 -21.8082L261.764 -30.0051V-18.4187H267.143V-30.0051L275.641 -21.8082L284.14 -13.6113H272.127V-8.42332H284.14L275.641 -0.226387L267.143 7.97054V-3.61584H261.764ZM245.95 16.8246H257.963L249.464 25.0215L240.966 33.2185V21.6321H235.587V33.2185L227.089 25.0215L218.59 16.8246H230.603V11.6367H218.59L227.089 3.43974L235.587 -4.75719V6.8292H240.966V-4.75719L249.464 3.43974L257.963 11.6367H245.95V16.8246ZM209.41 -3.61584V7.97054L200.912 -0.226387L192.413 -8.42332H204.426V-13.6113H192.413L200.912 -21.8082L209.41 -30.0051V-18.4187H214.789V-30.0051L223.288 -21.8082L231.786 -13.6113H219.773V-8.42332H231.786L223.288 -0.226387L214.789 7.97054V-3.61584H209.41ZM183.197 21.6321V33.2185L174.699 25.0215L166.2 16.8246H178.213V11.6367H166.2L174.699 3.43974L183.197 -4.75719V6.8292H188.576V-4.75719L197.075 3.43974L205.573 11.6367H193.561V16.8246H205.573L197.075 25.0215L188.576 33.2185V21.6321H183.197ZM157.02 -3.61584V7.97054L148.522 -0.226387L140.023 -8.42332H152.036V-13.6113H140.023L148.522 -21.8082L157.02 -30.0051V-18.4187H162.399V-30.0051L170.898 -21.8082L179.396 -13.6113H167.384V-8.42332H179.396L170.898 -0.226387L162.399 7.97054V-3.61584H157.02ZM141.207 16.8246H153.219L144.721 25.0215L136.222 33.2185V21.6321H130.844V33.2185L122.345 25.0215L113.846 16.8246H125.859V11.6367H113.846L122.345 3.43974L130.844 -4.75719V6.8292H136.222V-4.75719L144.721 3.43974L153.219 11.6367H141.207V16.8246ZM52.2769 -3.61584V7.97054L43.7783 -0.226387L35.2798 -8.42332H47.2925V-13.6113H35.2798L43.7783 -21.8082L52.2769 -30.0051V-18.4187H57.656V-30.0051L66.154 -21.8082L74.653 -13.6113H62.64V-8.42332H74.653L66.154 -0.226387L57.656 7.97054V-3.61584H52.2769ZM48.4758 16.8246L39.9773 25.0215L31.4788 33.2185V21.6321H26.0999V33.2185L17.6014 25.0215L9.1029 16.8246H21.1156V11.6367H9.1029L17.6014 3.43974L26.0999 -4.75719V6.8292H31.4788V-4.75719L39.9773 3.43974L48.4758 11.6367H36.4631V16.8246H48.4758ZM21.1156 -38.8592H9.1029L17.6014 -47.0561L26.0999 -55.253V-43.6667H31.4788V-55.253L39.9773 -47.0561L48.4758 -38.8592H36.4631V-33.6712H48.4758L39.9773 -25.4743L31.4788 -17.2774V-28.8638H26.0999V-17.2774L17.6014 -25.4743L9.1029 -33.6712H21.1156V-38.8592ZM73.469 -38.8592H61.457L69.955 -47.0561L78.454 -55.253V-43.6667H83.833V-55.253L92.331 -47.0561L100.83 -38.8592H88.817V-33.6712H100.83L92.331 -25.4743L83.833 -17.2774V-28.8638H78.454V-17.2774L69.955 -25.4743L61.457 -33.6712H73.469V-38.8592ZM73.469 11.6713H61.457L69.955 3.47433L78.454 -4.7226V6.86378H83.833V-4.7226L92.331 3.47433L100.83 11.6713H88.817V16.8592H100.83L92.331 25.0561L83.833 33.2531V21.6667H78.454V33.2531L69.955 25.0561L61.457 16.8592H73.469V11.6713ZM96.132 -0.226387L87.634 -8.42332H99.646V-13.6113H87.634L96.132 -21.8082L104.631 -30.0051V-18.4187H110.01V-30.0051L118.508 -21.8082L127.007 -13.6113H114.994V-8.42332H127.007L118.508 -0.226387L110.01 7.97054V-3.61584H104.631V7.97054L96.132 -0.226387ZM136.222 -43.6667V-55.253L144.721 -47.0561L153.219 -38.8592H141.207V-33.6712H153.219L144.721 -25.4743L136.222 -17.2774V-28.8638H130.844V-17.2774L122.345 -25.4743L113.846 -33.6712H125.859V-38.8592H113.846L122.345 -47.0561L130.844 -55.253V-43.6667H136.222ZM188.576 -43.6667V-55.253L197.075 -47.0561L205.573 -38.8592H193.561V-33.6712H205.573L197.075 -25.4743L188.576 -17.2774V-28.8638H183.197V-17.2774L174.699 -25.4743L166.2 -33.6712H178.213V-38.8592H166.2L174.699 -47.0561L183.197 -55.253V-43.6667H188.576ZM257.963 -33.6712L249.464 -25.4743L240.966 -17.2774V-28.8638H235.587V-17.2774L227.089 -25.4743L218.59 -33.6712H230.603V-38.8592H218.59L227.089 -47.0561L235.587 -55.253V-43.6667H240.966V-55.253L249.464 -47.0561L257.963 -38.8592H245.95V-33.6712H257.963ZM270.944 -38.8592L279.442 -47.0561L287.941 -55.253V-43.6667H293.32V-55.253L301.818 -47.0561L310.317 -38.8592H298.304V-33.6712H310.317L301.818 -25.4743L293.32 -17.2774V-28.8638H287.941V-17.2774L279.442 -25.4743L270.944 -33.6712H282.957V-38.8592H270.944ZM354.208 -47.0561L362.707 -38.8592H350.694V-33.6712H362.707L354.208 -25.4743L345.71 -17.2774V-28.8638H340.331V-17.2774L331.832 -25.4743L323.334 -33.6712H335.346V-38.8592H323.334L331.832 -47.0561L340.331 -55.253V-43.6667H345.71V-55.253L354.208 -47.0561ZM335.346 -89.355H323.334L331.832 -97.552L340.331 -105.749V-94.1625H345.71V-105.783L354.208 -97.5866L362.707 -89.3896H350.694V-84.2017H362.707L354.208 -76.0048L345.71 -67.8078V-79.3942H340.331V-67.8078L331.832 -76.0048L323.334 -84.2017H335.346V-89.3896V-89.355ZM319.533 -68.9146V-80.501L328.031 -72.304L336.53 -64.1071H324.517V-58.9192H336.53L328.031 -50.7222L319.533 -42.5253V-54.1117H314.154V-42.5253L305.655 -50.7222L297.157 -58.9192H309.169V-64.1071H297.157L305.655 -72.304L314.154 -80.501V-68.9146H319.533ZM270.944 -89.355L279.442 -97.552L287.941 -105.749V-94.1625H293.32V-105.783L301.818 -97.5866L310.317 -89.3896H298.304V-84.2017H310.317L301.818 -76.0048L293.32 -67.8078V-79.3942H287.941V-67.8078L279.442 -76.0048L270.944 -84.2017H282.957V-89.3896H270.944V-89.355ZM261.764 -68.9146H267.143V-80.501L275.641 -72.304L284.14 -64.1071H272.127V-58.9192H284.14L275.641 -50.7222L267.143 -42.5253V-54.1117H261.764V-42.5253L253.266 -50.7222L244.767 -58.9192H256.78V-64.1071H244.767L253.266 -72.304L261.764 -80.501V-68.9146ZM227.089 -97.5866L235.587 -105.783V-94.1971H240.966V-105.783L249.464 -97.5866L257.963 -89.3896H245.95V-84.2017H257.963L249.464 -76.0048L240.966 -67.8078V-79.3942H235.587V-67.8078L227.089 -76.0048L218.59 -84.2017H230.603V-89.3896H218.59L227.089 -97.5866ZM214.789 -68.9146V-80.501L223.288 -72.304L231.786 -64.1071H219.773V-58.9192H231.786L223.288 -50.7222L214.789 -42.5253V-54.1117H209.41V-42.5253L200.912 -50.7222L192.413 -58.9192H204.426V-64.1071H192.413L200.912 -72.304L209.41 -80.501V-68.9146H214.789ZM174.699 -97.5866L183.197 -105.783V-94.1971H188.576V-105.783L197.075 -97.5866L205.573 -89.3896H193.561V-84.2017H205.573L197.075 -76.0048L188.576 -67.8078V-79.3942H183.197V-67.8078L174.699 -76.0048L166.2 -84.2017H178.213V-89.3896H166.2L174.699 -97.5866ZM157.02 -68.9146H162.399V-80.501L170.898 -72.304L179.396 -64.1071H167.384V-58.9192H179.396L170.898 -50.7222L162.399 -42.5253V-54.1117H157.02V-42.5253L148.522 -50.7222L140.023 -58.9192H152.036V-64.1071H140.023L148.522 -72.304L157.02 -80.501V-68.9146ZM125.859 -89.355H113.846L122.345 -97.552L130.844 -105.749V-94.1625H136.222V-105.783L144.721 -97.5866L153.219 -89.3896H141.207V-84.2017H153.219L144.721 -76.0048L136.222 -67.8078V-79.3942H130.844V-67.8078L122.345 -76.0048L113.846 -84.2017H125.859V-89.3896V-89.355ZM110.045 -68.9146V-80.501L118.544 -72.304L127.042 -64.1071H115.03V-58.9192H127.042L118.544 -50.7222L110.045 -42.5253V-54.1117H104.667V-42.5253L96.168 -50.7222L87.67 -58.9192H99.682V-64.1071H87.67L96.168 -72.304L104.667 -80.501V-68.9146H110.045ZM69.955 -97.5866L78.454 -105.783V-94.1971H83.833V-105.783L92.331 -97.5866L100.83 -89.3896H88.817V-84.2017H100.83L92.331 -76.0048L83.833 -67.8078V-79.3942H78.454V-67.8078L69.955 -76.0048L61.457 -84.2017H73.469V-89.3896H61.457L69.955 -97.5866ZM57.656 -68.9146V-80.501L66.154 -72.304L74.653 -64.1071H62.64V-58.9192H74.653L66.154 -50.7222L57.656 -42.5253V-54.1117H52.2769V-42.5253L43.7783 -50.7222L35.2798 -58.9192H47.2925V-64.1071H35.2798L43.7783 -72.304L52.2769 -80.501V-68.9146H57.656ZM21.1156 -89.355H9.1029L17.6014 -97.552L26.0999 -105.749V-94.1625H31.4788V-105.783L39.9773 -97.5866L48.4758 -89.3896H36.4631V-84.2017H48.4758L39.9773 -76.0048L31.4788 -67.8078V-79.3942H26.0999V-67.8078L17.6014 -76.0048L9.1029 -84.2017H21.1156V-89.3896V-89.355ZM-8.5755 -50.7222L-17.0741 -58.9192H-5.0614V-64.1071H-17.0741L-8.5755 -72.304L-0.0769997 -80.501V-68.9146H5.3018V-80.501L13.8004 -72.304L22.2989 -64.1071H10.2862V-58.9192H22.2989L13.8004 -50.7222L5.3018 -42.5253V-54.1117H-0.0769997V-42.5253L-8.5755 -50.7222ZM-8.5755 -0.226387L-17.0741 -8.42332H-5.0614V-13.6113H-17.0741L-8.5755 -21.8082L-0.0769997 -30.0051V-18.4187H5.3018V-30.0051L13.8004 -21.8082L22.2989 -13.6113H10.2862V-8.42332H22.2989L13.8004 -0.226387L5.3018 7.97054V-3.61584H-0.0769997V7.97054L-8.5755 -0.226387ZM5.3018 58.501V46.9146H-0.0769997V58.501L-8.5755 50.304L-17.0741 42.1071H-5.0614V36.9192H-17.0741L-8.5755 28.7223L-0.0769997 20.5253V32.1117H5.3018V20.5253L13.8004 28.7223L22.2989 36.9192H10.2862V42.1071H22.2989L13.8004 50.304L5.3018 58.501ZM48.4758 67.355L39.9773 75.552L31.4788 83.7489V72.1625H26.0999V83.7489L17.6014 75.552L9.1029 67.355H21.1156V62.1671H9.1029L17.6014 53.9702L26.0999 45.7733V57.3596H31.4788V45.7733L39.9773 53.9702L48.4758 62.1671H36.4631V67.355H48.4758ZM57.656 46.9146H52.2769V58.501L43.7783 50.304L35.2798 42.1071H47.2925V36.9192H35.2798L43.7783 28.7223L52.2769 20.5253V32.1117H57.656V20.5253L66.154 28.7223L74.653 36.9192H62.64V42.1071H74.653L66.154 50.304L57.656 58.501V46.9146ZM100.866 67.355L92.367 75.552L83.868 83.7489V72.1625H78.49V83.7489L69.991 75.552L61.493 67.355H73.505V62.1671H61.493L69.991 53.9702L78.49 45.7733V57.3596H83.868V45.7733L92.367 53.9702L100.866 62.1671H88.853V67.355H100.866ZM110.045 46.9146H104.667V58.501L96.168 50.304L87.67 42.1071H99.682V36.9192H87.67L96.168 28.7223L104.667 20.5253V32.1117H110.045V20.5253L118.544 28.7223L127.042 36.9192H115.03V42.1071H127.042L118.544 50.304L110.045 58.501V46.9146ZM144.721 75.552L136.222 83.7489V72.1625H130.844V83.7489L122.345 75.552L113.846 67.355H125.859V62.1671H113.846L122.345 53.9702L130.844 45.7733V57.3596H136.222V45.7733L144.721 53.9702L153.219 62.1671H141.207V67.355H153.219L144.721 75.552ZM162.399 46.9146H157.02V58.501L148.522 50.304L140.023 42.1071H152.036V36.9192H140.023L148.522 28.7223L157.02 20.5253V32.1117H162.399V20.5253L170.898 28.7223L179.396 36.9192H167.384V42.1071H179.396L170.898 50.304L162.399 58.501V46.9146ZM193.561 67.355H205.573L197.075 75.552L188.576 83.7489V72.1625H183.197V83.7489L174.699 75.552L166.2 67.355H178.213V62.1671H166.2L174.699 53.9702L183.197 45.7733V57.3596H188.576V45.7733L197.075 53.9702L205.573 62.1671H193.561V67.355ZM209.41 46.9146V58.501L200.912 50.304L192.413 42.1071H204.426V36.9192H192.413L200.912 28.7223L209.41 20.5253V32.1117H214.789V20.5253L223.288 28.7223L231.786 36.9192H219.773V42.1071H231.786L223.288 50.304L214.789 58.501V46.9146H209.41ZM249.464 75.552L240.966 83.7489V72.1625H235.587V83.7489L227.089 75.552L218.59 67.355H230.603V62.1671H218.59L227.089 53.9702L235.587 45.7733V57.3596H240.966V45.7733L249.464 53.9702L257.963 62.1671H245.95V67.355H257.963L249.464 75.552ZM261.764 46.9146V58.501L253.266 50.304L244.767 42.1071H256.78V36.9192H244.767L253.266 28.7223L261.764 20.5253V32.1117H267.143V20.5253L275.641 28.7223L284.14 36.9192H272.127V42.1071H284.14L275.641 50.304L267.143 58.501V46.9146H261.764ZM298.304 67.355H310.317L301.818 75.552L293.32 83.7489V72.1625H287.941V83.7489L279.442 75.552L270.944 67.355H282.957V62.1671H270.944L279.442 53.9702L287.941 45.7733V57.3596H293.32V45.7733L301.818 53.9702L310.317 62.1671H298.304V67.355ZM319.533 58.501V46.9146H314.154V58.501L305.655 50.304L297.157 42.1071H309.169V36.9192H297.157L305.655 28.7223L314.154 20.5253V32.1117H319.533V20.5253L328.031 28.7223L336.53 36.9192H324.517V42.1071H336.53L328.031 50.304L319.533 58.501ZM354.208 75.552L345.71 83.7489V72.1625H340.331V83.7489L331.832 75.552L323.334 67.355H335.346V62.1671H323.334L331.832 53.9702L340.331 45.7733V57.3596H345.71V45.7733L354.208 53.9702L362.707 62.1671H350.694V67.355H362.707L354.208 75.552Z" fill="#D6322F"></path>
    </g>
  </g>
  <defs>
    <clipPath id="clip0_1017_169">
      <rect width="314" height="60" fill="white"></rect>
    </clipPath>
  </defs>
</svg>
