<?xml version="1.0" encoding="UTF-8"?>
<svg xmlns="http://www.w3.org/2000/svg" width="78" height="124" viewBox="0 0 78 124" fill="none">
  <mask id="mask0_1038_664" style="mask-type:alpha" maskUnits="userSpaceOnUse" x="0" y="0" width="78" height="124">
    <rect x="0.672363" y="0.47168" width="76.3932" height="123.435" fill="#F6D3B3"></rect>
  </mask>
  <g mask="url(#mask0_1038_664)">
    <path d="M372.588 101.751L364.042 93.5771H376.121V88.4037H364.042L372.588 80.2298L378.212 74.8496V56.7428L372.588 51.3625L364.042 43.1886H376.121V38.0153H364.042L372.588 29.8414L378.212 24.4611V6.35435L372.588 0.974055L364.042 -7.19984H376.121V-12.3732H364.042L372.588 -20.5471L378.212 -25.9274V-43.9996L372.588 -49.3799L364.511 -57.1055H350.557L342.48 -49.3799L333.935 -41.206V-52.7599H328.526V-41.206L319.981 -49.3799L311.904 -57.1055H297.95L289.873 -49.3799L281.328 -41.206V-52.7599H275.919V-41.206L267.374 -49.3799L259.297 -57.1055H245.343L237.266 -49.3799L228.721 -41.206V-52.7599H223.312V-41.206L214.767 -49.3799L206.69 -57.1055H192.736L184.659 -49.3799L176.114 -41.206V-52.7599H170.705V-41.206L162.16 -49.3799L154.083 -57.1055H140.129L132.053 -49.3799L123.507 -41.206V-52.7599H118.099V-41.206L109.553 -49.3799L101.476 -57.1055H87.5224L79.4457 -49.3799L70.9002 -41.206V-52.7599H65.4917V-41.206L56.9462 -49.3799L48.8695 -57.1055H34.9155L26.8388 -49.3799L18.2933 -41.206V-52.7599H12.8848V-41.206L4.33936 -49.3799L-4.13399 -57.1055H-18.088L-26.2008 -49.3799L-30.6357 -45.1378V-37.8261L-22.3787 -45.7241L-13.8333 -53.898V-42.3442H-8.42475V-53.898L0.120709 -45.7241L8.66617 -37.5502H-3.41286V-32.3768H8.66617L0.120709 -24.2029L-8.42475 -16.029V-27.5829H-13.8333V-16.029L-22.3787 -24.2029L-30.6357 -32.1009V-24.7892L-26.2008 -20.5471L-17.6553 -12.3732H-29.7343V-7.19984H-17.6553L-26.2008 0.974055L-30.6357 5.21621V12.5279L-22.3787 4.62989L-13.8333 -3.54401V8.00982H-8.42475V-3.54401L0.120709 4.62989L8.66617 12.8038H-3.41286V17.9772H8.66617L0.120709 26.151L-8.42475 34.325V22.7711H-13.8333V34.325L-22.3787 26.151L-30.6357 18.2531V25.5647L-26.2008 29.8069L-17.6553 37.9808H-29.7343V43.1541H-17.6553L-26.2008 51.328L-30.6357 55.5702V62.8819L-22.3787 54.9839L-13.8333 46.81V58.3638H-8.42475V46.81L0.120709 54.9839L8.66617 63.1578H-3.41286V68.3311H8.66617L0.120709 76.505L-8.42475 84.6789V73.1251H-13.8333V84.6789L-22.3787 76.505L-30.6357 68.607V75.9187L-26.2008 80.1609L-17.6553 88.3348H-29.7343V93.5081H-17.6553L-26.2008 101.682L-30.6357 105.924V113.236L-22.3787 105.338L-13.8333 97.164V108.718H-8.42475V97.164L0.120709 105.338L8.66617 113.512H-3.41286V118.685H8.66617L0.120709 126.859L-8.42475 135.033V123.479H-13.8333V135.033L-22.3787 126.859L-30.6357 118.961V126.273L-26.2008 130.515L-18.0159 138.344H-4.24216L3.94273 130.515L12.4882 122.341V133.895H17.8967V122.341L26.4422 130.515L34.6271 138.344H48.4008L56.5857 130.515L65.1311 122.341V133.895H70.5396V122.341L79.0851 130.515L87.27 138.344H101.044L109.229 130.515L117.774 122.341V133.895H123.183V122.341L131.728 130.515L139.913 138.344H153.687L161.872 130.515L170.417 122.341V133.895H175.825V122.341L184.371 130.515L192.556 138.344H206.33L214.514 130.515L223.06 122.341V133.895H228.468V122.341L237.014 130.515L245.199 138.344H258.973L267.157 130.515L275.703 122.341V133.895H281.111V122.341L289.657 130.515L297.842 138.344H311.615L319.8 130.515L328.346 122.341V133.895H333.754V122.341L342.3 130.515L350.485 138.344H364.258L372.443 130.515L378.068 125.135V107.028L372.443 101.648L372.588 101.751ZM368.765 55.0184L377.311 63.1923H365.232V68.3656H377.311L368.765 76.5395L360.22 84.7134V73.1596H354.811V84.7134L346.266 76.5395L337.721 68.3656H349.8V63.1923H337.721L346.266 55.0184L354.811 46.8445V58.3983H360.22V46.8445L368.765 55.0184ZM328.49 47.9826V59.5364L319.945 51.3625L311.399 43.1886H323.478V38.0153H311.399L319.945 29.8414L328.49 21.6675V33.2213H333.899V21.6675L342.444 29.8414L350.989 38.0153H338.91V43.1886H350.989L342.444 51.3625L333.899 59.5364V47.9826H328.49ZM324.668 68.3656L316.123 76.5395L307.577 84.7134V73.1596H302.169V84.7134L293.623 76.5395L285.078 68.3656H297.157V63.1923H285.078L293.623 55.0184L302.169 46.8445V58.3983H307.577V46.8445L316.123 55.0184L324.668 63.1923H312.589V68.3656H324.668ZM275.811 47.9826V59.5364L267.266 51.3625L258.72 43.1886H270.799V38.0153H258.72L267.266 29.8414L275.811 21.6675V33.2213H281.22V21.6675L289.765 29.8414L298.31 38.0153H286.231V43.1886H298.31L289.765 51.3625L281.22 59.5364V47.9826H275.811ZM259.91 68.3656H271.989L263.444 76.5395L254.898 84.7134V73.1596H249.49V84.7134L240.944 76.5395L232.399 68.3656H244.478V63.1923H232.399L240.944 55.0184L249.49 46.8445V58.3983H254.898V46.8445L263.444 55.0184L271.989 63.1923H259.91V68.3656ZM223.168 47.9826V59.5364L214.623 51.3625L206.077 43.1886H218.156V38.0153H206.077L214.623 29.8414L223.168 21.6675V33.2213H228.577V21.6675L237.122 29.8414L245.668 38.0153H233.589V43.1886H245.668L237.122 51.3625L228.577 59.5364V47.9826H223.168ZM196.811 73.1596V84.7134L188.265 76.5395L179.72 68.3656H191.799V63.1923H179.72L188.265 55.0184L196.811 46.8445V58.3983H202.219V46.8445L210.765 55.0184L219.31 63.1923H207.231V68.3656H219.31L210.765 76.5395L202.219 84.7134V73.1596H196.811ZM170.489 47.9826V59.5364L161.944 51.3625L153.398 43.1886H165.477V38.0153H153.398L161.944 29.8414L170.489 21.6675V33.2213H175.898V21.6675L184.443 29.8414L192.989 38.0153H180.91V43.1886H192.989L184.443 51.3625L175.898 59.5364V47.9826H170.489ZM154.588 68.3656H166.667L158.122 76.5395L149.576 84.7134V73.1596H144.168V84.7134L135.622 76.5395L127.077 68.3656H139.156V63.1923H127.077L135.622 55.0184L144.168 46.8445V58.3983H149.576V46.8445L158.122 55.0184L166.667 63.1923H154.588V68.3656ZM65.1672 47.9826V59.5364L56.6217 51.3625L48.0763 43.1886H60.1553V38.0153H48.0763L56.6217 29.8414L65.1672 21.6675V33.2213H70.5757V21.6675L79.1212 29.8414L87.6666 38.0153H75.5876V43.1886H87.6666L79.1212 51.3625L70.5757 59.5364V47.9826H65.1672ZM61.3452 68.3656L52.7997 76.5395L44.2542 84.7134V73.1596H38.8457V84.7134L30.3003 76.5395L21.7548 68.3656H33.8338V63.1923H21.7548L30.3003 55.0184L38.8457 46.8445V58.3983H44.2542V46.8445L52.7997 55.0184L61.3452 63.1923H49.2661V68.3656H61.3452ZM33.8338 12.8383H21.7548L30.3003 4.66438L38.8457 -3.50952V8.0443H44.2542V-3.50952L52.7997 4.66438L61.3452 12.8383H49.2661V18.0116H61.3452L52.7997 26.1855L44.2542 34.3594V22.8056H38.8457V34.3594L30.3003 26.1855L21.7548 18.0116H33.8338V12.8383ZM86.4768 12.8383H74.3977L82.9432 4.66438L91.4886 -3.50952V8.0443H96.8972V-3.50952L105.443 4.66438L113.988 12.8383H101.909V18.0116H113.988L105.443 26.1855L96.8972 34.3594V22.8056H91.4886V34.3594L82.9432 26.1855L74.3977 18.0116H86.4768V12.8383ZM86.4768 63.2268H74.3977L82.9432 55.0529L91.4886 46.879V58.4328H96.8972V46.879L105.443 55.0529L113.988 63.2268H101.909V68.4001H113.988L105.443 76.574L96.8972 84.7479V73.1941H91.4886V84.7479L82.9432 76.574L74.3977 68.4001H86.4768V63.2268ZM109.265 51.3625L100.719 43.1886H112.798V38.0153H100.719L109.265 29.8414L117.81 21.6675V33.2213H123.219V21.6675L131.764 29.8414L140.31 38.0153H128.231V43.1886H140.31L131.764 51.3625L123.219 59.5364V47.9826H117.81V59.5364L109.265 51.3625ZM149.576 8.0443V-3.50952L158.122 4.66438L166.667 12.8383H154.588V18.0116H166.667L158.122 26.1855L149.576 34.3594V22.8056H144.168V34.3594L135.622 26.1855L127.077 18.0116H139.156V12.8383H127.077L135.622 4.66438L144.168 -3.50952V8.0443H149.576ZM202.219 8.0443V-3.50952L210.765 4.66438L219.31 12.8383H207.231V18.0116H219.31L210.765 26.1855L202.219 34.3594V22.8056H196.811V34.3594L188.265 26.1855L179.72 18.0116H191.799V12.8383H179.72L188.265 4.66438L196.811 -3.50952V8.0443H202.219ZM271.989 18.0116L263.444 26.1855L254.898 34.3594V22.8056H249.49V34.3594L240.944 26.1855L232.399 18.0116H244.478V12.8383H232.399L240.944 4.66438L249.49 -3.50952V8.0443H254.898V-3.50952L263.444 4.66438L271.989 12.8383H259.91V18.0116H271.989ZM285.042 12.8383L293.587 4.66438L302.132 -3.50952V8.0443H307.541V-3.50952L316.086 4.66438L324.632 12.8383H312.553V18.0116H324.632L316.086 26.1855L307.541 34.3594V22.8056H302.132V34.3594L293.587 26.1855L285.042 18.0116H297.121V12.8383H285.042ZM368.765 4.66438L377.311 12.8383H365.232V18.0116H377.311L368.765 26.1855L360.22 34.3594V22.8056H354.811V34.3594L346.266 26.1855L337.721 18.0116H349.8V12.8383H337.721L346.266 4.66438L354.811 -3.50952V8.0443H360.22V-3.50952L368.765 4.66438ZM349.8 -37.5157H337.721L346.266 -45.6896L354.811 -53.8635V-42.3097H360.22V-53.898L368.765 -45.7241L377.311 -37.5502H365.232V-32.3768H377.311L368.765 -24.2029L360.22 -16.029V-27.5829H354.811V-16.029L346.266 -24.2029L337.721 -32.3768H349.8V-37.5502V-37.5157ZM333.899 -17.1327V-28.6865L342.444 -20.5126L350.989 -12.3387H338.91V-7.16535H350.989L342.444 1.00855L333.899 9.18244V-2.37138H328.49V9.18244L319.945 1.00855L311.399 -7.16535H323.478V-12.3387H311.399L319.945 -20.5126L328.49 -28.6865V-17.1327H333.899ZM285.042 -37.5157L293.587 -45.6896L302.132 -53.8635V-42.3097H307.541V-53.898L316.086 -45.7241L324.632 -37.5502H312.553V-32.3768H324.632L316.086 -24.2029L307.541 -16.029V-27.5829H302.132V-16.029L293.587 -24.2029L285.042 -32.3768H297.121V-37.5502H285.042V-37.5157ZM275.811 -17.1327H281.22V-28.6865L289.765 -20.5126L298.31 -12.3387H286.231V-7.16535H298.31L289.765 1.00855L281.22 9.18244V-2.37138H275.811V9.18244L267.266 1.00855L258.72 -7.16535H270.799V-12.3387H258.72L267.266 -20.5126L275.811 -28.6865V-17.1327ZM240.944 -45.7241L249.49 -53.898V-42.3442H254.898V-53.898L263.444 -45.7241L271.989 -37.5502H259.91V-32.3768H271.989L263.444 -24.2029L254.898 -16.029V-27.5829H249.49V-16.029L240.944 -24.2029L232.399 -32.3768H244.478V-37.5502H232.399L240.944 -45.7241ZM228.577 -17.1327V-28.6865L237.122 -20.5126L245.668 -12.3387H233.589V-7.16535H245.668L237.122 1.00855L228.577 9.18244V-2.37138H223.168V9.18244L214.623 1.00855L206.077 -7.16535H218.156V-12.3387H206.077L214.623 -20.5126L223.168 -28.6865V-17.1327H228.577ZM188.265 -45.7241L196.811 -53.898V-42.3442H202.219V-53.898L210.765 -45.7241L219.31 -37.5502H207.231V-32.3768H219.31L210.765 -24.2029L202.219 -16.029V-27.5829H196.811V-16.029L188.265 -24.2029L179.72 -32.3768H191.799V-37.5502H179.72L188.265 -45.7241ZM170.489 -17.1327H175.898V-28.6865L184.443 -20.5126L192.989 -12.3387H180.91V-7.16535H192.989L184.443 1.00855L175.898 9.18244V-2.37138H170.489V9.18244L161.944 1.00855L153.398 -7.16535H165.477V-12.3387H153.398L161.944 -20.5126L170.489 -28.6865V-17.1327ZM139.156 -37.5157H127.077L135.622 -45.6896L144.168 -53.8635V-42.3097H149.576V-53.898L158.122 -45.7241L166.667 -37.5502H154.588V-32.3768H166.667L158.122 -24.2029L149.576 -16.029V-27.5829H144.168V-16.029L135.622 -24.2029L127.077 -32.3768H139.156V-37.5502V-37.5157ZM123.255 -17.1327V-28.6865L131.8 -20.5126L140.346 -12.3387H128.267V-7.16535H140.346L131.8 1.00855L123.255 9.18244V-2.37138H117.846V9.18244L109.301 1.00855L100.755 -7.16535H112.834V-12.3387H100.755L109.301 -20.5126L117.846 -28.6865V-17.1327H123.255ZM82.9432 -45.7241L91.4886 -53.898V-42.3442H96.8972V-53.898L105.443 -45.7241L113.988 -37.5502H101.909V-32.3768H113.988L105.443 -24.2029L96.8972 -16.029V-27.5829H91.4886V-16.029L82.9432 -24.2029L74.3977 -32.3768H86.4768V-37.5502H74.3977L82.9432 -45.7241ZM70.5757 -17.1327V-28.6865L79.1212 -20.5126L87.6666 -12.3387H75.5876V-7.16535H87.6666L79.1212 1.00855L70.5757 9.18244V-2.37138H65.1672V9.18244L56.6217 1.00855L48.0763 -7.16535H60.1553V-12.3387H48.0763L56.6217 -20.5126L65.1672 -28.6865V-17.1327H70.5757ZM33.8338 -37.5157H21.7548L30.3003 -45.6896L38.8457 -53.8635V-42.3097H44.2542V-53.898L52.7997 -45.7241L61.3452 -37.5502H49.2661V-32.3768H61.3452L52.7997 -24.2029L44.2542 -16.029V-27.5829H38.8457V-16.029L30.3003 -24.2029L21.7548 -32.3768H33.8338V-37.5502V-37.5157ZM3.97879 1.00855L-4.56667 -7.16535H7.51235V-12.3387H-4.56667L3.97879 -20.5126L12.5243 -28.6865V-17.1327H17.9328V-28.6865L26.4782 -20.5126L35.0237 -12.3387H22.9447V-7.16535H35.0237L26.4782 1.00855L17.9328 9.18244V-2.37138H12.5243V9.18244L3.97879 1.00855ZM3.97879 51.3625L-4.56667 43.1886H7.51235V38.0153H-4.56667L3.97879 29.8414L12.5243 21.6675V33.2213H17.9328V21.6675L26.4782 29.8414L35.0237 38.0153H22.9447V43.1886H35.0237L26.4782 51.3625L17.9328 59.5364V47.9826H12.5243V59.5364L3.97879 51.3625ZM17.9328 109.925V98.3711H12.5243V109.925L3.97879 101.751L-4.56667 93.5771H7.51235V88.4037H-4.56667L3.97879 80.2298L12.5243 72.056V83.6098H17.9328V72.056L26.4782 80.2298L35.0237 88.4037H22.9447V93.5771H35.0237L26.4782 101.751L17.9328 109.925ZM61.3452 118.754L52.7997 126.928L44.2542 135.102V123.548H38.8457V135.102L30.3003 126.928L21.7548 118.754H33.8338V113.581H21.7548L30.3003 105.407L38.8457 97.2329V108.787H44.2542V97.2329L52.7997 105.407L61.3452 113.581H49.2661V118.754H61.3452ZM70.5757 98.3711H65.1672V109.925L56.6217 101.751L48.0763 93.5771H60.1553V88.4037H48.0763L56.6217 80.2298L65.1672 72.056V83.6098H70.5757V72.056L79.1212 80.2298L87.6666 88.4037H75.5876V93.5771H87.6666L79.1212 101.751L70.5757 109.925V98.3711ZM114.024 118.754L105.479 126.928L96.9332 135.102V123.548H91.5247V135.102L82.9792 126.928L74.4338 118.754H86.5128V113.581H74.4338L82.9792 105.407L91.5247 97.2329V108.787H96.9332V97.2329L105.479 105.407L114.024 113.581H101.945V118.754H114.024ZM123.255 98.3711H117.846V109.925L109.301 101.751L100.755 93.5771H112.834V88.4037H100.755L109.301 80.2298L117.846 72.056V83.6098H123.255V72.056L131.8 80.2298L140.346 88.4037H128.267V93.5771H140.346L131.8 101.751L123.255 109.925V98.3711ZM158.122 126.928L149.576 135.102V123.548H144.168V135.102L135.622 126.928L127.077 118.754H139.156V113.581H127.077L135.622 105.407L144.168 97.2329V108.787H149.576V97.2329L158.122 105.407L166.667 113.581H154.588V118.754H166.667L158.122 126.928ZM175.898 98.3711H170.489V109.925L161.944 101.751L153.398 93.5771H165.477V88.4037H153.398L161.944 80.2298L170.489 72.056V83.6098H175.898V72.056L184.443 80.2298L192.989 88.4037H180.91V93.5771H192.989L184.443 101.751L175.898 109.925V98.3711ZM207.231 118.754H219.31L210.765 126.928L202.219 135.102V123.548H196.811V135.102L188.265 126.928L179.72 118.754H191.799V113.581H179.72L188.265 105.407L196.811 97.2329V108.787H202.219V97.2329L210.765 105.407L219.31 113.581H207.231V118.754ZM223.168 98.3711V109.925L214.623 101.751L206.077 93.5771H218.156V88.4037H206.077L214.623 80.2298L223.168 72.056V83.6098H228.577V72.056L237.122 80.2298L245.668 88.4037H233.589V93.5771H245.668L237.122 101.751L228.577 109.925V98.3711H223.168ZM263.444 126.928L254.898 135.102V123.548H249.49V135.102L240.944 126.928L232.399 118.754H244.478V113.581H232.399L240.944 105.407L249.49 97.2329V108.787H254.898V97.2329L263.444 105.407L271.989 113.581H259.91V118.754H271.989L263.444 126.928ZM275.811 98.3711V109.925L267.266 101.751L258.72 93.5771H270.799V88.4037H258.72L267.266 80.2298L275.811 72.056V83.6098H281.22V72.056L289.765 80.2298L298.31 88.4037H286.231V93.5771H298.31L289.765 101.751L281.22 109.925V98.3711H275.811ZM312.553 118.754H324.632L316.086 126.928L307.541 135.102V123.548H302.132V135.102L293.587 126.928L285.042 118.754H297.121V113.581H285.042L293.587 105.407L302.132 97.2329V108.787H307.541V97.2329L316.086 105.407L324.632 113.581H312.553V118.754ZM333.899 109.925V98.3711H328.49V109.925L319.945 101.751L311.399 93.5771H323.478V88.4037H311.399L319.945 80.2298L328.49 72.056V83.6098H333.899V72.056L342.444 80.2298L350.989 88.4037H338.91V93.5771H350.989L342.444 101.751L333.899 109.925ZM368.765 126.928L360.22 135.102V123.548H354.811V135.102L346.266 126.928L337.721 118.754H349.8V113.581H337.721L346.266 105.407L354.811 97.2329V108.787H360.22V97.2329L368.765 105.407L377.311 113.581H365.232V118.754H377.311L368.765 126.928Z" fill="#334688"></path>
  </g>
</svg>
