<svg width="217" height="84" viewBox="0 0 217 84" fill="none" xmlns="http://www.w3.org/2000/svg">
<rect x="0.875732" y="1.69577" width="214.805" height="81.4922" transform="rotate(-0.291823 0.875732 1.69577)" fill="#F6D3B3"/>
<rect x="0.637306" y="2.00099" width="215.253" height="81.237" transform="rotate(-0.291823 0.637306 2.00099)" stroke="black"/>
<path d="M175.087 11.2642L175.197 32.7835L179.747 32.7603L179.637 11.241L175.087 11.2642Z" fill="#272525"/>
<path d="M148.88 11.398L148.989 32.9173L153.539 32.8941L153.43 11.3748L148.88 11.398Z" fill="#272525"/>
<path d="M185.328 11.214L185.438 32.7333L189.988 32.7101L189.879 11.1908L185.328 11.214Z" fill="#272525"/>
<path d="M122.083 33.0528L126.609 33.0298L128.285 28.5041L136.32 28.4632L134.495 24.0021L129.914 24.0254L132.074 18.0874L129.681 12.2026L122.083 33.0528Z" fill="#272525"/>
<path d="M131.569 11.523L140.36 33.0114L145.196 32.9868L136.446 11.4982L131.569 11.523Z" fill="#272525"/>
<path d="M155.332 11.3705L161.783 11.3376C161.783 11.3376 164.661 11.3029 166.547 12.446C167.923 13.2776 169.412 15.2713 169.425 17.8639C169.431 19.0466 169.33 20.5506 168.491 21.8111C167.258 23.6717 164.697 24.3663 163.774 24.371L169.498 32.8316L164.188 32.8586L158.678 24.387L155.395 24.4037L155.372 19.9435L161.353 19.913C163.053 19.9044 164.882 19.3304 164.875 17.847C164.867 16.3636 163.032 15.825 161.332 15.8337C161.033 15.8352 155.351 15.8073 155.351 15.8073L155.329 11.3705L155.332 11.3705Z" fill="#272525"/>
<path d="M198.64 11.1444L191.814 19.7825L191.838 24.403L199.148 32.6617L205.8 32.6278L196.389 21.981L204.978 11.1121L198.64 11.1444Z" fill="#272525"/>
<path d="M20.927 18.4237L21.0042 33.5717L25.5544 33.5486L25.4772 18.4005L20.927 18.4237Z" fill="#272525"/>
<path d="M12.373 12.1437L12.3958 16.6072L33.8697 16.4978L33.8469 12.0343L12.373 12.1437Z" fill="#272525"/>
<path d="M108.103 17.9758L108.18 33.1238L112.73 33.1007L112.653 17.9526L108.103 17.9758Z" fill="#272525"/>
<path d="M99.5503 11.7014L99.573 16.165L121.047 16.0556L121.024 11.5921L99.5503 11.7014Z" fill="#272525"/>
<path d="M62.9624 11.8883L63.0718 33.3708L67.622 33.3477L67.5126 11.8651L62.9624 11.8883Z" fill="#272525"/>
<path d="M78.444 11.8088L78.5535 33.2913L83.1037 33.2681L82.9943 11.7856L78.444 11.8088Z" fill="#272525"/>
<path d="M39.5383 12.0056L39.6477 33.4882L44.1979 33.465L44.0885 11.9825L39.5383 12.0056Z" fill="#272525"/>
<path d="M45.99 11.9694L46.0127 16.433L57.2929 16.3755L57.2702 11.9119L45.99 11.9694Z" fill="#272525"/>
<path d="M46.0315 20.4453L46.0542 24.9089L55.0729 24.863L55.0502 20.3994L46.0315 20.4453Z" fill="#272525"/>
<path d="M46.0766 28.9942L46.0994 33.4578L57.3796 33.4003L57.3568 28.9368L46.0766 28.9942Z" fill="#272525"/>
<path d="M69.4465 19.6772L69.4692 24.1407L80.4225 24.0849L80.3997 19.6214L69.4465 19.6772Z" fill="#272525"/>
<path d="M42.1467 71.3309L28.4824 71.4005L28.3178 39.0698L29.8776 39.0619C36.5633 39.0278 42.0091 44.3157 42.0425 50.8741L42.1467 71.3309Z" fill="#272525"/>
<path d="M74.9348 71.163L61.5361 71.2313C61.5361 71.2313 61.9384 64.6239 59.7972 58.8214C57.6559 53.0155 52.7149 49.1984 52.7149 49.1984L59.4948 38.9135C59.4948 38.9135 67.1549 43.6054 71.0165 52.1623C74.8782 60.7191 74.9289 70.6753 74.9289 70.6753L74.9314 71.1697L74.9348 71.163Z" fill="#272525"/>
<path d="M58.7177 64.8819C58.7353 68.3265 55.9056 71.1307 52.3941 71.1486C48.8827 71.1664 46.0246 68.3912 46.0071 64.9466C45.9895 61.5021 48.8226 58.6979 52.3306 58.68C55.8387 58.6621 58.7002 61.4373 58.7177 64.8819Z" fill="#272525"/>
<path d="M119.123 38.6085L106.804 38.6712L106.867 50.956C119.186 50.8933 119.123 38.6085 119.123 38.6085Z" fill="#272525"/>
<path d="M76.8181 51.1116L89.1371 51.0489L89.0745 38.7641C76.7555 38.8268 76.8181 51.1116 76.8181 51.1116Z" fill="#272525"/>
<path d="M172.694 54.3714C172.739 63.0379 165.612 70.1005 156.777 70.1455C147.942 70.1905 140.744 63.2009 140.7 54.5344C140.656 45.8678 147.782 38.8053 156.617 38.7603C165.452 38.7153 172.65 45.7049 172.694 54.3714Z" fill="#272525"/>
<path d="M160.348 53.5885L157.974 53.6006L159.645 51.945L158.892 51.2138L157.221 52.8694L157.209 50.5408L156.15 50.5461L156.162 52.8748L154.475 51.2363L153.729 51.9751L155.416 53.6137L153.043 53.6257L153.048 54.6681L155.422 54.656L153.751 56.3084L154.504 57.0429L156.175 55.3872L156.187 57.7159L157.246 57.7105L157.234 55.3818L158.921 57.0204L159.667 56.2782L157.98 54.643L160.353 54.6309L160.348 53.5885Z" fill="white"/>
<path d="M54.0311 64.6712L52.9446 64.6767L53.7071 63.9211L53.3648 63.5854L52.6023 64.341L52.5969 63.2786L52.1099 63.2811L52.1153 64.3435L51.3451 63.5957L51.0063 63.9348L51.7764 64.6827L50.6933 64.6882L50.6958 65.1626L51.7788 65.1571L51.0163 65.9127L51.3586 66.2484L52.1211 65.4894L52.1265 66.5552L52.6136 66.5527L52.6081 65.487L53.3783 66.2381L53.7172 65.8989L52.947 65.1511L54.0335 65.1456L54.0311 64.6712Z" fill="white"/>
<path d="M19.9582 65.1022L19.9497 63.4351L21.158 64.6083L22.3663 65.7815L20.6668 65.7902L20.6706 66.5352L22.3701 66.5266L21.1738 67.7121L19.9776 68.8976L19.9691 67.2304L19.2096 67.2343L19.2181 68.9014L18.0098 67.7282L16.8015 66.5549L18.501 66.5463L18.4972 65.8012L16.7977 65.8099L17.994 64.6244L19.1902 63.4389L19.1987 65.1061L19.9582 65.1022ZM16.241 61.4927L16.2325 59.8256L17.4408 60.9988L18.6491 62.1721L16.9495 62.1807L16.9533 62.9258L18.6529 62.9171L17.4566 64.1026L16.2603 65.2881L16.2518 63.6209L15.4923 63.6248L15.5008 65.292L14.2926 64.1187L13.0843 62.9455L14.7838 62.9368L14.78 62.1918L13.0805 62.2004L14.2767 61.0149L15.473 59.8295L15.4815 61.4966L16.241 61.4927ZM23.6385 61.4551L23.63 59.7879L24.8383 60.9612L26.0466 62.1344L24.3471 62.1431L24.3508 62.8881L26.0504 62.8794L24.8541 64.0649L23.6578 65.2504L23.6494 63.5833L22.8899 63.5871L22.8983 65.2543L21.6901 64.081L20.4818 62.9078L22.1813 62.8991L22.1775 62.1541L20.478 62.1628L21.6743 60.9773L22.8705 59.7918L22.879 61.4589L23.6385 61.4551ZM19.9179 57.8456L19.9094 56.1785L21.1177 57.3517L22.3259 58.5249L20.6264 58.5336L20.6302 59.2786L22.3297 59.27L21.1335 60.4555L19.9372 61.641L19.9287 59.9738L19.1692 59.9777L19.1777 61.6448L17.9694 60.4716L16.7612 59.2983L18.4607 59.2897L18.4569 58.5446L16.7574 58.5533L17.9536 57.3678L19.1499 56.1823L19.1584 57.8495L19.9179 57.8456ZM16.204 54.2361L16.1955 52.569L17.4038 53.7422L18.6121 54.9155L16.9126 54.9241L16.9164 55.6691L18.6159 55.6605L17.4196 56.846L16.2234 58.0315L16.2149 56.3643L15.4554 56.3682L15.4639 58.0353L14.2556 56.8621L13.0473 55.6889L14.7468 55.6802L14.743 54.9352L13.0435 54.9438L14.2398 53.7583L15.436 52.5728L15.4445 54.24L16.204 54.2361ZM23.6016 54.1984L23.5931 52.5313L24.8013 53.7045L26.0096 54.8778L24.3101 54.8864L24.3139 55.6315L26.0134 55.6228L24.8171 56.8083L23.6209 57.9938L23.6124 56.3266L22.8529 56.3305L22.8614 57.9977L21.6531 56.8244L20.4448 55.6512L22.1444 55.6425L22.1406 54.8975L20.441 54.9061L21.6373 53.7206L22.8336 52.5352L22.8421 54.2023L23.6016 54.1984ZM19.8809 50.589L19.8724 48.9218L21.0807 50.0951L22.289 51.2683L20.5894 51.277L20.5932 52.022L22.2928 52.0134L21.0965 53.1989L19.9002 54.3843L19.8918 52.7172L19.1322 52.7211L19.1407 54.3882L17.9325 53.215L16.7242 52.0417L18.4237 52.0331L18.4199 51.288L16.7204 51.2967L17.9167 50.1112L19.1129 48.9257L19.1214 50.5929L19.8809 50.589ZM16.1671 46.9795L16.1586 45.3123L17.3669 46.4856L18.5751 47.6588L16.8756 47.6675L16.8794 48.4125L18.5789 48.4039L17.3827 49.5894L16.1864 50.7749L16.1779 49.1077L15.4184 49.1116L15.4269 50.7787L14.2186 49.6055L13.0104 48.4322L14.7099 48.4236L14.7061 47.6785L13.0066 47.6872L14.2028 46.5017L15.3991 45.3162L15.4076 46.9834L16.1671 46.9795ZM23.5646 46.9418L23.5561 45.2747L24.7644 46.4479L25.9727 47.6212L24.2731 47.6298L24.2769 48.3749L25.9764 48.3662L24.7802 49.5517L23.5839 50.7372L23.5754 49.07L22.8159 49.0739L22.8244 50.741L21.6161 49.5678L20.4079 48.3946L22.1074 48.3859L22.1036 47.6409L20.4041 47.6495L21.6003 46.464L22.7966 45.2785L22.8051 46.9457L23.5646 46.9418ZM19.844 43.3324L19.8355 41.6652L21.0437 42.8385L22.252 44.0117L20.5525 44.0204L20.5563 44.7654L22.2558 44.7567L21.0595 45.9422L19.8633 47.1277L19.8548 45.4606L19.0953 45.4644L19.1038 47.1316L17.8955 45.9583L16.6872 44.7851L18.3868 44.7764L18.383 44.0314L16.6834 44.0401L17.8797 42.8546L19.076 41.6691L19.0844 43.3362L19.844 43.3324ZM24.7103 39.1747L24.7274 39.1913L25.9357 40.3645L24.2362 40.3732L24.24 41.1182L25.9395 41.1096L24.7432 42.2951L23.547 43.4806L23.5385 41.8134L22.779 41.8173L22.7875 43.4844L21.5792 42.3112L20.3709 41.1379L22.0704 41.1293L22.0666 40.3842L20.3671 40.3929L21.5634 39.2074L21.5803 39.1906L20.5075 39.1961L19.8297 39.8677L19.8263 39.1995L19.0668 39.2034L19.0702 39.8716L18.3856 39.2069L17.3128 39.2124L17.3299 39.229L18.5382 40.4022L16.8387 40.4109L16.8424 41.1559L18.542 41.1473L17.3457 42.3327L16.1495 43.5182L16.141 41.8511L15.3815 41.855L15.3899 43.5221L14.1817 42.3489L12.9734 41.1756L14.6729 41.167L14.6691 40.4219L12.9696 40.4306L14.1659 39.2451L14.1828 39.2283L13.11 39.2338L12.5203 39.8181L12.5303 41.7893L13.6496 42.8761L14.8579 44.0494L13.1584 44.058L13.1622 44.8031L14.8617 44.7944L13.6654 45.9799L12.5573 47.0781L12.5673 49.0492L13.6866 50.1361L14.8949 51.3093L13.1954 51.318L13.1991 52.063L14.8987 52.0544L13.7024 53.2399L12.5943 54.338L12.6043 56.3092L13.7236 57.396L14.9319 58.5693L13.2323 58.5779L13.2361 59.323L14.9356 59.3143L13.7394 60.4998L12.6312 61.598L12.6413 63.5692L13.7606 64.656L14.9688 65.8292L13.2693 65.8379L13.2731 66.5829L14.9726 66.5743L13.7764 67.7598L12.6682 68.858L12.6783 70.8291L13.3594 71.4905L14.4322 71.4851L14.3296 71.3887L13.1213 70.2155L14.8208 70.2068L14.817 69.4618L13.1175 69.4704L14.3138 68.2849L15.51 67.0994L15.5185 68.7666L16.278 68.7627L16.2695 67.0956L17.4778 68.2688L18.6861 69.4421L16.9866 69.4507L16.9904 70.1958L18.6899 70.1871L17.4936 71.3726L17.3953 71.47L18.4682 71.4645L19.2307 70.7089L19.2345 71.4606L19.994 71.4567L19.9902 70.705L20.7603 71.4528L21.8332 71.4474L21.7339 71.351L20.5256 70.1777L22.2252 70.1691L22.2214 69.4241L20.5218 69.4327L21.7181 68.2472L22.9144 67.0617L22.9229 68.7289L23.6824 68.725L23.6739 67.0579L24.8821 68.2311L26.0904 69.4043L24.3909 69.413L24.3947 70.158L26.0942 70.1494L24.8979 71.3349L24.7963 71.4323L25.8691 71.4268L26.5875 70.7149L26.578 68.8339L25.4142 67.7038L24.2059 66.5306L25.9054 66.5219L25.9016 65.7769L24.2021 65.7856L25.3984 64.6001L26.5506 63.4582L26.541 61.5773L25.3772 60.4472L24.169 59.274L25.8685 59.2653L25.8647 58.5203L24.1652 58.5289L25.3614 57.3434L26.5136 56.1983L26.504 54.3173L25.3403 53.1873L24.132 52.014L25.8315 52.0054L25.8277 51.2603L24.1282 51.269L25.3244 50.0835L26.4766 48.9417L26.4671 47.0607L25.3033 45.9306L24.095 44.7574L25.7945 44.7487L25.7907 44.0037L24.0912 44.0124L25.2875 42.8269L26.4397 41.685L26.4301 39.8041L25.79 39.1825L24.7172 39.188L24.7103 39.1747Z" fill="#272525"/>
<path d="M22.7618 39.1863L22.7644 39.6908L23.5239 39.6869L23.5213 39.1824L22.7618 39.1863Z" fill="#272525"/>
<path d="M15.5275 70.877L15.5305 71.465L16.29 71.4611L16.287 70.8731L15.5275 70.877Z" fill="#272525"/>
<path d="M15.3671 39.2219L15.3696 39.7263L16.1291 39.7225L16.1266 39.218L15.3671 39.2219Z" fill="#272525"/>
<path d="M22.924 70.843L22.927 71.431L23.6865 71.4272L23.6835 70.8392L22.924 70.843Z" fill="#272525"/>
<path d="M130.364 64.5432L130.355 62.8761L131.563 64.0493L132.772 65.2226L131.072 65.2312L131.076 65.9763L132.775 65.9676L131.579 67.1531L130.383 68.3386L130.374 66.6714L129.615 66.6753L129.623 68.3425L128.415 67.1692L127.207 65.996L128.906 65.9873L128.903 65.2423L127.203 65.2509L128.399 64.0654L129.596 62.8799L129.604 64.5471L130.364 64.5432ZM126.646 60.9338L126.638 59.2666L127.846 60.4399L129.054 61.6131L127.355 61.6218L127.359 62.3668L129.058 62.3581L127.862 63.5436L126.666 64.7291L126.657 63.062L125.898 63.0658L125.906 64.733L124.698 63.5597L123.49 62.3865L125.189 62.3778L125.185 61.6328L123.486 61.6415L124.682 60.456L125.878 59.2705L125.887 60.9376L126.646 60.9338ZM134.044 60.8961L134.035 59.2289L135.244 60.4022L136.452 61.5754L134.752 61.5841L134.756 62.3291L136.456 62.3205L135.259 63.5059L134.063 64.6914L134.055 63.0243L133.295 63.0282L133.304 64.6953L132.095 63.5221L130.887 62.3488L132.587 62.3402L132.583 61.5951L130.883 61.6038L132.08 60.4183L133.276 59.2328L133.284 60.8999L134.044 60.8961ZM130.327 57.2866L130.318 55.6195L131.526 56.7927L132.735 57.9659L131.035 57.9746L131.039 58.7196L132.738 58.711L131.542 59.8965L130.346 61.082L130.337 59.4148L129.578 59.4187L129.586 61.0858L128.378 59.9126L127.17 58.7393L128.869 58.7307L128.866 57.9857L127.166 57.9943L128.362 56.8088L129.559 55.6233L129.567 57.2905L130.327 57.2866ZM126.609 53.6771L126.601 52.01L127.809 53.1832L129.017 54.3565L127.318 54.3651L127.322 55.1102L129.021 55.1015L127.825 56.287L126.629 57.4725L126.62 55.8053L125.861 55.8092L125.869 57.4764L124.661 56.3031L123.453 55.1299L125.152 55.1212L125.148 54.3762L123.449 54.3848L124.645 53.1993L125.841 52.0139L125.85 53.681L126.609 53.6771ZM134.007 53.6395L133.998 51.9723L135.207 53.1456L136.415 54.3188L134.715 54.3275L134.719 55.0725L136.419 55.0638L135.222 56.2493L134.026 57.4348L134.018 55.7677L133.258 55.7715L133.267 57.4387L132.058 56.2654L130.85 55.0922L132.55 55.0835L132.546 54.3385L130.846 54.3472L132.043 53.1617L133.239 51.9762L133.247 53.6433L134.007 53.6395ZM130.29 50.03L130.281 48.3628L131.489 49.5361L132.698 50.7093L130.998 50.718L131.002 51.463L132.701 51.4544L131.505 52.6399L130.309 53.8253L130.3 52.1582L129.541 52.1621L129.549 53.8292L128.341 52.656L127.133 51.4827L128.832 51.4741L128.829 50.729L127.129 50.7377L128.325 49.5522L129.522 48.3667L129.53 50.0339L130.29 50.03ZM126.572 46.4205L126.564 44.7534L127.772 45.9266L128.98 47.0999L127.281 47.1085L127.285 47.8536L128.984 47.8449L127.788 49.0304L126.592 50.2159L126.583 48.5487L125.824 48.5526L125.832 50.2197L124.624 49.0465L123.416 47.8733L125.115 47.8646L125.111 47.1196L123.412 47.1282L124.608 45.9427L125.804 44.7572L125.813 46.4244L126.572 46.4205ZM133.97 46.3828L133.961 44.7157L135.17 45.8889L136.378 47.0622L134.678 47.0708L134.682 47.8159L136.382 47.8072L135.185 48.9927L133.989 50.1782L133.981 48.511L133.221 48.5149L133.23 50.1821L132.021 49.0088L130.813 47.8356L132.513 47.8269L132.509 47.0819L130.809 47.0905L132.006 45.905L133.202 44.7196L133.21 46.3867L133.97 46.3828ZM130.253 42.7734L130.244 41.1062L131.452 42.2795L132.661 43.4527L130.961 43.4614L130.965 44.2064L132.664 44.1977L131.468 45.3832L130.272 46.5687L130.263 44.9016L129.504 44.9054L129.512 46.5726L128.304 45.3994L127.096 44.2261L128.795 44.2175L128.792 43.4724L127.092 43.4811L128.288 42.2956L129.485 41.1101L129.493 42.7772L130.253 42.7734ZM135.116 38.6157L135.133 38.6323L136.341 39.8056L134.641 39.8142L134.645 40.5593L136.345 40.5506L135.148 41.7361L133.952 42.9216L133.944 41.2544L133.184 41.2583L133.193 42.9254L131.984 41.7522L130.776 40.579L132.476 40.5703L132.472 39.8253L130.772 39.8339L131.969 38.6484L131.982 38.6317L130.909 38.6371L130.232 39.3088L130.228 38.6406L129.469 38.6445L129.472 39.3127L128.787 38.6479L127.715 38.6534L127.732 38.67L128.94 39.8433L127.241 39.8519L127.244 40.5969L128.944 40.5883L127.748 41.7738L126.551 42.9593L126.543 41.2921L125.783 41.296L125.792 42.9631L124.584 41.7899L123.375 40.6167L125.075 40.608L125.071 39.863L123.371 39.8716L124.568 38.6861L124.585 38.6693L123.512 38.6748L122.922 39.2591L122.932 41.2303L124.051 42.3172L125.26 43.4904L123.56 43.4991L123.564 44.2441L125.264 44.2354L124.067 45.4209L122.959 46.5191L122.969 48.4903L124.088 49.5771L125.297 50.7504L123.597 50.759L123.601 51.5041L125.301 51.4954L124.104 52.6809L122.996 53.7791L123.006 55.7503L124.125 56.8371L125.334 58.0103L123.634 58.019L123.638 58.764L125.338 58.7554L124.141 59.9409L123.033 61.039L123.043 63.0102L124.162 64.097L125.371 65.2703L123.671 65.2789L123.675 66.024L125.374 66.0153L124.178 67.2008L123.07 68.299L123.08 70.2702L123.761 70.9316L124.838 70.9261L124.735 70.8297L123.527 69.6565L125.226 69.6478L125.222 68.9028L123.523 68.9114L124.719 67.726L125.915 66.5405L125.924 68.2076L126.683 68.2037L126.675 66.5366L127.883 67.7098L129.091 68.8831L127.392 68.8917L127.396 69.6368L129.095 69.6281L127.899 70.8136L127.797 70.911L128.87 70.9056L129.633 70.1499L129.636 70.9017L130.396 70.8978L130.392 70.1461L131.162 70.8939L132.235 70.8884L132.136 70.792L130.927 69.6188L132.627 69.6101L132.623 68.8651L130.924 68.8737L132.12 67.6883L133.316 66.5028L133.325 68.1699L134.084 68.166L134.076 66.4989L135.284 67.6721L136.492 68.8454L134.793 68.854L134.797 69.5991L136.496 69.5904L135.3 70.7759L135.198 70.8733L136.271 70.8679L136.989 70.1559L136.98 68.2749L135.816 67.1449L134.608 65.9716L136.307 65.963L136.303 65.2179L134.604 65.2266L135.8 64.0411L136.952 62.8993L136.943 61.0183L135.779 59.8883L134.571 58.715L136.27 58.7064L136.267 57.9613L134.567 57.97L135.763 56.7845L136.915 55.6393L136.906 53.7583L135.742 52.6283L134.534 51.4551L136.233 51.4464L136.23 50.7014L134.53 50.71L135.726 49.5245L136.879 48.3827L136.869 46.5017L135.705 45.3717L134.497 44.1984L136.196 44.1898L136.193 43.4447L134.493 43.4534L135.689 42.2679L136.842 41.1261L136.832 39.2451L136.188 38.6236L135.116 38.6291L135.116 38.6157Z" fill="#272525"/>
<path d="M133.172 38.6239L133.174 39.1284L133.934 39.1245L133.931 38.62L133.172 38.6239Z" fill="#272525"/>
<path d="M125.934 70.3134L125.937 70.9014L126.696 70.8975L126.693 70.3095L125.934 70.3134Z" fill="#272525"/>
<path d="M125.773 38.6602L125.775 39.1647L126.535 39.1608L126.532 38.6563L125.773 38.6602Z" fill="#272525"/>
<path d="M133.331 70.2772L133.334 70.8652L134.093 70.8613L134.09 70.2733L133.331 70.2772Z" fill="#272525"/>
<path d="M98.4285 64.7023L98.42 63.0352L99.6282 64.2084L100.837 65.3817L99.137 65.3903L99.1408 66.1354L100.84 66.1267L99.644 67.3122L98.4478 68.4977L98.4393 66.8305L97.6798 66.8344L97.6883 68.5016L96.48 67.3283L95.2717 66.1551L96.9713 66.1464L96.9675 65.4014L95.2679 65.41L96.4642 64.2245L97.6605 63.0391L97.669 64.7062L98.4285 64.7023ZM94.7112 61.0929L94.7027 59.4257L95.911 60.599L97.1193 61.7722L95.4198 61.7809L95.4235 62.5259L97.1231 62.5172L95.9268 63.7027L94.7305 64.8882L94.7221 63.2211L93.9625 63.2249L93.971 64.8921L92.7628 63.7188L91.5545 62.5456L93.254 62.5369L93.2502 61.7919L91.5507 61.8006L92.747 60.6151L93.9432 59.4296L93.9517 61.0967L94.7112 61.0929ZM102.109 61.0552L102.1 59.388L103.309 60.5613L104.517 61.7345L102.817 61.7432L102.821 62.4882L104.521 62.4796L103.324 63.6651L102.128 64.8505L102.12 63.1834L101.36 63.1873L101.369 64.8544L100.16 63.6812L98.952 62.5079L100.652 62.4993L100.648 61.7542L98.9482 61.7629L100.144 60.5774L101.341 59.3919L101.349 61.0591L102.109 61.0552ZM98.3915 57.4457L98.383 55.7786L99.5913 56.9518L100.8 58.1251L99.1 58.1337L99.1038 58.8787L100.803 58.8701L99.6071 60.0556L98.4108 61.2411L98.4023 59.5739L97.6428 59.5778L97.6513 61.2449L96.443 60.0717L95.2348 58.8985L96.9343 58.8898L96.9305 58.1448L95.231 58.1534L96.4272 56.9679L97.6235 55.7824L97.632 57.4496L98.3915 57.4457ZM94.6743 53.8362L94.6658 52.1691L95.874 53.3423L97.0823 54.5156L95.3828 54.5242L95.3866 55.2693L97.0861 55.2606L95.8898 56.4461L94.6936 57.6316L94.6851 55.9645L93.9256 55.9683L93.9341 57.6355L92.7258 56.4622L91.5175 55.289L93.2171 55.2803L93.2133 54.5353L91.5137 54.5439L92.71 53.3585L93.9063 52.173L93.9147 53.8401L94.6743 53.8362ZM102.072 53.7986L102.063 52.1314L103.272 53.3047L104.48 54.4779L102.78 54.4866L102.784 55.2316L104.484 55.2229L103.287 56.4084L102.091 57.5939L102.083 55.9268L101.323 55.9306L101.332 57.5978L100.123 56.4245L98.915 55.2513L100.615 55.2426L100.611 54.4976L98.9113 54.5063L100.108 53.3208L101.304 52.1353L101.312 53.8024L102.072 53.7986ZM98.3545 50.1891L98.346 48.5219L99.5543 49.6952L100.763 50.8684L99.0631 50.8771L99.0669 51.6221L100.766 51.6135L99.5701 52.799L98.3739 53.9845L98.3654 52.3173L97.6059 52.3212L97.6144 53.9883L96.4061 52.8151L95.1978 51.6418L96.8973 51.6332L96.8935 50.8881L95.194 50.8968L96.3903 49.7113L97.5865 48.5258L97.595 50.193L98.3545 50.1891ZM94.6373 46.5796L94.6288 44.9125L95.8371 46.0857L97.0454 47.259L95.3458 47.2676L95.3496 48.0127L97.0491 48.004L95.8529 49.1895L94.6566 50.375L94.6481 48.7078L93.8886 48.7117L93.8971 50.3789L92.6888 49.2056L91.4806 48.0324L93.1801 48.0237L93.1763 47.2787L91.4768 47.2873L92.673 46.1018L93.8693 44.9163L93.8778 46.5835L94.6373 46.5796ZM102.035 46.5419L102.026 44.8748L103.235 46.048L104.443 47.2213L102.743 47.2299L102.747 47.975L104.447 47.9663L103.25 49.1518L102.054 50.3373L102.046 48.6702L101.286 48.674L101.295 50.3412L100.086 49.1679L98.8781 47.9947L100.578 47.986L100.574 47.241L98.8743 47.2496L100.071 46.0642L101.267 44.8787L101.275 46.5458L102.035 46.5419ZM98.3176 42.9325L98.3091 41.2653L99.5174 42.4386L100.726 43.6118L99.0261 43.6205L99.0299 44.3655L100.729 44.3569L99.5332 45.5423L98.3369 46.7278L98.3284 45.0607L97.5689 45.0646L97.5774 46.7317L96.3691 45.5585L95.1609 44.3852L96.8604 44.3766L96.8566 43.6315L95.1571 43.6402L96.3533 42.4547L97.5496 41.2692L97.5581 42.9363L98.3176 42.9325ZM103.181 38.7748L103.198 38.7914L104.406 39.9647L102.706 39.9733L102.71 40.7184L104.41 40.7097L103.213 41.8952L102.017 43.0807L102.009 41.4135L101.249 41.4174L101.258 43.0846L100.049 41.9113L98.8411 40.7381L100.541 40.7294L100.537 39.9844L98.8373 39.993L100.034 38.8075L100.051 38.7907L98.9777 38.7962L98.2999 39.4679L98.2965 38.7997L97.537 38.8035L97.5404 39.4717L96.8559 38.807L95.783 38.8125L95.8001 38.8291L97.0084 40.0023L95.3089 40.011L95.3127 40.756L97.0122 40.7474L95.8159 41.9329L94.6197 43.1184L94.6112 41.4512L93.8517 41.4551L93.8602 43.1222L92.6519 41.949L91.4436 40.7757L93.1431 40.7671L93.1393 40.022L91.4398 40.0307L92.6361 38.8452L92.653 38.8284L91.5802 38.8339L90.9905 39.4182L91.0006 41.3894L92.1198 42.4762L93.3281 43.6495L91.6286 43.6581L91.6324 44.4032L93.3319 44.3945L92.1357 45.58L91.0275 46.6782L91.0375 48.6494L92.1568 49.7362L93.3651 50.9095L91.6656 50.9181L91.6694 51.6631L93.3689 51.6545L92.1726 52.84L91.0645 53.9382L91.0745 55.9093L92.1938 56.9962L93.4021 58.1694L91.7025 58.1781L91.7063 58.9231L93.4059 58.9145L92.2096 60.0999L91.1015 61.1981L91.1115 63.1693L92.2308 64.2561L93.4391 65.4294L91.7395 65.438L91.7433 66.1831L93.4428 66.1744L92.2466 67.3599L91.1384 68.4581L91.1485 70.4293L91.8296 71.0907L92.9025 71.0852L92.7998 70.9888L91.5915 69.8156L93.291 69.8069L93.2873 69.0619L91.5877 69.0705L92.784 67.8851L93.9802 66.6996L93.9887 68.3667L94.7482 68.3628L94.7398 66.6957L95.948 67.8689L97.1563 69.0422L95.4568 69.0508L95.4606 69.7959L97.1601 69.7872L95.9638 70.9727L95.8622 71.0701L96.935 71.0647L97.6975 70.309L97.7013 71.0608L98.4608 71.0569L98.457 70.3052L99.2271 71.053L100.3 71.0475L100.201 70.9511L98.9924 69.7779L100.692 69.7692L100.688 69.0242L98.9887 69.0329L100.185 67.8474L101.381 66.6619L101.39 68.329L102.149 68.3252L102.141 66.658L103.349 67.8312L104.557 69.0045L102.858 69.0131L102.861 69.7582L104.561 69.7495L103.365 70.935L103.266 71.0324L104.339 71.0269L105.058 70.315L105.048 68.434L103.884 67.304L102.676 66.1307L104.376 66.1221L104.372 65.377L102.672 65.3857L103.869 64.2002L105.021 63.0584L105.011 61.1774L103.847 60.0473L102.639 58.8741L104.339 58.8654L104.335 58.1204L102.635 58.1291L103.832 56.9436L104.984 55.7984L104.974 53.9174L103.81 52.7874L102.602 51.6141L104.302 51.6055L104.298 50.8604L102.598 50.8691L103.795 49.6836L104.947 48.5418L104.937 46.6608L103.774 45.5308L102.565 44.3575L104.265 44.3489L104.261 43.6038L102.561 43.6125L103.758 42.427L104.91 41.2852L104.9 39.4042L104.257 38.7827L103.184 38.7881L103.181 38.7748Z" fill="#272525"/>
<path d="M101.237 38.7854L101.24 39.2899L101.999 39.286L101.997 38.7815L101.237 38.7854Z" fill="#272525"/>
<path d="M94.0016 70.4764L94.0046 71.0644L94.7641 71.0605L94.7612 70.4725L94.0016 70.4764Z" fill="#272525"/>
<path d="M93.8404 38.8234L93.843 39.3279L94.6025 39.324L94.6 38.8196L93.8404 38.8234Z" fill="#272525"/>
<path d="M101.399 70.4422L101.402 71.0302L102.162 71.0264L102.159 70.4384L101.399 70.4422Z" fill="#272525"/>
<path d="M206.045 70.5025L192.38 70.5721L192.216 38.2414L193.776 38.2334C200.461 38.1994 205.907 43.4873 205.94 50.0456L206.045 70.5025Z" fill="#272525"/>
<path d="M183.853 64.2707L183.844 62.6035L185.052 63.7768L186.261 64.95L184.561 64.9587L184.565 65.7037L186.264 65.695L185.068 66.8805L183.872 68.066L183.863 66.3989L183.104 66.4027L183.112 68.0699L181.904 66.8966L180.696 65.7234L182.395 65.7147L182.392 64.9697L180.692 64.9784L181.888 63.7929L183.085 62.6074L183.093 64.2745L183.853 64.2707ZM180.135 60.6612L180.127 58.994L181.335 60.1673L182.543 61.3405L180.844 61.3492L180.848 62.0942L182.547 62.0856L181.351 63.2711L180.155 64.4566L180.146 62.7894L179.387 62.7933L179.395 64.4604L178.187 63.2872L176.979 62.1139L178.678 62.1053L178.674 61.3602L176.975 61.3689L178.171 60.1834L179.367 58.9979L179.376 60.6651L180.135 60.6612ZM187.533 60.6235L187.524 58.9564L188.733 60.1296L189.941 61.3029L188.241 61.3115L188.245 62.0565L189.945 62.0479L188.748 63.2334L187.552 64.4189L187.544 62.7517L186.784 62.7556L186.793 64.4227L185.584 63.2495L184.376 62.0763L186.076 62.0676L186.072 61.3226L184.372 61.3312L185.569 60.1457L186.765 58.9602L186.773 60.6274L187.533 60.6235ZM183.816 57.014L183.807 55.3469L185.015 56.5201L186.224 57.6934L184.524 57.702L184.528 58.4471L186.227 58.4384L185.031 59.6239L183.835 60.8094L183.826 59.1423L183.067 59.1461L183.075 60.8133L181.867 59.64L180.659 58.4668L182.358 58.4581L182.355 57.7131L180.655 57.7217L181.851 56.5363L183.048 55.3508L183.056 57.0179L183.816 57.014ZM180.098 53.4046L180.09 51.7374L181.298 52.9107L182.506 54.0839L180.807 54.0926L180.811 54.8376L182.51 54.8289L181.314 56.0144L180.118 57.1999L180.109 55.5328L179.35 55.5366L179.358 57.2038L178.15 56.0306L176.942 54.8573L178.641 54.8487L178.637 54.1036L176.938 54.1123L178.134 52.9268L179.33 51.7413L179.339 53.4084L180.098 53.4046ZM187.496 53.3669L187.487 51.6997L188.696 52.873L189.904 54.0462L188.204 54.0549L188.208 54.7999L189.908 54.7913L188.711 55.9768L187.515 57.1623L187.507 55.4951L186.747 55.499L186.756 57.1661L185.547 55.9929L184.339 54.8196L186.039 54.811L186.035 54.0659L184.335 54.0746L185.532 52.8891L186.728 51.7036L186.736 53.3708L187.496 53.3669ZM183.779 49.7574L183.77 48.0903L184.978 49.2635L186.187 50.4368L184.487 50.4454L184.491 51.1905L186.19 51.1818L184.994 52.3673L183.798 53.5528L183.789 51.8856L183.03 51.8895L183.038 53.5567L181.83 52.3834L180.622 51.2102L182.321 51.2015L182.318 50.4565L180.618 50.4651L181.814 49.2796L183.011 48.0941L183.019 49.7613L183.779 49.7574ZM180.061 46.148L180.053 44.4808L181.261 45.654L182.469 46.8273L180.77 46.8359L180.774 47.581L182.473 47.5723L181.277 48.7578L180.081 49.9433L180.072 48.2762L179.313 48.28L179.321 49.9472L178.113 48.7739L176.905 47.6007L178.604 47.592L178.6 46.847L176.901 46.8557L178.097 45.6702L179.293 44.4847L179.302 46.1518L180.061 46.148ZM187.459 46.1103L187.45 44.4431L188.659 45.6164L189.867 46.7896L188.167 46.7983L188.171 47.5433L189.871 47.5347L188.674 48.7201L187.478 49.9056L187.47 48.2385L186.71 48.2424L186.719 49.9095L185.51 48.7363L184.302 47.563L186.002 47.5544L185.998 46.8093L184.298 46.818L185.495 45.6325L186.691 44.447L186.699 46.1141L187.459 46.1103ZM183.742 42.5008L183.733 40.8337L184.941 42.0069L186.15 43.1801L184.45 43.1888L184.454 43.9338L186.154 43.9252L184.957 45.1107L183.761 46.2962L183.752 44.629L182.993 44.6329L183.001 46.3L181.793 45.1268L180.585 43.9535L182.284 43.9449L182.281 43.1998L180.581 43.2085L181.777 42.023L182.974 40.8375L182.982 42.5047L183.742 42.5008ZM188.605 38.3431L188.622 38.3597L189.83 39.533L188.13 39.5416L188.134 40.2867L189.834 40.278L188.638 41.4635L187.441 42.649L187.433 40.9819L186.673 40.9857L186.682 42.6529L185.473 41.4796L184.265 40.3064L185.965 40.2977L185.961 39.5527L184.261 39.5614L185.458 38.3759L185.475 38.3591L184.402 38.3645L183.724 39.0362L183.721 38.368L182.961 38.3719L182.964 39.0401L182.28 38.3753L181.207 38.3808L181.224 38.3974L182.432 39.5707L180.733 39.5793L180.737 40.3244L182.436 40.3157L181.24 41.5012L180.044 42.6867L180.035 41.0195L179.276 41.0234L179.284 42.6906L178.076 41.5173L176.868 40.3441L178.567 40.3354L178.563 39.5904L176.864 39.599L178.06 38.4135L178.077 38.3967L177.004 38.4022L176.415 38.9866L176.425 40.9577L177.544 42.0446L178.752 43.2178L177.053 43.2265L177.056 43.9715L178.756 43.9629L177.56 45.1484L176.452 46.2465L176.462 48.2177L177.581 49.3045L178.789 50.4778L177.09 50.4864L177.093 51.2315L178.793 51.2228L177.597 52.4083L176.489 53.5065L176.499 55.4777L177.618 56.5645L178.826 57.7377L177.127 57.7464L177.13 58.4914L178.83 58.4828L177.634 59.6683L176.526 60.7664L176.536 62.7376L177.655 63.8245L178.863 64.9977L177.164 65.0064L177.167 65.7514L178.867 65.7427L177.671 66.9282L176.563 68.0264L176.573 69.9976L177.254 70.659L178.327 70.6535L178.224 70.5572L177.016 69.3839L178.715 69.3753L178.711 68.6302L177.012 68.6389L178.208 67.4534L179.404 66.2679L179.413 67.935L180.172 67.9312L180.164 66.264L181.372 67.4373L182.58 68.6105L180.881 68.6192L180.885 69.3642L182.584 69.3556L181.388 70.541L181.29 70.6384L182.362 70.633L183.125 69.8773L183.129 70.6291L183.888 70.6252L183.884 69.8735L184.655 70.6213L185.727 70.6158L185.628 70.5194L184.42 69.3462L186.119 69.3375L186.116 68.5925L184.416 68.6012L185.612 67.4157L186.809 66.2302L186.817 67.8973L187.577 67.8935L187.568 66.2263L188.776 67.3996L189.985 68.5728L188.285 68.5815L188.289 69.3265L189.989 69.3178L188.792 70.5033L188.694 70.6007L189.767 70.5953L190.485 69.8833L190.476 68.0023L189.312 66.8723L188.104 65.699L189.803 65.6904L189.799 64.9453L188.1 64.954L189.296 63.7685L190.448 62.6267L190.439 60.7457L189.275 59.6157L188.067 58.4424L189.766 58.4338L189.762 57.6887L188.063 57.6974L189.259 56.5119L190.411 55.3701L190.402 53.4891L189.238 52.359L188.03 51.1858L189.729 51.1771L189.725 50.4321L188.026 50.4408L189.222 49.2553L190.374 48.1101L190.365 46.2291L189.201 45.0991L187.993 43.9258L189.692 43.9172L189.688 43.1721L187.989 43.1808L189.185 41.9953L190.337 40.8535L190.328 38.9725L189.688 38.351L188.615 38.3564L188.605 38.3431Z" fill="#272525"/>
<path d="M186.659 38.352L186.661 38.8565L187.421 38.8527L187.418 38.3482L186.659 38.352Z" fill="#272525"/>
<path d="M179.424 70.0469L179.427 70.6349L180.186 70.631L180.183 70.043L179.424 70.0469Z" fill="#272525"/>
<path d="M179.262 38.392L179.265 38.8965L180.024 38.8926L180.022 38.3881L179.262 38.392Z" fill="#272525"/>
<path d="M186.82 70.007L186.823 70.595L187.582 70.5911L187.58 70.0031L186.82 70.007Z" fill="#272525"/>
</svg>
