<?xml version="1.0" encoding="UTF-8"?>
<svg xmlns="http://www.w3.org/2000/svg" width="127" height="39" viewBox="0 0 127 39" fill="none">
  <path d="M106.846 -0.00655556V14.124H109.834V-0.00655556H106.846Z" fill="#272525"></path>
  <path d="M89.6367 -0.00662422V14.124H92.6246V-0.00662422H89.6367Z" fill="#272525"></path>
  <path d="M113.571 -0.00662422V14.124H116.559V-0.00662422H113.571Z" fill="#272525"></path>
  <path d="M71.9688 14.124H74.941L76.057 11.1579L81.3328 11.1579L80.1497 8.2225H77.1417L78.5797 4.33062L77.0276 0.458473L71.9688 14.124Z" fill="#272525"></path>
  <path d="M78.2686 0.0173854L83.9693 14.1567H87.145L81.4711 0.0173854H78.2686Z" fill="#272525"></path>
  <path d="M93.8743 -0.00434644H98.1101C98.1101 -0.00434644 99.9999 -0.0175063 101.234 0.739371C102.136 1.29003 103.106 2.60414 103.106 4.30657C103.106 5.08319 103.035 6.07042 102.48 6.89531C101.664 8.1129 99.9798 8.56044 99.3737 8.56044L103.104 14.135H99.6175L96.028 8.55386H93.8721V5.62507H97.7993C98.9153 5.62507 100.118 5.25431 100.118 4.28024C100.118 3.30617 98.9153 2.94638 97.7993 2.94638C97.6025 2.94638 93.8721 2.90909 93.8721 2.90909V-0.00434644H93.8743Z" fill="#272525"></path>
  <path d="M122.311 -0.00655549L117.8 5.6426V8.6767L122.572 14.124L126.94 14.124L120.797 7.10152L126.473 -0.00655549L122.311 -0.00655549Z" fill="#272525"></path>
  <path d="M5.59558 4.17705L5.59558 14.124H8.58347L8.58347 4.17705H5.59558Z" fill="#272525"></path>
  <path d="M0 0.0262897L0 2.95727L14.1008 2.95727V0.0262897L0 0.0262897Z" fill="#272525"></path>
  <path d="M62.8396 4.17705V14.124H65.8275V4.17705H62.8396Z" fill="#272525"></path>
  <path d="M57.244 0.0262897V2.95727L71.3448 2.95727V0.0262897L57.244 0.0262897Z" fill="#272525"></path>
  <path d="M33.2179 0.0262861V14.1327H36.2058V0.0262861H33.2179Z" fill="#272525"></path>
  <path d="M43.3848 0.0262861V14.1327H46.3727V0.0262861H43.3848Z" fill="#272525"></path>
  <path d="M17.8379 0.0262861L17.8379 14.1327H20.8258L20.8258 0.0262861H17.8379Z" fill="#272525"></path>
  <path d="M22.0732 0.0240965V2.95508L29.4804 2.95508V0.0240965L22.0732 0.0240965Z" fill="#272525"></path>
  <path d="M22.0715 5.58769V8.51867L27.9936 8.51867V5.58769L22.0715 5.58769Z" fill="#272525"></path>
  <path d="M22.0732 11.2018V14.1328L29.4804 14.1328V11.2018L22.0732 11.2018Z" fill="#272525"></path>
  <path d="M37.4512 5.16423V8.09521L44.6436 8.09521V5.16423L37.4512 5.16423Z" fill="#272525"></path>
  <path d="M19.3515 38.9892H10.3789L10.3789 17.7593H11.4032C15.7933 17.7593 19.3515 21.2498 19.3515 25.5563V38.9892Z" fill="#272525"></path>
  <path d="M40.8818 38.989H32.0836C32.0836 38.989 32.3699 34.6518 30.9833 30.8345C29.5967 27.015 26.365 24.4921 26.365 24.4921L30.8513 17.7613C30.8513 17.7613 35.8654 20.8678 38.3725 26.4994C40.8795 32.131 40.8796 38.6687 40.8796 38.6687V38.9934L40.8818 38.989Z" fill="#272525"></path>
  <path d="M30.2546 34.812C30.2546 37.0739 28.3872 38.9058 26.0814 38.9058C23.7756 38.9058 21.9082 37.0739 21.9082 34.812C21.9082 32.5502 23.7779 30.7183 26.0814 30.7183C28.3849 30.7183 30.2546 32.5502 30.2546 34.812Z" fill="#272525"></path>
  <path d="M70.007 17.7613H61.9178V25.8281C70.007 25.8281 70.007 17.7613 70.007 17.7613Z" fill="#272525"></path>
  <path d="M42.1856 25.8281H50.2749V17.7613C42.1856 17.7613 42.1856 25.8281 42.1856 25.8281Z" fill="#272525"></path>
  <path d="M105.13 28.2918C105.13 33.9827 100.427 38.5963 94.6258 38.5963C88.8245 38.5963 84.1212 33.9827 84.1212 28.2918C84.1212 22.601 88.8245 17.9873 94.6258 17.9873C100.427 17.9873 105.13 22.601 105.13 28.2918Z" fill="#272525"></path>
  <path d="M97.0257 27.7347H95.4669L96.5695 26.6531L96.0774 26.1705L94.9749 27.252V25.7229H94.2793V27.252L93.1768 26.1705L92.6848 26.6531L93.7873 27.7347H92.2285V28.4191H93.7873L92.6848 29.4985L93.1768 29.9834L94.2793 28.9018V30.4309H94.9749V28.9018L96.0774 29.9834L96.5695 29.4985L95.4669 28.4191H97.0257V27.7347Z" fill="white"></path>
  <path d="M27.1773 34.6562H26.4639L26.9671 34.1626L26.7434 33.941L26.2402 34.4346V33.737H25.9204V34.4346L25.4172 33.941L25.1936 34.1626L25.6968 34.6562H24.9856V34.9677H25.6968L25.1936 35.4613L25.4172 35.6829L25.9204 35.1871V35.8869H26.2402V35.1871L26.7434 35.6829L26.9671 35.4613L26.4639 34.9677H27.1773V34.6562Z" fill="white"></path>
  <path d="M4.80234 34.8249V33.7301L5.59181 34.5046L6.38127 35.279H5.26528V35.7682H6.38127L5.59181 36.5426L4.80234 37.3171L4.80234 36.2223H4.30361L4.30361 37.3171L3.51415 36.5426L2.72468 35.7682H3.84067V35.279H2.72468L3.51415 34.5046L4.30361 33.7301V34.8249H4.80234ZM2.37356 32.4423L2.37356 31.3476L3.16303 32.122L3.95249 32.8965H2.83651V33.3857H3.95249L3.16303 34.1601L2.37356 34.9346L2.37356 33.8398H1.87483L1.87483 34.9346L1.08537 34.1601L0.295904 33.3857H1.41189V32.8965H0.295904L1.08537 32.122L1.87483 31.3476L1.87483 32.4423H2.37356ZM7.23112 32.4423V31.3476L8.02058 32.122L8.81005 32.8965H7.69406V33.3857H8.81005L8.02058 34.1601L7.23112 34.9346V33.8398H6.73239V34.9346L5.94293 34.1601L5.15346 33.3857H6.26945V32.8965H5.15346L5.94293 32.122L6.73239 31.3476V32.4423H7.23112ZM4.80011 30.0598V28.9651L5.58957 29.7395L6.37903 30.5139H5.26305L5.26305 31.0032H6.37903L5.58957 31.7776L4.80011 32.552V31.4573H4.30138V32.552L3.51191 31.7776L2.72245 31.0032H3.83843V30.5139H2.72245L3.51191 29.7395L4.30138 28.9651V30.0598H4.80011ZM2.37356 27.6773V26.5826L3.16303 27.357L3.95249 28.1314H2.83651V28.6207H3.95249L3.16303 29.3951L2.37356 30.1695L2.37356 29.0748H1.87483L1.87483 30.1695L1.08537 29.3951L0.295904 28.6207H1.41189V28.1314H0.295904L1.08537 27.357L1.87483 26.5826L1.87483 27.6773H2.37356ZM7.23112 27.6773V26.5826L8.02058 27.357L8.81005 28.1314H7.69406V28.6207H8.81005L8.02058 29.3951L7.23112 30.1695V29.0748H6.73239V30.1695L5.94293 29.3951L5.15346 28.6207H6.26945V28.1314H5.15346L5.94293 27.357L6.73239 26.5826V27.6773H7.23112ZM4.80011 25.2948L4.80011 24.2001L5.58957 24.9745L6.37903 25.7489H5.26305V26.2381H6.37903L5.58957 27.0126L4.80011 27.787V26.6923H4.30138V27.787L3.51191 27.0126L2.72245 26.2381H3.83843V25.7489H2.72245L3.51191 24.9745L4.30138 24.2001L4.30138 25.2948H4.80011ZM2.37356 22.9123V21.8175L3.16303 22.592L3.95249 23.3664H2.83651L2.83651 23.8556H3.95249L3.16303 24.63L2.37356 25.4045V24.3097H1.87483L1.87483 25.4045L1.08537 24.63L0.295904 23.8556H1.41189V23.3664H0.295904L1.08537 22.592L1.87483 21.8175V22.9123H2.37356ZM7.23112 22.9123V21.8175L8.02058 22.592L8.81005 23.3664H7.69406V23.8556H8.81005L8.02058 24.63L7.23112 25.4045L7.23112 24.3097H6.73239L6.73239 25.4045L5.94293 24.63L5.15346 23.8556H6.26945V23.3664H5.15346L5.94293 22.592L6.73239 21.8175V22.9123H7.23112ZM4.80011 20.5297L4.80011 19.435L5.58957 20.2094L6.37903 20.9839H5.26305V21.4731H6.37903L5.58957 22.2475L4.80011 23.022V21.9272H4.30138V23.022L3.51191 22.2475L2.72245 21.4731H3.83843L3.83843 20.9839H2.72245L3.51191 20.2094L4.30138 19.435L4.30138 20.5297H4.80011ZM8.0094 17.816L8.02058 17.8269L8.81005 18.6013H7.69406V19.0906H8.81005L8.02058 19.865L7.23112 20.6394L7.23112 19.5447H6.73239L6.73239 20.6394L5.94293 19.865L5.15346 19.0906H6.26945V18.6013H5.15346L5.94293 17.8269L5.95411 17.816H5.24963L4.80234 18.2547V17.816H4.30361V18.2547L3.85633 17.816H3.15184L3.16303 17.8269L3.95249 18.6013H2.83651V19.0906H3.95249L3.16303 19.865L2.37356 20.6394V19.5447H1.87483L1.87483 20.6394L1.08537 19.865L0.295904 19.0906H1.41189L1.41189 18.6013H0.295904L1.08537 17.8269L1.09655 17.816H0.392071L0.00292969 18.1977L0.00292969 19.4921L0.734247 20.2094L1.52371 20.9839H0.407727L0.407727 21.4731H1.52371L0.734247 22.2475L0.00292969 22.9649L0.00292969 24.2593L0.734247 24.9767L1.52371 25.7511H0.407727L0.407727 26.2403H1.52371L0.734247 27.0148L0.00292969 27.7321L0.00292969 29.0265L0.734247 29.7439L1.52371 30.5183H0.407727L0.407727 31.0076H1.52371L0.734247 31.782L0.00292969 32.4994L0.00292969 33.7938L0.734247 34.5111L1.52371 35.2856H0.407727L0.407727 35.7748H1.52371L0.734247 36.5492L0.00292969 37.2666L0.00292969 38.561L0.447983 38.9976H1.15246L1.08537 38.9339L0.295904 38.1595H1.41189V37.6703H0.295904L1.08537 36.8959L1.87483 36.1214L1.87483 37.2162H2.37356V36.1214L3.16303 36.8959L3.95249 37.6703H2.83651V38.1595H3.95249L3.16303 38.9339L3.09817 38.9976H3.80265L4.30585 38.5039V38.9976H4.80458V38.5039L5.30778 38.9976H6.01226L5.9474 38.9339L5.15794 38.1595H6.27392V37.6703H5.15794L5.9474 36.8959L6.73687 36.1214L6.73687 37.2162H7.23559L7.23559 36.1214L8.02506 36.8959L8.81452 37.6703H7.69854V38.1595H8.81452L8.02506 38.9339L7.95796 38.9976H8.66244L9.13657 38.5325V37.2973L8.37618 36.5514L7.58672 35.777H8.7027V35.2878H7.58672L8.37618 34.5133L9.13657 33.7674L9.13657 32.5323L8.37618 31.7864L7.58672 31.012H8.7027V30.5227H7.58672L8.37618 29.7483L9.13657 29.0002V27.7651L8.37618 27.0191L7.58672 26.2447H8.7027V25.7555H7.58672L8.37618 24.9811L9.13657 24.2352V23L8.37618 22.2541L7.58672 21.4797H8.7027V20.9904H7.58672L8.37618 20.216L9.13657 19.4701V18.235L8.71836 17.8247H8.01388L8.0094 17.816Z" fill="#272525"></path>
  <path d="M6.73145 17.8162V18.1475H7.23017V17.8162H6.73145Z" fill="#272525"></path>
  <path d="M1.87415 38.6029V38.989H2.37287V38.6029H1.87415Z" fill="#272525"></path>
  <path d="M1.87415 17.8162V18.1475H2.37287V17.8162H1.87415Z" fill="#272525"></path>
  <path d="M6.73145 38.6029V38.989H7.23017V38.6029H6.73145Z" fill="#272525"></path>
  <path d="M77.3005 34.8251V33.7304L78.09 34.5048L78.8794 35.2792H77.7634V35.7685H78.8794L78.09 36.5429L77.3005 37.3173V36.2226H76.8018V37.3173L76.0123 36.5429L75.2228 35.7685H76.3388V35.2792H75.2228L76.0123 34.5048L76.8018 33.7304V34.8251H77.3005ZM74.8717 32.4426V31.3479L75.6612 32.1223L76.4506 32.8967H75.3347V33.3859H76.4506L75.6612 34.1604L74.8717 34.9348V33.8401H74.373V34.9348L73.5835 34.1604L72.7941 33.3859H73.91V32.8967H72.7941L73.5835 32.1223L74.373 31.3479V32.4426H74.8717ZM79.7293 32.4426V31.3479L80.5187 32.1223L81.3082 32.8967H80.1922V33.3859H81.3082L80.5187 34.1604L79.7293 34.9348V33.8401H79.2305V34.9348L78.4411 34.1604L77.6516 33.3859H78.7676V32.8967H77.6516L78.4411 32.1223L79.2305 31.3479V32.4426H79.7293ZM77.3005 30.0601V28.9653L78.09 29.7398L78.8794 30.5142H77.7634V31.0034H78.8794L78.09 31.7779L77.3005 32.5523V31.4575H76.8018V32.5523L76.0123 31.7779L75.2228 31.0034H76.3388V30.5142H75.2228L76.0123 29.7398L76.8018 28.9653V30.0601H77.3005ZM74.8717 27.6775V26.5828L75.6612 27.3572L76.4506 28.1317H75.3347V28.6209H76.4506L75.6612 29.3953L74.8717 30.1698V29.075H74.373V30.1698L73.5835 29.3953L72.7941 28.6209H73.91V28.1317H72.7941L73.5835 27.3572L74.373 26.5828V27.6775H74.8717ZM79.7293 27.6775V26.5828L80.5187 27.3572L81.3082 28.1317H80.1922V28.6209H81.3082L80.5187 29.3953L79.7293 30.1698V29.075H79.2305V30.1698L78.4411 29.3953L77.6516 28.6209H78.7676V28.1317H77.6516L78.4411 27.3572L79.2305 26.5828V27.6775H79.7293ZM77.3005 25.295V24.2003L78.09 24.9747L78.8794 25.7492H77.7634V26.2384H78.8794L78.09 27.0128L77.3005 27.7872V26.6925H76.8018V27.7872L76.0123 27.0128L75.2228 26.2384H76.3388V25.7492H75.2228L76.0123 24.9747L76.8018 24.2003V25.295H77.3005ZM74.8717 22.9125V21.8178L75.6612 22.5922L76.4506 23.3666H75.3347V23.8559H76.4506L75.6612 24.6303L74.8717 25.4047V24.31H74.373V25.4047L73.5835 24.6303L72.7941 23.8559H73.91V23.3666H72.7941L73.5835 22.5922L74.373 21.8178V22.9125H74.8717ZM79.7293 22.9125V21.8178L80.5187 22.5922L81.3082 23.3666H80.1922V23.8559H81.3082L80.5187 24.6303L79.7293 25.4047V24.31H79.2305V25.4047L78.4411 24.6303L77.6516 23.8559H78.7676V23.3666H77.6516L78.4411 22.5922L79.2305 21.8178V22.9125H79.7293ZM77.3005 20.53V19.4353L78.09 20.2097L78.8794 20.9841H77.7634V21.4733H78.8794L78.09 22.2478L77.3005 23.0222V21.9275H76.8018V23.0222L76.0123 22.2478L75.2228 21.4733H76.3388V20.9841H75.2228L76.0123 20.2097L76.8018 19.4353V20.53H77.3005ZM80.5075 17.8162L80.5187 17.8272L81.3082 18.6016H80.1922V19.0908H81.3082L80.5187 19.8653L79.7293 20.6397V19.545H79.2305V20.6397L78.4411 19.8653L77.6516 19.0908H78.7676V18.6016H77.6516L78.4411 17.8272L78.45 17.8162H77.7455L77.2982 18.255V17.8162H76.7995V18.255L76.3522 17.8162H75.6478L75.6589 17.8272L76.4484 18.6016H75.3324V19.0908H76.4484L75.6589 19.8653L74.8695 20.6397V19.545H74.3707V20.6397L73.5813 19.8653L72.7918 19.0908H73.9078V18.6016H72.7918L73.5813 17.8272L73.5925 17.8162H72.888L72.4988 18.1979V19.4923L73.2302 20.2097L74.0196 20.9841H72.9036V21.4733H74.0196L73.2302 22.2478L72.4988 22.9652V24.2595L73.2302 24.9769L74.0196 25.7514H72.9036V26.2406H74.0196L73.2302 27.015L72.4988 27.7324V29.0268L73.2302 29.7442L74.0196 30.5186H72.9036V31.0078H74.0196L73.2302 31.7822L72.4988 32.4996V33.794L73.2302 34.5114L74.0196 35.2858H72.9036V35.775H74.0196L73.2302 36.5495L72.4988 37.2669V38.5612L72.9439 38.9978H73.6506L73.5835 38.9342L72.7941 38.1598H73.91V37.6705H72.7941L73.5835 36.8961L74.373 36.1217V37.2164H74.8717V36.1217L75.6612 36.8961L76.4506 37.6705H75.3347V38.1598H76.4506L75.6612 38.9342L75.5941 38.9978H76.2986L76.8018 38.5042V38.9978H77.3005V38.5042L77.8037 38.9978H78.5082L78.4433 38.9342L77.6539 38.1598H78.7698V37.6705H77.6539L78.4433 36.8961L79.2328 36.1217V37.2164H79.7315V36.1217L80.521 36.8961L81.3104 37.6705H80.1944V38.1598H81.3104L80.521 38.9342L80.4539 38.9978H81.1584L81.6325 38.5327V37.2976L80.8721 36.5517L80.0826 35.7772H81.1986V35.288H80.0826L80.8721 34.5136L81.6325 33.7677V32.5325L80.8721 31.7866L80.0826 31.0122H81.1986V30.523H80.0826L80.8721 29.7485L81.6325 29.0004V27.7653L80.8721 27.0194L80.0826 26.245H81.1986V25.7557H80.0826L80.8721 24.9813L81.6325 24.2354V23.0003L80.8721 22.2544L80.0826 21.4799H81.1986V20.9907H80.0826L80.8721 20.2163L81.6325 19.4704V18.2352L81.212 17.825H80.5075V17.8162Z" fill="#272525"></path>
  <path d="M79.2305 17.8162V18.1475H79.7293V17.8162H79.2305Z" fill="#272525"></path>
  <path d="M74.373 38.6029V38.989H74.8717V38.6029H74.373Z" fill="#272525"></path>
  <path d="M74.373 17.8162V18.1475H74.8717V17.8162H74.373Z" fill="#272525"></path>
  <path d="M79.2305 38.6029V38.989H79.7293V38.6029H79.2305Z" fill="#272525"></path>
  <path d="M56.3316 34.8251V33.7304L57.121 34.5048L57.9105 35.2792H56.7945V35.7685H57.9105L57.121 36.5429L56.3316 37.3173V36.2226H55.8329V37.3173L55.0434 36.5429L54.2539 35.7685H55.3699V35.2792H54.2539L55.0434 34.5048L55.8329 33.7304V34.8251H56.3316ZM53.9028 32.4426V31.3479L54.6923 32.1223L55.4817 32.8967H54.3657V33.3859H55.4817L54.6923 34.1604L53.9028 34.9348V33.8401H53.4041V34.9348L52.6146 34.1604L51.8251 33.3859H52.9411V32.8967H51.8251L52.6146 32.1223L53.4041 31.3479V32.4426H53.9028ZM58.7604 32.4426V31.3479L59.5498 32.1223L60.3393 32.8967H59.2233V33.3859H60.3393L59.5498 34.1604L58.7604 34.9348V33.8401H58.2616V34.9348L57.4722 34.1604L56.6827 33.3859H57.7987V32.8967H56.6827L57.4722 32.1223L58.2616 31.3479V32.4426H58.7604ZM56.3316 30.0601V28.9653L57.121 29.7398L57.9105 30.5142H56.7945V31.0034H57.9105L57.121 31.7779L56.3316 32.5523V31.4575H55.8329V32.5523L55.0434 31.7779L54.2539 31.0034H55.3699V30.5142H54.2539L55.0434 29.7398L55.8329 28.9653V30.0601H56.3316ZM53.9028 27.6775V26.5828L54.6923 27.3572L55.4817 28.1317H54.3657V28.6209H55.4817L54.6923 29.3953L53.9028 30.1698V29.075H53.4041V30.1698L52.6146 29.3953L51.8251 28.6209H52.9411V28.1317H51.8251L52.6146 27.3572L53.4041 26.5828V27.6775H53.9028ZM58.7604 27.6775V26.5828L59.5498 27.3572L60.3393 28.1317H59.2233V28.6209H60.3393L59.5498 29.3953L58.7604 30.1698V29.075H58.2616V30.1698L57.4722 29.3953L56.6827 28.6209H57.7987V28.1317H56.6827L57.4722 27.3572L58.2616 26.5828V27.6775H58.7604ZM56.3316 25.295V24.2003L57.121 24.9747L57.9105 25.7492H56.7945V26.2384H57.9105L57.121 27.0128L56.3316 27.7872V26.6925H55.8329V27.7872L55.0434 27.0128L54.2539 26.2384H55.3699V25.7492H54.2539L55.0434 24.9747L55.8329 24.2003V25.295H56.3316ZM53.9028 22.9125V21.8178L54.6923 22.5922L55.4817 23.3666H54.3657V23.8559H55.4817L54.6923 24.6303L53.9028 25.4047V24.31H53.4041V25.4047L52.6146 24.6303L51.8251 23.8559H52.9411V23.3666H51.8251L52.6146 22.5922L53.4041 21.8178V22.9125H53.9028ZM58.7604 22.9125V21.8178L59.5498 22.5922L60.3393 23.3666H59.2233V23.8559H60.3393L59.5498 24.6303L58.7604 25.4047V24.31H58.2616V25.4047L57.4722 24.6303L56.6827 23.8559H57.7987V23.3666H56.6827L57.4722 22.5922L58.2616 21.8178V22.9125H58.7604ZM56.3316 20.53V19.4353L57.121 20.2097L57.9105 20.9841H56.7945V21.4733H57.9105L57.121 22.2478L56.3316 23.0222V21.9275H55.8329V23.0222L55.0434 22.2478L54.2539 21.4733H55.3699V20.9841H54.2539L55.0434 20.2097L55.8329 19.4353V20.53H56.3316ZM59.5386 17.8162L59.5498 17.8272L60.3393 18.6016H59.2233V19.0908H60.3393L59.5498 19.8653L58.7604 20.6397V19.545H58.2616V20.6397L57.4722 19.8653L56.6827 19.0908H57.7987V18.6016H56.6827L57.4722 17.8272L57.4833 17.8162H56.7789L56.3316 18.255V17.8162H55.8329V18.255L55.3856 17.8162H54.6811L54.6923 17.8272L55.4817 18.6016H54.3657V19.0908H55.4817L54.6923 19.8653L53.9028 20.6397V19.545H53.4041V20.6397L52.6146 19.8653L51.8251 19.0908H52.9411V18.6016H51.8251L52.6146 17.8272L52.6258 17.8162H51.9213L51.5322 18.1979V19.4923L52.2635 20.2097L53.053 20.9841H51.937V21.4733H53.053L52.2635 22.2478L51.5322 22.9652V24.2595L52.2635 24.9769L53.053 25.7513H51.937V26.2406H53.053L52.2635 27.015L51.5322 27.7324V29.0268L52.2635 29.7442L53.053 30.5186H51.937V31.0078H53.053L52.2635 31.7822L51.5322 32.4996V33.794L52.2635 34.5114L53.053 35.2858H51.937V35.775H53.053L52.2635 36.5495L51.5322 37.2669V38.5612L51.9772 38.9978H52.6817L52.6146 38.9342L51.8251 38.1598H52.9411V37.6705H51.8251L52.6146 36.8961L53.4041 36.1217V37.2164H53.9028V36.1217L54.6923 36.8961L55.4817 37.6705H54.3657V38.1598H55.4817L54.6923 38.9342L54.6252 38.9978H55.3297L55.8329 38.5042V38.9978H56.3316V38.5042L56.8348 38.9978H57.5393L57.4744 38.9342L56.6849 38.1598H57.8009V37.6705H56.6849L57.4744 36.8961L58.2639 36.1217V37.2164H58.7626V36.1217L59.5521 36.8961L60.3415 37.6705H59.2255V38.1598H60.3415L59.5521 38.9342L59.4872 38.9978H60.1917L60.6658 38.5327V37.2976L59.9054 36.5517L59.116 35.7772H60.2319V35.288H59.116L59.9054 34.5136L60.6658 33.7677V32.5325L59.9054 31.7866L59.116 31.0122H60.2319V30.523H59.116L59.9054 29.7485L60.6658 29.0004V27.7653L59.9054 27.0194L59.116 26.245H60.2319V25.7557H59.116L59.9054 24.9813L60.6658 24.2354V23.0003L59.9054 22.2544L59.116 21.4799H60.2319V20.9907H59.116L59.9054 20.2163L60.6658 19.4704V18.2352L60.2454 17.825H59.5409L59.5386 17.8162Z" fill="#272525"></path>
  <path d="M58.2616 17.8162V18.1475H58.7604V17.8162H58.2616Z" fill="#272525"></path>
  <path d="M53.4041 38.6029V38.989H53.9028V38.6029H53.4041Z" fill="#272525"></path>
  <path d="M53.4041 17.8162V18.1475H53.9028V17.8162H53.4041Z" fill="#272525"></path>
  <path d="M58.2616 38.6029V38.989H58.7604V38.6029H58.2616Z" fill="#272525"></path>
  <path d="M126.975 38.9912H118.002V17.7613H119.026C123.416 17.7613 126.975 21.2518 126.975 25.5583V38.9912Z" fill="#272525"></path>
  <path d="M112.423 34.8273V33.7326L113.213 34.507L114.002 35.2814H112.886V35.7707H114.002L113.213 36.5451L112.423 37.3195V36.2248H111.925V37.3195L111.135 36.5451L110.346 35.7707H111.462V35.2814H110.346L111.135 34.507L111.925 33.7326V34.8273H112.423ZM109.995 32.4448V31.3501L110.784 32.1245L111.574 32.8989H110.458V33.3881H111.574L110.784 34.1626L109.995 34.937V33.8423H109.496V34.937L108.706 34.1626L107.917 33.3881H109.033V32.8989H107.917L108.706 32.1245L109.496 31.3501V32.4448H109.995ZM114.852 32.4448V31.3501L115.642 32.1245L116.431 32.8989H115.315V33.3881H116.431L115.642 34.1626L114.852 34.937V33.8423H114.353V34.937L113.564 34.1626L112.775 33.3881H113.891V32.8989H112.775L113.564 32.1245L114.353 31.3501V32.4448H114.852ZM112.423 30.0623V28.9675L113.213 29.742L114.002 30.5164H112.886V31.0056H114.002L113.213 31.78L112.423 32.5545V31.4597H111.925V32.5545L111.135 31.78L110.346 31.0056H111.462V30.5164H110.346L111.135 29.742L111.925 28.9675V30.0623H112.423ZM109.995 27.6797V26.585L110.784 27.3594L111.574 28.1339H110.458V28.6231H111.574L110.784 29.3975L109.995 30.172V29.0772H109.496V30.172L108.706 29.3975L107.917 28.6231H109.033V28.1339H107.917L108.706 27.3594L109.496 26.585V27.6797H109.995ZM114.852 27.6797V26.585L115.642 27.3594L116.431 28.1339H115.315V28.6231H116.431L115.642 29.3975L114.852 30.172V29.0772H114.353V30.172L113.564 29.3975L112.775 28.6231H113.891V28.1339H112.775L113.564 27.3594L114.353 26.585V27.6797H114.852ZM112.423 25.2972V24.2025L113.213 24.9769L114.002 25.7513H112.886V26.2406H114.002L113.213 27.015L112.423 27.7894V26.6947H111.925V27.7894L111.135 27.015L110.346 26.2406H111.462V25.7513H110.346L111.135 24.9769L111.925 24.2025V25.2972H112.423ZM109.995 22.9147V21.82L110.784 22.5944L111.574 23.3688H110.458V23.8581H111.574L110.784 24.6325L109.995 25.4069V24.3122H109.496V25.4069L108.706 24.6325L107.917 23.8581H109.033V23.3688H107.917L108.706 22.5944L109.496 21.82V22.9147H109.995ZM114.852 22.9147V21.82L115.642 22.5944L116.431 23.3688H115.315V23.8581H116.431L115.642 24.6325L114.852 25.4069V24.3122H114.353V25.4069L113.564 24.6325L112.775 23.8581H113.891V23.3688H112.775L113.564 22.5944L114.353 21.82V22.9147H114.852ZM112.423 20.5322V19.4375L113.213 20.2119L114.002 20.9863H112.886V21.4755H114.002L113.213 22.25L112.423 23.0244V21.9297H111.925V23.0244L111.135 22.25L110.346 21.4755H111.462V20.9863H110.346L111.135 20.2119L111.925 19.4375V20.5322H112.423ZM115.63 17.8184L115.642 17.8294L116.431 18.6038H115.315V19.093H116.431L115.642 19.8674L114.852 20.6419V19.5471H114.353V20.6419L113.564 19.8674L112.775 19.093H113.891V18.6038H112.775L113.564 17.8294L113.575 17.8184H112.871L112.423 18.2572V17.8184H111.925V18.2572L111.477 17.8184H110.773L110.784 17.8294L111.574 18.6038H110.458V19.093H111.574L110.784 19.8674L109.995 20.6419V19.5471H109.496V20.6419L108.706 19.8674L107.917 19.093H109.033V18.6038H107.917L108.706 17.8294L108.718 17.8184H108.013L107.624 18.2001V19.4945L108.355 20.2119L109.145 20.9863H108.029V21.4755H109.145L108.355 22.25L107.624 22.9674V24.2617L108.355 24.9791L109.145 25.7535H108.029V26.2428H109.145L108.355 27.0172L107.624 27.7346V29.029L108.355 29.7463L109.145 30.5208H108.029V31.01H109.145L108.355 31.7844L107.624 32.5018V33.7962L108.355 34.5136L109.145 35.288H108.029V35.7772H109.145L108.355 36.5517L107.624 37.2691V38.5634L108.069 39H108.774L108.706 38.9364L107.917 38.162H109.033V37.6727H107.917L108.706 36.8983L109.496 36.1239V37.2186H109.995V36.1239L110.784 36.8983L111.574 37.6727H110.458V38.162H111.574L110.784 38.9364L110.719 39H111.424L111.927 38.5064V39H112.426V38.5064L112.929 39H113.633L113.568 38.9364L112.779 38.162H113.895V37.6727H112.779L113.568 36.8983L114.358 36.1239V37.2186H114.857V36.1239L115.646 36.8983L116.436 37.6727H115.32V38.162H116.436L115.646 38.9364L115.581 39H116.286L116.76 38.5349V37.2998L116 36.5539L115.21 35.7794H116.326V35.2902H115.21L116 34.5158L116.76 33.7699V32.5347L116 31.7888L115.21 31.0144H116.326V30.5252H115.21L116 29.7507L116.76 29.0048V27.7697L116 27.0238L115.21 26.2494H116.326V25.7601H115.21L116 24.9857L116.76 24.2376V23.0025L116 22.2565L115.21 21.4821H116.326V20.9929H115.21L116 20.2185L116.76 19.4726V18.2374L116.342 17.8272H115.637L115.63 17.8184Z" fill="#272525"></path>
  <path d="M114.354 17.8184V18.1497H114.852V17.8184H114.354Z" fill="#272525"></path>
  <path d="M109.496 38.6051V38.9912H109.995V38.6051H109.496Z" fill="#272525"></path>
  <path d="M109.496 17.8186V18.1499H109.995V17.8186H109.496Z" fill="#272525"></path>
  <path d="M114.354 38.6051V38.9912H114.852V38.6051H114.354Z" fill="#272525"></path>
</svg>
