<?xml version="1.0" encoding="UTF-8"?>
<svg xmlns="http://www.w3.org/2000/svg" width="355" height="60" viewBox="0 0 355 60" fill="none">
  <rect x="0.110718" y="0.000976562" width="354" height="60" fill="#90CEC7"></rect>
  <mask id="mask0_980_413" style="mask-type:alpha" maskUnits="userSpaceOnUse" x="0" y="0" width="355" height="61">
    <rect x="0.110718" y="0.000976562" width="354" height="60" fill="#90CEC7"></rect>
  </mask>
  <g mask="url(#mask0_980_413)">
    <path d="M386.47 50.306L377.901 42.1091H390.014V36.9211H377.901L386.47 28.7242L392.111 23.3288V5.17101L386.47 -0.224434L377.901 -8.42136H390.014V-13.6093H377.901L386.47 -21.8062L392.111 -27.2017V-45.3594L386.47 -50.7549L377.901 -58.9518H390.014V-64.1397H377.901L386.47 -72.3367L392.111 -77.7321V-95.8553L386.47 -101.251L378.371 -108.998H364.377L356.278 -101.251L347.708 -93.0538V-104.64H342.285V-93.0538L333.715 -101.251L325.616 -108.998H311.622L303.523 -101.251L294.953 -93.0538V-104.64H289.529V-93.0538L280.96 -101.251L272.86 -108.998H258.867L250.768 -101.251L242.198 -93.0538V-104.64H236.774V-93.0538L228.205 -101.251L220.105 -108.998H206.112L198.013 -101.251L189.443 -93.0538V-104.64H184.019V-93.0538L175.45 -101.251L167.35 -108.998H153.357L145.257 -101.251L136.688 -93.0538V-104.64H131.264V-93.0538L122.695 -101.251L114.595 -108.998H100.602L92.5023 -101.251L83.9328 -93.0538V-104.64H78.509V-93.0538L69.9395 -101.251L61.84 -108.998H47.8467L39.7473 -101.251L31.1777 -93.0538V-104.64H25.754V-93.0538L17.1844 -101.251L8.68719 -108.998H-5.3061L-13.4417 -101.251L-17.8892 -96.9966V-89.6644L-9.60895 -97.5846L-1.03941 -105.782V-94.1952H4.38435V-105.782L12.9539 -97.5846L21.5234 -89.3877H9.41036V-84.1997H21.5234L12.9539 -76.0028L4.38435 -67.8059V-79.3923H-1.03941V-67.8059L-9.60895 -76.0028L-17.8892 -83.923V-76.5908L-13.4417 -72.3367L-4.8722 -64.1397H-16.9853V-58.9518H-4.8722L-13.4417 -50.7549L-17.8892 -46.5008V-39.1685L-9.60895 -47.0887L-1.03941 -55.2857V-43.6993H4.38435V-55.2857L12.9539 -47.0887L21.5234 -38.8918H9.41036V-33.7039H21.5234L12.9539 -25.507L4.38435 -17.31V-28.8964H-1.03941V-17.31L-9.60895 -25.507L-17.8892 -33.4272V-26.0949L-13.4417 -21.8408L-4.8722 -13.6439H-16.9853V-8.45596H-4.8722L-13.4417 -0.259026L-17.8892 3.99507V11.3273L-9.60895 3.4071L-1.03941 -4.78982V6.79656H4.38435V-4.78982L12.9539 3.4071L21.5234 11.604H9.41036V16.792H21.5234L12.9539 24.9889L4.38435 33.1858V21.5994H-1.03941V33.1858L-9.60895 24.9889L-17.8892 17.0687V24.4009L-13.4417 28.655L-4.8722 36.852H-16.9853V42.0399H-4.8722L-13.4417 50.2368L-17.8892 54.4909V61.8232L-9.60895 53.903L-1.03941 45.706V57.2924H4.38435V45.706L12.9539 53.903L21.5234 62.0999H9.41036V67.2878H21.5234L12.9539 75.4848L4.38435 83.6817V72.0953H-1.03941V83.6817L-9.60895 75.4848L-17.8892 67.5645V74.8968L-13.4417 79.1509L-5.23378 87.002H8.57872L16.7867 79.1509L25.3562 70.954V82.5403H30.78V70.954L39.3495 79.1509L47.5575 87.002H61.37L69.5779 79.1509L78.1475 70.954V82.5403H83.5712V70.954L92.1408 79.1509L100.349 87.002H114.161L122.369 79.1509L130.939 70.954V82.5403H136.362V70.954L144.932 79.1509L153.14 87.002H166.952L175.16 79.1509L183.73 70.954V82.5403H189.154V70.954L197.723 79.1509L205.931 87.002H219.744L227.952 79.1509L236.521 70.954V82.5403H241.945V70.954L250.515 79.1509L258.723 87.002H272.535L280.743 79.1509L289.312 70.954V82.5403H294.736V70.954L303.306 79.1509L311.514 87.002H325.326L333.534 79.1509L342.104 70.954V82.5403H347.527V70.954L356.097 79.1509L364.305 87.002H378.117L386.325 79.1509L391.966 73.7554V55.5977L386.325 50.2022L386.47 50.306ZM382.637 3.44169L391.207 11.6386H379.094V16.8266H391.207L382.637 25.0235L374.068 33.2204V21.634H368.644V33.2204L360.074 25.0235L351.505 16.8266H363.618V11.6386H351.505L360.074 3.44169L368.644 -4.75523V6.83115H374.068V-4.75523L382.637 3.44169ZM342.248 -3.61389V7.97249L333.679 -0.224434L325.109 -8.42136H337.222V-13.6093H325.109L333.679 -21.8062L342.248 -30.0032V-18.4168H347.672V-30.0032L356.242 -21.8062L364.811 -13.6093H352.698V-8.42136H364.811L356.242 -0.224434L347.672 7.97249V-3.61389H342.248ZM338.416 16.8266L329.846 25.0235L321.277 33.2204V21.634H315.853V33.2204L307.283 25.0235L298.714 16.8266H310.827V11.6386H298.714L307.283 3.44169L315.853 -4.75523V6.83115H321.277V-4.75523L329.846 3.44169L338.416 11.6386H326.303V16.8266H338.416ZM289.421 -3.61389V7.97249L280.851 -0.224434L272.282 -8.42136H284.395V-13.6093H272.282L280.851 -21.8062L289.421 -30.0032V-18.4168H294.845V-30.0032L303.414 -21.8062L311.984 -13.6093H299.871V-8.42136H311.984L303.414 -0.224434L294.845 7.97249V-3.61389H289.421ZM273.475 16.8266H285.588L277.019 25.0235L268.449 33.2204V21.634H263.025V33.2204L254.456 25.0235L245.886 16.8266H257.999V11.6386H245.886L254.456 3.44169L263.025 -4.75523V6.83115H268.449V-4.75523L277.019 3.44169L285.588 11.6386H273.475V16.8266ZM236.63 -3.61389V7.97249L228.06 -0.224434L219.491 -8.42136H231.604V-13.6093H219.491L228.06 -21.8062L236.63 -30.0032V-18.4168H242.053V-30.0032L250.623 -21.8062L259.193 -13.6093H247.079V-8.42136H259.193L250.623 -0.224434L242.053 7.97249V-3.61389H236.63ZM210.198 21.634V33.2204L201.628 25.0235L193.059 16.8266H205.172V11.6386H193.059L201.628 3.44169L210.198 -4.75523V6.83115H215.622V-4.75523L224.191 3.44169L232.761 11.6386H220.648V16.8266H232.761L224.191 25.0235L215.622 33.2204V21.634H210.198ZM183.802 -3.61389V7.97249L175.233 -0.224434L166.663 -8.42136H178.776V-13.6093H166.663L175.233 -21.8062L183.802 -30.0032V-18.4168H189.226V-30.0032L197.796 -21.8062L206.365 -13.6093H194.252V-8.42136H206.365L197.796 -0.224434L189.226 7.97249V-3.61389H183.802ZM167.856 16.8266H179.97L171.4 25.0235L162.83 33.2204V21.634H157.407V33.2204L148.837 25.0235L140.268 16.8266H152.381V11.6386H140.268L148.837 3.44169L157.407 -4.75523V6.83115H162.83V-4.75523L171.4 3.44169L179.97 11.6386H167.856V16.8266ZM78.1836 -3.61389V7.97249L69.6141 -0.224434L61.0445 -8.42136H73.1576V-13.6093H61.0445L69.6141 -21.8062L78.1836 -30.0032V-18.4168H83.6074V-30.0032L92.1769 -21.8062L100.746 -13.6093H88.6334V-8.42136H100.746L92.1769 -0.224434L83.6074 7.97249V-3.61389H78.1836ZM74.3508 16.8266L65.7813 25.0235L57.2118 33.2204V21.634H51.788V33.2204L43.2185 25.0235L34.6489 16.8266H46.762V11.6386H34.6489L43.2185 3.44169L51.788 -4.75523V6.83115H57.2118V-4.75523L65.7813 3.44169L74.3508 11.6386H62.2378V16.8266H74.3508ZM46.762 -38.8572H34.6489L43.2185 -47.0542L51.788 -55.2511V-43.6647H57.2118V-55.2511L65.7813 -47.0542L74.3508 -38.8572H62.2378V-33.6693H74.3508L65.7813 -25.4724L57.2118 -17.2754V-28.8618H51.788V-17.2754L43.2185 -25.4724L34.6489 -33.6693H46.762V-38.8572ZM99.5532 -38.8572H87.4402L96.0097 -47.0542L104.579 -55.2511V-43.6647H110.003V-55.2511L118.573 -47.0542L127.142 -38.8572H115.029V-33.6693H127.142L118.573 -25.4724L110.003 -17.2754V-28.8618H104.579V-17.2754L96.0097 -25.4724L87.4402 -33.6693H99.5532V-38.8572ZM99.5532 11.6732H87.4402L96.0097 3.47628L104.579 -4.72064V6.86573H110.003V-4.72064L118.573 3.47628L127.142 11.6732H115.029V16.8611H127.142L118.573 25.0581L110.003 33.255V21.6686H104.579V33.255L96.0097 25.0581L87.4402 16.8611H99.5532V11.6732ZM122.405 -0.224434L113.836 -8.42136H125.949V-13.6093H113.836L122.405 -21.8062L130.975 -30.0032V-18.4168H136.399V-30.0032L144.968 -21.8062L153.538 -13.6093H141.425V-8.42136H153.538L144.968 -0.224434L136.399 7.97249V-3.61389H130.975V7.97249L122.405 -0.224434ZM162.83 -43.6647V-55.2511L171.4 -47.0542L179.97 -38.8572H167.856V-33.6693H179.97L171.4 -25.4724L162.83 -17.2754V-28.8618H157.407V-17.2754L148.837 -25.4724L140.268 -33.6693H152.381V-38.8572H140.268L148.837 -47.0542L157.407 -55.2511V-43.6647H162.83ZM215.622 -43.6647V-55.2511L224.191 -47.0542L232.761 -38.8572H220.648V-33.6693H232.761L224.191 -25.4724L215.622 -17.2754V-28.8618H210.198V-17.2754L201.628 -25.4724L193.059 -33.6693H205.172V-38.8572H193.059L201.628 -47.0542L210.198 -55.2511V-43.6647H215.622ZM285.588 -33.6693L277.019 -25.4724L268.449 -17.2754V-28.8618H263.025V-17.2754L254.456 -25.4724L245.886 -33.6693H257.999V-38.8572H245.886L254.456 -47.0542L263.025 -55.2511V-43.6647H268.449V-55.2511L277.019 -47.0542L285.588 -38.8572H273.475V-33.6693H285.588ZM298.678 -38.8572L307.247 -47.0542L315.817 -55.2511V-43.6647H321.24V-55.2511L329.81 -47.0542L338.379 -38.8572H326.266V-33.6693H338.379L329.81 -25.4724L321.24 -17.2754V-28.8618H315.817V-17.2754L307.247 -25.4724L298.678 -33.6693H310.791V-38.8572H298.678ZM382.637 -47.0542L391.207 -38.8572H379.094V-33.6693H391.207L382.637 -25.4724L374.068 -17.2754V-28.8618H368.644V-17.2754L360.074 -25.4724L351.505 -33.6693H363.618V-38.8572H351.505L360.074 -47.0542L368.644 -55.2511V-43.6647H374.068V-55.2511L382.637 -47.0542ZM363.618 -89.3531H351.505L360.074 -97.55L368.644 -105.747V-94.1606H374.068V-105.782L382.637 -97.5846L391.207 -89.3877H379.094V-84.1997H391.207L382.637 -76.0028L374.068 -67.8059V-79.3923H368.644V-67.8059L360.074 -76.0028L351.505 -84.1997H363.618V-89.3877V-89.3531ZM347.672 -68.9126V-80.499L356.242 -72.3021L364.811 -64.1052H352.698V-58.9172H364.811L356.242 -50.7203L347.672 -42.5234V-54.1097H342.248V-42.5234L333.679 -50.7203L325.109 -58.9172H337.222V-64.1052H325.109L333.679 -72.3021L342.248 -80.499V-68.9126H347.672ZM298.678 -89.3531L307.247 -97.55L315.817 -105.747V-94.1606H321.24V-105.782L329.81 -97.5846L338.379 -89.3877H326.266V-84.1997H338.379L329.81 -76.0028L321.24 -67.8059V-79.3923H315.817V-67.8059L307.247 -76.0028L298.678 -84.1997H310.791V-89.3877H298.678V-89.3531ZM289.421 -68.9126H294.845V-80.499L303.414 -72.3021L311.984 -64.1052H299.871V-58.9172H311.984L303.414 -50.7203L294.845 -42.5234V-54.1097H289.421V-42.5234L280.851 -50.7203L272.282 -58.9172H284.395V-64.1052H272.282L280.851 -72.3021L289.421 -80.499V-68.9126ZM254.456 -97.5846L263.025 -105.782V-94.1952H268.449V-105.782L277.019 -97.5846L285.588 -89.3877H273.475V-84.1997H285.588L277.019 -76.0028L268.449 -67.8059V-79.3923H263.025V-67.8059L254.456 -76.0028L245.886 -84.1997H257.999V-89.3877H245.886L254.456 -97.5846ZM242.053 -68.9126V-80.499L250.623 -72.3021L259.193 -64.1052H247.079V-58.9172H259.193L250.623 -50.7203L242.053 -42.5234V-54.1097H236.63V-42.5234L228.06 -50.7203L219.491 -58.9172H231.604V-64.1052H219.491L228.06 -72.3021L236.63 -80.499V-68.9126H242.053ZM201.628 -97.5846L210.198 -105.782V-94.1952H215.622V-105.782L224.191 -97.5846L232.761 -89.3877H220.648V-84.1997H232.761L224.191 -76.0028L215.622 -67.8059V-79.3923H210.198V-67.8059L201.628 -76.0028L193.059 -84.1997H205.172V-89.3877H193.059L201.628 -97.5846ZM183.802 -68.9126H189.226V-80.499L197.796 -72.3021L206.365 -64.1052H194.252V-58.9172H206.365L197.796 -50.7203L189.226 -42.5234V-54.1097H183.802V-42.5234L175.233 -50.7203L166.663 -58.9172H178.776V-64.1052H166.663L175.233 -72.3021L183.802 -80.499V-68.9126ZM152.381 -89.3531H140.268L148.837 -97.55L157.407 -105.747V-94.1606H162.83V-105.782L171.4 -97.5846L179.97 -89.3877H167.856V-84.1997H179.97L171.4 -76.0028L162.83 -67.8059V-79.3923H157.407V-67.8059L148.837 -76.0028L140.268 -84.1997H152.381V-89.3877V-89.3531ZM136.435 -68.9126V-80.499L145.004 -72.3021L153.574 -64.1052H141.461V-58.9172H153.574L145.004 -50.7203L136.435 -42.5234V-54.1097H131.011V-42.5234L122.441 -50.7203L113.872 -58.9172H125.985V-64.1052H113.872L122.441 -72.3021L131.011 -80.499V-68.9126H136.435ZM96.0097 -97.5846L104.579 -105.782V-94.1952H110.003V-105.782L118.573 -97.5846L127.142 -89.3877H115.029V-84.1997H127.142L118.573 -76.0028L110.003 -67.8059V-79.3923H104.579V-67.8059L96.0097 -76.0028L87.4402 -84.1997H99.5532V-89.3877H87.4402L96.0097 -97.5846ZM83.6074 -68.9126V-80.499L92.1769 -72.3021L100.746 -64.1052H88.6334V-58.9172H100.746L92.1769 -50.7203L83.6074 -42.5234V-54.1097H78.1836V-42.5234L69.6141 -50.7203L61.0445 -58.9172H73.1576V-64.1052H61.0445L69.6141 -72.3021L78.1836 -80.499V-68.9126H83.6074ZM46.762 -89.3531H34.6489L43.2185 -97.55L51.788 -105.747V-94.1606H57.2118V-105.782L65.7813 -97.5846L74.3508 -89.3877H62.2378V-84.1997H74.3508L65.7813 -76.0028L57.2118 -67.8059V-79.3923H51.788V-67.8059L43.2185 -76.0028L34.6489 -84.1997H46.762V-89.3877V-89.3531ZM16.8228 -50.7203L8.2533 -58.9172H20.3664V-64.1052H8.2533L16.8228 -72.3021L25.3924 -80.499V-68.9126H30.8161V-80.499L39.3857 -72.3021L47.9552 -64.1052H35.8421V-58.9172H47.9552L39.3857 -50.7203L30.8161 -42.5234V-54.1097H25.3924V-42.5234L16.8228 -50.7203ZM16.8228 -0.224434L8.2533 -8.42136H20.3664V-13.6093H8.2533L16.8228 -21.8062L25.3924 -30.0032V-18.4168H30.8161V-30.0032L39.3857 -21.8062L47.9552 -13.6093H35.8421V-8.42136H47.9552L39.3857 -0.224434L30.8161 7.97249V-3.61389H25.3924V7.97249L16.8228 -0.224434ZM30.8161 58.5029V46.9166H25.3924V58.5029L16.8228 50.306L8.2533 42.1091H20.3664V36.9211H8.2533L16.8228 28.7242L25.3924 20.5273V32.1136H30.8161V20.5273L39.3857 28.7242L47.9552 36.9211H35.8421V42.1091H47.9552L39.3857 50.306L30.8161 58.5029ZM74.3508 67.357L65.7813 75.5539L57.2118 83.7509V72.1645H51.788V83.7509L43.2185 75.5539L34.6489 67.357H46.762V62.1691H34.6489L43.2185 53.9721L51.788 45.7752V57.3616H57.2118V45.7752L65.7813 53.9721L74.3508 62.1691H62.2378V67.357H74.3508ZM83.6074 46.9166H78.1836V58.5029L69.6141 50.306L61.0445 42.1091H73.1576V36.9211H61.0445L69.6141 28.7242L78.1836 20.5273V32.1136H83.6074V20.5273L92.1769 28.7242L100.746 36.9211H88.6334V42.1091H100.746L92.1769 50.306L83.6074 58.5029V46.9166ZM127.178 67.357L118.609 75.5539L110.039 83.7509V72.1645H104.615V83.7509L96.0459 75.5539L87.4763 67.357H99.5894V62.1691H87.4763L96.0459 53.9721L104.615 45.7752V57.3616H110.039V45.7752L118.609 53.9721L127.178 62.1691H115.065V67.357H127.178ZM136.435 46.9166H131.011V58.5029L122.441 50.306L113.872 42.1091H125.985V36.9211H113.872L122.441 28.7242L131.011 20.5273V32.1136H136.435V20.5273L145.004 28.7242L153.574 36.9211H141.461V42.1091H153.574L145.004 50.306L136.435 58.5029V46.9166ZM171.4 75.5539L162.83 83.7509V72.1645H157.407V83.7509L148.837 75.5539L140.268 67.357H152.381V62.1691H140.268L148.837 53.9721L157.407 45.7752V57.3616H162.83V45.7752L171.4 53.9721L179.97 62.1691H167.856V67.357H179.97L171.4 75.5539ZM189.226 46.9166H183.802V58.5029L175.233 50.306L166.663 42.1091H178.776V36.9211H166.663L175.233 28.7242L183.802 20.5273V32.1136H189.226V20.5273L197.796 28.7242L206.365 36.9211H194.252V42.1091H206.365L197.796 50.306L189.226 58.5029V46.9166ZM220.648 67.357H232.761L224.191 75.5539L215.622 83.7509V72.1645H210.198V83.7509L201.628 75.5539L193.059 67.357H205.172V62.1691H193.059L201.628 53.9721L210.198 45.7752V57.3616H215.622V45.7752L224.191 53.9721L232.761 62.1691H220.648V67.357ZM236.63 46.9166V58.5029L228.06 50.306L219.491 42.1091H231.604V36.9211H219.491L228.06 28.7242L236.63 20.5273V32.1136H242.053V20.5273L250.623 28.7242L259.193 36.9211H247.079V42.1091H259.193L250.623 50.306L242.053 58.5029V46.9166H236.63ZM277.019 75.5539L268.449 83.7509V72.1645H263.025V83.7509L254.456 75.5539L245.886 67.357H257.999V62.1691H245.886L254.456 53.9721L263.025 45.7752V57.3616H268.449V45.7752L277.019 53.9721L285.588 62.1691H273.475V67.357H285.588L277.019 75.5539ZM289.421 46.9166V58.5029L280.851 50.306L272.282 42.1091H284.395V36.9211H272.282L280.851 28.7242L289.421 20.5273V32.1136H294.845V20.5273L303.414 28.7242L311.984 36.9211H299.871V42.1091H311.984L303.414 50.306L294.845 58.5029V46.9166H289.421ZM326.266 67.357H338.379L329.81 75.5539L321.24 83.7509V72.1645H315.817V83.7509L307.247 75.5539L298.678 67.357H310.791V62.1691H298.678L307.247 53.9721L315.817 45.7752V57.3616H321.24V45.7752L329.81 53.9721L338.379 62.1691H326.266V67.357ZM347.672 58.5029V46.9166H342.248V58.5029L333.679 50.306L325.109 42.1091H337.222V36.9211H325.109L333.679 28.7242L342.248 20.5273V32.1136H347.672V20.5273L356.242 28.7242L364.811 36.9211H352.698V42.1091H364.811L356.242 50.306L347.672 58.5029ZM382.637 75.5539L374.068 83.7509V72.1645H368.644V83.7509L360.074 75.5539L351.505 67.357H363.618V62.1691H351.505L360.074 53.9721L368.644 45.7752V57.3616H374.068V45.7752L382.637 53.9721L391.207 62.1691H379.094V67.357H391.207L382.637 75.5539Z" fill="#8085B4"></path>
  </g>
</svg>
