<?xml version="1.0" encoding="UTF-8"?>
<svg xmlns="http://www.w3.org/2000/svg" width="206" height="125" viewBox="0 0 206 125" fill="none">
  <g clip-path="url(#clip0_854_403)">
    <mask id="mask0_854_403" style="mask-type:luminance" maskUnits="userSpaceOnUse" x="0" y="0" width="206" height="125">
      <path d="M206 0H0V125H206V0Z" fill="white"></path>
    </mask>
    <g mask="url(#mask0_854_403)">
      <path d="M232.262 101.772L226.703 96.536H234.56V93.221H226.703L232.262 87.985L235.92 84.538V72.938L232.262 69.491L226.703 64.254H234.56V60.94H226.703L232.262 55.703L235.92 52.256V40.656L232.262 37.209L226.703 31.973H234.56V28.658H226.703L232.262 23.422L235.92 19.975V8.397L232.262 4.95L227.008 0H217.932L212.679 4.95L207.121 10.186V2.785H203.603V10.186L198.045 4.95L192.792 0H183.716L178.463 4.95L172.905 10.186V2.785H169.387V10.186L163.829 4.95L158.576 0H149.5L144.247 4.95L138.689 10.186V2.785H135.171V10.186L129.613 4.95L124.36 0H115.284L110.031 4.95L104.473 10.186V2.785H100.955V10.186L95.3968 4.95L90.1436 0H81.0677L75.8145 4.95L70.2564 10.186V2.785H66.7387V10.186L61.1806 4.95L55.9274 0H46.852L41.598 4.95L36.04 10.186V2.785H32.522V10.186L26.964 4.95L21.711 0H12.635L7.382 4.95L1.82401 10.186V2.785H-1.694V10.186L-7.252 4.95L-12.763 0H-21.839L-27.115 4.95L-30 7.668V12.352L-24.63 7.29199L-19.071 2.05499V9.457H-15.554V2.05499L-9.996 7.29199L-4.43799 12.529H-12.294V15.843H-4.43799L-9.996 21.08L-15.554 26.316V18.914H-19.071V26.316L-24.63 21.08L-30 16.02V20.704L-27.115 23.422L-21.557 28.658H-29.414V31.973H-21.557L-27.115 37.209L-30 39.927V44.611L-24.63 39.551L-19.071 34.315V41.717H-15.554V34.315L-9.996 39.551L-4.43799 44.788H-12.294V48.102H-4.43799L-9.996 53.339L-15.554 58.576V51.174H-19.071V58.576L-24.63 53.339L-30 48.279V52.963L-27.115 55.681L-21.557 60.918H-29.414V64.232H-21.557L-27.115 69.469L-30 72.186V76.871L-24.63 71.811L-19.071 66.574V73.976H-15.554V66.574L-9.996 71.811L-4.43799 77.047H-12.294V80.362H-4.43799L-9.996 85.598L-15.554 90.835V83.433H-19.071V90.835L-24.63 85.598L-30 80.538V85.223L-27.115 87.94L-21.557 93.177H-29.414V96.491H-21.557L-27.115 101.728L-30 104.446V109.13L-24.63 104.07L-19.071 98.833V106.235H-15.554V98.833L-9.996 104.07L-4.43799 109.307H-12.294V112.621H-4.43799L-9.996 117.858L-15.554 123.094V115.692H-19.071V123.094L-24.63 117.858L-30 112.798V117.482L-27.115 120.2L-21.792 125.215H-12.833L-7.50999 120.2L-1.952 114.963V122.365H1.56601V114.963L7.12401 120.2L12.448 125.215H21.406L26.73 120.2L32.288 114.963V122.365H35.806V114.963L41.364 120.2L46.687 125.215H55.646L60.9695 120.2L66.5276 114.963V122.365H70.0454V114.963L75.6035 120.2L80.927 125.215H89.8856L95.2092 120.2L100.767 114.963V122.365H104.285V114.963L109.843 120.2L115.167 125.215H124.125L129.449 120.2L135.007 114.963V122.365H138.525V114.963L144.083 120.2L149.406 125.215H158.365L163.688 120.2L169.247 114.963V122.365H172.764V114.963L178.322 120.2L183.646 125.215H192.605L197.928 120.2L203.486 114.963V122.365H207.004V114.963L212.562 120.2L217.885 125.215H226.844L232.168 120.2L235.826 116.753V105.153L232.168 101.706L232.262 101.772ZM229.776 71.833L235.334 77.069H227.477V80.384H235.334L229.776 85.62L224.218 90.857V83.455H220.7V90.857L215.142 85.62L209.584 80.384H217.44V77.069H209.584L215.142 71.833L220.7 66.596V73.998H224.218V66.596L229.776 71.833ZM203.58 67.325V74.727L198.022 69.491L192.464 64.254H200.32V60.94H192.464L198.022 55.703L203.58 50.466V57.868H207.098V50.466L212.656 55.703L218.214 60.94H210.358V64.254H218.214L212.656 69.491L207.098 74.727V67.325H203.58ZM201.094 80.384L195.536 85.62L189.978 90.857V83.455H186.46V90.857L180.902 85.62L175.344 80.384H183.2V77.069H175.344L180.902 71.833L186.46 66.596V73.998H189.978V66.596L195.536 71.833L201.094 77.069H193.238V80.384H201.094ZM169.317 67.325V74.727L163.759 69.491L158.201 64.254H166.057V60.94H158.201L163.759 55.703L169.317 50.466V57.868H172.835V50.466L178.393 55.703L183.951 60.94H176.094V64.254H183.951L178.393 69.491L172.835 74.727V67.325H169.317ZM158.975 80.384H166.831L161.273 85.62L155.715 90.857V83.455H152.197V90.857L146.639 85.62L141.081 80.384H148.937V77.069H141.081L146.639 71.833L152.197 66.596V73.998H155.715V66.596L161.273 71.833L166.831 77.069H158.975V80.384ZM135.077 67.325V74.727L129.519 69.491L123.961 64.254H131.817V60.94H123.961L129.519 55.703L135.077 50.466V57.868H138.595V50.466L144.153 55.703L149.711 60.94H141.855V64.254H149.711L144.153 69.491L138.595 74.727V67.325H135.077ZM117.934 83.455V90.857L112.376 85.62L106.818 80.384H114.674V77.069H106.818L112.376 71.833L117.934 66.596V73.998H121.452V66.596L127.01 71.833L132.568 77.069H124.712V80.384H132.568L127.01 85.62L121.452 90.857V83.455H117.934ZM100.814 67.325V74.727L95.2561 69.491L89.698 64.254H97.5543V60.94H89.698L95.2561 55.703L100.814 50.466V57.868H104.332V50.466L109.89 55.703L115.448 60.94H107.592V64.254H115.448L109.89 69.491L104.332 74.727V67.325H100.814ZM90.4719 80.384H98.3283L92.7702 85.62L87.2121 90.857V83.455H83.6943V90.857L78.1363 85.62L72.5782 80.384H80.4345V77.069H72.5782L78.1363 71.833L83.6943 66.596V73.998H87.2121V66.596L92.7702 71.833L98.3283 77.069H90.4719V80.384ZM32.311 67.325V74.727L26.753 69.491L21.195 64.254H29.052V60.94H21.195L26.753 55.703L32.311 50.466V57.868H35.829V50.466L41.387 55.703L46.945 60.94H39.089V64.254H46.945L41.387 69.491L35.829 74.727V67.325H32.311ZM29.826 80.384L24.267 85.62L18.709 90.857V83.455H15.192V90.857L9.634 85.62L4.075 80.384H11.932V77.069H4.075L9.634 71.833L15.192 66.596V73.998H18.709V66.596L24.267 71.833L29.826 77.069H21.969V80.384H29.826ZM11.932 44.81H4.075L9.634 39.573L15.192 34.337V41.739H18.709V34.337L24.267 39.573L29.826 44.81H21.969V48.124H29.826L24.267 53.361L18.709 58.598V51.196H15.192V58.598L9.634 53.361L4.075 48.124H11.932V44.81ZM46.171 44.81H38.315L43.873 39.573L49.431 34.337V41.739H52.949V34.337L58.5071 39.573L64.0652 44.81H56.2088V48.124H64.0652L58.5071 53.361L52.949 58.598V51.196H49.431V58.598L43.873 53.361L38.315 48.124H46.171V44.81ZM46.171 77.092H38.315L43.873 71.855L49.431 66.618V74.02H52.949V66.618L58.5071 71.855L64.0652 77.092H56.2088V80.406H64.0652L58.5071 85.642L52.949 90.879V83.477H49.431V90.879L43.873 85.642L38.315 80.406H46.171V77.092ZM60.993 69.491L55.4349 64.254H63.2913V60.94H55.4349L60.993 55.703L66.5511 50.466V57.868H70.0688V50.466L75.6269 55.703L81.185 60.94H73.3286V64.254H81.185L75.6269 69.491L70.0688 74.727V67.325H66.5511V74.727L60.993 69.491ZM87.2121 41.739V34.337L92.7702 39.573L98.3283 44.81H90.4719V48.124H98.3283L92.7702 53.361L87.2121 58.598V51.196H83.6943V58.598L78.1363 53.361L72.5782 48.124H80.4345V44.81H72.5782L78.1363 39.573L83.6943 34.337V41.739H87.2121ZM121.452 41.739V34.337L127.01 39.573L132.568 44.81H124.712V48.124H132.568L127.01 53.361L121.452 58.598V51.196H117.934V58.598L112.376 53.361L106.818 48.124H114.674V44.81H106.818L112.376 39.573L117.934 34.337V41.739H121.452ZM166.831 48.124L161.273 53.361L155.715 58.598V51.196H152.197V58.598L146.639 53.361L141.081 48.124H148.937V44.81H141.081L146.639 39.573L152.197 34.337V41.739H155.715V34.337L161.273 39.573L166.831 44.81H158.975V48.124H166.831ZM175.321 44.81L180.879 39.573L186.437 34.337V41.739H189.954V34.337L195.513 39.573L201.071 44.81H193.214V48.124H201.071L195.513 53.361L189.954 58.598V51.196H186.437V58.598L180.879 53.361L175.321 48.124H183.177V44.81H175.321ZM229.776 39.573L235.334 44.81H227.477V48.124H235.334L229.776 53.361L224.218 58.598V51.196H220.7V58.598L215.142 53.361L209.584 48.124H217.44V44.81H209.584L215.142 39.573L220.7 34.337V41.739H224.218V34.337L229.776 39.573ZM217.44 12.551H209.584L215.142 7.314L220.7 2.077V9.479H224.218V2.05499L229.776 7.29199L235.334 12.529H227.477V15.843H235.334L229.776 21.08L224.218 26.316V18.914H220.7V26.316L215.142 21.08L209.584 15.843H217.44V12.529V12.551ZM207.098 25.609V18.207L212.656 23.444L218.214 28.68H210.358V31.995H218.214L212.656 37.231L207.098 42.468V35.066H203.58V42.468L198.022 37.231L192.464 31.995H200.32V28.68H192.464L198.022 23.444L203.58 18.207V25.609H207.098ZM175.321 12.551L180.879 7.314L186.437 2.077V9.479H189.954V2.05499L195.513 7.29199L201.071 12.529H193.214V15.843H201.071L195.513 21.08L189.954 26.316V18.914H186.437V26.316L180.879 21.08L175.321 15.843H183.177V12.529H175.321V12.551ZM169.317 25.609H172.835V18.207L178.393 23.444L183.951 28.68H176.094V31.995H183.951L178.393 37.231L172.835 42.468V35.066H169.317V42.468L163.759 37.231L158.201 31.995H166.057V28.68H158.201L163.759 23.444L169.317 18.207V25.609ZM146.639 7.29199L152.197 2.05499V9.457H155.715V2.05499L161.273 7.29199L166.831 12.529H158.975V15.843H166.831L161.273 21.08L155.715 26.316V18.914H152.197V26.316L146.639 21.08L141.081 15.843H148.937V12.529H141.081L146.639 7.29199ZM138.595 25.609V18.207L144.153 23.444L149.711 28.68H141.855V31.995H149.711L144.153 37.231L138.595 42.468V35.066H135.077V42.468L129.519 37.231L123.961 31.995H131.817V28.68H123.961L129.519 23.444L135.077 18.207V25.609H138.595ZM112.376 7.29199L117.934 2.05499V9.457H121.452V2.05499L127.01 7.29199L132.568 12.529H124.712V15.843H132.568L127.01 21.08L121.452 26.316V18.914H117.934V26.316L112.376 21.08L106.818 15.843H114.674V12.529H106.818L112.376 7.29199ZM100.814 25.609H104.332V18.207L109.89 23.444L115.448 28.68H107.592V31.995H115.448L109.89 37.231L104.332 42.468V35.066H100.814V42.468L95.2561 37.231L89.698 31.995H97.5543V28.68H89.698L95.2561 23.444L100.814 18.207V25.609ZM80.4345 12.551H72.5782L78.1363 7.314L83.6943 2.077V9.479H87.2121V2.05499L92.7702 7.29199L98.3283 12.529H90.4719V15.843H98.3283L92.7702 21.08L87.2121 26.316V18.914H83.6943V26.316L78.1363 21.08L72.5782 15.843H80.4345V12.529V12.551ZM70.0923 25.609V18.207L75.6504 23.444L81.2084 28.68H73.3521V31.995H81.2084L75.6504 37.231L70.0923 42.468V35.066H66.5745V42.468L61.0164 37.231L55.4584 31.995H63.3147V28.68H55.4584L61.0164 23.444L66.5745 18.207V25.609H70.0923ZM43.873 7.29199L49.431 2.05499V9.457H52.949V2.05499L58.5071 7.29199L64.0652 12.529H56.2088V15.843H64.0652L58.5071 21.08L52.949 26.316V18.914H49.431V26.316L43.873 21.08L38.315 15.843H46.171V12.529H38.315L43.873 7.29199ZM35.829 25.609V18.207L41.387 23.444L46.945 28.68H39.089V31.995H46.945L41.387 37.231L35.829 42.468V35.066H32.311V42.468L26.753 37.231L21.195 31.995H29.052V28.68H21.195L26.753 23.444L32.311 18.207V25.609H35.829ZM11.932 12.551H4.075L9.634 7.314L15.192 2.077V9.479H18.709V2.05499L24.267 7.29199L29.826 12.529H21.969V15.843H29.826L24.267 21.08L18.709 26.316V18.914H15.192V26.316L9.634 21.08L4.075 15.843H11.932V12.529V12.551ZM-7.48599 37.231L-13.044 31.995H-5.18799V28.68H-13.044L-7.48599 23.444L-1.92799 18.207V25.609H1.59001V18.207L7.14801 23.444L12.706 28.68H4.849V31.995H12.706L7.14801 37.231L1.59001 42.468V35.066H-1.92799V42.468L-7.48599 37.231ZM-7.48599 69.491L-13.044 64.254H-5.18799V60.94H-13.044L-7.48599 55.703L-1.92799 50.466V57.868H1.59001V50.466L7.14801 55.703L12.706 60.94H4.849V64.254H12.706L7.14801 69.491L1.59001 74.727V67.325H-1.92799V74.727L-7.48599 69.491ZM1.59001 107.009V99.607H-1.92799V107.009L-7.48599 101.772L-13.044 96.536H-5.18799V93.221H-13.044L-7.48599 87.985L-1.92799 82.748V90.15H1.59001V82.748L7.14801 87.985L12.706 93.221H4.849V96.536H12.706L7.14801 101.772L1.59001 107.009ZM29.826 112.665L24.267 117.902L18.709 123.138V115.736H15.192V123.138L9.634 117.902L4.075 112.665H11.932V109.351H4.075L9.634 104.114L15.192 98.878V106.28H18.709V98.878L24.267 104.114L29.826 109.351H21.969V112.665H29.826ZM35.829 99.607H32.311V107.009L26.753 101.772L21.195 96.536H29.052V93.221H21.195L26.753 87.985L32.311 82.748V90.15H35.829V82.748L41.387 87.985L46.945 93.221H39.089V96.536H46.945L41.387 101.772L35.829 107.009V99.607ZM64.0886 112.665L58.5305 117.902L52.9725 123.138V115.736H49.455V123.138L43.897 117.902L38.339 112.665H46.195V109.351H38.339L43.897 104.114L49.455 98.878V106.28H52.9725V98.878L58.5305 104.114L64.0886 109.351H56.2323V112.665H64.0886ZM70.0923 99.607H66.5745V107.009L61.0164 101.772L55.4584 96.536H63.3147V93.221H55.4584L61.0164 87.985L66.5745 82.748V90.15H70.0923V82.748L75.6504 87.985L81.2084 93.221H73.3521V96.536H81.2084L75.6504 101.772L70.0923 107.009V99.607ZM92.7702 117.902L87.2121 123.138V115.736H83.6943V123.138L78.1363 117.902L72.5782 112.665H80.4345V109.351H72.5782L78.1363 104.114L83.6943 98.878V106.28H87.2121V98.878L92.7702 104.114L98.3283 109.351H90.4719V112.665H98.3283L92.7702 117.902ZM104.332 99.607H100.814V107.009L95.2561 101.772L89.698 96.536H97.5543V93.221H89.698L95.2561 87.985L100.814 82.748V90.15H104.332V82.748L109.89 87.985L115.448 93.221H107.592V96.536H115.448L109.89 101.772L104.332 107.009V99.607ZM124.712 112.665H132.568L127.01 117.902L121.452 123.138V115.736H117.934V123.138L112.376 117.902L106.818 112.665H114.674V109.351H106.818L112.376 104.114L117.934 98.878V106.28H121.452V98.878L127.01 104.114L132.568 109.351H124.712V112.665ZM135.077 99.607V107.009L129.519 101.772L123.961 96.536H131.817V93.221H123.961L129.519 87.985L135.077 82.748V90.15H138.595V82.748L144.153 87.985L149.711 93.221H141.855V96.536H149.711L144.153 101.772L138.595 107.009V99.607H135.077ZM161.273 117.902L155.715 123.138V115.736H152.197V123.138L146.639 117.902L141.081 112.665H148.937V109.351H141.081L146.639 104.114L152.197 98.878V106.28H155.715V98.878L161.273 104.114L166.831 109.351H158.975V112.665H166.831L161.273 117.902ZM169.317 99.607V107.009L163.759 101.772L158.201 96.536H166.057V93.221H158.201L163.759 87.985L169.317 82.748V90.15H172.835V82.748L178.393 87.985L183.951 93.221H176.094V96.536H183.951L178.393 101.772L172.835 107.009V99.607H169.317ZM193.214 112.665H201.071L195.513 117.902L189.954 123.138V115.736H186.437V123.138L180.879 117.902L175.321 112.665H183.177V109.351H175.321L180.879 104.114L186.437 98.878V106.28H189.954V98.878L195.513 104.114L201.071 109.351H193.214V112.665ZM207.098 107.009V99.607H203.58V107.009L198.022 101.772L192.464 96.536H200.32V93.221H192.464L198.022 87.985L203.58 82.748V90.15H207.098V82.748L212.656 87.985L218.214 93.221H210.358V96.536H218.214L212.656 101.772L207.098 107.009ZM229.776 117.902L224.218 123.138V115.736H220.7V123.138L215.142 117.902L209.584 112.665H217.44V109.351H209.584L215.142 104.114L220.7 98.878V106.28H224.218V98.878L229.776 104.114L235.334 109.351H227.477V112.665H235.334L229.776 117.902Z" fill="#FECD05"></path>
    </g>
  </g>
  <defs>
    <clipPath id="clip0_854_403">
      <rect width="206" height="125" fill="white"></rect>
    </clipPath>
  </defs>
</svg>
